<svg width="52" height="51" viewBox="0 0 52 51" fill="none" xmlns="http://www.w3.org/2000/svg">
<path d="M11.0907 37.9357H7.26584C6.86761 37.9357 6.55273 37.6115 6.55273 37.2226V23.8496C6.55273 23.4514 6.87687 23.1365 7.26584 23.1365H11.0907C11.4889 23.1365 11.8038 23.4606 11.8038 23.8496V37.2226C11.8038 37.6208 11.4796 37.9357 11.0907 37.9357ZM7.97894 36.5095H10.3776V24.5719H7.97894V36.5095Z" fill="#3EA8BD"/>
<path d="M19.5535 37.9357H15.7287C15.3305 37.9357 15.0156 37.6115 15.0156 37.2226V23.8496C15.0156 23.4514 15.3398 23.1365 15.7287 23.1365H19.5535C19.9518 23.1365 20.2667 23.4606 20.2667 23.8496V37.2226C20.2667 37.6208 19.9425 37.9357 19.5535 37.9357ZM16.4418 36.5095H18.8404V24.5719H16.4418V36.5095Z" fill="#3EA8BD"/>
<path d="M35.8192 37.9357H31.9944C31.5961 37.9357 31.2812 37.6115 31.2812 37.2226V23.8496C31.2812 23.4514 31.6054 23.1365 31.9944 23.1365H35.8192C36.2174 23.1365 36.5323 23.4606 36.5323 23.8496V37.2226C36.5323 37.6208 36.2081 37.9357 35.8192 37.9357ZM32.6982 36.5095H35.0968V24.5719H32.6982V36.5095Z" fill="#3EA8BD"/>
<path d="M44.2703 37.9357H40.4455C40.0473 37.9357 39.7324 37.6115 39.7324 37.2226V23.8496C39.7324 23.4514 40.0566 23.1365 40.4455 23.1365H44.2703C44.6686 23.1365 44.9834 23.4606 44.9834 23.8496V37.2226C44.9834 37.6208 44.6593 37.9357 44.2703 37.9357ZM41.1586 36.5095H43.5572V24.5719H41.1586V36.5095Z" fill="#3EA8BD"/>
<path d="M44.2672 41.3398H7.25998C6.86175 41.3398 6.54688 41.0156 6.54688 40.6267C6.54688 40.2377 6.87101 39.9136 7.25998 39.9136H44.2672C44.6654 39.9136 44.9803 40.2377 44.9803 40.6267C44.9803 41.0156 44.6562 41.3398 44.2672 41.3398Z" fill="#3EA8BD"/>
<path d="M47.2898 45.7734H4.24435C3.84613 45.7734 3.53125 45.4492 3.53125 45.0603C3.53125 44.6713 3.85539 44.3472 4.24435 44.3472H47.2991C47.6973 44.3472 48.0122 44.6713 48.0122 45.0603C48.0122 45.4492 47.688 45.7734 47.2991 45.7734H47.2898Z" fill="#3EA8BD"/>
<path d="M50.3153 50.2223H1.2131C0.824137 50.2223 0.5 49.9075 0.5 49.5092C0.5 49.111 0.824137 48.7961 1.2131 48.7961H50.306C50.7043 48.7961 51.0191 49.1203 51.0191 49.5092C51.0191 49.8982 50.695 50.2223 50.306 50.2223H50.3153Z" fill="#3EA8BD"/>
<path d="M13.2334 21.122H7.25998C6.86175 21.122 6.54688 20.7979 6.54688 20.4089V14.9819C6.54688 14.5837 6.87101 14.2688 7.25998 14.2688H13.2334C13.6316 14.2688 13.9465 14.5929 13.9465 14.9819C13.9465 15.3709 13.6223 15.695 13.2334 15.695H7.97308V19.6958H13.2334C13.6316 19.6958 13.9465 20.0199 13.9465 20.4089C13.9465 20.7979 13.6223 21.122 13.2334 21.122Z" fill="#3EA8BD"/>
<path d="M44.2705 21.122H38.2971C37.8989 21.122 37.584 20.7979 37.584 20.4089C37.584 20.0199 37.9081 19.6958 38.2971 19.6958H43.5574V15.695H38.2971C37.8989 15.695 37.584 15.3709 37.584 14.9819C37.584 14.5929 37.9081 14.2688 38.2971 14.2688H44.2705C44.6687 14.2688 44.9836 14.5929 44.9836 14.9819V20.4089C44.9836 20.8071 44.6594 21.122 44.2705 21.122Z" fill="#3EA8BD"/>
<path d="M35.8043 21.1229H15.717C15.3188 21.1229 15.0039 20.7987 15.0039 20.4098V12.4174C15.0039 12.0192 15.328 11.7043 15.717 11.7043H35.8043C36.2025 11.7043 36.5174 12.0285 36.5174 12.4174V20.4098C36.5174 20.808 36.1932 21.1229 35.8043 21.1229ZM16.4394 19.6874H35.1004V13.1213H16.4394V19.6874Z" fill="#3EA8BD"/>
<path d="M50.3072 15.0289C50.1961 15.0289 50.0757 15.0012 49.9645 14.9456L25.7654 1.90601L1.55692 14.9456C1.205 15.1308 0.778994 15.0012 0.584512 14.6585C0.399291 14.3066 0.528946 13.8806 0.871605 13.6861L25.4227 0.461279C25.6357 0.350146 25.8858 0.350146 26.0988 0.461279L50.6499 13.6861C51.0018 13.8713 51.1314 14.3066 50.9369 14.6585C50.8073 14.8993 50.5572 15.0382 50.3072 15.0382V15.0289Z" fill="#3EA8BD"/>
</svg>
