<svg width="319" height="212" viewBox="0 0 319 212" fill="none" xmlns="http://www.w3.org/2000/svg">
<path d="M115.399 77.2963L141.169 54.0963C141.169 54.0963 140.809 48.2163 127.259 52.7863C113.709 57.3563 76.6992 70.3063 76.6992 70.3063L79.2492 83.3463L115.409 77.3063L115.399 77.2963Z" fill="#5479F7"/>
<path d="M42.7282 160.937C42.1582 160.937 41.6482 160.637 41.3982 160.147C41.1482 159.667 41.1882 159.117 41.5082 158.677L42.9082 156.747C30.8282 159.297 18.4482 160.377 6.09819 159.957C3.86819 159.887 1.39819 159.617 0.368188 157.397C0.0581875 156.737 -0.0518125 155.967 0.0381875 155.167C0.248187 153.297 1.35819 151.787 2.56819 150.267C9.95819 141.067 18.8182 132.927 27.4282 125.057L22.0882 125.637C21.6082 125.687 21.1582 125.447 20.9482 125.027C20.7382 124.617 20.7982 124.147 21.1082 123.807C26.9882 117.287 36.8382 110.277 47.4482 105.067C47.5682 105.007 47.7082 105.047 47.7782 105.167L75.2482 149.727C75.3182 149.837 75.2882 149.987 75.1782 150.067C65.9582 156.907 54.4382 160.767 42.7482 160.937H42.7282ZM43.4982 156.097C43.5882 156.097 43.6682 156.137 43.7082 156.217C43.7682 156.307 43.7682 156.417 43.7082 156.507L41.9282 158.977C41.7282 159.257 41.6982 159.607 41.8582 159.907C42.0282 160.237 42.3682 160.427 42.7482 160.427C54.2482 160.257 65.5782 156.487 74.6882 149.797L47.4682 105.637C36.9882 110.807 27.2882 117.717 21.4882 124.157C21.3182 124.347 21.2882 124.587 21.3982 124.807C21.4882 124.987 21.7082 125.177 22.0282 125.137L28.1482 124.477C28.2582 124.467 28.3582 124.527 28.4082 124.627C28.4582 124.727 28.4282 124.847 28.3482 124.917C19.5682 132.937 10.4982 141.217 2.96819 150.597C1.75819 152.107 0.738187 153.497 0.548187 155.227C0.468188 155.927 0.568187 156.607 0.838187 157.177C1.74819 159.137 4.03819 159.377 6.11819 159.447C18.6582 159.867 31.2182 158.747 43.4582 156.107C43.4782 156.107 43.4982 156.107 43.5082 156.107L43.4982 156.097Z" fill="black"/>
<path d="M35.1297 127.408C35.0497 127.408 34.9696 127.368 34.9196 127.298C34.8396 127.178 34.8697 127.018 34.9897 126.948L45.6696 119.818C45.7896 119.738 45.9497 119.768 46.0197 119.888C46.0997 120.008 46.0697 120.168 45.9497 120.238L35.2697 127.368C35.2697 127.368 35.1797 127.408 35.1297 127.408Z" fill="black"/>
<path d="M15.1983 152.406C15.1183 152.406 15.0483 152.376 14.9983 152.306C14.9083 152.196 14.9383 152.036 15.0483 151.946C25.9183 143.636 37.3783 135.846 49.1083 128.796C49.2283 128.726 49.3883 128.766 49.4583 128.886C49.5283 129.006 49.4883 129.166 49.3683 129.236C37.6583 136.276 26.2083 144.056 15.3583 152.356C15.3083 152.396 15.2583 152.406 15.2083 152.406H15.1983Z" fill="black"/>
<path d="M46.5396 144.007C46.4496 144.007 46.3696 143.957 46.3196 143.877C46.2496 143.757 46.2896 143.597 46.4096 143.527L55.7196 138.097C55.8396 138.027 55.9996 138.067 56.0696 138.187C56.1396 138.307 56.0996 138.467 55.9796 138.537L46.6696 143.967C46.6696 143.967 46.5896 143.997 46.5396 143.997V144.007Z" fill="black"/>
<path d="M75.0178 145.485L77.5478 165.635C77.7478 167.195 79.5278 167.985 80.7978 167.075C89.5278 160.825 115.368 140.405 114.098 118.695L75.0078 145.485H75.0178Z" fill="white"/>
<path d="M79.6071 167.716C79.2971 167.716 78.9771 167.656 78.6771 167.516C77.9171 167.186 77.3971 166.496 77.2971 165.666L74.7671 145.516C74.7571 145.426 74.7971 145.326 74.8771 145.276L113.967 118.486C114.047 118.436 114.137 118.426 114.227 118.466C114.307 118.506 114.367 118.586 114.367 118.676C114.917 128.046 110.547 138.196 101.397 148.836C94.0171 157.416 85.4271 164.066 80.9571 167.266C80.5571 167.556 80.0871 167.706 79.6171 167.706L79.6071 167.716ZM75.2971 145.606L77.8071 165.606C77.8871 166.256 78.2871 166.796 78.8871 167.056C79.4771 167.316 80.1371 167.246 80.6571 166.866C85.1071 163.676 93.6671 157.056 101.007 148.516C109.917 138.146 114.247 128.276 113.877 119.166L75.2971 145.606Z" fill="black"/>
<path d="M50.7292 107.284L33.5992 96.5245C32.2692 95.6945 32.3092 93.7345 33.6692 92.9545C42.9692 87.6045 72.2292 72.5645 91.2892 82.8145L50.7292 107.284Z" fill="white"/>
<path d="M50.7279 107.545C50.7279 107.545 50.6379 107.535 50.5879 107.505L33.4579 96.7452C32.7579 96.3052 32.3479 95.5452 32.3679 94.7152C32.3879 93.8852 32.8179 93.1452 33.5379 92.7352C38.2979 89.9952 47.9079 84.9352 58.7479 81.7952C72.1879 77.8952 83.1779 78.1652 91.4079 82.5952C91.4879 82.6352 91.5379 82.7252 91.5379 82.8152C91.5379 82.9052 91.4979 82.9952 91.4179 83.0452L50.8579 107.515C50.8579 107.515 50.7679 107.555 50.7279 107.555V107.545ZM75.9679 79.5652C70.8279 79.5652 65.1279 80.4652 58.8879 82.2752C48.1079 85.4052 38.5379 90.4452 33.7979 93.1752C33.2379 93.4952 32.8979 94.0752 32.8879 94.7252C32.8779 95.3752 33.1979 95.9652 33.7379 96.3152L50.7379 106.985L90.7779 82.8252C86.5579 80.6452 81.6079 79.5652 75.9779 79.5652H75.9679Z" fill="black"/>
<path d="M185.9 47.2267V47.2067C151.21 37.0267 68.6502 89.3767 49.1102 102.227C46.4802 103.957 45.1602 107.127 45.7802 110.227C49.0302 126.237 57.2002 139.077 70.2902 148.757C72.8202 150.627 76.2402 150.747 78.9102 149.077C98.7002 136.627 180.55 83.1567 185.89 47.2267H185.9Z" fill="white"/>
<path d="M74.8283 150.526C73.1783 150.526 71.5383 150.006 70.1383 148.976C57.0583 139.306 48.7783 126.296 45.5283 110.286C44.8783 107.066 46.2283 103.826 48.9683 102.016C58.6883 95.6156 84.2683 79.2856 111.708 65.8456C146.188 48.9656 171.168 42.6156 185.958 46.9556C186.018 46.9756 186.068 47.0156 186.098 47.0656V47.0856C186.148 47.1356 186.158 47.1956 186.148 47.2556C183.868 62.5856 167.668 82.7356 137.988 107.146C114.368 126.576 88.8983 143.086 79.0483 149.286C77.7483 150.106 76.2883 150.516 74.8283 150.516V150.526ZM175.748 46.1656C169.268 46.1656 161.558 47.4256 152.698 49.9456C141.058 53.2556 127.338 58.7656 111.928 66.3056C84.5183 79.7256 58.9683 96.0456 49.2483 102.436C46.6883 104.126 45.4183 107.166 46.0283 110.176C49.2483 126.046 57.4583 138.956 70.4383 148.556C72.8983 150.376 76.1683 150.496 78.7683 148.866C88.6083 142.676 114.058 126.176 137.648 106.766C150.918 95.8556 161.638 85.6356 169.508 76.3856C178.908 65.3456 184.328 55.5856 185.608 47.3956C182.728 46.5756 179.438 46.1656 175.738 46.1656H175.748Z" fill="black"/>
<path d="M75.0178 133.368C83.998 133.368 91.2778 126.048 91.2778 117.018C91.2778 107.988 83.998 100.668 75.0178 100.668C66.0377 100.668 58.7578 107.988 58.7578 117.018C58.7578 126.048 66.0377 133.368 75.0178 133.368Z" fill="white"/>
<path d="M75.0463 133.626C73.8663 133.626 72.6763 133.496 71.4863 133.236C67.1663 132.286 63.4763 129.706 61.0963 125.956C56.1863 118.246 58.4363 107.956 66.1063 103.016C69.8163 100.626 74.2263 99.8363 78.5263 100.776C82.8463 101.726 86.5363 104.306 88.9163 108.056C93.8263 115.766 91.5763 126.056 83.9063 130.996C81.2163 132.726 78.1563 133.616 75.0363 133.616L75.0463 133.626ZM74.9863 100.906C71.9663 100.906 68.9963 101.776 66.3963 103.446C58.9663 108.226 56.7863 118.206 61.5363 125.686C63.8463 129.316 67.4163 131.816 71.6063 132.736C75.7763 133.656 80.0463 132.886 83.6463 130.566C91.0763 125.786 93.2563 115.806 88.5063 108.326C86.1963 104.696 82.6263 102.196 78.4363 101.276C77.2863 101.026 76.1363 100.896 74.9963 100.896L74.9863 100.906Z" fill="black"/>
<path d="M75.0173 128.319C81.225 128.319 86.2573 123.26 86.2573 117.019C86.2573 110.778 81.225 105.719 75.0173 105.719C68.8097 105.719 63.7773 110.778 63.7773 117.019C63.7773 123.26 68.8097 128.319 75.0173 128.319Z" fill="white"/>
<path d="M75.0373 128.577C74.2173 128.577 73.3873 128.487 72.5673 128.307C69.5673 127.647 66.9973 125.847 65.3373 123.247C61.9273 117.877 63.4873 110.717 68.8273 107.287C71.4073 105.627 74.4773 105.077 77.4673 105.727C80.4673 106.387 83.0373 108.187 84.6973 110.787C88.1073 116.157 86.5473 123.317 81.2073 126.747C79.3373 127.947 77.2073 128.577 75.0373 128.577ZM74.9973 105.967C72.9273 105.967 70.8873 106.557 69.0973 107.707C63.9973 110.987 62.4973 117.837 65.7673 122.967C67.3473 125.457 69.8073 127.177 72.6773 127.807C75.5373 128.437 78.4673 127.907 80.9373 126.317C86.0373 123.037 87.5273 116.187 84.2673 111.057C82.6873 108.567 80.2273 106.847 77.3573 106.217C76.5673 106.047 75.7773 105.957 74.9973 105.957V105.967Z" fill="black"/>
<path d="M163.316 79.8275C163.266 79.8275 163.206 79.8075 163.166 79.7775C154.756 73.3375 148.616 63.6875 146.326 53.3175C146.296 53.1775 146.386 53.0475 146.516 53.0175C146.656 52.9875 146.786 53.0775 146.816 53.2075C149.086 63.4675 155.156 73.0075 163.466 79.3775C163.576 79.4675 163.596 79.6275 163.516 79.7375C163.466 79.8075 163.386 79.8375 163.316 79.8375V79.8275Z" fill="black"/>
<path d="M106.449 97.3359C103.269 100.806 100.699 103.826 100.059 105.186C98.0987 109.366 98.9687 131.346 100.859 136.696C100.859 136.696 105.059 132.426 110.949 126.166C111.709 121.466 112.369 114.336 111.709 111.306C110.019 103.556 108.799 101.576 106.449 97.3359Z" fill="white"/>
<path d="M100.868 136.946C100.868 136.946 100.828 136.946 100.808 136.946C100.718 136.926 100.648 136.866 100.618 136.786C98.7176 131.406 97.8476 109.296 99.8276 105.086C100.408 103.856 102.568 101.196 106.258 97.1756C106.318 97.1156 106.398 97.0856 106.478 97.0956C106.558 97.0956 106.628 97.1556 106.668 97.2256L106.968 97.7656C109.138 101.666 110.328 103.816 111.958 111.266C112.658 114.476 111.888 121.966 111.198 126.226C111.198 126.276 111.168 126.326 111.128 126.356C105.308 132.546 101.078 136.846 101.038 136.886C100.988 136.936 100.928 136.966 100.858 136.966L100.868 136.946ZM106.398 97.7656C102.888 101.606 100.838 104.136 100.298 105.286C98.3876 109.336 99.1876 130.276 100.978 136.206C102.028 135.126 105.798 131.266 110.718 126.036C111.548 120.836 112.078 114.146 111.468 111.346C109.858 103.966 108.678 101.846 106.528 97.9856L106.398 97.7556V97.7656Z" fill="black"/>
<path d="M125.609 62.3473C103.669 67.9073 86.1292 73.8373 86.1292 73.8373L83.2892 68.0073L74.2792 72.3373C74.2792 72.3373 70.5792 94.0573 86.1292 92.3473C101.679 90.6373 122.299 81.0273 122.299 81.0273C122.299 81.0273 113.069 90.1373 106.459 97.3473C106.289 103.757 106.729 115.347 110.959 126.177C123.149 113.237 142.569 91.7973 147.019 82.1473C153.609 67.8373 147.549 56.7973 125.609 62.3573V62.3473Z" fill="#5479F7"/>
<path d="M123.491 80.6382C123.411 80.6382 123.341 80.6082 123.291 80.5382C123.201 80.4282 123.221 80.2682 123.331 80.1782L127.441 76.9082C127.551 76.8182 127.711 76.8382 127.801 76.9482C127.891 77.0582 127.871 77.2182 127.761 77.3082L123.651 80.5782C123.651 80.5782 123.551 80.6382 123.491 80.6382Z" fill="black"/>
<path d="M100.12 11.928C99.5901 10.048 97.7801 8.70798 95.8701 8.34798C93.9601 7.98798 91.97 8.46798 90.2 9.26798C88.43 10.068 86.81 11.178 85.13 12.178C81.93 14.068 78.48 15.528 74.9001 16.498C67.5701 18.488 59.7501 18.448 52.5801 20.978C49.5501 22.048 46.37 23.938 45.62 27.088C45.15 29.058 45.78 31.208 47.07 32.768C48.36 34.328 50.24 35.328 52.21 35.768C52.56 37.668 53.98 39.238 55.67 40.178C57.36 41.108 59.2901 41.478 61.2001 41.718C69.3601 42.738 77.97 41.448 84.99 37.128C88.53 34.958 91.59 31.988 93.8601 28.498C94.9901 26.768 95.9201 24.898 96.6101 22.948C97.2601 21.108 97.2601 19.048 97.9101 17.258C98.2401 16.368 99.09 15.948 99.59 15.168C100.2 14.228 100.42 13.008 100.12 11.918V11.928Z" fill="black"/>
<path d="M140.17 8.45633C144.81 6.29633 152.97 1.70633 157.92 0.43633C158.36 0.32633 158.81 0.22633 159.25 0.32633C159.69 0.42633 160.1 0.78633 160.12 1.23633C160.14 1.69633 159.77 2.06633 159.41 2.34633C158.29 3.23633 156.8 4.05633 155.42 4.44633C155.42 4.44633 157.23 5.33633 156.57 7.10633C156.57 7.10633 157.63 7.66633 156.44 9.67633C156.44 9.67633 156.54 11.5763 154.73 12.0463C153.43 12.3863 152.8 11.8863 152.8 11.8863C152.8 11.8863 141.48 18.4563 138.61 19.2763C135.75 20.0963 137.67 9.62633 140.17 8.46633V8.45633Z" fill="white"/>
<path d="M140.241 18.907C140.141 18.907 140.051 18.847 140.011 18.757C139.951 18.627 140.011 18.477 140.141 18.417C142.921 17.167 152.591 11.717 152.691 11.657C152.781 11.607 152.891 11.617 152.971 11.677C152.991 11.687 153.541 12.087 154.681 11.787C156.271 11.377 156.201 9.74701 156.201 9.67701C156.201 9.62701 156.201 9.57701 156.241 9.53701C156.791 8.59701 156.811 8.03701 156.731 7.72701C156.651 7.43701 156.471 7.32701 156.461 7.31701C156.351 7.25701 156.301 7.11701 156.341 7.00701C156.911 5.48701 155.391 4.69701 155.321 4.66701C155.231 4.61701 155.171 4.51701 155.181 4.41701C155.191 4.30701 155.261 4.22701 155.371 4.19701C156.641 3.84701 158.101 3.07701 159.271 2.14701C159.701 1.80701 159.891 1.51701 159.881 1.23701C159.871 0.897011 159.521 0.637011 159.211 0.567011C158.831 0.477011 158.421 0.567011 158.001 0.677011C154.431 1.58701 148.701 4.47701 144.101 6.79701C142.691 7.50701 141.361 8.17701 140.301 8.68701C140.171 8.74701 140.021 8.68701 139.961 8.56701C139.901 8.43701 139.961 8.28701 140.081 8.22701C141.141 7.71701 142.471 7.05701 143.881 6.34701C148.511 4.01701 154.261 1.11701 157.891 0.197011C158.361 0.0770111 158.851 -0.0329889 159.341 0.0870111C159.851 0.207011 160.391 0.637011 160.411 1.23701C160.431 1.83701 159.961 2.27701 159.611 2.55701C158.551 3.40701 157.251 4.11701 156.051 4.53701C156.651 5.01701 157.241 5.87701 156.901 7.02701C157.011 7.13701 157.151 7.31701 157.231 7.58701C157.391 8.15701 157.231 8.88701 156.721 9.74701C156.721 10.147 156.581 11.837 154.821 12.297C153.771 12.567 153.101 12.337 152.821 12.187C151.651 12.847 142.991 17.717 140.361 18.897C140.331 18.917 140.291 18.917 140.261 18.917L140.241 18.907Z" fill="black"/>
<path d="M152.789 10.5668C152.279 10.5668 151.809 10.3568 151.549 9.98684C151.359 9.71684 151.299 9.33684 151.389 8.99684C151.469 8.69684 151.669 8.46684 151.929 8.35684C152.059 8.30684 152.209 8.35684 152.259 8.49684C152.309 8.62684 152.259 8.77684 152.119 8.82684C151.959 8.89684 151.899 9.04684 151.869 9.13684C151.819 9.32684 151.849 9.54684 151.949 9.69684C152.179 10.0268 152.649 10.1068 153.009 10.0468C153.409 9.97684 153.779 9.76684 154.209 9.45684C154.709 9.10684 155.329 8.62684 155.769 7.99684C155.919 7.77684 156.049 7.54684 156.139 7.30684C156.189 7.17684 156.339 7.10684 156.469 7.15684C156.599 7.20684 156.669 7.35684 156.619 7.48684C156.509 7.76684 156.369 8.02684 156.189 8.28684C155.699 8.98684 155.029 9.50684 154.499 9.87684C154.079 10.1668 153.619 10.4568 153.089 10.5468C152.979 10.5668 152.879 10.5768 152.769 10.5768L152.789 10.5668Z" fill="black"/>
<path d="M153.89 8.5588C153.82 8.5588 153.76 8.5588 153.69 8.5388C153.35 8.4788 153.08 8.2888 152.83 8.1088C152.62 7.9588 152.43 7.8288 152.22 7.7788C151.85 7.6888 151.43 7.8588 151.11 8.0288L150.94 8.1188C150.58 8.3088 150.2 8.5088 149.77 8.5388C149.22 8.5888 148.56 8.2688 148.46 7.6688C148.44 7.5288 148.53 7.3988 148.67 7.3788C148.81 7.3588 148.94 7.4488 148.96 7.5888C149.01 7.8888 149.4 8.0588 149.72 8.0388C150.05 8.0088 150.36 7.8488 150.7 7.6688L150.87 7.5788C151.27 7.3688 151.8 7.1588 152.34 7.2888C152.64 7.3688 152.88 7.5388 153.12 7.6988C153.34 7.8588 153.55 7.9988 153.77 8.0388C153.97 8.0788 154.19 8.0088 154.38 7.8488C154.63 7.6388 154.79 7.2988 154.79 6.9888C154.79 6.2588 154.22 5.6788 153.88 5.3988C153.25 4.8688 152.49 4.5288 151.67 4.4188C151.53 4.3988 151.43 4.2688 151.45 4.1288C151.47 3.9888 151.6 3.8888 151.74 3.9088C152.64 4.0388 153.5 4.4188 154.2 5.0088C154.61 5.3488 155.29 6.0588 155.29 6.9888C155.29 7.4488 155.06 7.9288 154.7 8.2388C154.45 8.4488 154.16 8.5588 153.87 8.5588H153.89Z" fill="black"/>
<path d="M153.089 11.6583C152.689 11.6583 152.329 11.5383 152.069 11.3083C151.749 11.0283 151.599 10.5883 151.699 10.2083C151.739 10.0683 151.879 9.98833 152.009 10.0283C152.149 10.0683 152.229 10.2083 152.189 10.3383C152.139 10.5283 152.219 10.7683 152.399 10.9183C152.569 11.0683 152.829 11.1483 153.099 11.1383C153.389 11.1383 153.679 11.0483 153.929 10.9683C154.779 10.6883 155.409 10.3183 155.869 9.84833C155.969 9.74833 156.129 9.73833 156.229 9.84833C156.329 9.94833 156.339 10.1083 156.229 10.2083C155.719 10.7483 155.009 11.1583 154.089 11.4683C153.799 11.5683 153.459 11.6583 153.099 11.6683H153.079L153.089 11.6583Z" fill="black"/>
<path d="M152.781 12.0352C152.691 12.0352 152.601 11.9852 152.551 11.8952C152.471 11.7452 152.421 11.5852 152.411 11.4152C152.401 11.2752 152.501 11.1452 152.641 11.1352C152.781 11.1152 152.911 11.2252 152.921 11.3652C152.931 11.4652 152.961 11.5752 153.011 11.6652C153.071 11.7952 153.031 11.9452 152.901 12.0052C152.861 12.0252 152.821 12.0352 152.781 12.0352Z" fill="black"/>
<path d="M109.449 37.1653L107.189 56.3253C106.919 58.6053 105.449 60.5653 103.349 61.4453L72.1785 74.5753L74.7785 55.8653L62.2985 62.4653L60.8685 76.0953C60.7785 76.9953 61.2785 77.8453 62.1085 78.1953C63.1585 78.6353 64.5485 79.2053 65.3585 79.5053C66.7785 80.0353 67.0885 82.4853 64.0485 82.1253C60.9985 81.7653 60.6085 81.7553 59.3785 82.0153C59.3785 82.0153 55.0185 83.9453 52.5685 87.4653C51.1585 89.4853 51.1785 91.1553 47.3085 91.0053C47.3085 91.0053 44.0685 92.9953 44.3985 89.4153C44.3985 89.4153 39.6385 87.8353 50.6485 81.9653C50.6485 81.9653 47.5385 64.9353 53.0485 55.6953C58.8885 45.9153 88.2885 32.9353 88.2885 32.9353L140.189 8.44531C139.079 12.1853 138.809 15.6653 140.249 18.6453L109.459 37.1653H109.449Z" fill="white"/>
<path d="M45.599 91.8165C45.329 91.8165 45.059 91.7565 44.819 91.6165C44.289 91.2865 44.059 90.6065 44.119 89.5865C43.799 89.4365 43.179 89.0365 43.119 88.2665C42.979 86.6565 45.419 84.4965 50.359 81.8365C50.049 79.9565 47.639 64.2765 52.829 55.5765C58.639 45.8365 86.979 33.2465 88.179 32.7165L140.069 8.22652C140.159 8.18652 140.269 8.19652 140.349 8.26652C140.429 8.33652 140.459 8.43652 140.429 8.53652C139.189 12.7265 139.199 15.9065 140.479 18.5465C140.539 18.6665 140.489 18.8065 140.379 18.8765L109.699 37.3265L107.459 56.3665C107.179 58.7365 105.649 60.7765 103.469 61.6965C103.339 61.7465 103.189 61.6965 103.139 61.5565C103.089 61.4265 103.139 61.2765 103.279 61.2265C105.299 60.3765 106.709 58.4965 106.959 56.3065L109.219 37.1465C109.219 37.0665 109.269 36.9965 109.339 36.9565L139.929 18.5565C138.759 15.9865 138.719 12.8365 139.789 8.92652L88.399 33.1765C88.099 33.3065 58.999 46.2365 53.269 55.8365C47.869 64.8965 50.869 81.7565 50.899 81.9265C50.919 82.0365 50.869 82.1465 50.769 82.1965C44.409 85.5865 43.569 87.4265 43.639 88.2165C43.699 88.9065 44.479 89.1765 44.479 89.1765C44.589 89.2165 44.659 89.3265 44.649 89.4465C44.589 90.0765 44.619 90.8965 45.099 91.1865C45.689 91.5565 46.799 91.0365 47.179 90.7965C47.219 90.7665 47.269 90.7565 47.319 90.7565C50.269 90.8765 50.809 89.9265 51.639 88.4965C51.849 88.1265 52.079 87.7365 52.359 87.3265C54.819 83.7965 59.089 81.8665 59.269 81.7865C59.289 81.7865 59.299 81.7765 59.319 81.7665C60.589 81.4965 61.029 81.5065 64.079 81.8665C65.209 82.0065 65.979 81.7265 66.119 81.1265C66.249 80.5965 65.859 79.9565 65.269 79.7365C64.449 79.4365 63.049 78.8565 62.009 78.4265C61.079 78.0365 60.509 77.0665 60.609 76.0665L62.039 62.4365C62.039 62.3565 62.099 62.2765 62.169 62.2365L74.649 55.6365C74.739 55.5965 74.839 55.5965 74.919 55.6565C74.999 55.7165 75.039 55.8065 75.029 55.8965L72.499 74.1065L73.989 73.2965C74.109 73.2265 74.269 73.2765 74.339 73.3965C74.409 73.5165 74.359 73.6765 74.239 73.7465L72.309 74.7965C72.229 74.8465 72.119 74.8365 72.039 74.7865C71.959 74.7365 71.919 74.6365 71.929 74.5365L74.459 56.3165L62.539 62.6265L61.119 76.1265C61.039 76.9065 61.479 77.6665 62.209 77.9665C63.239 78.3965 64.639 78.9665 65.449 79.2665C66.279 79.5765 66.809 80.4665 66.619 81.2565C66.539 81.5865 66.119 82.6365 64.019 82.3865C61.039 82.0365 60.639 82.0165 59.459 82.2665C59.109 82.4265 55.059 84.3365 52.779 87.6165C52.509 88.0065 52.289 88.3865 52.079 88.7465C51.239 90.2065 50.569 91.3665 47.379 91.2665C47.139 91.3965 46.359 91.8165 45.609 91.8165H45.599Z" fill="black"/>
<path d="M50.1379 76.6875C50.0279 76.6875 49.9279 76.6175 49.8979 76.5075C49.8579 76.3775 49.9279 76.2275 50.0679 76.1875C53.6179 75.0875 57.2579 74.1175 60.8779 73.2875C61.0179 73.2575 61.1479 73.3375 61.1879 73.4775C61.2279 73.6175 61.1379 73.7475 60.9979 73.7875C57.3879 74.6075 53.7579 75.5775 50.2279 76.6775C50.2079 76.6775 50.1779 76.6875 50.1479 76.6875H50.1379Z" fill="black"/>
<path d="M54.7391 70.8186C54.4391 70.8186 54.1591 70.6986 53.9091 70.5986L53.8291 70.5586C52.6091 70.0586 51.2291 69.9386 49.9491 70.2386C49.8091 70.2686 49.6791 70.1886 49.6391 70.0486C49.6091 69.9086 49.6891 69.7786 49.8291 69.7386C51.2191 69.4186 52.6991 69.5386 54.0191 70.0786L54.1091 70.1186C54.3591 70.2286 54.5991 70.3286 54.8191 70.2986C55.0691 70.2686 55.2991 70.0686 55.5191 69.8786L55.5491 69.8586C57.2991 68.3586 59.4191 67.3286 61.6791 66.8886C61.8191 66.8586 61.9491 66.9486 61.9791 67.0886C62.0091 67.2286 61.9191 67.3586 61.7791 67.3886C59.6091 67.8086 57.5691 68.7986 55.8791 70.2486L55.8491 70.2686C55.5791 70.4986 55.2791 70.7586 54.8891 70.8086C54.8391 70.8086 54.7891 70.8086 54.7391 70.8086V70.8186Z" fill="black"/>
<path d="M134.041 22.7063C133.921 22.7063 133.811 22.6163 133.791 22.4963C133.471 20.5763 133.811 18.5963 134.731 16.8863C133.591 15.4663 132.831 13.6963 132.581 11.8863C132.561 11.7463 132.661 11.6163 132.801 11.5963C132.941 11.5763 133.071 11.6763 133.091 11.8163C133.331 13.5863 134.091 15.3163 135.231 16.6963C135.301 16.7763 135.311 16.8963 135.261 16.9863C134.341 18.5963 133.991 20.5763 134.291 22.4063C134.311 22.5463 134.221 22.6763 134.081 22.6963C134.071 22.6963 134.051 22.6963 134.041 22.6963V22.7063Z" fill="black"/>
<path d="M45.2371 89.246C45.1171 89.246 45.0071 89.156 44.9871 89.026C44.9671 88.886 45.0571 88.756 45.1971 88.736C45.8671 88.636 46.4971 88.306 47.1371 87.946C48.1771 87.366 49.2171 86.746 50.2171 86.136C53.1471 84.376 56.1771 82.556 59.5371 81.686C59.6771 81.656 59.8171 81.736 59.8471 81.866C59.8871 82.006 59.7971 82.146 59.6671 82.176C56.3771 83.026 53.3871 84.826 50.4871 86.566C49.4771 87.176 48.4371 87.796 47.3871 88.376C46.7071 88.756 46.0371 89.106 45.2771 89.216C45.2671 89.216 45.2471 89.216 45.2371 89.216V89.246Z" fill="black"/>
<path d="M47.4704 91.2059C47.4004 91.2059 47.3304 91.1759 47.2804 91.1159C47.1904 91.0059 47.2004 90.8459 47.3004 90.7559L52.2204 86.3859C52.3304 86.2959 52.4904 86.3059 52.5804 86.4059C52.6704 86.5159 52.6604 86.6759 52.5604 86.7659L47.6404 91.1359C47.6404 91.1359 47.5304 91.1959 47.4704 91.1959V91.2059Z" fill="black"/>
<path d="M75.2793 55.9087C75.1893 55.9087 75.0993 55.8587 75.0593 55.7787C74.9893 55.6587 75.0393 55.4987 75.1593 55.4287L79.3293 53.1687C79.4493 53.0987 79.6093 53.1487 79.6793 53.2687C79.7493 53.3887 79.6993 53.5487 79.5793 53.6187L75.4093 55.8787C75.4093 55.8787 75.3293 55.9087 75.2893 55.9087H75.2793Z" fill="black"/>
<path d="M89.2607 52.6086C88.7707 52.6086 88.3007 52.5685 87.8407 52.4985C85.5807 52.1485 83.6207 50.8385 82.7207 49.0685C82.6607 48.9385 82.7107 48.7885 82.8307 48.7285C82.9607 48.6685 83.1107 48.7185 83.1707 48.8385C83.9907 50.4585 85.8107 51.6686 87.9107 51.9886C89.6207 52.2486 91.5607 51.9885 93.8207 51.2085C93.9507 51.1585 94.1007 51.2285 94.1507 51.3685C94.2007 51.4985 94.1307 51.6485 93.9907 51.6885C92.2407 52.2985 90.6807 52.5985 89.2507 52.5985L89.2607 52.6086Z" fill="black"/>
<path d="M101.538 48.3982C101.428 48.3982 101.328 48.3282 101.288 48.2082C101.248 48.0682 101.328 47.9282 101.468 47.8982C103.438 47.3482 105.128 45.9082 105.998 44.0482C106.868 42.1882 106.888 39.9582 106.058 38.0782C105.998 37.9482 106.058 37.7982 106.188 37.7382C106.318 37.6782 106.468 37.7382 106.528 37.8682C107.418 39.8782 107.398 42.2682 106.468 44.2682C105.538 46.2582 103.718 47.8082 101.608 48.3982C101.588 48.3982 101.558 48.3982 101.538 48.3982Z" fill="black"/>
<path d="M90.4105 22.6602L88.2305 31.0802C88.2305 31.0802 91.1305 31.4102 92.4905 31.2302C93.8605 31.0502 94.8305 29.3602 94.8305 29.3602L96.2605 23.8802L90.4105 22.6602Z" fill="white"/>
<path d="M91.4205 31.5393C90.0105 31.5393 88.2905 31.3493 88.2005 31.3393C88.1305 31.3393 88.0605 31.2893 88.0205 31.2293C87.9805 31.1693 87.9605 31.0893 87.9805 31.0193L90.1605 22.5993C90.1905 22.4693 90.3305 22.3893 90.4605 22.4093L96.3105 23.6293C96.3805 23.6393 96.4405 23.6893 96.4805 23.7493C96.5205 23.8093 96.5305 23.8793 96.5105 23.9493L95.0805 29.4293C95.0805 29.4293 95.0705 29.4693 95.0505 29.4893C95.0105 29.5593 94.0005 31.2893 92.5205 31.4893C92.2105 31.5293 91.8305 31.5493 91.4205 31.5493V31.5393ZM88.5505 30.8593C89.3205 30.9393 91.3905 31.1193 92.4605 30.9793C93.6005 30.8293 94.4605 29.4693 94.5905 29.2593L95.9405 24.0793L90.6005 22.9593L88.5505 30.8593Z" fill="black"/>
<path d="M86.1507 33.518L86.9107 29.678L92.9907 30.528L95.8107 27.558L96.7207 28.558L102.491 25.918L94.2107 38.458C93.8207 39.038 93.1107 39.318 92.4407 39.158C89.8707 38.558 83.5507 37.448 80.6907 37.328C80.4707 37.328 80.4007 37.028 80.5907 36.918L86.1607 33.518H86.1507Z" fill="#E2EAFF"/>
<path d="M92.6404 34.9386C92.6404 34.9386 92.5704 34.9386 92.5404 34.9186C90.6504 34.1486 88.5804 33.8786 86.5504 34.1486C86.4104 34.1686 86.2804 34.0686 86.2604 33.9286C86.2404 33.7886 86.3404 33.6586 86.4804 33.6386C88.4804 33.3786 90.5304 33.6186 92.4204 34.3186L92.7904 31.4686C92.8104 31.3286 92.9404 31.2286 93.0804 31.2486C93.2204 31.2686 93.3204 31.3986 93.3004 31.5386L92.8904 34.7086C92.8904 34.7886 92.8304 34.8586 92.7704 34.8986C92.7304 34.9186 92.6904 34.9286 92.6404 34.9286V34.9386Z" fill="white"/>
<path d="M95.39 33.4399C95.33 33.4399 95.28 33.4199 95.23 33.3799C94.5 32.7899 93.83 32.0999 93.26 31.3499C93.17 31.2399 93.2 31.0799 93.31 30.9899C93.42 30.8999 93.58 30.9299 93.67 31.0399C94.14 31.6499 94.67 32.2199 95.25 32.7199C95.56 31.5799 95.96 30.4599 96.43 29.3799C96.49 29.2499 96.64 29.1899 96.77 29.2499C96.9 29.3099 96.96 29.4599 96.9 29.5899C96.39 30.7699 95.97 31.9999 95.64 33.2399C95.62 33.3199 95.56 33.3899 95.47 33.4199C95.44 33.4199 95.42 33.4299 95.39 33.4299V33.4399Z" fill="white"/>
<path d="M99.0397 19.2695C99.2097 20.5195 99.2797 21.8595 98.6997 22.9795C98.0597 24.2095 96.6797 24.9595 95.2997 24.9995C93.9197 25.0395 92.5697 24.4195 91.5597 23.4795C90.8597 23.6995 90.0797 23.7495 89.4097 23.4795C88.7297 23.1995 88.1897 22.5295 88.1797 21.7995C88.1797 21.0595 88.8097 20.3395 89.5397 20.3795C90.0297 20.4095 90.4497 20.7295 90.8197 21.0595C90.9397 21.1695 91.0797 21.2895 91.2497 21.2995C91.5197 21.3195 91.7297 21.0095 91.7297 20.7395C91.7297 20.4595 91.5897 20.2095 91.4897 19.9595C90.8197 18.3295 91.4897 16.3495 92.7797 15.1395C93.8197 14.1595 95.1797 13.6095 96.5597 13.3095C96.7597 13.2695 97.3597 13.0595 97.5397 13.1595C97.7397 13.2795 97.8497 13.9995 97.9097 14.2195C98.1497 15.0095 98.3697 15.8095 98.5497 16.6095C98.7497 17.4895 98.9197 18.3895 99.0497 19.2795L99.0397 19.2695Z" fill="white"/>
<path d="M95.1997 25.2487C93.9097 25.2487 92.5797 24.7087 91.4997 23.7487C90.7097 23.9687 89.9397 23.9487 89.3097 23.6887C88.4897 23.3487 87.9297 22.5787 87.9297 21.7687C87.9297 21.3187 88.1297 20.8487 88.4697 20.5187C88.7797 20.2187 89.1697 20.0687 89.5597 20.0887C90.1297 20.1187 90.5797 20.4687 90.9997 20.8387C91.0897 20.9187 91.1897 21.0087 91.2697 21.0187C91.3097 21.0187 91.3297 21.0087 91.3697 20.9787C91.4397 20.9187 91.4797 20.8087 91.4797 20.7187C91.4797 20.5487 91.3997 20.3687 91.3197 20.1787C91.2997 20.1287 91.2797 20.0787 91.2597 20.0387C90.5897 18.4187 91.1497 16.3187 92.6097 14.9387C93.5697 14.0287 94.8797 13.3987 96.5197 13.0487C96.5597 13.0487 96.6197 13.0187 96.6897 12.9987C97.1297 12.8787 97.4697 12.7987 97.6797 12.9187C97.9097 13.0487 98.0097 13.4087 98.1197 13.9087C98.1397 13.9987 98.1597 14.0787 98.1697 14.1287C98.4197 14.9487 98.6397 15.7587 98.8197 16.5387C99.0297 17.4487 99.1997 18.3587 99.3197 19.2387C99.4897 20.4787 99.5797 21.8987 98.9597 23.0987C98.2997 24.3687 96.8797 25.2187 95.3397 25.2587C95.2997 25.2587 95.2597 25.2587 95.2197 25.2587L95.1997 25.2487ZM91.5597 23.2187C91.6197 23.2187 91.6897 23.2387 91.7297 23.2887C92.7597 24.2487 94.0597 24.7787 95.2897 24.7487C96.6497 24.7187 97.8997 23.9787 98.4697 22.8687C99.0297 21.7987 98.9397 20.4687 98.7797 19.3087C98.6597 18.4487 98.4997 17.5587 98.2897 16.6587C98.1097 15.8887 97.8997 15.0887 97.6497 14.2887C97.6297 14.2287 97.6097 14.1387 97.5897 14.0287C97.5597 13.8787 97.4697 13.4887 97.3897 13.3787C97.2597 13.3687 96.9297 13.4687 96.7997 13.4987C96.7197 13.5187 96.6497 13.5387 96.5997 13.5487C95.0597 13.8787 93.8297 14.4687 92.9397 15.3087C91.6297 16.5487 91.1297 18.4087 91.7197 19.8387C91.7397 19.8787 91.7597 19.9287 91.7797 19.9787C91.8797 20.1987 91.9797 20.4487 91.9797 20.7287C91.9797 20.9687 91.8797 21.2087 91.7097 21.3687C91.5697 21.4987 91.3997 21.5587 91.2297 21.5487C90.9697 21.5287 90.7897 21.3587 90.6497 21.2387C90.3097 20.9287 89.9397 20.6387 89.5297 20.6187C89.2797 20.6087 89.0297 20.7087 88.8197 20.9087C88.5797 21.1387 88.4297 21.4687 88.4297 21.7887C88.4297 22.3787 88.8697 22.9787 89.4997 23.2387C90.0497 23.4687 90.7497 23.4687 91.4797 23.2387C91.5097 23.2387 91.5297 23.2287 91.5597 23.2287V23.2187Z" fill="black"/>
<path d="M90.8302 22.7303C90.8302 22.7303 90.8302 22.7303 90.8202 22.7303L89.7602 22.6903C89.6202 22.6903 89.5102 22.5703 89.5202 22.4203C89.5202 22.2803 89.6502 22.1703 89.7902 22.1803L90.8502 22.2203C90.9902 22.2203 91.1002 22.3403 91.0902 22.4903C91.0902 22.6303 90.9702 22.7303 90.8402 22.7303H90.8302Z" fill="black"/>
<path d="M102.707 182.93H63.3867V212H102.707V182.93Z" fill="#E2EAFF"/>
<path d="M155.226 151.621H115.906V212.001H155.226V151.621Z" fill="#E2EAFF"/>
<path d="M207.738 114.949H168.418V211.999H207.738V114.949Z" fill="#E2EAFF"/>
<path d="M234.689 85.0982C236.389 86.2582 238.709 85.8082 239.869 84.1082C239.959 83.9782 240.029 83.8482 240.099 83.7182C241.549 84.2482 243.039 84.5582 244.539 84.6382C244.549 84.7882 244.569 84.9382 244.599 85.0882C244.989 87.1082 246.939 88.4382 248.959 88.0482C250.979 87.6582 252.309 85.7082 251.919 83.6882C251.889 83.5382 251.849 83.3882 251.809 83.2482C253.169 82.6182 254.449 81.7782 255.599 80.7482C255.709 80.8482 255.829 80.9382 255.959 81.0282C257.659 82.1882 259.979 81.7382 261.139 80.0382C262.299 78.3382 261.849 76.0182 260.149 74.8582C260.019 74.7682 259.889 74.6982 259.759 74.6282C260.289 73.1782 260.599 71.6882 260.679 70.1882C260.829 70.1782 260.979 70.1582 261.129 70.1282C263.149 69.7382 264.479 67.7882 264.089 65.7682C263.699 63.7482 261.749 62.4182 259.729 62.8082C259.579 62.8382 259.429 62.8782 259.289 62.9182C258.659 61.5582 257.829 60.2782 256.799 59.1282C256.899 59.0182 256.989 58.8982 257.079 58.7682C258.239 57.0682 257.789 54.7482 256.089 53.5882C254.389 52.4282 252.069 52.8782 250.909 54.5782C250.819 54.7082 250.749 54.8382 250.679 54.9682C249.229 54.4382 247.739 54.1282 246.239 54.0482C246.229 53.8982 246.209 53.7482 246.179 53.5982C245.789 51.5782 243.839 50.2482 241.819 50.6382C239.799 51.0282 238.469 52.9782 238.859 54.9982C238.889 55.1482 238.929 55.2982 238.969 55.4382C237.609 56.0682 236.329 56.9082 235.179 57.9382C235.069 57.8382 234.949 57.7482 234.819 57.6582C233.119 56.4982 230.799 56.9482 229.639 58.6482C228.479 60.3482 228.929 62.6682 230.629 63.8282C230.759 63.9182 230.889 63.9882 231.019 64.0582C230.489 65.5082 230.179 66.9982 230.099 68.4982C229.949 68.5082 229.799 68.5282 229.649 68.5582C227.629 68.9482 226.299 70.8982 226.689 72.9182C227.079 74.9382 229.029 76.2682 231.049 75.8782C231.199 75.8482 231.349 75.8082 231.489 75.7682C232.119 77.1282 232.949 78.4082 233.979 79.5582C233.879 79.6682 233.789 79.7882 233.699 79.9182C232.539 81.6182 232.989 83.9382 234.689 85.0982ZM241.489 75.0682C238.329 72.9182 237.499 68.6182 239.649 65.4482C241.799 62.2882 246.099 61.4582 249.269 63.5982C252.429 65.7482 253.259 70.0482 251.109 73.2182C248.959 76.3782 244.659 77.2082 241.489 75.0682Z" fill="white"/>
<path d="M248.249 88.3563C247.459 88.3563 246.689 88.1263 246.019 87.6663C245.139 87.0663 244.539 86.1663 244.339 85.1163C244.319 85.0363 244.309 84.9463 244.299 84.8563C242.899 84.7663 241.529 84.4763 240.209 84.0163C240.159 84.0963 240.119 84.1663 240.069 84.2363C239.469 85.1163 238.569 85.7163 237.519 85.9163C236.479 86.1163 235.409 85.8963 234.529 85.3063C232.709 84.0763 232.239 81.5963 233.469 79.7763C233.519 79.7063 233.569 79.6363 233.619 79.5663C232.699 78.5163 231.929 77.3363 231.319 76.0763C231.229 76.0963 231.149 76.1163 231.069 76.1363C230.029 76.3363 228.959 76.1163 228.079 75.5263C227.199 74.9263 226.599 74.0263 226.399 72.9763C225.989 70.8163 227.409 68.7263 229.559 68.3163C229.639 68.2963 229.729 68.2863 229.819 68.2763C229.919 66.8763 230.199 65.5063 230.659 64.1863C230.579 64.1363 230.509 64.0963 230.439 64.0463C228.619 62.8163 228.149 60.3363 229.379 58.5163C230.609 56.6963 233.089 56.2263 234.909 57.4563C234.979 57.5063 235.049 57.5563 235.119 57.6063C236.179 56.6863 237.349 55.9163 238.609 55.3063C238.589 55.2163 238.569 55.1363 238.549 55.0563C238.139 52.8963 239.559 50.8063 241.709 50.3963C242.759 50.1963 243.819 50.4163 244.699 51.0063C245.579 51.6063 246.179 52.5063 246.379 53.5563C246.399 53.6363 246.409 53.7263 246.419 53.8163C247.819 53.9063 249.189 54.1963 250.509 54.6563C250.559 54.5763 250.599 54.5063 250.649 54.4363C251.249 53.5563 252.149 52.9563 253.199 52.7563C254.239 52.5563 255.309 52.7763 256.189 53.3663C257.069 53.9663 257.669 54.8663 257.869 55.9163C258.069 56.9563 257.849 58.0263 257.249 58.9063C257.199 58.9763 257.149 59.0463 257.099 59.1163C258.019 60.1763 258.789 61.3463 259.399 62.6063C259.489 62.5863 259.569 62.5663 259.649 62.5463C260.689 62.3463 261.759 62.5663 262.639 63.1563C263.519 63.7563 264.119 64.6563 264.319 65.7063C264.729 67.8663 263.309 69.9563 261.159 70.3663C261.079 70.3863 260.989 70.3963 260.899 70.4063C260.799 71.8063 260.519 73.1763 260.059 74.4963C260.139 74.5463 260.209 74.5863 260.279 74.6363C262.099 75.8663 262.569 78.3463 261.339 80.1663C260.109 81.9863 257.629 82.4563 255.809 81.2263C255.739 81.1763 255.669 81.1263 255.599 81.0763C254.539 81.9963 253.369 82.7663 252.109 83.3763C252.129 83.4663 252.149 83.5463 252.169 83.6263C252.579 85.7863 251.159 87.8763 249.009 88.2863C248.759 88.3363 248.499 88.3563 248.249 88.3563ZM240.099 83.4563C240.099 83.4563 240.159 83.4563 240.189 83.4763C241.599 83.9963 243.069 84.2963 244.559 84.3763C244.689 84.3763 244.789 84.4863 244.799 84.6163C244.809 84.7763 244.829 84.9063 244.849 85.0363C245.019 85.9463 245.539 86.7363 246.309 87.2563C247.079 87.7763 247.999 87.9663 248.909 87.7963C250.789 87.4363 252.029 85.6163 251.669 83.7263C251.649 83.6063 251.609 83.4663 251.559 83.3163C251.519 83.1963 251.579 83.0563 251.699 83.0063C253.059 82.3763 254.309 81.5563 255.429 80.5563C255.529 80.4663 255.669 80.4663 255.769 80.5563C255.889 80.6663 255.999 80.7463 256.099 80.8163C257.679 81.8863 259.849 81.4763 260.919 79.8863C261.989 78.3063 261.579 76.1363 259.999 75.0663C259.889 74.9963 259.779 74.9263 259.639 74.8563C259.529 74.7963 259.469 74.6663 259.519 74.5363C260.039 73.1263 260.339 71.6563 260.419 70.1663C260.419 70.0363 260.529 69.9363 260.659 69.9263C260.819 69.9163 260.949 69.8963 261.079 69.8763C262.959 69.5163 264.199 67.6963 263.839 65.8063C263.669 64.8963 263.149 64.1063 262.379 63.5863C261.609 63.0663 260.689 62.8763 259.779 63.0463C259.649 63.0663 259.519 63.1063 259.369 63.1563C259.249 63.1963 259.109 63.1363 259.059 63.0163C258.429 61.6563 257.609 60.4063 256.609 59.2863C256.519 59.1863 256.519 59.0463 256.609 58.9463C256.719 58.8263 256.799 58.7163 256.869 58.6163C257.389 57.8463 257.579 56.9263 257.409 56.0163C257.239 55.1063 256.719 54.3163 255.949 53.7963C255.179 53.2763 254.259 53.0863 253.349 53.2563C252.439 53.4263 251.649 53.9463 251.129 54.7163C251.059 54.8263 250.989 54.9363 250.919 55.0763C250.859 55.1863 250.729 55.2463 250.599 55.1963C249.189 54.6763 247.719 54.3763 246.229 54.2963C246.099 54.2963 245.999 54.1863 245.989 54.0563C245.979 53.8963 245.959 53.7663 245.939 53.6363C245.769 52.7263 245.249 51.9363 244.479 51.4163C243.709 50.8963 242.789 50.7063 241.879 50.8763C239.999 51.2363 238.759 53.0563 239.119 54.9463C239.139 55.0763 239.179 55.2063 239.229 55.3563C239.269 55.4763 239.209 55.6163 239.089 55.6663C237.729 56.2963 236.479 57.1163 235.359 58.1163C235.259 58.2063 235.119 58.2063 235.019 58.1163C234.899 58.0163 234.789 57.9263 234.689 57.8563C233.109 56.7863 230.939 57.1963 229.869 58.7863C228.799 60.3663 229.209 62.5363 230.789 63.6063C230.899 63.6763 231.009 63.7463 231.149 63.8163C231.259 63.8763 231.319 64.0063 231.269 64.1363C230.749 65.5463 230.449 67.0163 230.369 68.5063C230.369 68.6363 230.259 68.7363 230.129 68.7463C229.969 68.7563 229.839 68.7763 229.709 68.7963C227.829 69.1563 226.589 70.9763 226.949 72.8663C227.119 73.7763 227.639 74.5663 228.409 75.0863C229.179 75.6063 230.099 75.7963 231.009 75.6263C231.139 75.6063 231.269 75.5663 231.419 75.5163C231.539 75.4763 231.679 75.5363 231.729 75.6563C232.359 77.0163 233.179 78.2663 234.179 79.3863C234.269 79.4863 234.269 79.6263 234.179 79.7263C234.069 79.8463 233.989 79.9563 233.919 80.0563C232.839 81.6463 233.259 83.8063 234.839 84.8763C235.609 85.3963 236.529 85.5863 237.439 85.4163C238.349 85.2463 239.139 84.7263 239.659 83.9563C239.729 83.8463 239.799 83.7363 239.869 83.5863C239.909 83.4963 239.999 83.4463 240.099 83.4463V83.4563ZM245.359 76.5163C243.939 76.5163 242.549 76.0963 241.349 75.2763C239.759 74.1963 238.689 72.5663 238.329 70.6863C237.969 68.8063 238.359 66.8963 239.439 65.3063C241.659 62.0263 246.129 61.1763 249.409 63.3963C252.689 65.6163 253.539 70.0863 251.319 73.3663C250.239 74.9563 248.609 76.0263 246.729 76.3863C246.269 76.4763 245.819 76.5163 245.359 76.5163ZM245.389 62.6763C243.249 62.6763 241.149 63.6963 239.859 65.5963C238.859 67.0663 238.489 68.8463 238.829 70.5963C239.159 72.3463 240.159 73.8563 241.639 74.8563C243.109 75.8563 244.889 76.2263 246.639 75.8863C248.389 75.5463 249.899 74.5563 250.899 73.0763C252.959 70.0363 252.169 65.8763 249.129 63.8163C247.989 63.0363 246.689 62.6663 245.399 62.6663L245.389 62.6763Z" fill="black"/>
<path d="M205.098 66.9369C206.238 67.7069 207.778 67.4069 208.548 66.2769C208.608 66.1969 208.658 66.1069 208.698 66.0169C209.658 66.3669 210.658 66.5769 211.658 66.6269C211.658 66.7269 211.678 66.8269 211.698 66.9269C211.958 68.2769 213.258 69.1569 214.608 68.8969C215.958 68.6369 216.838 67.3369 216.578 65.9869C216.558 65.8869 216.528 65.7869 216.498 65.6969C217.408 65.2769 218.258 64.7169 219.028 64.0369C219.108 64.1069 219.178 64.1669 219.268 64.2269C220.408 64.9969 221.948 64.6969 222.718 63.5669C223.488 62.4269 223.188 60.8869 222.058 60.1169C221.978 60.0569 221.888 60.0069 221.798 59.9669C222.158 59.0069 222.358 58.0069 222.408 57.0069C222.508 57.0069 222.608 56.9869 222.708 56.9669C224.058 56.7069 224.938 55.4069 224.678 54.0569C224.418 52.7069 223.118 51.8269 221.768 52.0869C221.668 52.1069 221.568 52.1369 221.478 52.1669C221.058 51.2569 220.498 50.4069 219.818 49.6369C219.888 49.5569 219.948 49.4869 220.008 49.3969C220.778 48.2569 220.478 46.7169 219.348 45.9469C218.208 45.1769 216.668 45.4769 215.898 46.6069C215.838 46.6869 215.788 46.7769 215.748 46.8669C214.788 46.5169 213.788 46.3069 212.788 46.2569C212.788 46.1569 212.768 46.0569 212.748 45.9569C212.488 44.6069 211.188 43.7269 209.838 43.9869C208.488 44.2469 207.608 45.5469 207.868 46.8969C207.888 46.9969 207.918 47.0969 207.948 47.1869C207.038 47.6069 206.188 48.1669 205.418 48.8469C205.338 48.7769 205.268 48.7169 205.178 48.6569C204.038 47.8869 202.498 48.1869 201.728 49.3169C200.958 50.4569 201.258 51.9969 202.388 52.7669C202.468 52.8269 202.558 52.8769 202.648 52.9169C202.288 53.8769 202.088 54.8769 202.038 55.8769C201.938 55.8769 201.838 55.8969 201.738 55.9169C200.388 56.1769 199.508 57.4769 199.768 58.8269C200.028 60.1769 201.328 61.0569 202.678 60.7969C202.778 60.7769 202.878 60.7469 202.968 60.7169C203.388 61.6269 203.948 62.4769 204.628 63.2469C204.558 63.3269 204.498 63.3969 204.438 63.4869C203.668 64.6269 203.968 66.1669 205.098 66.9369ZM209.628 60.2469C207.518 58.8169 206.968 55.9469 208.398 53.8369C209.828 51.7269 212.698 51.1769 214.808 52.6069C216.918 54.0369 217.468 56.9069 216.038 59.0169C214.608 61.1269 211.738 61.6769 209.628 60.2469Z" fill="white"/>
<path d="M214.137 69.1974C213.597 69.1974 213.067 69.0374 212.607 68.7274C211.997 68.3174 211.587 67.6974 211.457 66.9774C211.457 66.9474 211.447 66.9074 211.437 66.8674C210.547 66.7974 209.667 66.6174 208.827 66.3274C208.807 66.3574 208.787 66.3874 208.767 66.4174C208.357 67.0274 207.737 67.4374 207.017 67.5674C206.297 67.7074 205.567 67.5574 204.967 67.1474C204.357 66.7374 203.947 66.1174 203.817 65.3974C203.677 64.6774 203.827 63.9474 204.237 63.3474C204.257 63.3174 204.277 63.2874 204.297 63.2574C203.717 62.5774 203.217 61.8274 202.827 61.0274C202.787 61.0274 202.757 61.0474 202.717 61.0474C201.997 61.1874 201.267 61.0374 200.667 60.6274C200.057 60.2174 199.647 59.5974 199.517 58.8774C199.237 57.3974 200.207 55.9574 201.697 55.6674C201.727 55.6674 201.767 55.6574 201.807 55.6474C201.877 54.7574 202.057 53.8774 202.347 53.0374C202.317 53.0174 202.287 52.9974 202.257 52.9774C201.007 52.1274 200.677 50.4174 201.527 49.1674C201.937 48.5574 202.557 48.1474 203.277 48.0174C203.997 47.8774 204.727 48.0274 205.327 48.4374C205.357 48.4574 205.387 48.4774 205.417 48.4974C206.097 47.9174 206.847 47.4174 207.647 47.0274C207.647 46.9874 207.627 46.9574 207.627 46.9174C207.347 45.4374 208.317 43.9974 209.807 43.7074C210.527 43.5674 211.257 43.7174 211.857 44.1274C212.467 44.5374 212.877 45.1574 213.007 45.8774C213.007 45.9074 213.017 45.9474 213.027 45.9874C213.917 46.0574 214.797 46.2374 215.637 46.5274C215.657 46.4974 215.677 46.4674 215.697 46.4374C216.547 45.1874 218.257 44.8574 219.507 45.7074C220.757 46.5574 221.087 48.2674 220.237 49.5174C220.217 49.5474 220.197 49.5774 220.177 49.6074C220.757 50.2874 221.257 51.0374 221.647 51.8374C221.687 51.8374 221.717 51.8174 221.757 51.8174C222.477 51.6774 223.207 51.8274 223.807 52.2374C224.417 52.6474 224.827 53.2674 224.957 53.9874C225.237 55.4674 224.267 56.9074 222.777 57.1974C222.747 57.1974 222.707 57.2074 222.667 57.2174C222.597 58.1074 222.417 58.9874 222.127 59.8274C222.157 59.8474 222.187 59.8674 222.217 59.8874C223.467 60.7374 223.797 62.4474 222.947 63.6974C222.537 64.3074 221.917 64.7174 221.197 64.8474C220.477 64.9874 219.747 64.8374 219.147 64.4274C219.117 64.4074 219.087 64.3874 219.057 64.3674C218.377 64.9474 217.627 65.4474 216.827 65.8374C216.827 65.8774 216.847 65.9074 216.847 65.9474C217.127 67.4274 216.157 68.8674 214.667 69.1574C214.497 69.1874 214.317 69.2074 214.147 69.2074L214.137 69.1974ZM208.697 65.7574C208.697 65.7574 208.757 65.7574 208.787 65.7774C209.717 66.1174 210.687 66.3174 211.677 66.3674C211.807 66.3674 211.907 66.4774 211.917 66.6074C211.917 66.7074 211.937 66.7974 211.947 66.8774C212.057 67.4574 212.387 67.9674 212.887 68.3074C213.377 68.6374 213.977 68.7674 214.557 68.6474C215.767 68.4174 216.557 67.2474 216.327 66.0374C216.307 65.9574 216.287 65.8674 216.257 65.7774C216.217 65.6574 216.277 65.5174 216.397 65.4674C217.297 65.0574 218.127 64.5074 218.857 63.8474C218.957 63.7574 219.097 63.7574 219.197 63.8474C219.277 63.9174 219.347 63.9674 219.407 64.0174C219.897 64.3474 220.497 64.4774 221.077 64.3574C221.657 64.2474 222.167 63.9074 222.507 63.4174C223.197 62.3974 222.927 61.0074 221.917 60.3174C221.847 60.2674 221.777 60.2274 221.687 60.1774C221.577 60.1174 221.517 59.9874 221.567 59.8574C221.907 58.9274 222.107 57.9574 222.167 56.9674C222.167 56.8374 222.277 56.7374 222.407 56.7274C222.507 56.7274 222.597 56.7074 222.677 56.6974C223.887 56.4674 224.677 55.2974 224.447 54.0874C224.337 53.5074 224.007 52.9974 223.507 52.6574C223.017 52.3274 222.417 52.1974 221.837 52.3174C221.757 52.3374 221.677 52.3574 221.577 52.3874C221.457 52.4274 221.317 52.3674 221.267 52.2474C220.857 51.3474 220.307 50.5174 219.647 49.7874C219.557 49.6874 219.557 49.5474 219.647 49.4474C219.717 49.3674 219.767 49.2974 219.817 49.2374C220.507 48.2174 220.237 46.8274 219.227 46.1374C218.207 45.4474 216.817 45.7174 216.127 46.7274C216.077 46.7974 216.037 46.8674 215.987 46.9574C215.927 47.0674 215.797 47.1274 215.667 47.0774C214.737 46.7374 213.767 46.5374 212.777 46.4874C212.647 46.4874 212.547 46.3774 212.537 46.2474C212.537 46.1474 212.517 46.0574 212.507 45.9774C212.397 45.3974 212.067 44.8874 211.567 44.5474C211.077 44.2174 210.477 44.0874 209.897 44.2074C208.687 44.4374 207.897 45.6074 208.127 46.8174C208.147 46.8974 208.167 46.9874 208.197 47.0774C208.237 47.1974 208.177 47.3374 208.057 47.3874C207.157 47.7974 206.327 48.3474 205.597 49.0074C205.497 49.0974 205.357 49.0974 205.257 49.0074C205.177 48.9374 205.107 48.8874 205.047 48.8374C204.557 48.5074 203.957 48.3774 203.377 48.4974C202.797 48.6074 202.287 48.9474 201.947 49.4374C201.257 50.4574 201.527 51.8474 202.537 52.5374C202.607 52.5874 202.677 52.6274 202.767 52.6774C202.877 52.7374 202.937 52.8674 202.887 52.9974C202.547 53.9274 202.347 54.8974 202.287 55.8874C202.287 56.0174 202.177 56.1174 202.047 56.1274C201.947 56.1274 201.857 56.1474 201.777 56.1574C200.567 56.3874 199.777 57.5574 200.007 58.7674C200.117 59.3574 200.447 59.8574 200.947 60.1974C201.437 60.5274 202.037 60.6574 202.617 60.5374C202.697 60.5174 202.787 60.4974 202.877 60.4674C202.997 60.4274 203.137 60.4874 203.187 60.6074C203.597 61.5074 204.147 62.3374 204.807 63.0674C204.897 63.1674 204.897 63.3074 204.807 63.4074C204.737 63.4874 204.687 63.5574 204.637 63.6174C204.307 64.1074 204.177 64.7074 204.297 65.2874C204.407 65.8674 204.747 66.3774 205.237 66.7174C205.727 67.0474 206.327 67.1774 206.907 67.0574C207.487 66.9474 207.997 66.6074 208.337 66.1174C208.387 66.0474 208.427 65.9774 208.477 65.8874C208.517 65.7974 208.607 65.7474 208.707 65.7474L208.697 65.7574ZM212.207 61.2974C211.247 61.2974 210.297 61.0074 209.487 60.4574C207.267 58.9474 206.687 55.9174 208.187 53.6874C208.917 52.6074 210.027 51.8874 211.297 51.6374C212.577 51.3874 213.867 51.6574 214.947 52.3874C217.167 53.8974 217.747 56.9274 216.247 59.1574C215.517 60.2374 214.407 60.9574 213.137 61.2074C212.827 61.2674 212.517 61.2974 212.207 61.2974ZM212.227 52.0674C211.947 52.0674 211.677 52.0974 211.397 52.1474C210.257 52.3674 209.267 53.0174 208.607 53.9874C207.257 55.9774 207.777 58.6974 209.767 60.0474C210.727 60.6974 211.887 60.9374 213.037 60.7174C214.177 60.4974 215.167 59.8474 215.827 58.8774C217.177 56.8874 216.657 54.1674 214.667 52.8174C213.937 52.3174 213.097 52.0674 212.227 52.0674Z" fill="black"/>
<path d="M258.382 103.557C257.322 101.967 256.452 99.9969 257.052 98.1869C257.692 96.2669 260.112 95.1769 261.972 95.9569C261.192 94.5969 260.552 93.1469 260.082 91.6369C265.172 91.4869 270.422 92.3869 274.772 95.0369C279.132 97.6869 282.482 102.247 282.892 107.327C283.062 109.437 282.692 111.677 281.432 113.377C280.112 115.167 277.962 116.187 275.802 116.727C272.992 117.427 269.892 117.407 267.322 116.057C265.592 115.147 264.182 113.547 263.572 111.677C263.412 111.207 263.312 110.707 263.272 110.207C263.242 109.847 263.422 109.187 263.292 108.867C263.132 108.487 262.432 108.117 262.122 107.847C261.682 107.457 261.262 107.047 260.852 106.627C259.942 105.677 259.122 104.657 258.392 103.557H258.382Z" fill="black"/>
<path d="M263.083 103.785C263.013 103.785 262.953 103.755 262.903 103.705C261.783 102.575 260.953 101.165 260.503 99.635C260.463 99.495 260.543 99.355 260.673 99.315C260.813 99.275 260.953 99.355 260.993 99.485C261.413 100.935 262.203 102.265 263.263 103.335C263.363 103.435 263.363 103.595 263.263 103.695C263.213 103.745 263.153 103.765 263.083 103.765V103.785Z" fill="black"/>
<path d="M263.55 131.276L266.4 130.966L265.65 121.236C265.65 121.236 268.02 109.376 277.14 118.236L278.81 131.446L281.49 131.786C281.49 131.786 280.4 137.946 272.75 137.936C266.25 137.926 263.44 135.726 263.55 131.286V131.276Z" fill="white"/>
<path d="M280.401 131.899C280.401 131.899 280.381 131.899 280.371 131.899L278.781 131.699C278.661 131.689 278.571 131.589 278.561 131.479L276.901 118.359C274.231 115.789 271.921 114.779 270.021 115.369C267.061 116.289 266.011 120.819 265.911 121.259L266.661 130.949C266.671 131.089 266.571 131.209 266.431 131.219L264.751 131.399C264.611 131.409 264.481 131.309 264.471 131.169C264.451 131.029 264.561 130.899 264.701 130.889L266.131 130.729L265.401 121.249C265.401 121.249 265.401 121.199 265.401 121.179C265.441 120.969 266.491 115.919 269.861 114.869C271.971 114.209 274.471 115.279 277.321 118.039C277.361 118.079 277.391 118.129 277.401 118.189L279.051 131.199L280.451 131.379C280.591 131.399 280.691 131.529 280.671 131.669C280.651 131.799 280.541 131.889 280.421 131.889L280.401 131.899Z" fill="black"/>
<path d="M272.921 118.688C271.551 119.858 269.931 120.768 268.161 121.098C266.391 121.438 264.481 121.158 262.981 120.168C260.471 118.498 259.561 115.128 260.001 112.148C260.441 109.168 261.991 106.488 263.531 103.898C263.531 103.898 269.411 108.398 274.801 109.128C275.491 110.878 275.571 112.588 275.171 114.268C275.171 114.268 276.371 113.178 277.471 113.898C278.661 114.678 279.141 116.348 278.571 117.648C278.001 118.948 276.511 119.748 275.101 119.608C274.301 119.528 273.571 119.378 272.931 118.698L272.921 118.688Z" fill="white"/>
<path d="M266.71 121.488C265.29 121.488 263.93 121.108 262.83 120.378C260.44 118.798 259.23 115.548 259.74 112.108C260.21 108.968 261.93 106.078 263.31 103.768C263.35 103.708 263.41 103.658 263.48 103.648C263.55 103.638 263.63 103.648 263.68 103.698C263.74 103.738 269.57 108.168 274.83 108.878C274.92 108.888 275 108.948 275.03 109.038C275.63 110.558 275.8 112.128 275.54 113.698C276.05 113.418 276.84 113.178 277.6 113.678C278.88 114.508 279.41 116.338 278.79 117.748C278.18 119.128 276.61 120.008 275.06 119.858C274.37 119.788 273.59 119.658 272.9 119.038C271.43 120.248 269.81 121.048 268.2 121.358C267.7 121.448 267.2 121.498 266.71 121.498V121.488ZM263.6 104.268C262.27 106.508 260.68 109.248 260.25 112.178C259.85 114.838 260.59 118.268 263.12 119.948C264.49 120.858 266.31 121.188 268.11 120.838C269.7 120.538 271.31 119.718 272.75 118.478C272.85 118.388 273.01 118.398 273.1 118.498C273.65 119.078 274.28 119.248 275.11 119.328C276.45 119.458 277.81 118.698 278.33 117.518C278.86 116.328 278.41 114.788 277.33 114.088C276.41 113.488 275.38 114.398 275.34 114.438C275.26 114.508 275.13 114.528 275.04 114.468C274.94 114.408 274.9 114.298 274.92 114.188C275.31 112.528 275.21 110.948 274.61 109.348C269.79 108.638 264.74 105.098 263.6 104.258V104.268Z" fill="black"/>
<path d="M274.053 117.355C273.933 117.355 273.833 117.275 273.803 117.155C273.773 117.015 273.853 116.885 273.993 116.845C274.653 116.695 275.273 116.435 275.853 116.085C275.973 116.015 276.133 116.055 276.203 116.175C276.273 116.295 276.233 116.455 276.113 116.525C275.493 116.905 274.813 117.175 274.103 117.345C274.083 117.345 274.063 117.345 274.043 117.345L274.053 117.355Z" fill="black"/>
<path d="M245.459 161.515C245.459 161.515 215.259 180.515 205.859 147.305C210.759 144.495 216.579 140.615 218.179 133.935C218.179 133.935 222.449 143.305 227.269 141.455C238.969 136.965 247.999 132.145 263.529 131.105C263.839 132.085 264.279 133.035 264.929 133.835C266.189 135.385 268.189 136.235 270.119 136.535C271.969 136.825 273.919 136.725 275.719 136.225C277.339 135.775 278.929 134.955 280.129 133.755C280.679 133.205 281.129 132.575 281.469 131.895C292.689 132.785 299.759 134.145 305.689 141.385C313.329 150.715 319.699 168.265 317.839 179.345C315.979 190.425 310.889 193.855 304.389 195.985L304.669 201.975C304.989 208.615 298.419 213.415 292.189 211.105L240.279 191.875C237.749 190.935 236.429 188.165 237.289 185.615L245.439 161.495L245.459 161.515Z" fill="#5479F7"/>
<path d="M245.579 161.294C245.579 161.294 245.529 161.294 245.499 161.284C245.369 161.244 245.289 161.094 245.339 160.964L246.739 156.784C246.779 156.654 246.929 156.574 247.059 156.624C247.189 156.664 247.269 156.814 247.219 156.944L245.819 161.124C245.779 161.234 245.679 161.294 245.579 161.294Z" fill="black"/>
<path d="M218.708 135.276C215.238 126.616 212.608 117.526 207.608 109.656C207.168 108.966 206.688 108.256 205.978 107.836C205.268 107.416 204.278 107.376 203.688 107.946C203.098 108.526 203.118 109.476 203.238 110.306C203.618 112.886 204.568 115.836 205.928 118.066C205.928 118.066 202.418 116.986 201.098 120.146C201.098 120.146 199.008 119.556 198.078 123.696C198.078 123.696 195.578 126.076 197.398 128.966C198.708 131.046 200.168 131.176 200.168 131.176C200.168 131.176 202.648 142.046 205.428 146.706C208.208 151.366 220.558 139.926 218.698 135.266L218.708 135.276Z" fill="white"/>
<path d="M205.13 146.517C205.03 146.517 204.94 146.457 204.89 146.357C202.89 141.547 200.33 132.677 199.96 131.397C199.51 131.297 198.29 130.857 197.18 129.107C195.43 126.337 197.47 123.967 197.84 123.577C198.24 121.847 198.89 120.697 199.77 120.167C200.25 119.877 200.68 119.847 200.93 119.867C202.02 117.517 204.33 117.547 205.41 117.697C204.25 115.617 203.35 112.917 202.97 110.337C202.86 109.557 202.79 108.447 203.49 107.757C204.19 107.067 205.33 107.157 206.09 107.607C206.84 108.047 207.35 108.787 207.8 109.507C211.54 115.387 214.2 122.557 216.78 129.487C217.52 131.467 218.21 133.337 218.93 135.167C218.98 135.297 218.92 135.447 218.79 135.497C218.66 135.547 218.51 135.487 218.46 135.357C217.74 133.517 217.05 131.647 216.31 129.667C213.74 122.757 211.09 115.617 207.38 109.787C206.94 109.097 206.49 108.437 205.84 108.057C205.26 107.717 204.38 107.627 203.86 108.127C203.32 108.657 203.39 109.597 203.49 110.267C203.89 112.987 204.88 115.857 206.15 117.927C206.21 118.017 206.2 118.137 206.13 118.217C206.06 118.297 205.96 118.337 205.85 118.307C205.72 118.267 202.54 117.337 201.33 120.237C201.28 120.357 201.15 120.417 201.03 120.387C201.01 120.387 200.57 120.277 200.03 120.607C199.5 120.927 198.78 121.737 198.33 123.747C198.32 123.797 198.29 123.837 198.26 123.877C198.16 123.967 195.94 126.157 197.62 128.827C198.83 130.757 200.18 130.917 200.19 130.917C200.29 130.927 200.38 130.997 200.41 131.097C200.44 131.197 203.22 141.017 205.36 146.157C205.41 146.287 205.36 146.437 205.22 146.487C205.19 146.497 205.15 146.507 205.12 146.507L205.13 146.517Z" fill="black"/>
<path d="M203.761 130.065C202.971 130.065 202.161 129.635 201.601 128.895C201.041 128.155 200.791 127.225 200.601 126.335C200.361 125.195 200.121 123.695 200.341 122.195C200.421 121.655 200.561 121.145 200.751 120.665C200.801 120.535 200.951 120.475 201.081 120.525C201.211 120.575 201.271 120.725 201.221 120.855C201.041 121.295 200.911 121.775 200.841 122.275C200.631 123.705 200.871 125.145 201.101 126.235C201.301 127.195 201.531 127.965 202.011 128.595C202.451 129.175 203.251 129.695 204.061 129.535C204.451 129.455 204.811 129.175 205.001 128.805C205.161 128.495 205.181 128.175 205.061 127.905C205.001 127.775 205.061 127.625 205.191 127.565C205.321 127.505 205.471 127.565 205.531 127.695C205.721 128.115 205.691 128.585 205.461 129.035C205.191 129.545 204.701 129.935 204.161 130.035C204.031 130.065 203.901 130.075 203.761 130.075V130.065Z" fill="black"/>
<path d="M210.14 131.168C209.54 131.168 208.92 130.858 208.52 130.418C208.02 129.858 207.77 129.148 207.54 128.468C207.5 128.358 207.46 128.248 207.42 128.138C207.18 127.478 206.83 126.678 206.16 126.308C205.78 126.098 205.34 126.038 204.86 125.968C204.32 125.888 203.75 125.808 203.27 125.488C202.77 125.158 202.45 124.608 202.38 123.948C202.29 123.148 202.56 122.298 203.09 121.728C204.19 120.558 205.91 120.478 206.84 120.538C208.47 120.638 210.03 121.188 211.36 122.128C211.48 122.208 211.5 122.368 211.42 122.488C211.34 122.608 211.18 122.628 211.06 122.548C209.8 121.668 208.33 121.148 206.8 121.048C205.96 120.998 204.41 121.048 203.45 122.078C203.02 122.538 202.8 123.228 202.87 123.888C202.93 124.398 203.17 124.818 203.54 125.058C203.93 125.318 204.41 125.388 204.92 125.458C205.42 125.528 205.93 125.608 206.39 125.858C207.2 126.318 207.61 127.218 207.88 127.958C207.92 128.068 207.96 128.178 208 128.298C208.22 128.938 208.45 129.588 208.88 130.078C209.34 130.588 210.19 130.868 210.73 130.468C210.84 130.378 211 130.408 211.09 130.518C211.18 130.628 211.15 130.788 211.04 130.878C210.77 131.088 210.45 131.178 210.13 131.178L210.14 131.168Z" fill="black"/>
<path d="M201.95 131.126C201.95 131.126 201.89 131.126 201.87 131.126C201.29 131.096 200.7 130.826 200.2 130.346C199.75 129.916 199.43 129.376 199.17 128.906C198.34 127.366 197.93 125.986 197.91 124.666C197.91 124.526 198.02 124.406 198.16 124.406C198.3 124.406 198.41 124.516 198.42 124.656C198.43 125.886 198.83 127.196 199.62 128.656C199.86 129.096 200.15 129.586 200.55 129.976C200.96 130.366 201.43 130.586 201.89 130.606C202.39 130.626 202.87 130.386 203.08 129.996C203.15 129.876 203.3 129.826 203.43 129.886C203.55 129.956 203.6 130.106 203.54 130.236C203.25 130.776 202.63 131.126 201.96 131.126H201.95Z" fill="black"/>
<path d="M200.319 131.338C200.209 131.338 200.119 131.268 200.079 131.168C200.029 131.038 200.099 130.888 200.239 130.838C200.439 130.768 200.639 130.658 200.799 130.518C200.909 130.428 201.069 130.438 201.159 130.548C201.249 130.658 201.239 130.818 201.129 130.908C200.909 131.098 200.669 131.238 200.399 131.328C200.369 131.328 200.339 131.338 200.319 131.338Z" fill="black"/>
<path d="M244.67 143.508H270.83C271.2 143.508 271.53 143.758 271.64 144.108L281.58 177.598C281.74 178.138 281.34 178.678 280.77 178.678H254.61C254.24 178.678 253.91 178.428 253.8 178.078L243.86 144.588C243.7 144.048 244.1 143.508 244.67 143.508Z" fill="black"/>
<path d="M258.1 169.585C256.98 168.505 256.29 167.325 257.01 166.175C257.73 165.025 259.53 164.755 260.56 165.645C259.8 165.045 259.02 164.425 258.56 163.585C258.1 162.735 258.04 161.595 258.67 160.875C259.23 160.235 260.19 160.075 261.01 160.265C261.42 160.355 261.8 160.515 262.17 160.715C261.81 160.175 261.71 159.415 262.02 158.825C262.54 157.815 263.81 157.385 264.93 157.515C266.06 157.645 267.08 158.215 268.06 158.765C274.66 162.485 287.7 170.025 287.7 170.025C288.04 171.905 281.17 187.025 278.57 189.545C276.89 189.035 264.28 178.935 259.5 174.835C258.7 174.145 257.87 173.425 257.47 172.445C257.06 171.475 257.21 170.175 258.09 169.595L258.1 169.585Z" fill="white"/>
<path d="M269.919 165.964C269.919 165.964 269.829 165.954 269.789 165.924C267.369 164.434 264.949 162.884 262.599 161.304C262.479 161.224 262.449 161.064 262.529 160.954C262.609 160.834 262.769 160.804 262.879 160.884C265.229 162.464 267.649 164.014 270.059 165.494C270.179 165.564 270.219 165.724 270.139 165.844C270.089 165.924 270.009 165.964 269.919 165.964Z" fill="black"/>
<path d="M266.86 170.483C266.81 170.483 266.76 170.463 266.71 170.433L260.48 165.973C260.37 165.893 260.34 165.733 260.42 165.613C260.5 165.503 260.66 165.473 260.78 165.553L267.01 170.013C267.12 170.093 267.15 170.253 267.07 170.373C267.02 170.443 266.94 170.483 266.86 170.483Z" fill="black"/>
<path d="M263.94 174.207C263.94 174.207 263.84 174.197 263.8 174.167C261.9 172.877 260.03 171.487 258.26 170.027C258.15 169.937 258.14 169.777 258.22 169.667C258.31 169.557 258.47 169.547 258.58 169.627C260.34 171.077 262.19 172.457 264.08 173.737C264.2 173.817 264.23 173.977 264.15 174.087C264.1 174.157 264.02 174.197 263.94 174.197V174.207Z" fill="black"/>
<path d="M298.539 197.045C291.419 197.045 284.369 194.775 278.599 190.525C278.489 190.445 278.459 190.285 278.549 190.165C278.629 190.055 278.789 190.025 278.909 190.115C286.009 195.345 295.079 197.525 303.789 196.115C303.929 196.095 304.059 196.185 304.079 196.325C304.099 196.465 304.009 196.595 303.869 196.615C302.109 196.905 300.319 197.045 298.549 197.045H298.539Z" fill="black"/>
<path d="M302.438 178.817C302.438 178.817 302.348 178.807 302.308 178.787L288.308 170.697C288.188 170.627 288.148 170.467 288.218 170.347C288.288 170.227 288.448 170.187 288.568 170.257L302.568 178.347C302.688 178.417 302.728 178.577 302.658 178.697C302.608 178.777 302.528 178.827 302.438 178.827V178.817Z" fill="black"/>
<path d="M297.959 175.226C297.839 175.226 297.729 175.146 297.709 175.026L293.939 156.646C293.909 156.506 293.999 156.376 294.139 156.346C294.279 156.316 294.409 156.406 294.439 156.546L298.209 174.926C298.239 175.066 298.149 175.196 298.009 175.226C297.989 175.226 297.979 175.226 297.959 175.226Z" fill="black"/>
<path d="M237.31 211.896C237.31 211.896 237.26 211.896 237.24 211.886C237.1 211.846 237.03 211.706 237.07 211.566L242.34 193.486C242.38 193.346 242.52 193.276 242.66 193.316C242.8 193.356 242.87 193.496 242.83 193.636L237.56 211.716C237.53 211.826 237.43 211.896 237.31 211.896Z" fill="black"/>
<path d="M155.08 138.93H138.44C138.3 138.93 138.18 138.82 138.18 138.67C138.18 138.52 138.29 138.41 138.44 138.41H154.82V103.53C154.82 103.39 154.93 103.27 155.08 103.27H201.85C201.99 103.27 202.11 103.38 202.11 103.53C202.11 103.68 202 103.79 201.85 103.79H155.34V138.67C155.34 138.81 155.23 138.93 155.08 138.93Z" fill="black"/>
<path d="M203.458 107.339C205.563 107.339 207.268 105.633 207.268 103.529C207.268 101.425 205.563 99.7188 203.458 99.7188C201.354 99.7188 199.648 101.425 199.648 103.529C199.648 105.633 201.354 107.339 203.458 107.339Z" fill="#5479F7"/>
<path d="M135.49 142.479C137.594 142.479 139.3 140.774 139.3 138.669C139.3 136.565 137.594 134.859 135.49 134.859C133.385 134.859 131.68 136.565 131.68 138.669C131.68 140.774 133.385 142.479 135.49 142.479Z" fill="#5479F7"/>
<path d="M208.878 93.6488C208.788 93.6488 208.708 93.6088 208.658 93.5288C208.588 93.4088 208.618 93.2488 208.738 93.1788L224.658 83.3888C224.778 83.3188 224.938 83.3488 225.008 83.4688C225.078 83.5888 225.048 83.7488 224.928 83.8188L209.008 93.6088C209.008 93.6088 208.918 93.6488 208.878 93.6488Z" fill="black"/>
<path d="M188.777 34.3792C188.687 34.3792 188.607 34.3392 188.557 34.2592C188.487 34.1392 188.517 33.9792 188.637 33.9092L204.557 24.1192C204.677 24.0492 204.837 24.0792 204.907 24.1992C204.977 24.3192 204.947 24.4792 204.827 24.5492L188.907 34.3392C188.907 34.3392 188.817 34.3792 188.777 34.3792Z" fill="black"/>
<path d="M113.898 11.3295C113.808 11.3295 113.708 11.2795 113.668 11.1895C113.608 11.0595 113.668 10.9095 113.788 10.8495L132.708 1.60948C132.838 1.54948 132.988 1.60948 133.048 1.72948C133.108 1.85948 133.048 2.00948 132.928 2.06948L114.008 11.3095C114.008 11.3095 113.938 11.3395 113.898 11.3395V11.3295Z" fill="black"/>
<path d="M249.878 47.3083C249.788 47.3083 249.708 47.2683 249.658 47.1883C249.588 47.0683 249.618 46.9083 249.738 46.8383L260.598 40.1583C260.718 40.0883 260.878 40.1183 260.948 40.2383C261.018 40.3583 260.988 40.5183 260.868 40.5883L250.008 47.2683C250.008 47.2683 249.918 47.3083 249.878 47.3083Z" fill="black"/>
<path d="M132.629 41.7993C132.539 41.7993 132.459 41.7593 132.409 41.6793C132.339 41.5593 132.379 41.3993 132.499 41.3293L201.159 0.499288C201.279 0.429288 201.439 0.469288 201.509 0.589288C201.579 0.709288 201.539 0.869288 201.419 0.939288L132.749 41.7693C132.749 41.7693 132.659 41.8093 132.619 41.8093L132.629 41.7993Z" fill="black"/>
<path d="M200.241 3.8085C200.241 3.8085 200.171 3.8085 200.141 3.7885C200.011 3.7385 199.951 3.5885 200.001 3.4585L201.091 0.808501L198.231 0.518501C198.091 0.508501 197.991 0.378501 198.001 0.238501C198.011 0.098501 198.141 -0.00149896 198.281 0.00850104L201.481 0.338501C201.561 0.338501 201.631 0.388501 201.671 0.458501C201.711 0.528501 201.721 0.608501 201.691 0.688501L200.471 3.6585C200.431 3.7585 200.331 3.8185 200.231 3.8185L200.241 3.8085Z" fill="black"/>
<path d="M225.308 37.7292C225.218 37.7292 225.138 37.6892 225.088 37.6092C225.018 37.4892 225.048 37.3292 225.168 37.2592L251.008 21.3692C251.128 21.2992 251.288 21.3292 251.358 21.4492C251.428 21.5692 251.398 21.7292 251.278 21.7992L225.438 37.6892C225.438 37.6892 225.348 37.7292 225.308 37.7292Z" fill="black"/>
<path d="M250.389 24.539C250.389 24.539 250.319 24.539 250.289 24.519C250.159 24.469 250.099 24.319 250.149 24.189L251.239 21.539L248.379 21.249C248.239 21.239 248.139 21.109 248.149 20.969C248.159 20.829 248.289 20.729 248.429 20.739L251.629 21.069C251.709 21.069 251.779 21.119 251.819 21.189C251.859 21.259 251.869 21.339 251.839 21.419L250.619 24.389C250.579 24.489 250.479 24.549 250.379 24.549L250.389 24.539Z" fill="black"/>
<path d="M171.589 94.54C171.499 94.54 171.419 94.5 171.369 94.42C171.299 94.3 171.329 94.14 171.449 94.07L196.079 78.92C196.199 78.85 196.359 78.88 196.429 79C196.499 79.12 196.469 79.28 196.349 79.35L171.719 94.5C171.719 94.5 171.629 94.54 171.589 94.54Z" fill="black"/>
<path d="M195.518 82.039C195.518 82.039 195.448 82.039 195.418 82.019C195.288 81.969 195.228 81.819 195.278 81.689L196.368 79.039L193.508 78.749C193.368 78.739 193.268 78.609 193.278 78.469C193.288 78.329 193.418 78.229 193.558 78.239L196.758 78.569C196.838 78.569 196.908 78.619 196.948 78.689C196.988 78.759 196.998 78.839 196.968 78.919L195.748 81.889C195.708 81.989 195.608 82.049 195.508 82.049L195.518 82.039Z" fill="black"/>
</svg>
