<svg width="252" height="61" viewBox="0 0 252 61" fill="none" xmlns="http://www.w3.org/2000/svg">
<path d="M239.425 0H12.2C5.46213 0 0 5.46213 0 12.2V48.8C0 55.5379 5.46213 61 12.2 61H239.425C246.163 61 251.625 55.5379 251.625 48.8V12.2C251.625 5.46213 246.163 0 239.425 0Z" fill="#8D84FB"/>
<path fill-rule="evenodd" clip-rule="evenodd" d="M48.9533 43.844C48.5873 44.7895 47.7333 46.1162 46.5133 47.0465C45.8118 47.5802 44.9731 48.0988 43.8293 48.4342C42.6093 48.8003 41.0996 48.9223 39.2238 48.9223H22.0676C20.1918 48.9223 18.6821 48.8003 17.4621 48.4342C16.3183 48.0988 15.4796 47.5802 14.7781 47.0465C13.5581 46.1162 12.7041 44.7895 12.3381 43.844C11.5908 41.953 11.5908 39.8027 11.5908 38.4455V21.2892C11.5908 19.932 11.5908 17.7817 12.3381 15.8907C12.7041 14.9453 13.5581 13.6185 14.7781 12.6882C15.4796 12.1545 16.3183 11.636 17.4621 11.3005C18.6821 10.9345 20.1918 10.8125 22.0676 10.8125H39.2238C41.0996 10.8125 42.6093 10.9345 43.8293 11.3005C44.9731 11.636 45.8118 12.1545 46.5133 12.6882C47.7333 13.6185 48.5873 14.9453 48.9533 15.8907C49.7006 17.7817 49.7006 19.932 49.7006 21.2892V38.4455C49.7006 39.8027 49.7006 41.953 48.9533 43.844Z" fill="white"/>
<path d="M33.4197 32.7099C32.8402 32.0999 31.8489 31.7187 30.6594 31.7187C29.4699 31.7187 28.4634 32.0999 27.8992 32.7099C27.5942 33.0302 27.4417 33.3504 27.3959 33.8079C27.3044 34.6924 27.3502 35.4702 27.4569 36.6902C27.5637 37.8644 27.7467 39.4199 27.9907 41.0059C28.1584 42.1344 28.3109 42.7444 28.4329 43.1867C28.6464 43.8882 29.4242 44.5134 30.6594 44.5134C31.8947 44.5134 32.6724 43.8882 32.8859 43.1867C33.0232 42.7444 33.1604 42.1344 33.3282 41.0059C33.5722 39.4199 33.7704 37.8644 33.8619 36.6902C33.9687 35.4702 34.0144 34.6924 33.9229 33.8079C33.8772 33.3504 33.7094 33.0302 33.4197 32.7099ZM27.5332 27.3419C27.5332 29.0652 28.9362 30.4682 30.6594 30.4682C32.3827 30.4682 33.7857 29.0652 33.7857 27.3419C33.7857 25.6187 32.3827 24.2157 30.6594 24.2157C28.9362 24.2157 27.5332 25.6187 27.5332 27.3419ZM30.6137 15.0352C23.3089 15.0504 17.3309 20.9827 17.2394 28.2722C17.1632 34.1892 20.9452 39.2369 26.2064 41.0974C26.3284 41.1432 26.4657 41.0364 26.4504 40.8992C26.3742 40.4417 26.3132 39.9842 26.2522 39.5267C26.2369 39.3589 26.1302 39.2217 25.9777 39.1607C21.8144 37.3459 18.9017 33.1674 18.9474 28.3332C19.0084 21.9892 24.1934 16.8042 30.5374 16.7584C37.0339 16.7127 42.3257 21.9739 42.3257 28.4552C42.3257 33.2437 39.4282 37.3764 35.2954 39.1759C35.1429 39.2369 35.0514 39.3742 35.0209 39.5419C34.9599 39.9994 34.8989 40.4569 34.8227 40.9144C34.8074 41.0517 34.9294 41.1584 35.0667 41.1127C40.2822 39.2827 44.0337 34.2959 44.0337 28.4552C44.0337 21.0437 37.9947 15.0199 30.5832 15.0504L30.6137 15.0352ZM30.3697 21.1809C34.5024 21.0132 37.9184 24.3377 37.9184 28.4399C37.9184 30.5292 37.0339 32.4049 35.6157 33.7317C35.4937 33.8384 35.4327 34.0062 35.4479 34.1739C35.4784 34.6772 35.4632 35.1652 35.4327 35.6989C35.4327 35.8514 35.5852 35.9429 35.7072 35.8514C38.0709 34.2349 39.6264 31.5052 39.6264 28.4247C39.6264 23.3617 35.4022 19.2594 30.2934 19.4577C25.5354 19.6407 21.7229 23.5599 21.6619 28.3179C21.6162 31.4442 23.1869 34.2197 25.5812 35.8514C25.7032 35.9277 25.8709 35.8514 25.8557 35.6989C25.8252 35.1499 25.8099 34.6619 25.8404 34.1739C25.8404 34.0062 25.7794 33.8537 25.6727 33.7317C24.2087 32.3592 23.3242 30.4072 23.3852 28.2417C23.4919 24.4292 26.5572 21.3182 30.3544 21.1809H30.3697Z" fill="#8D84FB"/>
<path d="M70.49 41.7267H63.2768L61.5383 46.8507H58.4883L65.3203 27.9102H68.4923L75.3243 46.8507H72.2133L70.4748 41.7267H70.49ZM64.024 39.3629H69.7428L66.9215 31.0517H66.8453L64.024 39.3629Z" fill="white"/>
<path d="M90.1059 39.94C90.1059 44.2253 87.8032 46.9855 84.3414 46.9855C82.3742 46.9855 80.8187 46.101 79.9952 44.576H79.9342V51.408H77.0977V33.0318H79.8427V35.3345H79.8884C80.6814 33.8553 82.3589 32.8945 84.2804 32.8945C87.7879 32.8945 90.0907 35.67 90.0907 39.94H90.1059ZM87.1932 39.94C87.1932 37.1493 85.7444 35.304 83.5484 35.304C81.3524 35.304 79.9189 37.1798 79.9189 39.94C79.9189 42.7003 81.3829 44.5913 83.5484 44.5913C85.7139 44.5913 87.1932 42.7613 87.1932 39.94Z" fill="white"/>
<path d="M105.309 39.94C105.309 44.2253 103.006 46.9855 99.5445 46.9855C97.5773 46.9855 96.0218 46.101 95.1983 44.576H95.1373V51.408H92.3008V33.0318H95.0458V35.3345H95.0915C95.8845 33.8553 97.562 32.8945 99.4835 32.8945C102.991 32.8945 105.294 35.67 105.294 39.94H105.309ZM102.396 39.94C102.396 37.1493 100.948 35.304 98.7515 35.304C96.5555 35.304 95.122 37.1798 95.122 39.94C95.122 42.7003 96.586 44.5913 98.7515 44.5913C100.917 44.5913 102.396 42.7613 102.396 39.94Z" fill="white"/>
<path d="M107.598 27.8906H110.434V46.8311H107.598V27.8906Z" fill="white"/>
<path d="M125.193 42.7754C124.811 45.2764 122.371 46.9997 119.245 46.9997C115.234 46.9997 112.733 44.3157 112.733 39.9847C112.733 35.6537 115.234 32.8477 119.123 32.8477C123.012 32.8477 125.345 35.4707 125.345 39.6644V40.6404H115.6V40.8082C115.6 43.1719 117.08 44.7122 119.321 44.7122C120.892 44.7122 122.127 43.9649 122.509 42.7754H125.193ZM115.616 38.6579H122.524C122.463 36.5382 121.106 35.1504 119.138 35.1504C117.171 35.1504 115.768 36.5687 115.616 38.6579Z" fill="white"/>
<path d="M140.439 27.8906C144.114 27.8906 146.676 30.4221 146.676 34.1126C146.676 37.8031 144.068 40.3651 140.347 40.3651H136.275V46.8311H133.332V27.8906H140.439ZM136.275 37.8946H139.646C142.208 37.8946 143.656 36.5221 143.656 34.1279C143.656 31.7336 142.192 30.3764 139.661 30.3764H136.275V37.8946Z" fill="white"/>
<path d="M147.701 39.9393C147.701 35.593 150.263 32.8633 154.243 32.8633C158.224 32.8633 160.786 35.593 160.786 39.9393C160.786 44.2855 158.254 47.0153 154.243 47.0153C150.233 47.0153 147.701 44.3008 147.701 39.9393ZM157.919 39.9393C157.919 36.9655 156.546 35.1965 154.259 35.1965C151.971 35.1965 150.599 36.9655 150.599 39.9393C150.599 42.913 151.971 44.682 154.259 44.682C156.546 44.682 157.919 42.9435 157.919 39.9393Z" fill="white"/>
<path d="M162.796 39.9424C162.796 35.6724 165.144 32.8969 168.576 32.8969C170.558 32.8969 172.114 33.8119 172.907 35.3369H172.968V27.9102H175.819V46.8507H173.059V44.5022H173.013C172.205 46.0729 170.619 46.9879 168.621 46.9879C165.175 46.9879 162.826 44.2124 162.826 39.9424H162.796ZM165.693 39.9424C165.693 42.7789 167.142 44.5937 169.338 44.5937C171.534 44.5937 172.968 42.7484 172.968 39.9424C172.968 37.1364 171.504 35.3064 169.338 35.3064C167.142 35.3064 165.693 37.1364 165.693 39.9424Z" fill="white"/>
<path d="M187.854 37.7734C187.61 36.3094 186.466 35.2267 184.606 35.2267C182.425 35.2267 180.976 37.0567 180.976 39.9237C180.976 42.7907 182.44 44.6359 184.621 44.6359C186.374 44.6359 187.534 43.7514 187.854 42.1502H190.584C190.263 45.0477 187.945 46.9997 184.606 46.9997C180.671 46.9997 178.094 44.3157 178.094 39.9237C178.094 35.5317 180.671 32.8477 184.575 32.8477C188.113 32.8477 190.324 35.0742 190.568 37.7734H187.869H187.854Z" fill="white"/>
<path d="M192.319 42.9084C192.319 40.4989 194.165 39.0349 197.443 38.8366L201.225 38.6231V37.5709C201.225 36.0306 200.219 35.1614 198.496 35.1614C196.925 35.1614 195.812 35.9086 195.598 37.0981H192.945C193.021 34.5971 195.339 32.8281 198.572 32.8281C201.805 32.8281 204.047 34.6276 204.047 37.3421V46.8124H201.332V44.5401H201.271C200.463 46.0804 198.724 47.0411 196.91 47.0411C194.21 47.0411 192.319 45.3636 192.319 42.8779V42.9084ZM201.225 41.6579V40.5904L197.825 40.8039C196.132 40.9106 195.171 41.6426 195.171 42.8321C195.171 44.0216 196.162 44.8299 197.687 44.8299C199.67 44.8299 201.21 43.4574 201.21 41.6731L201.225 41.6579Z" fill="white"/>
<path d="M211.964 32.8785C215.029 32.8785 217.21 34.5713 217.286 37.0113H214.617C214.495 35.7913 213.458 35.044 211.887 35.044C210.317 35.044 209.325 35.7455 209.325 36.8283C209.325 37.6518 210.012 38.2008 211.445 38.5668L213.763 39.1005C216.539 39.7715 217.591 40.7933 217.591 42.8215C217.591 45.3073 215.227 47.0153 211.857 47.0153C208.487 47.0153 206.413 45.353 206.199 42.8215H209.005C209.203 44.1483 210.271 44.8498 211.979 44.8498C213.687 44.8498 214.739 44.1483 214.739 43.0503C214.739 42.1963 214.205 41.7388 212.772 41.3728L210.301 40.7628C207.816 40.1528 206.55 38.887 206.55 36.9655C206.55 34.5255 208.746 32.8633 211.948 32.8633L211.964 32.8785Z" fill="white"/>
<path d="M223.752 29.7656V33.0291H226.375V35.2709H223.752V42.8806C223.752 44.0701 224.286 44.6191 225.43 44.6191C225.72 44.6191 226.177 44.5734 226.36 44.5581V46.7846C226.04 46.8609 225.415 46.9219 224.789 46.9219C221.999 46.9219 220.901 45.8696 220.901 43.2009V35.2861H218.888V33.0444H220.901V29.7809H223.752V29.7656Z" fill="white"/>
<path d="M234.005 32.8785C237.07 32.8785 239.251 34.5713 239.327 37.0113H236.658C236.536 35.7913 235.499 35.044 233.928 35.044C232.358 35.044 231.366 35.7455 231.366 36.8283C231.366 37.6518 232.053 38.2008 233.486 38.5668L235.804 39.1005C238.595 39.7715 239.632 40.7933 239.632 42.8215C239.632 45.3073 237.268 47.0153 233.898 47.0153C230.528 47.0153 228.454 45.353 228.24 42.8215H231.046C231.244 44.1483 232.312 44.8498 234.02 44.8498C235.728 44.8498 236.78 44.1483 236.78 43.0503C236.78 42.1963 236.246 41.7388 234.813 41.3728L232.342 40.7628C229.841 40.1528 228.591 38.887 228.591 36.9655C228.591 34.5255 230.787 32.8633 234.005 32.8633V32.8785Z" fill="white"/>
<path d="M66.4142 21.7175H60.7412V12.6133H62.1595V20.406H66.4295V21.7023L66.4142 21.7175Z" fill="white"/>
<path d="M68.0566 12.827C68.0566 12.3543 68.4226 11.9883 68.9259 11.9883C69.4291 11.9883 69.7951 12.3543 69.7951 12.827C69.7951 13.2998 69.4291 13.6505 68.9259 13.6505C68.4226 13.6505 68.0566 13.2845 68.0566 12.827ZM68.2549 14.8553H69.5969V21.7178H68.2549V14.8553Z" fill="white"/>
<path d="M74.3086 14.7148C75.8488 14.7148 76.8553 15.4316 76.9926 16.6516H75.6963C75.5743 16.1483 75.0711 15.8281 74.3086 15.8281C73.5461 15.8281 72.9818 16.1941 72.9818 16.7278C72.9818 17.1396 73.3326 17.3988 74.0798 17.5666L75.2236 17.8258C76.5351 18.1308 77.1451 18.6951 77.1451 19.7016C77.1451 20.9978 75.9403 21.8518 74.3086 21.8518C72.6768 21.8518 71.6093 21.1198 71.4873 19.8998H72.8446C73.0123 20.4336 73.5156 20.7538 74.3391 20.7538C75.1626 20.7538 75.7878 20.3726 75.7878 19.8236C75.7878 19.4118 75.4676 19.1526 74.7813 18.9848L73.5766 18.7103C72.2651 18.4053 71.6703 17.8106 71.6703 16.7888C71.6703 15.5688 72.7836 14.7148 74.3391 14.7148H74.3086Z" fill="white"/>
<path d="M80.731 13.1484V14.8869H82.2255V16.0307H80.731V19.5687C80.731 20.2854 81.0208 20.6057 81.707 20.6057C81.9205 20.6057 82.0273 20.6057 82.2255 20.5752V21.7037C82.012 21.7342 81.7528 21.7799 81.4935 21.7799C79.9838 21.7799 79.389 21.2462 79.389 19.9194V16.0459H78.291V14.9022H79.389V13.1637H80.7463L80.731 13.1484Z" fill="white"/>
<path d="M89.7502 19.8736C89.4452 21.1089 88.3472 21.8561 86.7765 21.8561C84.8092 21.8561 83.6045 20.5141 83.6045 18.3181C83.6045 16.1221 84.8397 14.7344 86.7765 14.7344C88.7132 14.7344 89.8417 16.0459 89.8417 18.1961V18.6689H84.9922V18.7451C85.038 19.9499 85.7395 20.7124 86.8222 20.7124C87.6457 20.7124 88.21 20.4226 88.454 19.8736H89.7655H89.7502ZM84.977 17.6624H88.4387C88.4082 16.5796 87.7525 15.8781 86.746 15.8781C85.7395 15.8781 85.038 16.5796 84.9617 17.6624H84.977Z" fill="white"/>
<path d="M91.6348 14.8564H92.9463V15.9544H93.053C93.3885 15.1919 94.0748 14.7344 95.0965 14.7344C96.6215 14.7344 97.4755 15.6494 97.4755 17.2811V21.7189H96.1183V17.6166C96.1183 16.5186 95.6455 15.9696 94.639 15.9696C93.6325 15.9696 92.992 16.6406 92.992 17.7081V21.7189H91.6348V14.8564Z" fill="white"/>
<path d="M102.953 18.2833C102.953 16.0721 104.188 14.7148 106.201 14.7148C108.214 14.7148 109.434 16.0568 109.434 18.2833C109.434 20.5098 108.199 21.8518 106.201 21.8518C104.204 21.8518 102.953 20.5098 102.953 18.2833ZM108.031 18.2833C108.031 16.7888 107.36 15.9196 106.186 15.9196C105.012 15.9196 104.341 16.7888 104.341 18.2833C104.341 19.7778 104.997 20.6471 106.186 20.6471C107.376 20.6471 108.031 19.7778 108.031 18.2833Z" fill="white"/>
<path d="M111.245 14.8564H112.557V15.9544H112.663C112.999 15.1919 113.685 14.7344 114.707 14.7344C116.232 14.7344 117.086 15.6494 117.086 17.2811V21.7189H115.729V17.6166C115.729 16.5186 115.256 15.9696 114.249 15.9696C113.243 15.9696 112.602 16.6406 112.602 17.7081V21.7189H111.245V14.8564Z" fill="white"/>
</svg>
