<svg width="252" height="61" viewBox="0 0 252 61" fill="none" xmlns="http://www.w3.org/2000/svg">
<path d="M239.425 0H12.2C5.46213 0 0 5.46213 0 12.2V48.8C0 55.5379 5.46213 61 12.2 61H239.425C246.163 61 251.625 55.5379 251.625 48.8V12.2C251.625 5.46213 246.163 0 239.425 0Z" fill="#8D84FB"/>
<path fill-rule="evenodd" clip-rule="evenodd" d="M41.8637 27.69C42.7025 28.1932 43.8005 27.9187 44.2885 27.0647C44.7917 26.226 44.5172 25.128 43.6632 24.6247C36.633 20.431 25.5005 20.0345 18.8057 22.078C17.8755 22.3677 17.3417 23.359 17.6162 24.3045C17.906 25.25 18.8972 25.7837 19.8275 25.494C25.6682 23.7097 35.7332 24.0452 41.8485 27.7052L41.8637 27.69ZM41.6655 33.0885C42.0925 32.387 41.879 31.472 41.1775 31.045C35.3215 27.4307 26.7662 26.409 19.8885 28.5135C19.1107 28.7575 18.6685 29.581 18.8972 30.374C19.1412 31.1517 19.9647 31.6092 20.7425 31.3652C26.7662 29.52 34.5437 30.435 39.6372 33.5917C40.3387 34.0187 41.2385 33.8052 41.6655 33.1037V33.0885ZM39.3475 38.2735C39.683 37.7092 39.5152 36.9772 38.951 36.6417C33.949 33.5765 27.7575 32.8597 20.5442 34.522C19.9037 34.6745 19.5072 35.2997 19.6597 35.9402C19.8122 36.5807 20.4375 36.9772 21.078 36.84C27.6812 35.3302 33.278 35.9402 37.731 38.6852C38.28 39.0207 39.012 38.853 39.3627 38.2887L39.3475 38.2735ZM30.655 10.793C41.1317 10.793 49.6107 19.333 49.6107 29.8555C49.6107 40.378 41.1165 48.918 30.655 48.918C20.1935 48.918 11.6992 40.378 11.6992 29.8555C11.6992 19.333 20.1782 10.793 30.655 10.793Z" fill="white"/>
<path d="M66.4142 21.7175H60.7412V12.6133H62.1595V20.406H66.4295V21.7023L66.4142 21.7175Z" fill="white"/>
<path d="M68.0566 12.827C68.0566 12.3543 68.4226 11.9883 68.9259 11.9883C69.4291 11.9883 69.7951 12.3543 69.7951 12.827C69.7951 13.2998 69.4291 13.6505 68.9259 13.6505C68.4226 13.6505 68.0566 13.2845 68.0566 12.827ZM68.2549 14.8553H69.5969V21.7178H68.2549V14.8553Z" fill="white"/>
<path d="M74.3086 14.7148C75.8488 14.7148 76.8553 15.4316 76.9926 16.6516H75.6963C75.5743 16.1483 75.0711 15.8281 74.3086 15.8281C73.5461 15.8281 72.9818 16.1941 72.9818 16.7278C72.9818 17.1396 73.3326 17.3988 74.0798 17.5666L75.2236 17.8258C76.5351 18.1308 77.1451 18.6951 77.1451 19.7016C77.1451 20.9978 75.9403 21.8518 74.3086 21.8518C72.6768 21.8518 71.6093 21.1198 71.4873 19.8998H72.8446C73.0123 20.4336 73.5156 20.7538 74.3391 20.7538C75.1626 20.7538 75.7878 20.3726 75.7878 19.8236C75.7878 19.4118 75.4676 19.1526 74.7813 18.9848L73.5766 18.7103C72.2651 18.4053 71.6703 17.8106 71.6703 16.7888C71.6703 15.5688 72.7836 14.7148 74.3391 14.7148H74.3086Z" fill="white"/>
<path d="M80.731 13.1484V14.8869H82.2255V16.0307H80.731V19.5687C80.731 20.2854 81.0208 20.6057 81.707 20.6057C81.9205 20.6057 82.0273 20.6057 82.2255 20.5752V21.7037C82.012 21.7342 81.7528 21.7799 81.4935 21.7799C79.9838 21.7799 79.389 21.2462 79.389 19.9194V16.0459H78.291V14.9022H79.389V13.1637H80.7463L80.731 13.1484Z" fill="white"/>
<path d="M89.7502 19.8736C89.4452 21.1089 88.3472 21.8561 86.7765 21.8561C84.8092 21.8561 83.6045 20.5141 83.6045 18.3181C83.6045 16.1221 84.8397 14.7344 86.7765 14.7344C88.7132 14.7344 89.8417 16.0459 89.8417 18.1961V18.6689H84.9922V18.7451C85.038 19.9499 85.7395 20.7124 86.8222 20.7124C87.6457 20.7124 88.21 20.4226 88.454 19.8736H89.7655H89.7502ZM84.977 17.6624H88.4387C88.4082 16.5796 87.7525 15.8781 86.746 15.8781C85.7395 15.8781 85.038 16.5796 84.9617 17.6624H84.977Z" fill="white"/>
<path d="M91.6348 14.8564H92.9463V15.9544H93.053C93.3885 15.1919 94.0748 14.7344 95.0965 14.7344C96.6215 14.7344 97.4755 15.6494 97.4755 17.2811V21.7189H96.1183V17.6166C96.1183 16.5186 95.6455 15.9696 94.639 15.9696C93.6325 15.9696 92.992 16.6406 92.992 17.7081V21.7189H91.6348V14.8564Z" fill="white"/>
<path d="M102.953 18.2833C102.953 16.0721 104.188 14.7148 106.201 14.7148C108.214 14.7148 109.434 16.0568 109.434 18.2833C109.434 20.5098 108.199 21.8518 106.201 21.8518C104.204 21.8518 102.953 20.5098 102.953 18.2833ZM108.031 18.2833C108.031 16.7888 107.36 15.9196 106.186 15.9196C105.012 15.9196 104.341 16.7888 104.341 18.2833C104.341 19.7778 104.997 20.6471 106.186 20.6471C107.376 20.6471 108.031 19.7778 108.031 18.2833Z" fill="white"/>
<path d="M111.245 14.8564H112.557V15.9544H112.663C112.999 15.1919 113.685 14.7344 114.707 14.7344C116.232 14.7344 117.086 15.6494 117.086 17.2811V21.7189H115.729V17.6166C115.729 16.5186 115.256 15.9696 114.249 15.9696C113.243 15.9696 112.602 16.6406 112.602 17.7081V21.7189H111.245V14.8564Z" fill="white"/>
<path fill-rule="evenodd" clip-rule="evenodd" d="M66.4571 36.188C70.4678 37.164 72.0996 38.689 72.0996 41.434C72.0996 44.6823 69.6291 46.7868 65.8013 46.7868C63.1021 46.7868 60.5858 45.826 58.5423 43.996C58.4508 43.9198 58.4508 43.7825 58.5271 43.691L60.3266 41.5408C60.3266 41.5408 60.4181 41.4645 60.4791 41.4645C60.5401 41.4645 60.6011 41.4645 60.6316 41.5103C62.3853 43.0352 63.9561 43.691 65.8776 43.691C67.6008 43.691 68.6836 42.9438 68.6836 41.7238C68.6836 40.6258 68.1498 40.0158 65.0083 39.299C61.3026 38.3993 59.1676 37.2403 59.1676 33.9463C59.1676 30.881 61.6533 28.7308 65.2066 28.7308C67.6161 28.7308 69.6901 29.4475 71.5201 30.9268C71.6116 31.003 71.6268 31.125 71.5658 31.2165L69.9646 33.4887C69.9646 33.4887 69.8731 33.565 69.8273 33.5803C69.7663 33.5803 69.7053 33.5803 69.6596 33.5345C68.1193 32.3755 66.6401 31.8113 65.1608 31.8113C63.6816 31.8113 62.5988 32.5433 62.5988 33.6565C62.5988 34.8155 63.1783 35.3797 66.4723 36.1575L66.4571 36.188ZM83.5371 39.8785C83.5371 37.591 82.0883 35.9288 80.0753 35.9288C78.0623 35.9288 76.5373 37.6215 76.5373 39.8785C76.5373 42.1355 78.0623 43.8283 80.0753 43.8283C82.0883 43.8283 83.5371 42.2118 83.5371 39.8785ZM80.7616 32.9245C83.8421 32.9245 86.9683 35.3188 86.9683 39.8785C86.9683 44.4383 83.8421 46.8325 80.7616 46.8325C79.0993 46.8325 77.7421 46.2073 76.6136 44.9415V50.2638C76.6136 50.3857 76.5221 50.4772 76.4001 50.4772H73.4568C73.3348 50.4772 73.2433 50.3857 73.2433 50.2638V33.4278C73.2433 33.3058 73.3348 33.2143 73.4568 33.2143H76.4001C76.5221 33.2143 76.6136 33.3058 76.6136 33.4278V34.9375C77.7421 33.5955 79.0993 32.9398 80.7616 32.9398V32.9245ZM94.9593 43.8435C97.0943 43.8435 98.6346 42.1965 98.6346 39.9243C98.6346 37.652 97.0333 35.9593 94.9136 35.9593C92.7938 35.9593 91.2536 37.6062 91.2536 39.8785C91.2536 42.1508 92.8396 43.8435 94.9593 43.8435ZM94.9593 32.9245C98.9243 32.9245 102.02 35.9745 102.02 39.8785C102.02 43.7825 98.8938 46.8477 94.9136 46.8477C90.9333 46.8477 87.8833 43.813 87.8833 39.9243C87.8833 36.0355 90.9943 32.9245 94.9593 32.9245ZM110.499 33.199C110.621 33.199 110.713 33.2905 110.713 33.4125V35.9593C110.713 36.0813 110.621 36.1727 110.499 36.1727H107.251V42.3033C107.251 43.264 107.678 43.7063 108.623 43.7063C109.233 43.7063 109.782 43.569 110.347 43.2793C110.408 43.2487 110.499 43.2487 110.56 43.2793C110.621 43.325 110.667 43.386 110.667 43.4623V45.887C110.667 45.9633 110.621 46.0395 110.56 46.07C109.737 46.5427 108.852 46.7563 107.8 46.7563C105.207 46.7563 103.881 45.399 103.881 42.7455V36.1575H102.462C102.34 36.1575 102.249 36.066 102.249 35.944V33.3973C102.249 33.2752 102.34 33.1838 102.462 33.1838H103.881V29.844C103.881 29.722 103.972 29.6305 104.094 29.6305H107.037C107.159 29.6305 107.251 29.722 107.251 29.844V33.1838H110.499V33.199ZM121.799 33.199H126.832C126.923 33.199 127 33.26 127.03 33.3363L130.477 42.3643L133.618 33.3363C133.649 33.2448 133.725 33.1838 133.816 33.1838H136.882C136.882 33.1838 137.019 33.2143 137.065 33.2752C137.11 33.3363 137.11 33.4125 137.08 33.4735L131.971 46.7563C130.904 49.5013 129.714 50.523 127.533 50.523C126.374 50.523 125.429 50.279 124.392 49.7147C124.285 49.6537 124.255 49.5317 124.3 49.4402L125.292 47.2443C125.292 47.2443 125.368 47.1528 125.414 47.1223C125.475 47.107 125.536 47.1223 125.581 47.1375C126.146 47.4425 126.679 47.595 127.198 47.595C127.838 47.595 128.311 47.3815 128.784 46.314L124.575 36.1575H121.83V46.314C121.83 46.436 121.738 46.5275 121.616 46.5275H118.673C118.551 46.5275 118.46 46.436 118.46 46.314V36.1575H117.041C116.919 36.1575 116.828 36.066 116.828 35.944V33.382C116.828 33.26 116.919 33.1685 117.041 33.1685H118.46V32.5433C118.46 29.6305 119.893 28.0903 122.623 28.0903C123.736 28.0903 124.483 28.2732 125.063 28.441C125.154 28.4715 125.215 28.5478 125.215 28.6545V31.1555C125.215 31.1555 125.185 31.2927 125.124 31.3385C125.063 31.3842 125.002 31.3843 124.926 31.369C124.377 31.186 123.873 31.064 123.263 31.064C122.242 31.064 121.769 31.5978 121.769 32.8025V33.2143L121.799 33.199ZM115.257 33.199C115.379 33.199 115.471 33.2905 115.471 33.4125V46.3293C115.471 46.4513 115.379 46.5428 115.257 46.5428H112.314C112.192 46.5428 112.1 46.4513 112.1 46.3293V33.4125C112.1 33.2905 112.192 33.199 112.314 33.199H115.257ZM113.793 27.3125C114.967 27.3125 115.913 28.258 115.913 29.4322C115.913 30.6065 114.967 31.552 113.793 31.552C112.619 31.552 111.673 30.6065 111.673 29.4322C111.673 28.258 112.619 27.3125 113.793 27.3125Z" fill="white"/>
<path d="M154.943 37.8784C154.577 38.6104 154.089 39.2204 153.479 39.7084C152.853 40.1964 152.137 40.5624 151.298 40.8217C150.459 41.0809 149.575 41.2029 148.629 41.2029H145.228V46.7082H142.239V29.5977H148.98C149.971 29.5977 150.871 29.7349 151.679 29.9942C152.487 30.2687 153.174 30.6499 153.738 31.1532C154.302 31.6564 154.729 32.2664 155.034 32.9679C155.339 33.6694 155.492 34.4624 155.492 35.3469C155.492 36.3077 155.309 37.1617 154.958 37.8937L154.943 37.8784ZM151.42 33.0747C150.749 32.5562 149.849 32.2969 148.721 32.2969H145.213V38.4884H148.721C149.864 38.4884 150.764 38.2139 151.435 37.6344C152.106 37.0549 152.426 36.3229 152.426 35.3927C152.426 34.3557 152.091 33.5932 151.42 33.0747Z" fill="white"/>
<path d="M169.145 42.8643C168.794 43.6725 168.321 44.3893 167.696 44.9993C167.086 45.6093 166.354 46.0972 165.515 46.448C164.677 46.7987 163.746 46.9817 162.755 46.9817C161.764 46.9817 160.864 46.814 160.025 46.4632C159.187 46.1125 158.455 45.6398 157.845 45.0145C157.235 44.4045 156.762 43.6877 156.411 42.8947C156.06 42.1017 155.893 41.2173 155.893 40.287C155.893 39.3568 156.06 38.4875 156.411 37.664C156.762 36.8405 157.25 36.1238 157.86 35.5138C158.47 34.9038 159.202 34.4158 160.041 34.065C160.879 33.699 161.794 33.5312 162.786 33.5312C163.777 33.5312 164.692 33.7143 165.531 34.0498C166.369 34.4005 167.101 34.8885 167.711 35.4985C168.321 36.1085 168.794 36.8253 169.145 37.6335C169.48 38.4418 169.663 39.3262 169.663 40.2565C169.663 41.1867 169.496 42.056 169.13 42.8795L169.145 42.8643ZM166.4 38.6858C166.202 38.1825 165.927 37.7403 165.592 37.359C165.241 36.9778 164.829 36.6727 164.356 36.4592C163.884 36.2458 163.35 36.1238 162.77 36.1238C162.191 36.1238 161.657 36.2305 161.184 36.4592C160.712 36.688 160.3 36.9778 159.964 37.3438C159.629 37.725 159.37 38.152 159.187 38.6553C159.004 39.1585 158.912 39.6922 158.912 40.2565C158.912 40.8207 159.004 41.3697 159.202 41.8882C159.4 42.4067 159.659 42.849 160.01 43.215C160.361 43.5963 160.773 43.886 161.245 44.0995C161.718 44.313 162.252 44.435 162.816 44.435C163.411 44.435 163.96 44.3282 164.433 44.0995C164.905 43.8708 165.317 43.581 165.653 43.215C165.988 42.8338 166.247 42.4067 166.43 41.9035C166.613 41.4002 166.705 40.8665 166.705 40.3023C166.705 39.738 166.613 39.189 166.415 38.6858H166.4Z" fill="white"/>
<path d="M180.884 46.7089V44.5587C180.412 45.2297 179.817 45.7939 179.115 46.2667C178.414 46.7394 177.529 46.9834 176.492 46.9834C175.73 46.9834 174.983 46.8309 174.266 46.5412C173.549 46.2514 172.909 45.8092 172.36 45.2297C171.811 44.6502 171.353 43.9487 171.018 43.1099C170.682 42.2712 170.499 41.3257 170.499 40.2429C170.499 39.1602 170.667 38.2147 171.002 37.3759C171.338 36.5372 171.78 35.8357 172.329 35.2562C172.878 34.6767 173.519 34.2344 174.251 33.9447C174.983 33.6549 175.715 33.5024 176.477 33.5024C177.529 33.5024 178.414 33.7312 179.115 34.1887C179.817 34.6462 180.396 35.1799 180.869 35.7747V28.8359H183.858V46.6784H180.869L180.884 46.7089ZM180.625 38.5502C180.427 38.0469 180.152 37.6047 179.817 37.2387C179.481 36.8727 179.085 36.5982 178.627 36.3999C178.17 36.2017 177.697 36.1102 177.209 36.1102C176.721 36.1102 176.233 36.2017 175.791 36.3847C175.349 36.5677 174.952 36.8422 174.601 37.2082C174.266 37.5589 173.991 38.0012 173.793 38.5197C173.595 39.0382 173.503 39.6177 173.503 40.2734C173.503 40.9292 173.595 41.4782 173.793 41.9967C173.991 42.5152 174.251 42.9422 174.601 43.3082C174.937 43.6742 175.333 43.9487 175.791 44.1317C176.233 44.3299 176.706 44.4214 177.209 44.4214C177.712 44.4214 178.17 44.3299 178.627 44.1317C179.085 43.9334 179.481 43.6589 179.817 43.2929C180.152 42.9269 180.427 42.4847 180.625 41.9814C180.823 41.4782 180.93 40.8987 180.93 40.2734C180.93 39.6482 180.823 39.0687 180.625 38.5654V38.5502Z" fill="white"/>
<path d="M195.162 46.326C194.354 46.7682 193.317 46.997 192.051 46.997C191.09 46.997 190.206 46.8292 189.382 46.4785C188.559 46.1277 187.857 45.655 187.263 45.0298C186.668 44.4198 186.195 43.703 185.86 42.91C185.524 42.117 185.356 41.2325 185.356 40.3023C185.356 39.372 185.524 38.5027 185.86 37.6792C186.195 36.871 186.668 36.1542 187.263 35.529C187.857 34.9037 188.574 34.4158 189.398 34.065C190.221 33.699 191.121 33.5312 192.082 33.5312C193.302 33.5312 194.323 33.7295 195.132 34.1412C195.94 34.553 196.641 35.0868 197.251 35.7578L195.421 37.7403C194.964 37.2675 194.476 36.8863 193.973 36.5812C193.454 36.2762 192.829 36.1238 192.082 36.1238C191.548 36.1238 191.045 36.2305 190.587 36.4592C190.13 36.6727 189.733 36.9778 189.413 37.3438C189.093 37.725 188.833 38.152 188.635 38.6553C188.437 39.1585 188.361 39.6922 188.361 40.2565C188.361 40.8207 188.452 41.385 188.635 41.8882C188.818 42.3915 189.093 42.8338 189.428 43.215C189.764 43.5963 190.175 43.886 190.648 44.0995C191.121 44.313 191.639 44.435 192.219 44.435C192.92 44.435 193.53 44.2825 194.064 43.9775C194.598 43.6725 195.101 43.2913 195.574 42.8185L197.358 44.5722C196.718 45.289 196.001 45.8685 195.177 46.326H195.162Z" fill="white"/>
<path d="M206.424 46.7091V45.1231C205.981 45.6416 205.417 46.0839 204.731 46.4499C204.045 46.8159 203.221 46.9836 202.23 46.9836C201.605 46.9836 201.025 46.8921 200.476 46.7244C199.927 46.5566 199.439 46.2974 199.027 45.9619C198.616 45.6264 198.28 45.2146 198.021 44.7114C197.762 44.2081 197.64 43.6439 197.64 42.9881V42.9424C197.64 42.2409 197.777 41.6309 198.036 41.1124C198.295 40.5939 198.661 40.1669 199.119 39.8161C199.576 39.4654 200.141 39.2214 200.781 39.0536C201.422 38.8859 202.123 38.7944 202.87 38.7944C203.618 38.7944 204.319 38.8401 204.868 38.9469C205.417 39.0384 205.936 39.1756 206.439 39.3434V39.0231C206.439 38.1234 206.164 37.4371 205.615 36.9644C205.066 36.4916 204.289 36.2629 203.252 36.2629C202.52 36.2629 201.864 36.3391 201.3 36.4764C200.735 36.6136 200.156 36.8119 199.561 37.0559L198.753 34.6769C199.47 34.3566 200.202 34.0974 200.949 33.8991C201.696 33.7009 202.596 33.6094 203.663 33.6094C205.585 33.6094 207.018 34.0821 207.949 35.0429C208.879 36.0036 209.336 37.3304 209.336 39.0689V46.7244H206.408L206.424 46.7091ZM206.5 41.2344C206.119 41.0819 205.676 40.9599 205.173 40.8684C204.655 40.7769 204.121 40.7159 203.541 40.7159C202.611 40.7159 201.894 40.8989 201.361 41.2496C200.842 41.6004 200.583 42.1189 200.583 42.7899V42.8356C200.583 43.4609 200.827 43.9336 201.3 44.2539C201.772 44.5741 202.367 44.7419 203.069 44.7419C203.557 44.7419 204.014 44.6809 204.426 44.5436C204.838 44.4064 205.204 44.2234 205.509 43.9946C205.814 43.7659 206.058 43.4761 206.225 43.1406C206.393 42.8051 206.485 42.4391 206.485 42.0274V41.2191L206.5 41.2344Z" fill="white"/>
<path d="M220.241 44.6801C219.997 45.1834 219.661 45.6104 219.219 45.9459C218.792 46.2814 218.273 46.5254 217.694 46.7084C217.099 46.8761 216.474 46.9676 215.803 46.9676C214.873 46.9676 213.927 46.7999 212.982 46.4796C212.036 46.1594 211.136 45.6714 210.328 45.0309L211.655 43.0331C212.356 43.5516 213.073 43.9481 213.79 44.2226C214.522 44.4971 215.208 44.6191 215.879 44.6191C216.55 44.6191 217.008 44.4971 217.358 44.2379C217.709 43.9786 217.877 43.6431 217.877 43.2161V43.1704C217.877 42.9264 217.801 42.7129 217.648 42.5299C217.496 42.3469 217.282 42.1944 217.008 42.0571C216.733 41.9199 216.428 41.7979 216.077 41.6911C215.727 41.5844 215.361 41.4776 214.995 41.3556C214.522 41.2031 214.049 41.0506 213.561 40.8676C213.073 40.6846 212.646 40.4559 212.265 40.1661C211.884 39.8764 211.563 39.5256 211.319 39.1139C211.075 38.7021 210.953 38.1836 210.953 37.5584V37.5126C210.953 36.9026 211.075 36.3689 211.304 35.8809C211.533 35.3929 211.868 34.9811 212.28 34.6304C212.692 34.2796 213.18 34.0204 213.744 33.8526C214.308 33.6849 214.903 33.5781 215.544 33.5781C216.352 33.5781 217.175 33.7154 218.014 33.9746C218.838 34.2339 219.6 34.5999 220.286 35.0574L219.112 37.1619C218.487 36.7806 217.862 36.4909 217.236 36.2621C216.596 36.0486 216.016 35.9266 215.483 35.9266C214.918 35.9266 214.461 36.0486 214.156 36.2926C213.851 36.5366 213.683 36.8416 213.683 37.2229V37.2686C213.683 37.4974 213.759 37.6956 213.927 37.8634C214.095 38.0311 214.308 38.1836 214.583 38.3209C214.857 38.4581 215.162 38.5954 215.513 38.7174C215.864 38.8394 216.23 38.9614 216.596 39.0681C217.069 39.2206 217.541 39.3884 218.014 39.5866C218.487 39.7849 218.914 40.0289 219.295 40.3034C219.676 40.5779 219.997 40.9286 220.241 41.3404C220.485 41.7521 220.607 42.2401 220.607 42.8349V42.8806C220.607 43.5669 220.485 44.1616 220.241 44.6649V44.6801Z" fill="white"/>
<path d="M225.469 42.6674C225.469 43.2469 225.607 43.6587 225.881 43.9027C226.156 44.1619 226.552 44.2839 227.055 44.2839C227.696 44.2839 228.306 44.1314 228.885 43.8417V46.2664C228.504 46.4799 228.108 46.6477 227.681 46.7544C227.254 46.8612 226.766 46.9222 226.217 46.9222C225.668 46.9222 225.18 46.8612 224.722 46.7239C224.265 46.5867 223.868 46.3884 223.533 46.0834C223.197 45.7937 222.938 45.3972 222.755 44.9244C222.572 44.4364 222.48 43.8417 222.48 43.1249V36.3082H220.849V33.7919H222.48V30.2539H225.469V33.7919H228.946V36.3082H225.469V42.6674Z" fill="white"/>
<path d="M239.255 44.6801C239.011 45.1834 238.676 45.6104 238.234 45.9459C237.807 46.2814 237.288 46.5254 236.709 46.7084C236.114 46.8761 235.489 46.9676 234.818 46.9676C233.887 46.9676 232.942 46.7999 231.996 46.4796C231.051 46.1594 230.151 45.6714 229.343 45.0309L230.67 43.0331C231.371 43.5516 232.088 43.9481 232.805 44.2226C233.537 44.4971 234.223 44.6191 234.894 44.6191C235.565 44.6191 236.022 44.4971 236.373 44.2379C236.724 43.9786 236.892 43.6431 236.892 43.2161V43.1704C236.892 42.9264 236.815 42.7129 236.663 42.5299C236.51 42.3469 236.297 42.1944 236.022 42.0571C235.748 41.9199 235.443 41.7979 235.092 41.6911C234.741 41.5844 234.375 41.4776 234.009 41.3556C233.537 41.2031 233.064 41.0506 232.576 40.8676C232.088 40.6846 231.661 40.4559 231.28 40.1661C230.898 39.8764 230.578 39.5256 230.334 39.1139C230.09 38.7021 229.968 38.1836 229.968 37.5584V37.5126C229.968 36.9026 230.09 36.3689 230.319 35.8809C230.548 35.3929 230.883 34.9811 231.295 34.6304C231.707 34.2796 232.195 34.0204 232.759 33.8526C233.323 33.6849 233.918 33.5781 234.558 33.5781C235.367 33.5781 236.19 33.7154 237.029 33.9746C237.852 34.2339 238.615 34.5999 239.301 35.0574L238.127 37.1619C237.502 36.7806 236.876 36.4909 236.251 36.2621C235.611 36.0486 235.031 35.9266 234.497 35.9266C233.933 35.9266 233.476 36.0486 233.171 36.2926C232.866 36.5366 232.698 36.8416 232.698 37.2229V37.2686C232.698 37.4974 232.774 37.6956 232.942 37.8634C233.11 38.0311 233.323 38.1836 233.598 38.3209C233.872 38.4581 234.177 38.5954 234.528 38.7174C234.879 38.8394 235.245 38.9614 235.611 39.0681C236.083 39.2206 236.556 39.3884 237.029 39.5866C237.502 39.7849 237.929 40.0289 238.31 40.3034C238.691 40.5779 239.011 40.9286 239.255 41.3404C239.499 41.7521 239.621 42.2401 239.621 42.8349V42.8806C239.621 43.5669 239.499 44.1616 239.255 44.6649V44.6801Z" fill="white"/>
</svg>
