<svg width="55" height="48" viewBox="0 0 55 48" fill="none" xmlns="http://www.w3.org/2000/svg">
<path d="M52.9286 23.521C52.4193 23.521 52.0025 23.9377 52.0025 24.4471V45.5161H5.15072C4.64136 45.5161 4.22461 45.9328 4.22461 46.4422C4.22461 46.9515 4.64136 47.3683 5.15072 47.3683H52.9286C53.438 47.3683 53.8548 46.9515 53.8548 46.4422V24.4471C53.8548 23.9377 53.438 23.521 52.9286 23.521Z" fill="#3EA8BD"/>
<path d="M25.3289 36.1069H6.37142C5.86206 36.1069 5.44531 36.5237 5.44531 37.033C5.44531 37.5424 5.86206 37.9592 6.37142 37.9592H25.3289C25.8382 37.9592 26.255 37.5424 26.255 37.033C26.255 36.5237 25.8382 36.1069 25.3289 36.1069Z" fill="#3EA8BD"/>
<path d="M22.7272 32.821C22.8105 32.8766 22.9124 32.9044 23.0143 32.9044C23.1809 32.9044 23.3384 32.821 23.4403 32.6729L24.3756 31.2652L25.311 32.6729C25.4129 32.821 25.5703 32.9044 25.737 32.9044C25.8296 32.9044 25.9315 32.8766 26.0241 32.821C26.2556 32.6636 26.3205 32.3487 26.163 32.1172L24.9869 30.3576L26.163 28.598C26.3205 28.3665 26.2556 28.0423 26.0241 27.8941C25.7926 27.7367 25.4684 27.8015 25.311 28.0331L24.3756 29.4407L23.4403 28.0331C23.2828 27.8015 22.9679 27.7367 22.7272 27.8941C22.4956 28.0516 22.4308 28.3665 22.5882 28.598L23.7644 30.3576L22.5882 32.1172C22.4308 32.3487 22.4956 32.6729 22.7272 32.821Z" fill="#3EA8BD"/>
<path d="M17.1312 28.586L18.3074 30.3456L17.1312 32.1052C16.9738 32.3368 17.0386 32.6609 17.2701 32.8091C17.3535 32.8646 17.4553 32.8924 17.5572 32.8924C17.7239 32.8924 17.8814 32.8091 17.9832 32.6609L18.9186 31.2532L19.854 32.6609C19.9558 32.8091 20.1133 32.8924 20.28 32.8924C20.3726 32.8924 20.4745 32.8646 20.5671 32.8091C20.7986 32.6516 20.8634 32.3368 20.706 32.1052L19.5298 30.3456L20.706 28.586C20.8634 28.3545 20.7986 28.0304 20.5671 27.8822C20.3355 27.7247 20.0114 27.7896 19.854 28.0211L18.9186 29.4288L17.9832 28.0211C17.8258 27.7896 17.5109 27.7247 17.2701 27.8822C17.0386 28.0396 16.9738 28.3545 17.1312 28.586Z" fill="#3EA8BD"/>
<path d="M15.1218 27.8822C14.8902 27.7247 14.5661 27.7896 14.4087 28.0211L13.4733 29.4288L12.5379 28.0211C12.3805 27.7896 12.0656 27.7247 11.8248 27.8822C11.5933 28.0396 11.5285 28.3545 11.6859 28.586L12.8621 30.3456L11.6859 32.1052C11.5285 32.3368 11.5933 32.6609 11.8248 32.8091C11.9082 32.8646 12.01 32.8924 12.1119 32.8924C12.2786 32.8924 12.436 32.8091 12.5379 32.6609L13.4733 31.2532L14.4087 32.6609C14.5105 32.8091 14.668 32.8924 14.8347 32.8924C14.9365 32.8924 15.0291 32.8646 15.1218 32.8091C15.3533 32.6516 15.4181 32.3368 15.2607 32.1052L14.0845 30.3456L15.2607 28.586C15.4181 28.3545 15.3533 28.0304 15.1218 27.8822Z" fill="#3EA8BD"/>
<path d="M9.66863 27.8822C9.43711 27.7247 9.11297 27.7896 8.95553 28.0211L8.02016 29.4288L7.08479 28.0211C6.92735 27.7896 6.61248 27.7247 6.37169 27.8822C6.14016 28.0396 6.07533 28.3545 6.23277 28.586L7.40893 30.3456L6.23277 32.1052C6.07533 32.3368 6.14016 32.6609 6.37169 32.8091C6.45504 32.8646 6.55691 32.8924 6.65878 32.8924C6.82548 32.8924 6.98292 32.8091 7.08479 32.6609L8.02016 31.2532L8.95553 32.6609C9.0574 32.8091 9.21484 32.8924 9.38154 32.8924C9.47415 32.8924 9.57602 32.8646 9.66863 32.8091C9.90016 32.6516 9.96499 32.3368 9.80755 32.1052L8.63139 30.3456L9.80755 28.586C9.96499 28.3545 9.90016 28.0304 9.66863 27.8822Z" fill="#3EA8BD"/>
<path d="M50.1204 42.2771V18.4298C50.1204 17.9205 49.7036 17.5037 49.1943 17.5037H47.0364L51.7411 9.35395L53.4729 6.35336C54.0286 5.39947 54.1767 4.28814 53.8896 3.21386C53.6026 2.14883 52.9172 1.25051 51.9633 0.704103C51.3336 0.34292 50.6205 0.148438 49.8981 0.148438C48.4256 0.148438 47.055 0.944891 46.3141 2.21366L45.0453 4.4178L43.5265 3.53799C43.3135 3.4176 43.0634 3.38056 42.8226 3.44538C42.5819 3.51021 42.3874 3.66765 42.2577 3.88065L36.7381 13.4196C36.7381 13.4196 36.7289 13.4196 36.7196 13.4196C36.2751 13.1603 35.7101 13.3177 35.4508 13.7622C35.1915 14.2068 35.349 14.7717 35.7935 15.031C36.0806 15.1977 36.4047 15.281 36.7289 15.281C36.8956 15.281 37.053 15.2625 37.2197 15.2162C37.7013 15.0866 38.1088 14.7717 38.3588 14.3457L43.3968 5.62174L44.1192 6.03849L37.4883 17.5222H1.41634C0.906983 17.5222 0.490234 17.939 0.490234 18.4483V42.2956C0.490234 42.805 0.906983 43.2217 1.41634 43.2217H49.1943C49.7036 43.2217 50.1204 42.805 50.1204 42.2956V42.2771ZM38.6829 28.2743L34.7285 25.9961L45.7214 6.95533L47.694 8.09445L49.6666 9.23356L38.6737 28.2743H38.6829ZM34.145 27.7928L37.4234 29.682L33.1541 33.2939L34.145 27.7928ZM47.9255 3.13977C48.5275 2.09327 49.9907 1.69504 51.0465 2.30627C51.5744 2.61189 51.9541 3.10272 52.1115 3.69543C52.269 4.27888 52.1856 4.89937 51.88 5.42726L50.6112 7.63139L48.6386 6.49228L46.666 5.35317L47.9348 3.14903L47.9255 3.13977ZM48.2682 41.351H2.34245V19.3559H36.4232L32.6632 25.8665C32.6632 25.8665 32.6632 25.885 32.654 25.8942C32.6077 25.9776 32.5706 26.0702 32.5521 26.1628L30.9036 35.3313L29.8664 37.1187C29.6071 37.5632 29.7645 38.1281 30.2091 38.3875C30.3572 38.4708 30.5147 38.5078 30.6721 38.5078C30.9962 38.5078 31.3019 38.3411 31.4778 38.0448L32.5058 36.2574L39.6183 30.2377C39.6924 30.1729 39.748 30.0988 39.8035 30.0154C39.8035 30.0154 39.8221 29.9969 39.8221 29.9876L45.9714 19.3374H48.2682V41.3325V41.351Z" fill="#3EA8BD"/>
<path d="M6.37142 24.6886H16.2437C16.7531 24.6886 17.1698 24.2719 17.1698 23.7625C17.1698 23.2532 16.7531 22.8364 16.2437 22.8364H6.37142C5.86206 22.8364 5.44531 23.2532 5.44531 23.7625C5.44531 24.2719 5.86206 24.6886 6.37142 24.6886Z" fill="#3EA8BD"/>
</svg>
