<svg width="48" height="48" viewBox="0 0 48 48" fill="none" xmlns="http://www.w3.org/2000/svg">
<path d="M38.97 0H8.17C3.65783 0 0 3.65783 0 8.17V38.97C0 43.4822 3.65783 47.14 8.17 47.14H38.97C43.4822 47.14 47.14 43.4822 47.14 38.97V8.17C47.14 3.65783 43.4822 0 38.97 0Z" fill="#EBF1FA"/>
<path d="M13.0794 25.1094C9.22937 25.1094 6.10938 28.2294 6.10938 32.0794C6.10938 35.9294 9.22937 39.0494 13.0794 39.0494C16.9294 39.0494 20.0494 35.9294 20.0494 32.0794C20.0494 28.2294 16.9294 25.1094 13.0794 25.1094ZM13.0794 38.0594C9.77937 38.0594 7.10938 35.3894 7.10938 32.0894C7.10938 28.7894 9.77937 26.1194 13.0794 26.1194C16.3794 26.1194 19.0494 28.7894 19.0494 32.0894C19.0494 35.3894 16.3794 38.0594 13.0794 38.0594Z" fill="#9180FF"/>
<path d="M39.0291 25.1094H29.0791C27.9791 25.1094 27.0791 26.0094 27.0791 27.1094V37.0594C27.0791 38.1594 27.9791 39.0594 29.0791 39.0594H39.0291C40.1291 39.0594 41.0291 38.1594 41.0291 37.0594V27.1094C41.0291 26.0094 40.1291 25.1094 39.0291 25.1094ZM39.0291 38.0594H29.0791C28.5291 38.0594 28.0791 37.6094 28.0791 37.0594V27.1094C28.0791 26.5594 28.5291 26.1094 29.0791 26.1094H39.0291C39.5791 26.1094 40.0291 26.5594 40.0291 27.1094V37.0594C40.0291 37.6094 39.5791 38.0594 39.0291 38.0594Z" fill="#9180FF"/>
<path d="M16.4995 20.9606H29.0695C29.8395 20.9606 30.3195 20.1306 29.9395 19.4606L23.6595 8.58062C23.2695 7.91062 22.3095 7.91062 21.9295 8.58062L15.6495 19.4606C15.2695 20.1306 15.7495 20.9606 16.5195 20.9606H16.4995ZM22.7795 9.08063L29.0595 19.9606H16.4895L22.7695 9.08063H22.7795Z" fill="#9180FF"/>
</svg>
