<svg width="75" height="41" viewBox="0 0 75 41" fill="none" xmlns="http://www.w3.org/2000/svg">
<path fill-rule="evenodd" clip-rule="evenodd" d="M70.3101 40.9092C72.5101 40.9092 74.26 39.1492 74.26 36.9892C74.26 34.8292 72.5101 33.0692 70.3101 33.0692C68.1101 33.0692 66.48 34.8292 66.48 36.9892C66.48 39.1492 68.1701 40.9092 70.3101 40.9092ZM27.41 39.3992C27.41 39.9692 27.92 40.4792 28.48 40.4792H33.16C33.72 40.4792 34.23 39.9692 34.23 39.3992V18.8292C34.23 18.2092 33.72 17.7492 33.16 17.7492H28.48C27.92 17.7492 27.41 18.1992 27.41 18.8292V39.3992ZM39.76 39.4792C39.76 40.0492 40.27 40.5592 40.83 40.5592H45C46.07 40.5592 46.41 40.2792 46.41 39.4792V26.9792C46.97 25.4492 48.78 23.3992 51.71 23.3992C54.42 23.3992 55.9399 25.2792 55.9399 28.2292V39.4792C55.9399 40.0492 56.39 40.5592 57.01 40.5592H61.63C62.19 40.5592 62.7 40.0492 62.7 39.4792V28.5692C62.7 22.6592 59.82 17.2592 52.66 17.2592C48.32 17.2592 45.56 19.6992 44.71 20.6092L43.92 18.5092C43.75 18.1092 43.47 17.8292 42.96 17.8292H40.8199C40.2599 17.8292 39.75 18.2792 39.75 18.9092V39.4792H39.76ZM34.7 9.80922C34.7 11.9692 32.95 13.7292 30.75 13.7292C28.55 13.7292 26.92 11.9692 26.92 9.80922C26.92 7.64922 28.61 5.88922 30.75 5.88922C32.89 5.88922 34.7 7.64922 34.7 9.80922ZM1.56995 40.4792C1.00995 40.4792 0.5 39.9692 0.5 39.3992V1.77922C0.5 1.20922 1.00995 0.699219 1.56995 0.699219H6.35999C6.91999 0.699219 7.43005 1.20922 7.43005 1.77922V26.3892L14.8199 18.4292C15.2099 18.0892 15.61 17.7492 16.23 17.7492H21.36C22.32 17.7492 22.66 18.7692 22.09 19.3992L13.6899 28.0392L23.73 38.8892C24.29 39.5092 23.96 40.4792 23 40.4792H16.91C16.57 40.4792 16.12 40.2492 15.95 40.0292L7.43005 29.7992V39.3992C7.43005 39.9692 6.91999 40.4792 6.35999 40.4792H1.56995Z" fill="#3F6DEE"/>
</svg>
