<svg width="305" height="204" viewBox="0 0 305 204" fill="none" xmlns="http://www.w3.org/2000/svg">
<path d="M98.5706 126.981C98.9706 127.061 94.4406 100.391 108.041 82.4106L135.161 76.8906L168.601 193.671L172.531 198.431C174.071 200.301 172.741 203.121 170.321 203.121H144.721C141.361 203.121 138.461 200.761 137.781 197.471L125.981 140.541L129.891 193.611L134.021 198.381C135.631 200.231 134.311 203.121 131.861 203.121H107.751C103.921 203.121 100.781 200.081 100.661 196.251L98.5706 127.001V126.981Z" fill="white"/>
<path d="M170.32 203.351H144.72C141.26 203.351 138.24 200.891 137.54 197.501L126.5 144.241L130.13 193.491L134.21 198.201C135.02 199.131 135.2 200.411 134.69 201.531C134.18 202.651 133.09 203.351 131.86 203.351H107.75C103.76 203.351 100.54 200.231 100.42 196.241L98.3303 126.991C98.3303 126.991 98.3303 126.911 98.3603 126.871C98.3603 126.711 98.3203 126.181 98.2803 125.571C98.0503 122.631 97.5103 115.751 98.4803 107.601C99.7003 97.3909 102.86 88.8609 107.85 82.2609C107.89 82.2109 107.94 82.1809 108 82.1709L135.12 76.6509C135.25 76.6209 135.37 76.7009 135.4 76.8209L168.82 193.551L172.71 198.271C173.48 199.211 173.64 200.471 173.12 201.571C172.6 202.671 171.52 203.351 170.31 203.351H170.32ZM125.98 140.281C126.09 140.281 126.2 140.361 126.22 140.481L138.02 197.411C138.67 200.571 141.49 202.861 144.72 202.861H170.32C171.34 202.861 172.25 202.281 172.69 201.361C173.13 200.431 172.99 199.371 172.34 198.581L168.41 193.821C168.41 193.821 168.37 193.761 168.36 193.731L134.99 77.1709L108.18 82.6209C100.49 92.8409 97.3203 107.271 98.7603 125.531C98.8403 126.591 98.8703 126.901 98.8203 127.051L100.91 196.231C101.02 199.951 104.03 202.871 107.75 202.871H131.86C132.9 202.871 133.81 202.281 134.24 201.341C134.67 200.401 134.52 199.321 133.84 198.541L129.71 193.771C129.71 193.771 129.65 193.681 129.65 193.631L125.74 140.561C125.74 140.431 125.82 140.321 125.95 140.301C125.96 140.301 125.97 140.301 125.98 140.301V140.281Z" fill="black"/>
<path d="M102.621 195.91C102.511 195.91 102.411 195.839 102.381 195.729C102.341 195.599 102.421 195.459 102.551 195.429C102.671 195.389 115.181 191.949 127.771 192.929C127.901 192.939 128.011 193.06 128.001 193.19C127.991 193.33 127.871 193.419 127.741 193.419C115.241 192.439 102.811 195.869 102.691 195.899C102.671 195.899 102.651 195.899 102.621 195.899V195.91Z" fill="black"/>
<path d="M139.92 196.862C139.83 196.862 139.74 196.812 139.7 196.722C139.64 196.602 139.7 196.452 139.81 196.392C139.91 196.342 149.94 191.622 165.97 192.742C166.11 192.742 166.21 192.872 166.2 193.002C166.2 193.142 166.07 193.232 165.94 193.232C150.04 192.122 140.13 196.792 140.03 196.842C140 196.862 139.96 196.862 139.92 196.862Z" fill="black"/>
<path d="M126.009 140.911C125.879 140.911 125.769 140.811 125.769 140.681L123.679 105.271C123.539 103.011 124.779 100.901 126.759 100.031L129.649 98.7613C129.769 98.7113 129.919 98.7613 129.969 98.8913C130.019 99.0113 129.969 99.1613 129.839 99.2113L126.949 100.481C125.159 101.271 124.029 103.181 124.159 105.241L126.249 140.651C126.249 140.791 126.149 140.901 126.019 140.911C126.019 140.911 126.019 140.911 126.009 140.911Z" fill="black"/>
<path d="M127.952 14.081C125.512 12.061 121.712 12.061 118.982 13.501C116.172 14.981 114.732 16.841 113.872 19.841C113.372 21.581 113.222 23.381 113.402 25.161C111.852 25.681 110.462 26.791 109.622 28.151C108.262 30.361 108.992 33.161 110.962 34.741C112.832 36.241 115.332 36.231 117.452 35.341C120.582 35.581 123.372 32.681 124.872 30.211C125.632 28.961 126.232 27.561 126.662 26.111C128.662 24.961 130.202 23.041 130.732 20.771C131.382 17.981 130.172 15.921 127.962 14.091L127.952 14.081Z" fill="black"/>
<path d="M117.221 27.7852L110.531 41.3252C110.531 41.3252 118.201 50.7752 123.971 50.3952C129.751 50.0252 128.671 43.4852 124.371 41.4552L121.281 40.9852L125.211 30.4252L117.221 27.7852Z" fill="white"/>
<path d="M121.053 42.1233C121.053 42.1233 120.993 42.1233 120.973 42.1133C120.843 42.0633 120.783 41.9233 120.823 41.8033L124.893 30.5933L117.343 28.1033L111.333 40.4533C111.273 40.5733 111.123 40.6233 111.003 40.5633C110.883 40.5033 110.833 40.3533 110.893 40.2333L116.993 27.6933C117.043 27.5833 117.173 27.5333 117.293 27.5633L125.283 30.2033C125.343 30.2233 125.393 30.2733 125.423 30.3333C125.453 30.3933 125.453 30.4633 125.423 30.5233L121.263 41.9733C121.223 42.0733 121.133 42.1333 121.033 42.1333L121.053 42.1233Z" fill="black"/>
<path d="M123.8 41.6238C123.8 41.6238 123.78 41.6238 123.76 41.6238L121.47 41.2738C121.34 41.2538 121.24 41.1238 121.26 40.9938C121.28 40.8638 121.4 40.7638 121.54 40.7838L123.83 41.1338C123.96 41.1538 124.06 41.2838 124.04 41.4138C124.02 41.5338 123.92 41.6238 123.8 41.6238Z" fill="black"/>
<path d="M129.251 23.4411C129.541 25.0311 129.551 26.7011 129.011 28.2211C128.471 29.7411 127.351 31.1011 125.841 31.6711C124.531 32.1711 123.041 32.0511 121.751 31.5111C120.461 30.9711 119.361 30.0411 118.461 28.9711C117.081 29.4611 115.401 28.8911 114.611 27.6611C114.151 26.9511 113.991 26.0111 114.361 25.2511C114.731 24.4911 115.721 24.0411 116.481 24.4011C116.911 24.6111 117.221 25.0211 117.671 25.2111C118.161 25.4211 118.751 25.3011 119.201 25.0011C119.641 24.7011 119.961 24.2511 120.221 23.7811C121.021 22.3011 121.261 20.5111 120.881 18.8711C120.921 19.0311 121.741 19.2611 121.891 19.3111C122.261 19.4411 122.641 19.5311 123.031 19.5911C123.791 19.7111 124.571 19.7011 125.331 19.5711C125.721 19.5011 126.091 19.4011 126.461 19.2711C126.751 19.1711 127.131 18.8911 127.441 18.8911C128.091 18.8911 128.291 20.0711 128.441 20.5311C128.771 21.4811 129.061 22.4511 129.241 23.4511L129.251 23.4411Z" fill="white"/>
<path d="M124.069 32.2328C123.269 32.2328 122.449 32.0628 121.659 31.7428C120.479 31.2528 119.379 30.4128 118.389 29.2528C116.929 29.6828 115.249 29.0828 114.409 27.7928C113.859 26.9428 113.759 25.9328 114.149 25.1428C114.599 24.2328 115.739 23.7828 116.589 24.1828C116.829 24.2928 117.019 24.4528 117.209 24.6128C117.399 24.7628 117.569 24.9128 117.769 24.9928C118.149 25.1528 118.649 25.0828 119.069 24.8028C119.419 24.5628 119.719 24.2028 120.009 23.6628C120.779 22.2328 121.009 20.5028 120.649 18.9228C120.619 18.7928 120.699 18.6628 120.829 18.6328C120.939 18.6028 121.049 18.6628 121.099 18.7528C121.159 18.8028 121.349 18.8828 121.869 19.0428C121.919 19.0528 121.949 19.0728 121.969 19.0728C122.319 19.1928 122.689 19.2828 123.069 19.3428C123.809 19.4528 124.549 19.4528 125.289 19.3228C125.659 19.2628 126.029 19.1628 126.379 19.0328C126.469 19.0028 126.569 18.9528 126.679 18.8928C126.909 18.7728 127.179 18.6428 127.439 18.6328C128.169 18.6328 128.419 19.5428 128.589 20.1528C128.619 20.2628 128.649 20.3628 128.669 20.4328C129.059 21.5728 129.319 22.5128 129.479 23.3828C129.819 25.2128 129.729 26.8628 129.229 28.2828C128.639 29.9728 127.399 31.3128 125.919 31.8828C125.339 32.1028 124.709 32.2128 124.059 32.2128L124.069 32.2328ZM118.459 28.7328C118.529 28.7328 118.599 28.7628 118.649 28.8228C119.619 29.9828 120.699 30.8228 121.839 31.2928C123.149 31.8428 124.579 31.9028 125.749 31.4528C127.099 30.9328 128.229 29.7028 128.779 28.1428C129.249 26.8028 129.329 25.2428 129.009 23.4928C128.849 22.6428 128.599 21.7328 128.219 20.6128C128.189 20.5328 128.159 20.4228 128.129 20.3028C128.009 19.8628 127.799 19.1328 127.459 19.1328C127.309 19.1328 127.099 19.2428 126.919 19.3328C126.789 19.3928 126.679 19.4528 126.559 19.5028C126.179 19.6328 125.789 19.7428 125.389 19.8128C124.599 19.9528 123.799 19.9528 123.009 19.8328C122.609 19.7728 122.209 19.6728 121.829 19.5428L121.739 19.5128C121.539 19.4528 121.379 19.3928 121.239 19.3428C121.479 20.8928 121.199 22.5228 120.459 23.8928C120.129 24.5028 119.779 24.9228 119.359 25.2028C118.809 25.5728 118.129 25.6628 117.599 25.4428C117.339 25.3328 117.129 25.1628 116.919 24.9928C116.749 24.8528 116.579 24.7128 116.399 24.6328C115.789 24.3428 114.939 24.6928 114.599 25.3728C114.289 25.9928 114.379 26.8428 114.829 27.5428C115.559 28.6728 117.119 29.2028 118.389 28.7528C118.419 28.7528 118.439 28.7428 118.469 28.7428L118.459 28.7328Z" fill="black"/>
<path d="M116.141 26.4009C116.911 26.3609 117.681 26.8209 118.011 27.5209L116.141 26.4009Z" fill="white"/>
<path d="M118.001 27.7723C117.911 27.7723 117.821 27.7223 117.781 27.6323C117.491 27.0223 116.821 26.6123 116.151 26.6523C116.021 26.6523 115.901 26.5523 115.891 26.4223C115.891 26.2823 115.991 26.1723 116.121 26.1623C116.991 26.1223 117.851 26.6423 118.221 27.4223C118.281 27.5423 118.221 27.6923 118.101 27.7523C118.071 27.7723 118.031 27.7723 118.001 27.7723Z" fill="black"/>
<path d="M104.07 85.4721C101.24 84.0021 99.4603 81.1121 98.1103 78.2221C94.9303 71.4421 93.3903 63.9221 93.4103 56.4321C93.4203 52.7221 93.8803 48.8121 96.0503 45.8021C98.4003 42.5421 102.42 40.8421 106.39 40.2521C107.99 40.0121 109.69 39.9321 111.17 40.6021C113.09 41.4621 114.26 43.3921 115.7 44.9221C117.38 46.7021 119.55 48.0121 121.9 48.6821C123.4 49.1021 125.22 49.2121 126.2 47.7721C126.64 47.1221 126.78 46.3321 126.67 45.5521C126.45 43.9221 125.39 42.6721 124.36 41.4721C126.34 41.1521 128.38 41.9421 129.94 43.2021C131.5 44.4621 132.66 46.1421 133.71 47.8521C136.93 53.0621 139.4 58.7121 141.38 64.5121C142.08 66.5621 142.73 68.7021 142.51 70.8621C142.26 73.3021 141.8 75.6321 140 77.2921C139.42 77.8321 138.86 78.3121 138.38 78.7221C137.46 79.4921 136.26 79.8121 135.07 79.6521C128.53 78.7521 112.71 83.8821 111.37 84.9621C109.35 86.5921 106.31 86.6521 104.06 85.4822L104.07 85.4721Z" fill="#5479F7"/>
<path d="M110.531 65.6215C110.431 65.6215 110.331 65.5515 110.301 65.4515L107.171 55.6415C107.131 55.5115 107.201 55.3715 107.331 55.3315C107.461 55.2915 107.601 55.3615 107.641 55.4915L110.771 65.3015C110.811 65.4315 110.741 65.5715 110.611 65.6115C110.591 65.6115 110.561 65.6215 110.541 65.6215H110.531Z" fill="black"/>
<path d="M132.621 61.8522C132.501 61.8522 132.401 61.7622 132.381 61.6422C131.991 58.9222 131.321 56.2422 130.391 53.6622C130.341 53.5322 130.411 53.3922 130.541 53.3522C130.671 53.3022 130.811 53.3722 130.851 53.5022C131.791 56.1122 132.471 58.8322 132.871 61.5822C132.891 61.7122 132.801 61.8422 132.661 61.8622C132.651 61.8622 132.641 61.8622 132.621 61.8622V61.8522Z" fill="black"/>
<path d="M111.587 82.631C111.697 82.991 111.857 83.391 112.207 83.511C112.487 83.601 112.827 83.541 113.057 83.351C117.977 79.331 121.907 76.751 127.737 74.241C128.477 73.921 127.307 77.161 131.527 74.271C132.197 73.811 131.637 72.451 130.837 72.321C131.497 72.231 132.057 71.661 132.137 71.001C132.217 70.341 131.817 69.651 131.207 69.401C131.847 69.521 132.437 68.881 132.467 68.241C132.497 67.591 132.117 66.991 131.657 66.541C133.417 67.401 135.887 69.891 137.287 68.211C137.657 66.511 136.467 65.601 135.147 64.461C133.827 63.321 132.097 62.761 130.387 62.441C126.577 61.721 122.607 62.081 118.877 63.161C115.597 64.111 112.477 65.601 109.577 67.401C108.867 67.841 108.627 67.941 108.617 68.761C108.607 69.641 108.867 70.611 108.997 71.481C109.287 73.291 109.627 75.091 110.037 76.871C110.477 78.811 110.987 80.741 111.577 82.651L111.587 82.631Z" fill="white"/>
<path d="M127.851 74.4219C127.751 74.4219 127.651 74.3519 127.621 74.2519C127.581 74.1219 127.651 73.9819 127.781 73.9419L129.471 73.4019C129.601 73.3619 129.741 73.4319 129.781 73.5619C129.821 73.6919 129.751 73.8319 129.621 73.8719L127.931 74.4119C127.931 74.4119 127.881 74.4219 127.861 74.4219H127.851Z" fill="black"/>
<path d="M102.599 71.8698C102.529 71.8698 102.459 71.8398 102.409 71.7798C102.319 71.6798 102.339 71.5198 102.439 71.4398C104.139 70.0498 106.009 68.8698 107.989 67.9298C108.109 67.8698 108.259 67.9298 108.319 68.0498C108.379 68.1698 108.319 68.3198 108.199 68.3798C106.249 69.2998 104.419 70.4498 102.749 71.8198C102.699 71.8598 102.649 71.8798 102.589 71.8798L102.599 71.8698Z" fill="black"/>
<path d="M133.071 75.833C133.101 76.943 133.411 78.133 134.291 78.823C135.421 79.703 137.041 79.453 138.411 79.053C144.941 77.173 150.821 73.553 154.211 67.673C154.351 67.433 155.591 64.453 155.081 63.783C154.601 63.153 153.411 64.353 152.641 64.513C149.281 65.223 145.961 66.133 142.721 67.253C141.051 67.833 139.401 68.453 137.771 69.143C136.531 69.663 135.471 69.803 134.631 70.933C133.591 72.333 133.021 74.093 133.061 75.833H133.071Z" fill="white"/>
<path d="M138.411 79.3016C138.301 79.3016 138.211 79.2316 138.171 79.1216C138.131 78.9916 138.211 78.8516 138.341 78.8216C145.531 76.7516 150.941 72.8516 153.991 67.5516C154.231 67.1416 155.251 64.4216 154.881 63.9316C154.801 63.8216 154.821 63.6716 154.931 63.5916C155.041 63.5116 155.191 63.5316 155.271 63.6416C155.931 64.5116 154.431 67.7716 154.411 67.8016C151.301 73.2216 145.781 77.1916 138.471 79.3016C138.451 79.3016 138.421 79.3016 138.401 79.3016H138.411Z" fill="black"/>
<path d="M158.56 58.082H146.56C146.3 58.082 146.06 58.202 145.9 58.402L136.23 70.712C135.8 71.262 136.19 72.062 136.89 72.062H148.47C148.72 72.062 148.96 71.952 149.11 71.752L159.2 59.442C159.65 58.902 159.26 58.082 158.56 58.082Z" fill="black"/>
<path d="M153.462 59.6725C153.322 59.5425 153.112 59.4125 152.942 59.5025C152.792 59.5825 152.762 59.7825 152.752 59.9525C152.652 61.6225 152.562 63.2825 152.462 64.9525C152.482 63.4625 152.092 61.9225 151.132 60.7825C150.892 60.5025 150.472 60.2425 150.192 60.4725C150.022 60.6125 150.012 60.8625 150.022 61.0825C150.102 62.9525 150.852 64.8825 150.192 66.6425C150.072 65.5325 149.812 64.4325 149.402 63.3825C149.232 62.9525 149.032 62.5125 148.662 62.2525C148.292 61.9825 147.702 61.9725 147.422 62.3325C147.122 62.7225 147.312 63.2725 147.472 63.7325C147.942 65.0625 148.142 66.4925 148.062 67.9025C147.882 66.8025 147.652 65.6125 146.832 64.8525C146.592 64.6325 146.292 64.4525 145.972 64.4225C145.642 64.3925 145.292 64.5525 145.152 64.8425C144.992 65.1625 145.122 65.5525 145.232 65.8925C145.632 67.2225 145.622 68.6625 145.232 69.9925C144.942 70.9925 143.692 72.3325 145.012 73.1125C145.462 73.3825 146.022 73.4025 146.552 73.3225C148.022 73.1125 149.302 72.2225 150.452 71.2825C151.632 70.3225 152.742 69.2625 153.602 68.0125C154.462 66.7625 155.052 65.2925 155.092 63.7725C155.132 62.2525 154.592 60.6925 153.472 59.6625L153.462 59.6725Z" fill="white"/>
<path d="M87.8116 27.5H53.3516V0.25H95.4116L87.8116 6.46V27.5Z" fill="white"/>
<path d="M87.8098 27.74H53.3398C53.1998 27.74 53.0898 27.63 53.0898 27.49V0.25C53.0898 0.11 53.1998 0 53.3398 0H95.3998C95.4998 0 95.5998 0.07 95.6298 0.16C95.6598 0.26 95.6298 0.37 95.5498 0.43L88.0398 6.57V27.5C88.0398 27.64 87.9298 27.75 87.7898 27.75L87.8098 27.74ZM53.5898 27.25H87.5698V6.46C87.5698 6.39 87.5998 6.32 87.6598 6.27L94.7298 0.49H53.5998V27.25H53.5898Z" fill="black"/>
<path d="M77.7809 5.92188H57.9609C57.8209 5.92188 57.7109 5.81187 57.7109 5.67188C57.7109 5.53187 57.8209 5.42188 57.9609 5.42188H77.7809C77.9209 5.42188 78.0309 5.53187 78.0309 5.67188C78.0309 5.81187 77.9209 5.92188 77.7809 5.92188Z" fill="black"/>
<path d="M83.6092 11.5703H57.9492C57.8092 11.5703 57.6992 11.4603 57.6992 11.3203C57.6992 11.1803 57.8092 11.0703 57.9492 11.0703H83.6092C83.7492 11.0703 83.8592 11.1803 83.8592 11.3203C83.8592 11.4603 83.7492 11.5703 83.6092 11.5703Z" fill="black"/>
<path d="M83.6092 17.2188H57.9492C57.8092 17.2188 57.6992 17.1087 57.6992 16.9688C57.6992 16.8287 57.8092 16.7188 57.9492 16.7188H83.6092C83.7492 16.7188 83.8592 16.8287 83.8592 16.9688C83.8592 17.1087 83.7492 17.2188 83.6092 17.2188Z" fill="black"/>
<path d="M77.7809 22.8711H57.9609C57.8209 22.8711 57.7109 22.7611 57.7109 22.6211C57.7109 22.4811 57.8209 22.3711 57.9609 22.3711H77.7809C77.9209 22.3711 78.0309 22.4811 78.0309 22.6211C78.0309 22.7611 77.9209 22.8711 77.7809 22.8711Z" fill="black"/>
<path d="M48.0797 112.799C44.1897 105.359 36.4097 100.289 27.4297 100.289V123.579L48.0797 112.809V112.799Z" fill="#E2EAFF"/>
<path d="M27.4267 123.567V100.277C14.5667 100.277 4.13672 110.707 4.13672 123.567C4.13672 136.427 14.5667 146.857 27.4267 146.857C40.2867 146.857 50.7167 136.427 50.7167 123.567C50.7167 119.677 49.7667 116.017 48.0767 112.797L27.4267 123.567Z" fill="white"/>
<path d="M27.4284 147.099C14.4484 147.099 3.89844 136.539 3.89844 123.569C3.89844 110.599 14.4584 100.039 27.4284 100.039C27.5684 100.039 27.6784 100.149 27.6784 100.289C27.6784 100.429 27.5684 100.539 27.4284 100.539C14.7284 100.539 4.38844 110.879 4.38844 123.579C4.38844 136.279 14.7284 146.619 27.4284 146.619C40.1284 146.619 50.4684 136.279 50.4684 123.579C50.4684 119.869 49.5684 116.189 47.8584 112.919C47.7984 112.799 47.8384 112.649 47.9584 112.589C48.0784 112.529 48.2284 112.569 48.2884 112.689C50.0284 116.029 50.9584 119.789 50.9584 123.579C50.9584 136.559 40.3984 147.109 27.4284 147.109V147.099Z" fill="black"/>
<path d="M57.1 45.9531H0.25V87.5331H57.1V45.9531Z" fill="white"/>
<path d="M57.09 87.7831H0.25C0.11 87.7831 0 87.6731 0 87.5331V45.9531C0 45.8131 0.11 45.7031 0.25 45.7031H57.1C57.24 45.7031 57.35 45.8131 57.35 45.9531V87.5331C57.35 87.6731 57.24 87.7831 57.1 87.7831H57.09ZM0.49 87.2931H56.85V46.2031H0.49V87.2931Z" fill="black"/>
<path d="M13.6183 50.0312C13.4783 50.0312 13.3683 49.9213 13.3683 49.7812C13.3683 49.6412 13.4783 49.5312 13.6183 49.5312C15.7583 49.5312 17.4983 47.7913 17.4983 45.6513C17.4983 43.5113 15.7583 41.7713 13.6183 41.7713C11.4783 41.7713 9.73828 43.5113 9.73828 45.6513C9.73828 45.7913 9.62828 45.9013 9.48828 45.9013C9.34828 45.9013 9.23828 45.7913 9.23828 45.6513C9.23828 43.2413 11.1983 41.2812 13.6083 41.2812C16.0183 41.2812 17.9783 43.2413 17.9783 45.6513C17.9783 48.0613 16.0183 50.0213 13.6083 50.0213L13.6183 50.0312Z" fill="black"/>
<path d="M28.6691 50.0312C28.5291 50.0312 28.4191 49.9213 28.4191 49.7812C28.4191 49.6412 28.5291 49.5312 28.6691 49.5312C30.8091 49.5312 32.5491 47.7913 32.5491 45.6513C32.5491 43.5113 30.8091 41.7713 28.6691 41.7713C26.5291 41.7713 24.7891 43.5113 24.7891 45.6513C24.7891 45.7913 24.6791 45.9013 24.5391 45.9013C24.3991 45.9013 24.2891 45.7913 24.2891 45.6513C24.2891 43.2413 26.2491 41.2812 28.6591 41.2812C31.0691 41.2812 33.0291 43.2413 33.0291 45.6513C33.0291 48.0613 31.0691 50.0213 28.6591 50.0213L28.6691 50.0312Z" fill="black"/>
<path d="M43.7198 50.0312C43.5798 50.0312 43.4698 49.9213 43.4698 49.7812C43.4698 49.6412 43.5798 49.5312 43.7198 49.5312C45.8598 49.5312 47.5998 47.7913 47.5998 45.6513C47.5998 43.5113 45.8598 41.7713 43.7198 41.7713C41.5798 41.7713 39.8398 43.5113 39.8398 45.6513C39.8398 45.7913 39.7298 45.9013 39.5898 45.9013C39.4498 45.9013 39.3398 45.7913 39.3398 45.6513C39.3398 43.2413 41.2998 41.2812 43.7098 41.2812C46.1198 41.2812 48.0798 43.2413 48.0798 45.6513C48.0798 48.0613 46.1198 50.0213 43.7098 50.0213L43.7198 50.0312Z" fill="black"/>
<path d="M13.4509 53.7031H5.71094V61.4431H13.4509V53.7031Z" fill="#E2EAFF"/>
<path d="M22.99 53.7031H15.25V61.4431H22.99V53.7031Z" fill="white"/>
<path d="M23.0017 61.6814H15.2617C15.1217 61.6814 15.0117 61.5714 15.0117 61.4314V53.6914C15.0117 53.5514 15.1217 53.4414 15.2617 53.4414H23.0017C23.1417 53.4414 23.2517 53.5514 23.2517 53.6914V61.4314C23.2517 61.5714 23.1417 61.6814 23.0017 61.6814ZM15.5017 61.1914H22.7517V53.9414H15.5017V61.1914Z" fill="black"/>
<path d="M32.5408 53.7031H24.8008V61.4431H32.5408V53.7031Z" fill="#5479F7"/>
<path d="M42.0798 53.7031H34.3398V61.4431H42.0798V53.7031Z" fill="white"/>
<path d="M42.0916 61.6814H34.3516C34.2116 61.6814 34.1016 61.5714 34.1016 61.4314V53.6914C34.1016 53.5514 34.2116 53.4414 34.3516 53.4414H42.0916C42.2316 53.4414 42.3416 53.5514 42.3416 53.6914V61.4314C42.3416 61.5714 42.2316 61.6814 42.0916 61.6814ZM34.5916 61.1914H41.8416V53.9414H34.5916V61.1914Z" fill="black"/>
<path d="M51.6306 53.7031H43.8906V61.4431H51.6306V53.7031Z" fill="white"/>
<path d="M51.6306 61.6814H43.8906C43.7506 61.6814 43.6406 61.5714 43.6406 61.4314V53.6914C43.6406 53.5514 43.7506 53.4414 43.8906 53.4414H51.6306C51.7706 53.4414 51.8806 53.5514 51.8806 53.6914V61.4314C51.8806 61.5714 51.7706 61.6814 51.6306 61.6814ZM44.1306 61.1914H51.3806V53.9414H44.1306V61.1914Z" fill="black"/>
<path d="M13.4509 70.8611H5.71094C5.57094 70.8611 5.46094 70.7511 5.46094 70.6111V62.8711C5.46094 62.7311 5.57094 62.6211 5.71094 62.6211H13.4509C13.5909 62.6211 13.7009 62.7311 13.7009 62.8711V70.6111C13.7009 70.7511 13.5909 70.8611 13.4509 70.8611ZM5.95094 70.3711H13.2009V63.1211H5.95094V70.3711Z" fill="black"/>
<path d="M22.99 62.8711H15.25V70.6111H22.99V62.8711Z" fill="white"/>
<path d="M23.0017 70.8611H15.2617C15.1217 70.8611 15.0117 70.7511 15.0117 70.6111V62.8711C15.0117 62.7311 15.1217 62.6211 15.2617 62.6211H23.0017C23.1417 62.6211 23.2517 62.7311 23.2517 62.8711V70.6111C23.2517 70.7511 23.1417 70.8611 23.0017 70.8611ZM15.5017 70.3711H22.7517V63.1211H15.5017V70.3711Z" fill="black"/>
<path d="M32.5408 70.8611H24.8008C24.6608 70.8611 24.5508 70.7511 24.5508 70.6111V62.8711C24.5508 62.7311 24.6608 62.6211 24.8008 62.6211H32.5408C32.6808 62.6211 32.7908 62.7311 32.7908 62.8711V70.6111C32.7908 70.7511 32.6808 70.8611 32.5408 70.8611ZM25.0408 70.3711H32.2908V63.1211H25.0408V70.3711Z" fill="black"/>
<path d="M42.0798 62.8711H34.3398V70.6111H42.0798V62.8711Z" fill="white"/>
<path d="M42.0916 70.8611H34.3516C34.2116 70.8611 34.1016 70.7511 34.1016 70.6111V62.8711C34.1016 62.7311 34.2116 62.6211 34.3516 62.6211H42.0916C42.2316 62.6211 42.3416 62.7311 42.3416 62.8711V70.6111C42.3416 70.7511 42.2316 70.8611 42.0916 70.8611ZM34.5916 70.3711H41.8416V63.1211H34.5916V70.3711Z" fill="black"/>
<path d="M51.6306 62.8711H43.8906V70.6111H51.6306V62.8711Z" fill="white"/>
<path d="M51.6306 70.8611H43.8906C43.7506 70.8611 43.6406 70.7511 43.6406 70.6111V62.8711C43.6406 62.7311 43.7506 62.6211 43.8906 62.6211H51.6306C51.7706 62.6211 51.8806 62.7311 51.8806 62.8711V70.6111C51.8806 70.7511 51.7706 70.8611 51.6306 70.8611ZM44.1306 70.3711H51.3806V63.1211H44.1306V70.3711Z" fill="black"/>
<path d="M13.4509 72.043H5.71094V79.783H13.4509V72.043Z" fill="white"/>
<path d="M13.4509 80.033H5.71094C5.57094 80.033 5.46094 79.923 5.46094 79.783V72.043C5.46094 71.903 5.57094 71.793 5.71094 71.793H13.4509C13.5909 71.793 13.7009 71.903 13.7009 72.043V79.783C13.7009 79.923 13.5909 80.033 13.4509 80.033ZM5.95094 79.543H13.2009V72.293H5.95094V79.543Z" fill="black"/>
<path d="M22.99 72.043H15.25V79.783H22.99V72.043Z" fill="white"/>
<path d="M23.0017 80.033H15.2617C15.1217 80.033 15.0117 79.923 15.0117 79.783V72.043C15.0117 71.903 15.1217 71.793 15.2617 71.793H23.0017C23.1417 71.793 23.2517 71.903 23.2517 72.043V79.783C23.2517 79.923 23.1417 80.033 23.0017 80.033ZM15.5017 79.543H22.7517V72.293H15.5017V79.543Z" fill="black"/>
<path d="M32.5408 72.043H24.8008V79.783H32.5408V72.043Z" fill="#E2EAFF"/>
<path d="M70.2195 121.478C78.4762 121.478 85.1695 114.785 85.1695 106.528C85.1695 98.2715 78.4762 91.5781 70.2195 91.5781C61.9629 91.5781 55.2695 98.2715 55.2695 106.528C55.2695 114.785 61.9629 121.478 70.2195 121.478Z" fill="white"/>
<path d="M70.2195 121.728C61.8395 121.728 55.0195 114.908 55.0195 106.528C55.0195 98.1481 61.8395 91.3281 70.2195 91.3281C78.5995 91.3281 85.4195 98.1481 85.4195 106.528C85.4195 114.908 78.5995 121.728 70.2195 121.728ZM70.2195 91.8281C62.1095 91.8281 55.5095 98.4281 55.5095 106.538C55.5095 114.648 62.1095 121.248 70.2195 121.248C78.3295 121.248 84.9295 114.648 84.9295 106.538C84.9295 98.4281 78.3295 91.8281 70.2195 91.8281Z" fill="black"/>
<path d="M79.1795 114.467H61.2695C61.1295 114.467 61.0195 114.357 61.0195 114.217V100.867C61.0195 100.727 61.1295 100.617 61.2695 100.617H79.1795C79.3195 100.617 79.4295 100.727 79.4295 100.867V114.217C79.4295 114.357 79.3195 114.467 79.1795 114.467ZM61.5095 113.977H78.9295V101.117H61.5095V113.977Z" fill="black"/>
<path d="M71.94 109.088H68.5C68.36 109.088 68.25 108.978 68.25 108.838V105.848C68.25 105.708 68.36 105.598 68.5 105.598H71.94C72.08 105.598 72.19 105.708 72.19 105.848V108.838C72.19 108.978 72.08 109.088 71.94 109.088ZM68.75 108.598H71.7V106.098H68.75V108.598Z" fill="black"/>
<path d="M68.4993 107.787C68.4993 107.787 68.3993 107.777 68.3593 107.747L62.0193 103.277C61.9093 103.197 61.8793 103.047 61.9593 102.937C62.0393 102.827 62.1893 102.797 62.2993 102.877L68.6393 107.347C68.7493 107.427 68.7793 107.577 68.6993 107.687C68.6493 107.757 68.5793 107.787 68.4993 107.787Z" fill="black"/>
<path d="M71.9405 107.787C71.8605 107.787 71.7905 107.747 71.7405 107.687C71.6605 107.577 71.6905 107.427 71.8005 107.347L78.1405 102.877C78.2505 102.797 78.4005 102.827 78.4805 102.937C78.5605 103.047 78.5305 103.197 78.4205 103.277L72.0805 107.747C72.0805 107.747 71.9905 107.787 71.9405 107.787Z" fill="black"/>
<path d="M74.6408 99.8577C74.5008 99.8577 74.3908 99.7477 74.3908 99.6077V98.3777C74.3908 97.7977 73.9208 97.3377 73.3508 97.3377H67.0908C66.5108 97.3377 66.0508 97.8077 66.0508 98.3777V99.6077C66.0508 99.7477 65.9408 99.8577 65.8008 99.8577C65.6608 99.8577 65.5508 99.7477 65.5508 99.6077V98.3777C65.5508 97.5277 66.2408 96.8477 67.0808 96.8477H73.3408C74.1908 96.8477 74.8708 97.5377 74.8708 98.3777V99.6077C74.8708 99.7477 74.7608 99.8577 74.6208 99.8577H74.6408Z" fill="black"/>
<path d="M75.5809 100.309H73.7109C73.5709 100.309 73.4609 100.199 73.4609 100.059C73.4609 99.9186 73.5709 99.8086 73.7109 99.8086H75.5809C75.7209 99.8086 75.8309 99.9186 75.8309 100.059C75.8309 100.199 75.7209 100.309 75.5809 100.309Z" fill="black"/>
<path d="M66.7294 100.309H64.8594C64.7194 100.309 64.6094 100.199 64.6094 100.059C64.6094 99.9186 64.7194 99.8086 64.8594 99.8086H66.7294C66.8694 99.8086 66.9794 99.9186 66.9794 100.059C66.9794 100.199 66.8694 100.309 66.7294 100.309Z" fill="black"/>
<path d="M67.5614 160.938C46.5114 161.197 45.2714 197.297 46.3214 198.647C49.2714 202.437 67.5614 202.917 67.5614 202.917H67.8814C67.8814 202.917 86.1714 202.437 89.1214 198.647C90.1714 197.297 88.9314 161.197 67.8814 160.938H67.5614Z" fill="white"/>
<path d="M67.5599 203.159C66.7999 203.139 49.1199 202.629 46.1299 198.799C45.4199 197.879 45.6499 183.839 50.8099 173.089C54.7199 164.949 60.3599 160.779 67.5599 160.699H67.8799C75.0799 160.789 80.7199 164.959 84.6299 173.089C89.7999 183.839 90.0299 197.889 89.3199 198.799C86.3299 202.629 68.6399 203.139 67.8899 203.159H67.5599ZM67.5599 161.189C60.8999 161.269 55.5899 164.989 51.7899 172.229C46.0699 183.129 45.9599 197.679 46.5099 198.509C49.3599 202.159 67.3799 202.679 67.5599 202.679H67.8799C68.0599 202.679 86.0799 202.159 88.9299 198.509C89.4799 197.689 89.3699 183.129 83.6499 172.229C79.8499 164.989 74.5399 161.269 67.8799 161.189H67.5599Z" fill="black"/>
<path d="M59.8578 162.909C59.4878 161.149 51.2078 156.189 50.1378 152.809C49.0678 149.429 52.2578 151.559 54.9978 151.469C57.7378 151.379 58.2878 149.559 61.7278 149.509C65.0278 149.469 65.2578 150.849 67.5878 150.939H67.7278C70.6178 150.999 70.9178 149.489 74.1578 149.509C77.5978 149.529 77.7578 151.349 80.4978 151.439C83.2378 151.529 86.2378 149.429 85.1678 152.809C84.0978 156.189 75.7078 161.449 75.5178 162.909H59.8578Z" fill="white"/>
<path d="M59.8583 163.16C59.7483 163.16 59.6383 163.08 59.6183 162.96C59.4783 162.28 57.7883 160.88 55.9983 159.4C53.4383 157.27 50.5283 154.87 49.8983 152.88C49.5983 151.92 49.5983 151.31 49.9183 150.96C50.3783 150.45 51.2983 150.65 52.4683 150.89C53.2583 151.06 54.1483 151.24 54.9883 151.22C56.2083 151.18 56.9883 150.78 57.8083 150.35C58.7583 149.85 59.8283 149.29 61.7283 149.26C63.6183 149.23 64.5583 149.68 65.3883 150.07C66.0483 150.38 66.6183 150.65 67.5983 150.69H67.7283C69.0983 150.72 69.8583 150.39 70.6683 150.03C71.5383 149.65 72.4383 149.25 74.1083 149.25C74.1283 149.25 74.1483 149.25 74.1583 149.25C76.0583 149.25 77.0283 149.82 77.8783 150.32C78.6083 150.74 79.2883 151.14 80.4983 151.18C81.3283 151.2 82.2083 151.02 82.9783 150.85C84.0783 150.61 84.9483 150.43 85.3883 150.92C85.7083 151.27 85.7083 151.87 85.3883 152.87C84.7483 154.9 81.6083 157.54 79.0783 159.66C77.4683 161.01 75.8083 162.41 75.7383 162.93C75.7183 163.06 75.5983 163.16 75.4583 163.14C75.3283 163.12 75.2283 163 75.2483 162.86C75.3383 162.19 76.5783 161.12 78.7583 159.28C81.2283 157.2 84.3083 154.61 84.9083 152.71C85.2183 151.74 85.1283 151.38 85.0083 151.24C84.7583 150.96 83.9283 151.14 83.0583 151.32C82.2583 151.49 81.3583 151.68 80.4583 151.66C79.1183 151.62 78.3483 151.17 77.5983 150.73C76.7583 150.24 75.8983 149.74 74.1183 149.73C74.0983 149.73 74.0883 149.73 74.0683 149.73C72.4983 149.73 71.6483 150.1 70.8183 150.46C69.9983 150.82 69.1583 151.19 67.6783 151.16H67.5383C66.4483 151.12 65.8083 150.81 65.1283 150.49C64.3083 150.1 63.4483 149.7 61.6783 149.73C59.9083 149.75 58.9283 150.27 57.9783 150.76C57.1083 151.22 56.2883 151.65 54.9483 151.69C54.0583 151.72 53.1283 151.52 52.3183 151.35C51.3883 151.15 50.5083 150.97 50.2383 151.27C50.1083 151.41 50.0183 151.77 50.3183 152.71C50.9083 154.56 53.8783 157.02 56.2683 159C58.2883 160.67 59.8783 161.99 60.0483 162.83C60.0783 162.96 59.9883 163.09 59.8583 163.12C59.8383 163.12 59.8283 163.12 59.8083 163.12L59.8583 163.16Z" fill="black"/>
<path d="M73.3996 161.401C73.3996 161.401 73.3396 161.401 73.3096 161.381C73.1796 161.331 73.1196 161.191 73.1796 161.061C73.2596 160.871 75.1196 156.411 77.8996 155.531C78.0296 155.491 78.1696 155.561 78.2096 155.691C78.2496 155.821 78.1796 155.961 78.0496 156.001C75.4896 156.811 73.6496 161.211 73.6396 161.251C73.5996 161.341 73.5096 161.401 73.4096 161.401H73.3996Z" fill="black"/>
<path d="M64.6691 161.191C64.5591 161.191 64.4591 161.111 64.4291 161.001C63.6191 157.391 59.8591 156.471 59.8191 156.461C59.6891 156.431 59.6091 156.301 59.6391 156.171C59.6691 156.041 59.7991 155.961 59.9291 155.991C59.9691 155.991 64.0291 156.991 64.9091 160.901C64.9391 161.031 64.8591 161.161 64.7191 161.191C64.6991 161.191 64.6791 161.191 64.6691 161.191Z" fill="black"/>
<path d="M69.5798 161.4C69.4398 161.4 69.3398 161.28 69.3398 161.15C69.4198 158.4 70.0698 156.33 71.2598 155C71.3498 154.9 71.5098 154.89 71.6098 154.98C71.7098 155.07 71.7198 155.23 71.6298 155.33C70.5098 156.57 69.9098 158.54 69.8298 161.16C69.8298 161.29 69.7198 161.4 69.5898 161.4H69.5798Z" fill="black"/>
<path d="M77.6815 170.88C77.5615 170.88 77.4615 170.79 77.4415 170.67C76.7415 166.28 72.3015 162.6 72.2515 162.56C72.1515 162.47 72.1315 162.32 72.2215 162.22C72.3115 162.12 72.4615 162.1 72.5615 162.19C72.7515 162.34 77.1915 166.03 77.9215 170.6C77.9415 170.73 77.8515 170.86 77.7215 170.88C77.7115 170.88 77.6915 170.88 77.6815 170.88Z" fill="black"/>
<path d="M68.9498 169.92C68.8098 169.92 68.7098 169.81 68.7098 169.67C68.7698 165.01 67.5198 162.51 67.5098 162.48C67.4498 162.36 67.4998 162.21 67.6198 162.15C67.7398 162.09 67.8898 162.14 67.9498 162.26C67.9998 162.36 69.2598 164.88 69.1998 169.68C69.1998 169.81 69.0898 169.92 68.9498 169.92Z" fill="black"/>
<path d="M58.5114 171.841C58.5114 171.841 58.4814 171.841 58.4614 171.841C58.3314 171.811 58.2414 171.681 58.2714 171.551C59.6414 164.661 63.4314 162.101 63.5914 161.991C63.7014 161.921 63.8514 161.951 63.9314 162.061C64.0014 162.171 63.9714 162.321 63.8614 162.401C63.8214 162.421 60.0814 164.971 58.7514 171.651C58.7314 171.771 58.6214 171.851 58.5114 171.851V171.841Z" fill="black"/>
<path d="M67.0383 193.039V191.029C65.8883 191.009 64.6883 190.649 63.9883 190.149L64.4683 188.819C65.1883 189.299 66.2183 189.679 67.3383 189.679C68.7483 189.679 69.7083 188.859 69.7083 187.729C69.7083 186.599 68.9283 185.959 67.4583 185.359C65.4283 184.559 64.1683 183.649 64.1683 181.919C64.1683 180.189 65.3383 179.009 67.1783 178.709V176.699H68.4083V178.629C69.5983 178.669 70.4183 178.989 70.9983 179.329L70.4983 180.639C70.0783 180.399 69.2683 179.959 67.9883 179.959C66.4583 179.959 65.8783 180.879 65.8783 181.669C65.8783 182.709 66.6183 183.219 68.3483 183.939C70.3983 184.779 71.4383 185.809 71.4383 187.579C71.4383 189.149 70.3383 190.629 68.2883 190.959V193.029H67.0383V193.039Z" fill="black"/>
<path d="M59.4903 162.812C59.6603 162.982 59.8903 163.052 60.1203 163.012C61.0403 162.852 63.6103 162.362 67.9203 162.372C71.7303 162.372 74.4503 162.952 75.4003 163.122C75.6203 163.162 75.8403 163.082 75.9903 162.922L76.7103 162.072C76.8403 161.922 76.7703 161.682 76.5703 161.632C75.3303 161.332 71.5803 160.522 67.7203 160.512C63.1403 160.502 59.6303 161.322 58.6403 161.582C58.5103 161.612 58.4703 161.772 58.5603 161.862L59.4903 162.812Z" fill="white"/>
<path d="M75.5115 163.382C75.4615 163.382 75.4015 163.382 75.3515 163.362L75.1715 163.332C74.0715 163.122 71.4915 162.622 67.9215 162.612C67.8815 162.612 67.8415 162.612 67.8015 162.612C63.7715 162.612 61.2515 163.062 60.2915 163.232L60.1615 163.252C59.8515 163.302 59.5415 163.202 59.3115 162.982L58.3815 162.032C58.2815 161.932 58.2415 161.772 58.2715 161.632C58.3115 161.492 58.4215 161.382 58.5615 161.342C59.5315 161.092 63.0415 160.262 67.6215 160.262H67.7015C71.5315 160.262 75.2115 161.052 76.6115 161.392C76.7915 161.432 76.9315 161.562 76.9815 161.732C77.0415 161.902 77.0015 162.092 76.8815 162.232L76.1615 163.082C75.9915 163.272 75.7515 163.382 75.5015 163.382H75.5115ZM67.8015 162.122C67.8015 162.122 67.8815 162.122 67.9215 162.122C71.5315 162.122 74.1515 162.632 75.2615 162.842L75.4415 162.872C75.5715 162.902 75.7115 162.852 75.8015 162.752L76.5215 161.902C76.5215 161.902 76.5315 161.892 76.5215 161.872C75.1215 161.522 71.4815 160.752 67.7115 160.742C63.3315 160.742 59.9415 161.492 58.8215 161.772L59.6615 162.622C59.7715 162.732 59.9315 162.782 60.0715 162.752L60.2015 162.732C61.1715 162.562 63.7215 162.112 67.7915 162.112L67.8015 162.122Z" fill="black"/>
<path d="M28 36.8389C27.86 36.8389 27.75 36.7289 27.75 36.5889V15.1289C27.75 14.9889 27.86 14.8789 28 14.8789H47.68C47.82 14.8789 47.93 14.9889 47.93 15.1289C47.93 15.2689 47.82 15.3789 47.68 15.3789H28.25V36.5989C28.25 36.7389 28.14 36.8489 28 36.8489V36.8389Z" fill="black"/>
<path d="M26.4609 95.8817C26.3209 95.8817 26.2109 95.7717 26.2109 95.6317V90.0117C26.2109 89.8717 26.3209 89.7617 26.4609 89.7617C26.6009 89.7617 26.7109 89.8717 26.7109 90.0117V95.6317C26.7109 95.7717 26.6009 95.8817 26.4609 95.8817Z" fill="black"/>
<path d="M23.3984 160.699C23.2584 160.699 23.1484 160.589 23.1484 160.449V149.809C23.1484 149.669 23.2584 149.559 23.3984 149.559C23.5384 149.559 23.6484 149.669 23.6484 149.809V160.449C23.6484 160.589 23.5384 160.699 23.3984 160.699Z" fill="black"/>
<path d="M43.3302 198.151H23.9102C23.7702 198.151 23.6602 198.041 23.6602 197.901V187.961C23.6602 187.821 23.7702 187.711 23.9102 187.711C24.0502 187.711 24.1602 187.821 24.1602 187.961V197.651H43.3402C43.4802 197.651 43.5902 197.761 43.5902 197.901C43.5902 198.041 43.4802 198.151 43.3402 198.151H43.3302Z" fill="black"/>
<path d="M70.1719 144.701C70.0319 144.701 69.9219 144.591 69.9219 144.451V125.281C69.9219 125.141 70.0319 125.031 70.1719 125.031C70.3119 125.031 70.4219 125.141 70.4219 125.281V144.451C70.4219 144.591 70.3119 144.701 70.1719 144.701Z" fill="black"/>
<path d="M94.1891 106.102H87.2891C87.1491 106.102 87.0391 105.992 87.0391 105.852C87.0391 105.712 87.1491 105.602 87.2891 105.602H94.1891C94.3291 105.602 94.4391 105.712 94.4391 105.852C94.4391 105.992 94.3291 106.102 94.1891 106.102Z" fill="black"/>
<path d="M71.1897 87.9591C71.0497 87.9591 70.9397 87.8491 70.9397 87.7091V69.0391H59.6797C59.5397 69.0391 59.4297 68.9291 59.4297 68.7891C59.4297 68.6491 59.5397 68.5391 59.6797 68.5391H71.1797C71.3197 68.5391 71.4297 68.6491 71.4297 68.7891V87.6991C71.4297 87.8391 71.3197 87.9491 71.1797 87.9491L71.1897 87.9591Z" fill="black"/>
<path d="M70.6792 65.7183H59.9492C59.8092 65.7183 59.6992 65.6083 59.6992 65.4683C59.6992 65.3283 59.8092 65.2183 59.9492 65.2183H70.4392V31.4883C70.4392 31.3483 70.5492 31.2383 70.6892 31.2383C70.8292 31.2383 70.9392 31.3483 70.9392 31.4883V65.4783C70.9392 65.6183 70.8292 65.7283 70.6892 65.7283L70.6792 65.7183Z" fill="black"/>
<path d="M23.3092 184.97C24.8888 184.97 26.1692 183.69 26.1692 182.11C26.1692 180.53 24.8888 179.25 23.3092 179.25C21.7297 179.25 20.4492 180.53 20.4492 182.11C20.4492 183.69 21.7297 184.97 23.3092 184.97Z" fill="#E2EAFF"/>
<path d="M23.3092 176.618C24.8888 176.618 26.1692 175.338 26.1692 173.758C26.1692 172.179 24.8888 170.898 23.3092 170.898C21.7297 170.898 20.4492 172.179 20.4492 173.758C20.4492 175.338 21.7297 176.618 23.3092 176.618Z" fill="#E2EAFF"/>
<path d="M23.3092 168.279C24.8888 168.279 26.1692 166.998 26.1692 165.419C26.1692 163.839 24.8888 162.559 23.3092 162.559C21.7297 162.559 20.4492 163.839 20.4492 165.419C20.4492 166.998 21.7297 168.279 23.3092 168.279Z" fill="#E2EAFF"/>
<path d="M258.245 173.91C258.245 176.01 259.945 177.72 262.055 177.72H286.315C288.415 177.72 290.125 176.02 290.125 173.91C290.125 168.04 292.345 162.37 296.375 158.11C301.565 152.63 304.755 145.23 304.755 137.09C304.755 120.18 291.025 106.48 274.105 106.52C257.755 106.56 244.145 119.75 243.625 136.09C243.355 144.54 246.515 152.25 251.825 157.94C255.885 162.29 258.245 167.96 258.245 173.91Z" fill="white"/>
<path d="M286.317 177.96H262.057C259.827 177.96 258.007 176.14 258.007 173.91C258.007 168.1 255.747 162.49 251.657 158.1C246.067 152.11 243.127 144.29 243.387 136.08C243.637 128.11 246.967 120.63 252.757 115.01C258.547 109.39 266.127 106.29 274.097 106.27H274.177C282.397 106.27 290.117 109.46 295.937 115.27C301.777 121.09 304.987 128.84 304.987 137.09C304.987 145.34 301.987 152.54 296.537 158.28C292.547 162.49 290.347 168.04 290.347 173.91C290.347 176.15 288.527 177.96 286.297 177.96H286.317ZM274.187 106.76H274.107C257.947 106.8 244.387 119.96 243.877 136.1C243.617 144.18 246.507 151.88 252.017 157.77C256.197 162.25 258.497 167.98 258.497 173.91C258.497 175.87 260.097 177.47 262.057 177.47H286.317C288.277 177.47 289.877 175.87 289.877 173.91C289.877 167.91 292.117 162.24 296.197 157.94C301.557 152.29 304.507 144.88 304.507 137.09C304.507 129.3 301.347 121.35 295.597 115.62C289.867 109.91 282.267 106.77 274.187 106.77V106.76Z" fill="black"/>
<path d="M260.484 177.738V189.908C260.484 197.468 266.614 203.608 274.184 203.608C281.754 203.608 287.884 197.478 287.884 189.908V177.738H260.494H260.484Z" fill="white"/>
<path d="M274.186 203.848C266.496 203.848 260.246 197.598 260.246 189.908V177.738C260.246 177.598 260.356 177.488 260.496 177.488H287.886C288.026 177.488 288.136 177.598 288.136 177.738V189.908C288.136 197.598 281.886 203.848 274.196 203.848H274.186ZM260.736 177.978V189.908C260.736 197.328 266.766 203.358 274.186 203.358C281.606 203.358 287.636 197.328 287.636 189.908V177.978H260.736Z" fill="black"/>
<path d="M258.379 186.401C258.269 186.401 258.159 186.321 258.139 186.201C258.109 186.071 258.199 185.941 258.329 185.911L289.899 179.521C290.029 179.491 290.159 179.581 290.189 179.711C290.219 179.841 290.129 179.971 289.999 180.001L258.429 186.391C258.429 186.391 258.399 186.391 258.379 186.391V186.401Z" fill="black"/>
<path d="M258.379 192.53C258.269 192.53 258.159 192.45 258.139 192.33C258.109 192.2 258.199 192.07 258.329 192.04L289.899 185.65C290.029 185.62 290.159 185.71 290.189 185.84C290.219 185.97 290.129 186.1 289.999 186.13L258.429 192.52C258.429 192.52 258.399 192.52 258.379 192.52V192.53Z" fill="black"/>
<path d="M260.488 198.241C260.378 198.241 260.268 198.161 260.248 198.041C260.218 197.911 260.308 197.781 260.438 197.751L289.418 191.881C289.548 191.851 289.678 191.941 289.708 192.071C289.738 192.201 289.648 192.331 289.518 192.361L260.538 198.231C260.538 198.231 260.508 198.231 260.488 198.231V198.241Z" fill="black"/>
<path d="M266.929 170.029C266.809 170.029 266.709 169.949 266.689 169.829L260.939 135.649C260.919 135.559 260.959 135.469 261.029 135.409C261.099 135.349 261.199 135.339 261.279 135.379L269.319 139.109L273.989 134.629C274.079 134.549 274.209 134.539 274.309 134.609L279.989 138.919L287.649 135.779C287.729 135.749 287.829 135.759 287.899 135.819C287.969 135.879 287.999 135.969 287.979 136.059L280.989 169.829C280.959 169.959 280.829 170.049 280.699 170.019C280.569 169.989 280.479 169.859 280.509 169.729L287.409 136.419L280.039 139.439C279.959 139.469 279.869 139.459 279.799 139.409L274.169 135.139L269.529 139.589C269.459 139.659 269.349 139.679 269.259 139.639L261.489 136.039L267.169 169.759C267.189 169.889 267.099 170.019 266.969 170.039C266.959 170.039 266.939 170.039 266.929 170.039V170.029Z" fill="#5479F7"/>
<path d="M176.198 33.9014C182.113 33.9014 186.908 29.0974 186.908 23.1714C186.908 17.2454 182.113 12.4414 176.198 12.4414C170.283 12.4414 165.488 17.2454 165.488 23.1714C165.488 29.0974 170.283 33.9014 176.198 33.9014Z" fill="#5479F7"/>
<mask id="mask0_2_60387" style="mask-type:luminance" maskUnits="userSpaceOnUse" x="166" y="13" width="20" height="20">
<path d="M176.196 32.5613C181.377 32.5613 185.576 28.3572 185.576 23.1713C185.576 17.9853 181.377 13.7812 176.196 13.7812C171.016 13.7812 166.816 17.9853 166.816 23.1713C166.816 28.3572 171.016 32.5613 176.196 32.5613Z" fill="white"/>
</mask>
<g mask="url(#mask0_2_60387)">
<path d="M182.066 33.5702H170.336C170.266 33.5702 170.206 33.5402 170.156 33.4902C170.106 33.4402 170.086 33.3802 170.086 33.3102L170.666 21.6302C170.856 17.8602 173.286 14.9102 176.196 14.9102C179.106 14.9102 181.536 17.8602 181.726 21.6302L182.306 33.3102C182.306 33.3802 182.286 33.4402 182.236 33.4902C182.186 33.5402 182.126 33.5702 182.056 33.5702H182.066ZM170.596 33.0802H181.816L181.246 21.6602C181.066 18.1502 178.856 15.4102 176.206 15.4102C173.556 15.4102 171.346 18.1602 171.166 21.6602L170.596 33.0802Z" fill="white"/>
<path d="M181.506 27.7005L176.196 26.4805L170.886 27.7005C169.456 28.0305 168.326 29.1105 167.916 30.5205L166.766 36.6105H185.626L184.476 30.5205C184.066 29.1105 182.936 28.0305 181.506 27.7005Z" fill="white"/>
<path d="M176.196 29.7597C174.936 29.7597 173.906 28.7297 173.906 27.4697L174.646 23.1797H177.756L178.496 27.4697C178.496 28.7397 177.476 29.7597 176.206 29.7597H176.196Z" fill="white"/>
<path d="M180.034 20.2097C179.864 20.1697 179.694 20.1797 179.544 20.2397C179.414 18.1197 177.964 16.6797 176.204 16.6797C174.444 16.6797 172.994 18.1197 172.864 20.2397C172.704 20.1797 172.534 20.1597 172.374 20.2097C171.874 20.3297 171.594 20.9097 171.744 21.4897C171.894 22.0697 172.404 22.4497 172.904 22.3197C172.984 22.2997 173.054 22.2697 173.124 22.2297C173.634 23.7997 174.824 24.9897 176.214 24.9897C177.604 24.9897 178.794 23.7897 179.304 22.2297C179.374 22.2697 179.444 22.2997 179.524 22.3197C180.024 22.4397 180.534 22.0697 180.684 21.4897C180.834 20.9097 180.544 20.3297 180.054 20.2097H180.034Z" fill="white"/>
<path d="M176.195 25.2414C174.845 25.2414 173.575 24.1714 172.965 22.5614C172.965 22.5614 172.955 22.5614 172.945 22.5614C172.635 22.6414 172.315 22.5614 172.035 22.3714C171.765 22.1814 171.575 21.8914 171.495 21.5514C171.315 20.8414 171.685 20.1314 172.305 19.9714C172.415 19.9414 172.525 19.9414 172.635 19.9414C172.875 17.8914 174.335 16.4414 176.195 16.4414C178.055 16.4414 179.515 17.9014 179.755 19.9414C179.865 19.9414 179.975 19.9414 180.085 19.9714C180.715 20.1314 181.075 20.8314 180.895 21.5514C180.815 21.8914 180.615 22.1814 180.355 22.3714C180.075 22.5714 179.755 22.6414 179.445 22.5614C179.445 22.5614 179.435 22.5614 179.425 22.5614C178.815 24.1714 177.535 25.2414 176.195 25.2414ZM173.115 21.9914C173.115 21.9914 173.175 21.9914 173.195 22.0114C173.265 22.0414 173.315 22.0914 173.345 22.1614C173.855 23.7114 174.995 24.7514 176.195 24.7514C177.395 24.7514 178.545 23.7114 179.045 22.1614C179.065 22.0914 179.125 22.0314 179.195 22.0114C179.265 21.9814 179.345 21.9914 179.405 22.0314C179.455 22.0614 179.505 22.0814 179.555 22.1014C179.725 22.1414 179.905 22.1014 180.065 21.9914C180.235 21.8714 180.365 21.6714 180.415 21.4514C180.525 21.0014 180.325 20.5614 179.965 20.4714C179.855 20.4414 179.735 20.4514 179.625 20.5014C179.555 20.5314 179.475 20.5214 179.405 20.4814C179.335 20.4414 179.295 20.3714 179.295 20.2914C179.175 18.3614 177.875 16.9614 176.195 16.9614C174.515 16.9614 173.215 18.3614 173.095 20.2914C173.095 20.3714 173.045 20.4414 172.985 20.4814C172.915 20.5214 172.835 20.5314 172.765 20.5014C172.645 20.4614 172.535 20.4514 172.415 20.4714C172.055 20.5614 171.845 21.0014 171.965 21.4514C172.025 21.6814 172.145 21.8714 172.315 21.9914C172.475 22.1114 172.655 22.1514 172.825 22.1014C172.875 22.0914 172.925 22.0714 172.975 22.0314C173.015 22.0114 173.055 21.9914 173.105 21.9914H173.115Z" fill="#5479F7"/>
<path d="M172.807 20.779C174.477 20.469 176.217 18.979 177.267 17.629C177.467 18.819 178.527 20.209 179.627 20.699C179.627 20.699 180.157 15.959 176.207 16.109C172.257 16.259 172.807 20.769 172.807 20.769V20.779Z" fill="#5479F7"/>
</g>
<path d="M210.519 37.8111C216.434 37.8111 221.229 33.0116 221.229 27.0911C221.229 21.1706 216.434 16.3711 210.519 16.3711C204.604 16.3711 199.809 21.1706 199.809 27.0911C199.809 33.0116 204.604 37.8111 210.519 37.8111Z" fill="#5479F7"/>
<mask id="mask1_2_60387" style="mask-type:luminance" maskUnits="userSpaceOnUse" x="201" y="17" width="19" height="20">
<path d="M210.517 36.4792C215.697 36.4792 219.897 32.2752 219.897 27.0892C219.897 21.9033 215.697 17.6992 210.517 17.6992C205.336 17.6992 201.137 21.9033 201.137 27.0892C201.137 32.2752 205.336 36.4792 210.517 36.4792Z" fill="white"/>
</mask>
<g mask="url(#mask1_2_60387)">
<path d="M212.188 30.6983C211.168 30.6983 210.338 29.8683 210.338 28.8483C210.338 28.7383 210.308 28.6583 210.238 28.6083C210.168 28.5583 210.068 28.5283 209.948 28.5283C209.688 28.5283 209.338 28.6783 209.338 28.9683C209.338 29.8683 208.608 30.6083 207.708 30.6083C206.808 30.6083 206.078 29.8783 206.078 28.9783C206.018 28.9783 205.958 28.9883 205.888 28.9883C204.958 28.9883 204.208 28.2283 204.208 27.3083C204.208 27.1383 204.238 26.9783 204.288 26.8083C203.708 26.3983 203.348 25.7183 203.348 24.9983C203.348 24.1283 203.858 23.3483 204.628 22.9983C204.358 22.6683 204.208 22.2483 204.208 21.8083C204.208 20.7583 205.058 19.9083 206.108 19.9083C206.358 19.9083 206.598 19.9583 206.818 20.0483C207.048 19.2483 207.788 18.6583 208.648 18.6583C209.028 18.6583 209.388 18.7683 209.698 18.9683C210.048 18.2283 210.808 17.7383 211.648 17.7383C212.818 17.7383 213.768 18.6683 213.808 19.8183C213.898 19.8083 213.978 19.7983 214.068 19.7983C215.168 19.7983 216.058 20.6983 216.058 21.7983C216.058 22.0183 216.018 22.2483 215.948 22.4583C216.958 22.6983 217.688 23.5983 217.688 24.6783C217.688 25.8783 216.758 26.8683 215.578 26.9583C215.508 27.7983 214.858 28.4783 214.028 28.5783C214.038 28.6683 214.048 28.7583 214.048 28.8483C214.048 29.8683 213.218 30.6983 212.198 30.6983H212.188ZM209.958 28.0283C210.478 28.0283 210.838 28.3583 210.838 28.8483C210.838 29.5983 211.448 30.2083 212.198 30.2083C212.948 30.2083 213.558 29.5983 213.558 28.8483C213.558 28.7083 213.538 28.5583 213.488 28.4183C213.458 28.3383 213.478 28.2583 213.528 28.1883C213.578 28.1283 213.658 28.0883 213.738 28.0883H213.768C213.768 28.0883 213.798 28.0883 213.808 28.0883C214.518 28.0883 215.098 27.5083 215.098 26.7983C215.098 26.7783 215.098 26.7583 215.098 26.7383C215.098 26.6683 215.118 26.5883 215.168 26.5383C215.218 26.4883 215.288 26.4483 215.348 26.4583H215.418C216.408 26.4583 217.208 25.6583 217.208 24.6683C217.208 23.7383 216.508 22.9683 215.578 22.8883C215.498 22.8883 215.418 22.8283 215.388 22.7583C215.348 22.6883 215.348 22.5983 215.388 22.5283C215.508 22.3083 215.578 22.0483 215.578 21.7983C215.578 20.9683 214.908 20.2883 214.078 20.2883C213.928 20.2883 213.778 20.3083 213.628 20.3583C213.548 20.3783 213.458 20.3583 213.398 20.3083C213.338 20.2583 213.298 20.1783 213.308 20.0883C213.308 20.0183 213.318 19.9583 213.318 19.8883C213.318 18.9683 212.568 18.2183 211.648 18.2183C210.908 18.2183 210.248 18.7183 210.048 19.4283C210.028 19.5083 209.958 19.5783 209.878 19.5983C209.798 19.6183 209.708 19.5983 209.648 19.5383C209.388 19.2783 209.038 19.1383 208.668 19.1383C207.948 19.1383 207.328 19.7083 207.268 20.4283C207.268 20.5183 207.208 20.5883 207.128 20.6283C207.048 20.6683 206.958 20.6583 206.888 20.6183C206.658 20.4683 206.398 20.3983 206.128 20.3983C205.348 20.3983 204.718 21.0283 204.718 21.8083C204.718 22.2383 204.908 22.6383 205.238 22.9083C205.308 22.9683 205.348 23.0583 205.328 23.1483C205.308 23.2383 205.238 23.3083 205.148 23.3383C204.388 23.5283 203.858 24.2183 203.858 25.0083C203.858 25.6283 204.188 26.1983 204.728 26.4983C204.838 26.5583 204.878 26.6983 204.828 26.8083C204.758 26.9683 204.718 27.1283 204.718 27.2983C204.718 27.9583 205.248 28.4883 205.908 28.4883C206.038 28.4883 206.168 28.4683 206.298 28.4183C206.378 28.3883 206.478 28.4183 206.538 28.4683C206.608 28.5283 206.628 28.6183 206.608 28.7083C206.588 28.7983 206.578 28.8783 206.578 28.9583C206.578 29.5883 207.088 30.1083 207.718 30.1083C208.348 30.1083 208.858 29.5983 208.858 28.9583C208.858 28.3883 209.428 28.0283 209.958 28.0283Z" fill="white"/>
<path d="M215.826 31.6184L210.516 30.3984L205.206 31.6184C203.776 31.9484 202.646 33.0284 202.236 34.4284L201.086 40.5184H219.946L218.796 34.4284C218.386 33.0184 217.256 31.9384 215.826 31.6184Z" fill="white"/>
<path d="M210.517 33.6894C209.257 33.6894 208.227 32.6594 208.227 31.3994L208.967 27.1094H212.077L212.817 31.3994C212.817 32.6694 211.797 33.6894 210.527 33.6894H210.517Z" fill="white"/>
<path d="M214.346 24.1394C214.176 24.0994 214.006 24.1094 213.856 24.1694C213.726 22.0494 212.276 20.6094 210.516 20.6094C208.756 20.6094 207.306 22.0494 207.176 24.1694C207.016 24.1094 206.846 24.0894 206.686 24.1394C206.186 24.2594 205.906 24.8394 206.056 25.4194C206.206 25.9994 206.716 26.3794 207.216 26.2494C207.296 26.2294 207.366 26.1994 207.436 26.1594C207.946 27.7294 209.136 28.9194 210.526 28.9194C211.916 28.9194 213.106 27.7194 213.616 26.1594C213.686 26.1994 213.756 26.2294 213.836 26.2494C214.336 26.3694 214.846 25.9994 214.996 25.4194C215.146 24.8394 214.856 24.2594 214.366 24.1394H214.346Z" fill="white"/>
<path d="M210.517 29.1672C209.167 29.1672 207.897 28.0972 207.287 26.4872C207.287 26.4872 207.277 26.4872 207.267 26.4872C206.957 26.5672 206.637 26.4872 206.357 26.2972C206.087 26.1072 205.897 25.8172 205.817 25.4772C205.737 25.1372 205.767 24.7872 205.907 24.4972C206.057 24.1872 206.317 23.9772 206.627 23.8972C206.737 23.8672 206.847 23.8572 206.957 23.8672C207.197 21.8172 208.657 20.3672 210.517 20.3672C212.377 20.3672 213.837 21.8272 214.077 23.8672C214.187 23.8672 214.297 23.8672 214.407 23.8972C214.717 23.9772 214.977 24.1872 215.127 24.4972C215.277 24.7872 215.307 25.1372 215.217 25.4772C215.127 25.8172 214.937 26.1072 214.677 26.2972C214.397 26.4972 214.077 26.5672 213.767 26.4872C213.767 26.4872 213.757 26.4872 213.747 26.4872C213.137 28.0972 211.857 29.1672 210.517 29.1672ZM207.427 25.9172C207.427 25.9172 207.487 25.9172 207.517 25.9372C207.587 25.9672 207.637 26.0172 207.667 26.0872C208.177 27.6372 209.317 28.6772 210.517 28.6772C211.717 28.6772 212.867 27.6372 213.367 26.0872C213.387 26.0172 213.447 25.9572 213.517 25.9372C213.587 25.9072 213.667 25.9172 213.727 25.9572C213.777 25.9872 213.827 26.0072 213.877 26.0272C214.047 26.0672 214.227 26.0272 214.387 25.9172C214.557 25.7972 214.687 25.5972 214.737 25.3772C214.787 25.1572 214.777 24.9172 214.677 24.7272C214.587 24.5472 214.447 24.4272 214.277 24.3872C214.167 24.3572 214.047 24.3672 213.927 24.4172C213.857 24.4472 213.777 24.4372 213.707 24.3972C213.637 24.3572 213.597 24.2872 213.597 24.2072C213.477 22.2772 212.177 20.8772 210.497 20.8772C208.817 20.8772 207.517 22.2772 207.397 24.2072C207.397 24.2872 207.347 24.3572 207.287 24.3972C207.217 24.4372 207.137 24.4472 207.067 24.4172C206.947 24.3772 206.837 24.3672 206.727 24.3872C206.557 24.4272 206.417 24.5472 206.327 24.7272C206.237 24.9172 206.217 25.1472 206.267 25.3772C206.317 25.6072 206.447 25.7972 206.617 25.9172C206.777 26.0372 206.957 26.0772 207.127 26.0272C207.177 26.0172 207.227 25.9972 207.277 25.9572C207.317 25.9372 207.357 25.9172 207.407 25.9172H207.427Z" fill="#5479F7"/>
<path d="M207.234 24.219C208.904 23.909 210.534 22.899 211.574 21.559C211.774 22.749 212.784 23.729 213.894 24.219C213.894 24.219 214.464 19.889 210.514 20.039C206.564 20.189 207.234 24.219 207.234 24.219Z" fill="#5479F7"/>
</g>
<path d="M190.417 67.8111C196.332 67.8111 201.127 63.0116 201.127 57.0911C201.127 51.1706 196.332 46.3711 190.417 46.3711C184.502 46.3711 179.707 51.1706 179.707 57.0911C179.707 63.0116 184.502 67.8111 190.417 67.8111Z" fill="#5479F7"/>
<mask id="mask2_2_60387" style="mask-type:luminance" maskUnits="userSpaceOnUse" x="181" y="47" width="19" height="20">
<path d="M190.415 66.4792C195.596 66.4792 199.795 62.2752 199.795 57.0892C199.795 51.9033 195.596 47.6992 190.415 47.6992C185.235 47.6992 181.035 51.9033 181.035 57.0892C181.035 62.2752 185.235 66.4792 190.415 66.4792Z" fill="white"/>
</mask>
<g mask="url(#mask2_2_60387)">
<path d="M195.724 61.6184L190.414 60.3984L185.104 61.6184C183.674 61.9484 182.544 63.0284 182.134 64.4284L180.984 70.5184H199.844L198.694 64.4284C198.284 63.0184 197.154 61.9384 195.724 61.6184Z" fill="white"/>
<path d="M188.125 57.1094H192.705V61.5494C192.705 62.7294 191.745 63.6894 190.565 63.6894H190.265C189.085 63.6894 188.125 62.7294 188.125 61.5494V57.1094Z" fill="white"/>
<path d="M194.204 54.2009C194.044 54.1609 193.874 54.1709 193.714 54.2309C193.584 52.1309 192.154 50.7109 190.404 50.7109C188.654 50.7109 187.224 52.1309 187.094 54.2309C186.934 54.1709 186.774 54.1509 186.604 54.2009C186.114 54.3209 185.834 54.8909 185.974 55.4709C186.114 56.0509 186.634 56.4209 187.124 56.3009C187.204 56.2809 187.274 56.2509 187.344 56.2109C187.854 57.7609 189.024 58.9509 190.404 58.9509C191.784 58.9509 192.954 57.7609 193.464 56.2109C193.534 56.2509 193.604 56.2809 193.684 56.3009C194.174 56.4209 194.684 56.0509 194.834 55.4709C194.974 54.8909 194.694 54.3209 194.204 54.2009Z" fill="white"/>
<path d="M190.415 59.1883C189.015 59.1883 187.695 58.0183 187.125 56.2783C187.085 56.1483 187.155 56.0083 187.285 55.9683C187.415 55.9283 187.555 55.9983 187.595 56.1283C188.095 57.6683 189.235 58.6983 190.415 58.6983C191.595 58.6983 192.735 57.6683 193.235 56.1283C193.275 55.9983 193.415 55.9283 193.545 55.9683C193.675 56.0083 193.745 56.1483 193.705 56.2783C193.135 58.0183 191.815 59.1883 190.415 59.1883Z" fill="#5479F7"/>
<path d="M191.534 49.1114C188.694 48.6314 185.404 49.2214 186.794 53.7014L187.154 54.7714L187.734 55.1614C187.734 55.1614 187.574 52.2114 188.494 52.0614C189.364 51.9214 189.424 52.4914 190.474 52.4714C191.524 52.5014 191.574 51.9214 192.454 52.0614C193.374 52.2114 193.214 55.1614 193.214 55.1614L193.794 54.7714L194.154 53.7014C195.074 50.2314 193.594 48.8614 191.544 49.1114H191.534Z" fill="#5479F7"/>
<path d="M187.733 55.4001C187.733 55.4001 187.633 55.3901 187.593 55.3601L187.013 54.9701C187.013 54.9701 186.933 54.9001 186.923 54.8501L186.563 53.7801C186.013 52.0301 186.123 50.7001 186.883 49.8301C188.023 48.5201 190.273 48.6601 191.543 48.8701C192.573 48.7501 193.453 49.0301 194.003 49.6601C194.523 50.2501 195.013 51.4501 194.393 53.7701L194.023 54.8601C194.003 54.9101 193.973 54.9501 193.933 54.9801L193.353 55.3701C193.273 55.4201 193.173 55.4301 193.093 55.3801C193.013 55.3301 192.963 55.2501 192.973 55.1501C193.033 54.0101 192.873 52.3801 192.413 52.3001C192.043 52.2401 191.873 52.3201 191.623 52.4401C191.363 52.5701 191.043 52.7201 190.463 52.7101C189.893 52.7101 189.583 52.5701 189.323 52.4401C189.083 52.3201 188.903 52.2401 188.533 52.3001C188.073 52.3801 187.913 54.0001 187.973 55.1501C187.973 55.2401 187.933 55.3301 187.853 55.3801C187.813 55.4001 187.773 55.4101 187.733 55.4101V55.4001ZM192.183 51.7901C192.273 51.7901 192.373 51.7901 192.493 51.8201C193.373 51.9701 193.483 53.7501 193.473 54.6901L193.583 54.6101L193.923 53.6201C194.363 51.9601 194.263 50.7001 193.633 49.9801C193.063 49.3301 192.193 49.2801 191.573 49.3601C191.553 49.3601 191.523 49.3601 191.503 49.3601C189.533 49.0301 187.993 49.3201 187.263 50.1501C186.623 50.8801 186.553 52.0501 187.043 53.6301L187.373 54.6201L187.483 54.7001C187.483 53.7601 187.583 51.9801 188.463 51.8301C188.983 51.7401 189.263 51.8801 189.543 52.0201C189.783 52.1401 190.013 52.2601 190.473 52.2401C190.933 52.2501 191.173 52.1401 191.413 52.0201C191.633 51.9101 191.853 51.8101 192.193 51.8101L192.183 51.7901Z" fill="white"/>
</g>
<path d="M201.147 18.4316C201.147 18.4316 201.087 18.4316 201.047 18.4116C198.577 17.3716 195.957 16.8416 193.257 16.8416C191.287 16.8416 189.337 17.1316 187.477 17.6916C187.347 17.7316 187.207 17.6616 187.167 17.5316C187.127 17.4016 187.197 17.2616 187.327 17.2216C189.237 16.6416 191.237 16.3516 193.257 16.3516C196.027 16.3516 198.707 16.8916 201.237 17.9616C201.357 18.0116 201.417 18.1616 201.367 18.2816C201.327 18.3716 201.237 18.4316 201.137 18.4316H201.147Z" fill="#5479F7"/>
<path d="M179.32 51.7718C179.26 51.7718 179.2 51.7518 179.15 51.7018C175.03 47.7918 172.77 42.5118 172.77 36.8418C172.77 36.5118 172.77 36.1818 172.79 35.8518C172.79 35.7118 172.92 35.6118 173.05 35.6218C173.19 35.6218 173.29 35.7418 173.28 35.8818C173.26 36.2018 173.26 36.5318 173.26 36.8418C173.26 42.3818 175.47 47.5318 179.49 51.3518C179.59 51.4418 179.59 51.6018 179.49 51.7018C179.44 51.7518 179.38 51.7818 179.31 51.7818L179.32 51.7718Z" fill="#5479F7"/>
<path d="M203.137 54.7711C203.047 54.7711 202.967 54.7211 202.927 54.6411C202.857 54.5211 202.907 54.3711 203.017 54.3111C208.257 51.3811 211.877 46.3211 212.947 40.4411C212.967 40.3111 213.097 40.2211 213.237 40.2411C213.367 40.2611 213.457 40.3911 213.437 40.5311C212.347 46.5611 208.637 51.7411 203.257 54.7411C203.217 54.7611 203.177 54.7711 203.137 54.7711Z" fill="#5479F7"/>
<path d="M297.679 90.6009H244.039C243.899 90.6009 243.789 90.4909 243.789 90.3509V56.9609C243.789 56.8209 243.899 56.7109 244.039 56.7109C244.179 56.7109 244.289 56.8209 244.289 56.9609V90.1109H297.679C297.819 90.1109 297.929 90.2209 297.929 90.3609C297.929 90.5009 297.819 90.6109 297.679 90.6109V90.6009Z" fill="black"/>
<path d="M250.47 65.9805H246.27V88.4205H250.47V65.9805Z" fill="#E2EAFF"/>
<path d="M257.091 76.3711H252.891V88.4311H257.091V76.3711Z" fill="#E2EAFF"/>
<path d="M263.7 71.6719H259.5V88.4219H263.7V71.6719Z" fill="#E2EAFF"/>
<path d="M270.317 64.3398H266.117V88.4298H270.317V64.3398Z" fill="#E2EAFF"/>
<path d="M276.83 59.3008H272.84V88.4308H276.83V59.3008Z" fill="#E2EAFF"/>
<path d="M283.548 57.75H279.348V88.42H283.548V57.75Z" fill="#E2EAFF"/>
<path d="M290.161 61.5703H285.961V88.4203H290.161V61.5703Z" fill="#E2EAFF"/>
<path d="M296.778 65.9805H292.578V88.4205H296.778V65.9805Z" fill="#E2EAFF"/>
<path d="M294.857 20.3711H250.938V37.8311H294.857V20.3711Z" fill="#E2EAFF"/>
<path d="M260.758 31.8091C260.698 31.8091 260.638 31.7891 260.588 31.7491C260.488 31.6591 260.478 31.4991 260.578 31.3991L279.548 10.8191C279.548 10.8191 279.658 10.7391 279.718 10.7391C279.778 10.7391 279.848 10.7591 279.898 10.8091L288.018 18.3391L300.578 4.70909C300.668 4.60909 300.828 4.59909 300.928 4.69909C301.028 4.78909 301.038 4.94909 300.938 5.04909L288.208 18.8591C288.208 18.8591 288.098 18.9391 288.038 18.9391C287.978 18.9391 287.908 18.9191 287.858 18.8691L279.738 11.3391L260.938 31.7391C260.888 31.7891 260.828 31.8191 260.758 31.8191V31.8091Z" fill="black"/>
<path d="M299.938 8.05938L299.488 7.86938L300.728 4.90937L297.868 6.38937L297.648 5.94937L301.698 3.85938L299.938 8.05938Z" fill="black"/>
<path d="M203.48 112.02C203.37 112.02 203.26 112.04 203.15 112.06C202.81 110.98 202.31 109.97 201.68 109.06C201.76 108.99 201.84 108.91 201.92 108.82C202.92 107.68 202.81 105.94 201.67 104.94C200.53 103.94 198.79 104.05 197.79 105.19C197.72 105.27 197.65 105.36 197.59 105.45C196.61 104.94 195.54 104.57 194.42 104.37C194.42 104.26 194.42 104.15 194.42 104.04C194.32 102.53 193.02 101.38 191.5 101.47C189.99 101.57 188.84 102.87 188.93 104.39C188.93 104.5 188.95 104.61 188.97 104.72C187.89 105.06 186.88 105.56 185.97 106.19C185.9 106.11 185.82 106.03 185.73 105.95C184.59 104.95 182.85 105.06 181.85 106.2C180.85 107.34 180.96 109.08 182.1 110.08C182.18 110.15 182.27 110.22 182.36 110.28C181.85 111.26 181.48 112.33 181.28 113.45C181.17 113.45 181.06 113.45 180.95 113.45C179.44 113.55 178.29 114.85 178.38 116.37C178.48 117.88 179.78 119.03 181.3 118.94C181.41 118.94 181.52 118.92 181.63 118.9C181.97 119.98 182.47 120.99 183.1 121.9C183.02 121.97 182.94 122.05 182.86 122.14C181.86 123.28 181.97 125.02 183.11 126.02C184.25 127.02 185.99 126.91 186.99 125.77C187.06 125.69 187.13 125.6 187.19 125.51C188.17 126.02 189.24 126.39 190.36 126.59C190.36 126.7 190.36 126.81 190.36 126.92C190.46 128.43 191.76 129.58 193.28 129.49C194.79 129.39 195.94 128.09 195.85 126.57C195.85 126.46 195.83 126.35 195.81 126.24C196.89 125.9 197.9 125.4 198.81 124.77C198.88 124.85 198.96 124.93 199.05 125.01C200.19 126.01 201.93 125.9 202.93 124.76C203.93 123.62 203.82 121.88 202.68 120.88C202.6 120.81 202.51 120.74 202.42 120.68C202.93 119.7 203.3 118.63 203.5 117.51C203.61 117.51 203.72 117.51 203.83 117.51C205.34 117.41 206.49 116.11 206.4 114.59C206.3 113.08 205 111.93 203.48 112.02ZM192.72 120.57C189.91 120.75 187.48 118.61 187.3 115.8C187.12 112.99 189.26 110.56 192.07 110.38C194.88 110.2 197.31 112.34 197.49 115.15C197.67 117.96 195.53 120.39 192.72 120.57Z" fill="white"/>
<path d="M193.108 129.729C191.548 129.729 190.218 128.509 190.118 126.929C190.118 126.879 190.118 126.829 190.118 126.779C189.128 126.579 188.178 126.259 187.278 125.809C187.248 125.849 187.218 125.889 187.188 125.919C186.658 126.519 185.928 126.879 185.128 126.929C184.328 126.979 183.558 126.719 182.958 126.189C182.358 125.659 181.998 124.929 181.948 124.129C181.898 123.329 182.158 122.559 182.688 121.959C182.718 121.919 182.758 121.889 182.788 121.849C182.228 121.009 181.788 120.109 181.468 119.159C181.418 119.159 181.368 119.169 181.318 119.169C179.668 119.269 178.248 118.019 178.138 116.369C178.038 114.719 179.288 113.299 180.938 113.189C180.988 113.189 181.038 113.189 181.088 113.189C181.288 112.199 181.608 111.249 182.058 110.349C182.018 110.319 181.978 110.289 181.948 110.259C181.348 109.729 180.988 108.999 180.938 108.199C180.888 107.399 181.148 106.629 181.678 106.029C182.768 104.789 184.668 104.669 185.908 105.759C185.948 105.789 185.978 105.829 186.018 105.859C186.858 105.299 187.758 104.859 188.708 104.539C188.708 104.489 188.698 104.439 188.698 104.389C188.598 102.739 189.848 101.319 191.498 101.209C192.298 101.159 193.068 101.419 193.668 101.949C194.268 102.479 194.628 103.209 194.678 104.009C194.678 104.059 194.678 104.109 194.678 104.159C195.668 104.359 196.618 104.679 197.518 105.129C197.548 105.089 197.578 105.049 197.618 105.019C198.148 104.419 198.878 104.059 199.678 104.009C200.478 103.959 201.248 104.219 201.848 104.749C202.448 105.279 202.808 106.009 202.858 106.809C202.908 107.609 202.648 108.379 202.118 108.979C202.088 109.019 202.048 109.049 202.018 109.089C202.578 109.929 203.018 110.829 203.338 111.779C203.388 111.779 203.438 111.769 203.488 111.769C205.138 111.669 206.558 112.919 206.668 114.569C206.768 116.219 205.518 117.639 203.868 117.749C203.818 117.749 203.768 117.749 203.718 117.749C203.518 118.739 203.198 119.689 202.748 120.589C202.788 120.619 202.828 120.649 202.858 120.689C203.458 121.219 203.818 121.949 203.868 122.749C203.918 123.549 203.658 124.319 203.128 124.919C202.598 125.519 201.868 125.879 201.068 125.929C200.278 125.979 199.498 125.719 198.898 125.189C198.858 125.159 198.828 125.129 198.788 125.089C197.948 125.649 197.048 126.089 196.098 126.409C196.098 126.459 196.108 126.509 196.108 126.559C196.158 127.359 195.898 128.129 195.368 128.729C194.838 129.329 194.108 129.689 193.308 129.739C193.248 129.739 193.178 129.739 193.118 129.739L193.108 129.729ZM187.198 125.249C187.198 125.249 187.278 125.249 187.308 125.279C188.278 125.789 189.328 126.139 190.408 126.339C190.528 126.359 190.618 126.469 190.608 126.599C190.608 126.719 190.608 126.809 190.608 126.899C190.698 128.279 191.888 129.329 193.268 129.239C193.938 129.199 194.548 128.899 194.988 128.399C195.428 127.899 195.648 127.249 195.608 126.589C195.608 126.499 195.588 126.399 195.568 126.289C195.548 126.169 195.618 126.049 195.738 126.009C196.788 125.679 197.778 125.189 198.678 124.569C198.778 124.499 198.918 124.519 198.998 124.609C199.078 124.699 199.148 124.769 199.208 124.829C199.708 125.269 200.358 125.489 201.018 125.449C201.688 125.409 202.298 125.109 202.738 124.609C203.178 124.109 203.398 123.459 203.358 122.799C203.318 122.129 203.018 121.519 202.518 121.079C202.448 121.019 202.368 120.959 202.278 120.889C202.178 120.819 202.138 120.679 202.198 120.569C202.708 119.599 203.058 118.559 203.258 117.469C203.278 117.349 203.388 117.269 203.518 117.269C203.638 117.269 203.728 117.269 203.818 117.269C205.198 117.179 206.248 115.989 206.158 114.609C206.068 113.229 204.878 112.179 203.498 112.269C203.408 112.269 203.308 112.289 203.198 112.309C203.078 112.329 202.958 112.259 202.918 112.139C202.588 111.089 202.098 110.099 201.478 109.199C201.408 109.099 201.428 108.959 201.518 108.879C201.608 108.799 201.678 108.729 201.738 108.669C202.178 108.169 202.398 107.519 202.358 106.859C202.318 106.189 202.018 105.579 201.518 105.139C201.018 104.699 200.368 104.479 199.708 104.519C199.038 104.559 198.428 104.859 197.988 105.359C197.928 105.429 197.868 105.509 197.798 105.599C197.728 105.699 197.598 105.739 197.478 105.679C196.508 105.169 195.458 104.819 194.378 104.619C194.258 104.599 194.168 104.489 194.178 104.359C194.178 104.249 194.178 104.149 194.178 104.059C194.138 103.389 193.838 102.779 193.338 102.339C192.838 101.899 192.198 101.679 191.528 101.719C190.148 101.809 189.098 102.999 189.188 104.379C189.188 104.469 189.208 104.569 189.228 104.679C189.248 104.799 189.178 104.919 189.058 104.959C188.008 105.289 187.018 105.779 186.118 106.399C186.018 106.469 185.878 106.449 185.798 106.359C185.718 106.269 185.648 106.199 185.588 106.139C184.548 105.229 182.968 105.329 182.058 106.359C181.618 106.859 181.398 107.509 181.438 108.169C181.478 108.839 181.778 109.449 182.278 109.889C182.348 109.949 182.428 110.009 182.518 110.079C182.618 110.149 182.658 110.289 182.598 110.399C182.088 111.369 181.738 112.419 181.538 113.499C181.518 113.619 181.408 113.709 181.278 113.699C181.158 113.699 181.068 113.699 180.978 113.699C179.598 113.789 178.548 114.979 178.638 116.359C178.678 117.029 178.978 117.639 179.478 118.079C179.978 118.519 180.618 118.739 181.288 118.699C181.378 118.699 181.478 118.679 181.588 118.659C181.708 118.639 181.828 118.709 181.868 118.829C182.198 119.879 182.688 120.869 183.308 121.769C183.378 121.869 183.358 122.009 183.268 122.089C183.178 122.169 183.118 122.229 183.048 122.299C182.608 122.799 182.388 123.449 182.428 124.109C182.468 124.779 182.768 125.389 183.268 125.829C183.768 126.269 184.418 126.499 185.078 126.449C185.748 126.409 186.358 126.109 186.798 125.609C186.858 125.539 186.918 125.459 186.988 125.369C187.038 125.299 187.108 125.259 187.188 125.259L187.198 125.249ZM192.388 120.819C191.088 120.819 189.848 120.349 188.858 119.489C187.788 118.549 187.148 117.239 187.058 115.809C186.968 114.379 187.438 113.009 188.378 111.939C189.318 110.869 190.628 110.229 192.058 110.139C194.998 109.949 197.548 112.199 197.738 115.139C197.928 118.079 195.678 120.629 192.738 120.819C192.618 120.819 192.508 120.829 192.388 120.829V120.819ZM192.398 110.609C192.298 110.609 192.188 110.609 192.088 110.609C190.788 110.689 189.608 111.269 188.748 112.249C187.888 113.219 187.468 114.469 187.548 115.769C187.628 117.069 188.208 118.249 189.188 119.109C190.158 119.969 191.418 120.399 192.708 120.309C195.378 120.139 197.418 117.829 197.248 115.149C197.088 112.579 194.938 110.599 192.398 110.599V110.609Z" fill="black"/>
<path d="M176.649 100.859C176.579 100.879 176.519 100.899 176.459 100.919C176.129 100.309 175.719 99.7492 175.229 99.2792C175.269 99.2292 175.309 99.1692 175.349 99.1092C175.829 98.3092 175.559 97.2792 174.759 96.7992C173.959 96.3192 172.929 96.5892 172.449 97.3892C172.409 97.4492 172.379 97.5092 172.359 97.5692C171.709 97.3692 171.029 97.2692 170.329 97.2692C170.329 97.1992 170.309 97.1392 170.289 97.0692C170.059 96.1692 169.149 95.6192 168.239 95.8492C167.329 96.0792 166.789 96.9892 167.019 97.8992C167.039 97.9692 167.059 98.0292 167.079 98.0892C166.469 98.4192 165.909 98.8292 165.439 99.3192C165.389 99.2792 165.329 99.2392 165.269 99.1992C164.469 98.7192 163.439 98.9892 162.959 99.7892C162.479 100.589 162.749 101.619 163.549 102.099C163.609 102.139 163.669 102.169 163.729 102.189C163.529 102.839 163.429 103.519 163.429 104.219C163.359 104.219 163.299 104.239 163.229 104.259C162.329 104.489 161.779 105.399 162.009 106.309C162.239 107.209 163.149 107.759 164.059 107.529C164.129 107.509 164.189 107.489 164.249 107.469C164.579 108.079 164.989 108.639 165.479 109.109C165.439 109.159 165.399 109.219 165.359 109.279C164.879 110.079 165.149 111.109 165.949 111.589C166.749 112.069 167.779 111.799 168.259 110.999C168.299 110.939 168.329 110.879 168.349 110.819C168.999 111.019 169.679 111.119 170.379 111.119C170.379 111.189 170.399 111.249 170.419 111.319C170.649 112.219 171.559 112.769 172.469 112.539C173.379 112.309 173.919 111.399 173.689 110.489C173.669 110.419 173.649 110.359 173.629 110.299C174.239 109.969 174.799 109.559 175.269 109.069C175.319 109.109 175.379 109.149 175.439 109.189C176.239 109.669 177.269 109.399 177.749 108.599C178.229 107.799 177.959 106.769 177.159 106.289C177.099 106.249 177.039 106.219 176.979 106.199C177.179 105.549 177.279 104.869 177.279 104.169C177.349 104.169 177.409 104.149 177.479 104.129C178.379 103.899 178.929 102.989 178.699 102.079C178.469 101.179 177.559 100.629 176.649 100.859ZM171.129 107.229C169.459 107.649 167.749 106.639 167.329 104.969C166.909 103.299 167.919 101.589 169.589 101.169C171.259 100.749 172.969 101.759 173.389 103.429C173.809 105.099 172.799 106.809 171.129 107.229Z" fill="#5479F7"/>
<path d="M235.865 189.068L192.855 189.088L192.875 159.888L213.865 141.898L235.885 159.878L235.865 189.068Z" fill="white"/>
<path d="M192.857 189.328C192.787 189.328 192.727 189.298 192.687 189.258C192.647 189.218 192.617 189.148 192.617 189.088L192.647 159.888C192.647 159.818 192.677 159.748 192.737 159.698L213.727 141.708C213.817 141.628 213.947 141.628 214.037 141.708L236.057 159.678C236.117 159.728 236.147 159.798 236.147 159.868L236.117 189.068C236.117 189.208 236.007 189.308 235.867 189.308H192.857V189.328ZM193.127 159.998L193.097 188.838H235.617L235.647 159.988L213.877 142.218L193.127 159.998Z" fill="black"/>
<path d="M214.396 177.649C214.346 177.649 214.286 177.629 214.246 177.599L194.296 161.739C194.186 161.659 194.176 161.499 194.256 161.399C194.336 161.289 194.496 161.279 194.596 161.359L214.396 177.099L233.926 161.209C234.036 161.119 234.186 161.139 234.266 161.249C234.356 161.349 234.336 161.509 234.226 161.589L214.546 177.609C214.546 177.609 214.446 177.669 214.396 177.669V177.649Z" fill="black"/>
<path d="M227.806 166.441L214.416 177.401L200.656 166.451L200.666 148.901L227.816 148.891L227.806 166.441Z" fill="white"/>
<path d="M214.416 177.65C214.366 177.65 214.306 177.63 214.266 177.6L200.496 166.64C200.436 166.59 200.406 166.52 200.406 166.45L200.426 148.9C200.426 148.76 200.536 148.66 200.676 148.66H227.826C227.896 148.66 227.956 148.68 227.996 148.72C228.046 148.77 228.066 148.83 228.066 148.89L228.046 166.44C228.046 166.51 228.016 166.58 227.956 166.63L214.576 177.59C214.576 177.59 214.476 177.65 214.416 177.65ZM200.896 166.33L214.416 177.09L227.556 166.33L227.576 149.14H200.916L200.896 166.34V166.33Z" fill="black"/>
<path d="M208.201 161.028C209.444 160.616 210.117 159.275 209.706 158.032C209.294 156.79 207.953 156.116 206.711 156.528C205.468 156.94 204.795 158.281 205.206 159.523C205.618 160.766 206.959 161.439 208.201 161.028Z" fill="#5479F7"/>
<path d="M215.124 161.043C216.366 160.631 217.04 159.29 216.628 158.047C216.216 156.805 214.875 156.131 213.632 156.543C212.39 156.955 211.717 158.296 212.129 159.539C212.54 160.781 213.881 161.454 215.124 161.043Z" fill="#5479F7"/>
<path d="M222.061 161.027C223.303 160.614 223.975 159.272 223.562 158.03C223.149 156.788 221.807 156.116 220.565 156.529C219.323 156.942 218.651 158.284 219.064 159.526C219.478 160.768 220.819 161.44 222.061 161.027Z" fill="#5479F7"/>
<path d="M157.068 106.102H150.168C150.028 106.102 149.918 105.992 149.918 105.852C149.918 105.712 150.028 105.602 150.168 105.602H157.068C157.208 105.602 157.318 105.712 157.318 105.852C157.318 105.992 157.208 106.102 157.068 106.102Z" fill="black"/>
<path d="M193.098 96.8992C192.958 96.8992 192.848 96.7892 192.848 96.6492V77.4492C192.848 77.3092 192.958 77.1992 193.098 77.1992H238.588C238.728 77.1992 238.838 77.3092 238.838 77.4492C238.838 77.5892 238.728 77.6992 238.588 77.6992H193.338V96.6592C193.338 96.7992 193.228 96.9092 193.088 96.9092L193.098 96.8992Z" fill="black"/>
<path d="M213.93 136.79C213.79 136.79 213.68 136.68 213.68 136.54V130.73C213.68 130.59 213.79 130.48 213.93 130.48H240.72C240.86 130.48 240.97 130.59 240.97 130.73C240.97 130.87 240.86 130.98 240.72 130.98H214.17V136.55C214.17 136.69 214.06 136.8 213.92 136.8L213.93 136.79Z" fill="black"/>
<path d="M189.269 170.259H170.359C170.219 170.259 170.109 170.149 170.109 170.009V117.199C170.109 117.059 170.219 116.949 170.359 116.949C170.499 116.949 170.609 117.059 170.609 117.199V169.769H189.279C189.419 169.769 189.529 169.879 189.529 170.019C189.529 170.159 189.419 170.269 189.279 170.269L189.269 170.259Z" fill="black"/>
<path d="M273.867 103.042C273.727 103.042 273.617 102.932 273.617 102.792V93.8516C273.617 93.7116 273.727 93.6016 273.867 93.6016C274.007 93.6016 274.117 93.7116 274.117 93.8516V102.792C274.117 102.932 274.007 103.042 273.867 103.042Z" fill="black"/>
<path d="M248.248 28.1484H223.258C223.118 28.1484 223.008 28.0384 223.008 27.8984C223.008 27.7584 223.118 27.6484 223.258 27.6484H248.248C248.388 27.6484 248.498 27.7584 248.498 27.8984C248.498 28.0384 248.388 28.1484 248.248 28.1484Z" fill="black"/>
<path d="M113.178 4.64062H100.578C100.438 4.64062 100.328 4.53062 100.328 4.39062C100.328 4.25062 100.438 4.14062 100.578 4.14062H113.178C113.318 4.14062 113.428 4.25062 113.428 4.39062C113.428 4.53062 113.318 4.64062 113.178 4.64062Z" fill="black"/>
<path d="M164.79 13.6206C164.73 13.6206 164.66 13.6006 164.62 13.5506L155.69 4.64062H141.77C141.63 4.64062 141.52 4.53062 141.52 4.39062C141.52 4.25062 141.63 4.14062 141.77 4.14062H155.79C155.85 4.14062 155.92 4.17063 155.96 4.21063L164.96 13.1906C165.06 13.2906 165.06 13.4406 164.96 13.5406C164.91 13.5906 164.85 13.6106 164.79 13.6106V13.6206Z" fill="black"/>
<path d="M118.719 7.30984C120.299 7.30984 121.579 6.02938 121.579 4.44984C121.579 2.87031 120.299 1.58984 118.719 1.58984C117.14 1.58984 115.859 2.87031 115.859 4.44984C115.859 6.02938 117.14 7.30984 118.719 7.30984Z" fill="#E2EAFF"/>
<path d="M127.059 7.30984C128.639 7.30984 129.919 6.02938 129.919 4.44984C129.919 2.87031 128.639 1.58984 127.059 1.58984C125.48 1.58984 124.199 2.87031 124.199 4.44984C124.199 6.02938 125.48 7.30984 127.059 7.30984Z" fill="#E2EAFF"/>
<path d="M135.411 7.30984C136.99 7.30984 138.271 6.02938 138.271 4.44984C138.271 2.87031 136.99 1.58984 135.411 1.58984C133.831 1.58984 132.551 2.87031 132.551 4.44984C132.551 6.02938 133.831 7.30984 135.411 7.30984Z" fill="#E2EAFF"/>
</svg>
