<svg width="48" height="48" viewBox="0 0 48 48" fill="none" xmlns="http://www.w3.org/2000/svg">
<path d="M38.97 0H8.17C3.65783 0 0 3.65783 0 8.17V38.97C0 43.4822 3.65783 47.14 8.17 47.14H38.97C43.4822 47.14 47.14 43.4822 47.14 38.97V8.17C47.14 3.65783 43.4822 0 38.97 0Z" fill="#ECF2FB"/>
<path d="M38.9183 19.2111H33.0183C32.1983 19.2111 31.5383 19.8711 31.5383 20.6911V22.5311C31.2983 22.2711 31.0583 22.0411 30.7983 21.8111C26.5983 18.0711 20.1483 18.1911 16.1083 22.1411C15.8983 22.3411 15.6983 22.5611 15.5083 22.7811C15.1083 20.7511 13.3183 19.2111 11.1683 19.2111C8.71828 19.2111 6.73828 21.1911 6.73828 23.6411C6.73828 26.0911 8.71828 28.0711 11.1683 28.0711C13.6183 28.0711 15.4883 26.1911 15.5883 23.8311C15.6383 23.7611 15.6983 23.7011 15.7483 23.6411C15.9283 23.4211 16.0983 23.2011 16.2883 23.0011C20.1783 18.8311 26.8083 18.7511 30.7983 22.8111C31.0583 23.0711 31.2983 23.3511 31.5383 23.6511V26.6011C31.5383 27.4211 32.1983 28.0811 33.0183 28.0811H38.9183C39.7383 28.0811 40.3983 27.4211 40.3983 26.6011V20.7011C40.3983 19.8811 39.7383 19.2211 38.9183 19.2211V19.2111ZM11.1683 27.3211C9.12828 27.3211 7.47828 25.6711 7.47828 23.6311C7.47828 21.5911 9.12828 19.9411 11.1683 19.9411C13.2083 19.9411 14.8583 21.5911 14.8583 23.6311C14.8583 25.6711 13.2083 27.3211 11.1683 27.3211ZM38.9183 27.3211H33.0183C32.6083 27.3211 32.2783 26.9911 32.2783 26.5811V23.4211L32.2983 23.4011L32.2783 23.3711V20.6711C32.2783 20.2611 32.6083 19.9311 33.0183 19.9311H38.9183C39.3283 19.9311 39.6583 20.2611 39.6583 20.6711V26.5711C39.6583 26.9811 39.3283 27.3111 38.9183 27.3111V27.3211Z" fill="#9281FF"/>
</svg>
