<svg width="48" height="48" viewBox="0 0 48 48" fill="none" xmlns="http://www.w3.org/2000/svg">
<path d="M38.97 0H8.17C3.65783 0 0 3.65783 0 8.17V38.97C0 43.4822 3.65783 47.14 8.17 47.14H38.97C43.4822 47.14 47.14 43.4822 47.14 38.97V8.17C47.14 3.65783 43.4822 0 38.97 0Z" fill="#ECF2FB"/>
<path d="M24.6781 25.3013L11.8681 25.6113C10.5981 25.6413 10.0581 27.2413 11.0581 28.0313L15.6681 31.6813C15.7581 31.7513 15.8181 31.8513 15.8381 31.9713L16.7081 37.8113C16.8981 39.0713 18.5481 39.4013 19.2081 38.3213L25.8681 27.3613C26.4281 26.4413 25.7481 25.2713 24.6781 25.3013ZM18.4381 37.8513C18.2181 38.2113 17.6681 38.1013 17.6081 37.6813L16.7381 31.8413C16.6881 31.5013 16.5081 31.1913 16.2381 30.9813L11.6281 27.3313C11.2981 27.0713 11.4781 26.5313 11.8981 26.5213L24.7081 26.2113C25.0681 26.2113 25.2881 26.5913 25.1081 26.9013L18.4481 37.8613L18.4381 37.8513Z" fill="#9281FF"/>
<path d="M36.0777 19.1106L31.4477 15.4306C31.3577 15.3606 31.2977 15.2606 31.2777 15.1406L30.4177 9.32059C30.2277 8.06059 28.5777 7.73059 27.9177 8.81059L21.2477 19.7506C20.6877 20.6706 21.3677 21.8406 22.4377 21.8106L35.2577 21.5206C36.5277 21.4906 37.0677 19.8906 36.0677 19.1006L36.0777 19.1106ZM35.2477 20.6206L22.4277 20.9106C22.0677 20.9106 21.8477 20.5306 22.0277 20.2206L28.6977 9.28059C28.9177 8.92059 29.4677 9.03059 29.5277 9.45059L30.3877 15.2706C30.4377 15.6106 30.6177 15.9206 30.8877 16.1306L35.5177 19.8006C35.8477 20.0606 35.6677 20.6006 35.2477 20.6106V20.6206Z" fill="#9281FF"/>
</svg>
