<svg width="79" height="79" viewBox="0 0 79 79" fill="none" xmlns="http://www.w3.org/2000/svg">
<circle cx="39.5" cy="39.5" r="38.5" fill="white" stroke="#9180FF" stroke-width="2"/>
<path d="M49.7083 46.7081L45.7083 50.7081C45.5206 50.8957 45.2661 51.0011 45.0008 51.0011C44.7354 51.0011 44.4809 50.8957 44.2933 50.7081C44.1056 50.5204 44.0002 50.2659 44.0002 50.0006C44.0002 49.7352 44.1056 49.4807 44.2933 49.2931L46.587 47.0006H29.0008C28.7356 47.0006 28.4812 46.8952 28.2937 46.7077C28.1061 46.5201 28.0008 46.2658 28.0008 46.0006C28.0008 45.7353 28.1061 45.481 28.2937 45.2934C28.4812 45.1059 28.7356 45.0006 29.0008 45.0006H46.587L44.2933 42.7081C44.1056 42.5204 44.0002 42.2659 44.0002 42.0006C44.0002 41.7352 44.1056 41.4807 44.2933 41.2931C44.4809 41.1054 44.7354 41 45.0008 41C45.2661 41 45.5206 41.1054 45.7083 41.2931L49.7083 45.2931C49.8013 45.3859 49.875 45.4962 49.9253 45.6176C49.9757 45.739 50.0016 45.8691 50.0016 46.0006C50.0016 46.132 49.9757 46.2621 49.9253 46.3835C49.875 46.5049 49.8013 46.6152 49.7083 46.7081ZM32.2933 38.7081C32.4809 38.8957 32.7354 39.0011 33.0008 39.0011C33.2662 39.0011 33.5206 38.8957 33.7083 38.7081C33.8959 38.5204 34.0013 38.2659 34.0013 38.0006C34.0013 37.7352 33.8959 37.4807 33.7083 37.2931L31.4145 35.0006H49.0008C49.266 35.0006 49.5204 34.8952 49.7079 34.7077C49.8954 34.5201 50.0008 34.2658 50.0008 34.0006C50.0008 33.7353 49.8954 33.481 49.7079 33.2934C49.5204 33.1059 49.266 33.0006 49.0008 33.0006H31.4145L33.7083 30.7081C33.8959 30.5204 34.0013 30.2659 34.0013 30.0006C34.0013 29.7352 33.8959 29.4807 33.7083 29.2931C33.5206 29.1054 33.2662 29 33.0008 29C32.7354 29 32.4809 29.1054 32.2933 29.2931L28.2933 33.2931C28.2003 33.3859 28.1266 33.4962 28.0762 33.6176C28.0259 33.739 28 33.8691 28 34.0006C28 34.132 28.0259 34.2621 28.0762 34.3835C28.1266 34.5049 28.2003 34.6152 28.2933 34.7081L32.2933 38.7081Z" fill="#9180FF"/>
</svg>
