<svg width="48" height="48" viewBox="0 0 48 48" fill="none" xmlns="http://www.w3.org/2000/svg">
<path d="M38.97 0H8.17C3.65783 0 0 3.65783 0 8.17V38.97C0 43.4822 3.65783 47.14 8.17 47.14H38.97C43.4822 47.14 47.14 43.4822 47.14 38.97V8.17C47.14 3.65783 43.4822 0 38.97 0Z" fill="#EBF1FA"/>
<path d="M23.5703 8.57031C15.2903 8.57031 8.57031 15.2903 8.57031 23.5703C8.57031 31.8503 15.2903 38.5703 23.5703 38.5703C31.8503 38.5703 38.5703 31.8503 38.5703 23.5703C38.5703 15.2903 31.8503 8.57031 23.5703 8.57031ZM23.5703 37.5703C15.8403 37.5703 9.57031 31.3003 9.57031 23.5703C9.57031 15.8403 15.8403 9.57031 23.5703 9.57031C31.3003 9.57031 37.5703 15.8403 37.5703 23.5703C37.5703 31.3003 31.3003 37.5703 23.5703 37.5703Z" fill="#9180FF"/>
<path d="M23.5705 12.8086C17.6305 12.8086 12.8105 17.6286 12.8105 23.5686C12.8105 29.5086 17.6305 34.3286 23.5705 34.3286C29.5105 34.3286 34.3305 29.5086 34.3305 23.5686C34.3305 17.6286 29.5105 12.8086 23.5705 12.8086ZM23.5705 33.3286C18.1805 33.3286 13.8105 28.9586 13.8105 23.5686C13.8105 18.1786 18.1805 13.8086 23.5705 13.8086C28.9605 13.8086 33.3305 18.1786 33.3305 23.5686C33.3305 28.9586 28.9605 33.3286 23.5705 33.3286Z" fill="#9180FF"/>
<path d="M26.9907 17.9288C26.7207 17.7588 26.4307 17.6188 26.1407 17.4888C25.3507 17.1588 24.4807 16.9688 23.5707 16.9688C22.6607 16.9688 21.7907 17.1488 21.0007 17.4888C20.4907 17.6988 20.0307 17.9888 19.6007 18.3188C19.5207 18.3788 19.4307 18.4388 19.3407 18.5088C17.8907 19.7188 16.9707 21.5388 16.9707 23.5688C16.9707 27.2088 19.9207 30.1688 23.5707 30.1688C27.2207 30.1688 30.1707 27.2188 30.1707 23.5688C30.1707 21.8588 29.5207 20.3087 28.4607 19.1287C28.0307 18.6587 27.5407 18.2488 27.0007 17.9188L26.9907 17.9288ZM29.1707 23.5688C29.1707 26.6588 26.6607 29.1688 23.5707 29.1688C20.4807 29.1688 17.9707 26.6588 17.9707 23.5688C17.9707 20.4788 20.4807 17.9688 23.5707 17.9688C26.6607 17.9688 29.1707 20.4788 29.1707 23.5688Z" fill="#9180FF"/>
<path d="M23.5705 21.0195C22.1605 21.0195 21.0205 22.1595 21.0205 23.5695C21.0205 24.9795 22.1605 26.1195 23.5705 26.1195C24.9805 26.1195 26.1205 24.9795 26.1205 23.5695C26.1205 22.1595 24.9805 21.0195 23.5705 21.0195ZM23.5705 25.1195C22.7105 25.1195 22.0205 24.4295 22.0205 23.5695C22.0205 22.7095 22.7105 22.0195 23.5705 22.0195C24.4305 22.0195 25.1205 22.7095 25.1205 23.5695C25.1205 24.4295 24.4305 25.1195 23.5705 25.1195Z" fill="#9180FF"/>
</svg>
