<svg width="134" height="32" viewBox="0 0 134 32" fill="none" xmlns="http://www.w3.org/2000/svg">
<path fill-rule="evenodd" clip-rule="evenodd" d="M121.18 14.8991L123.18 12.2991L127.9 7.16906H133.1L126.38 14.4691L133.58 24.0691H128.26L123.36 17.2491L121.36 18.8191V24.0691H116.76V0.539062H121.36V11.0391L121.12 14.8991H121.18ZM113.86 19.0691C113.86 20.8191 113.26 22.1491 112.04 23.0491C110.83 23.9491 109.01 24.4391 106.59 24.4391C105.38 24.4391 104.29 24.3791 103.44 24.1991C102.59 24.0191 101.75 23.7791 101.02 23.4791V19.6791C101.87 20.0991 102.84 20.3991 103.92 20.7091C105.01 21.0091 105.92 21.1291 106.76 21.1291C108.45 21.1291 109.3 20.6491 109.3 19.6791C109.3 19.3191 109.18 19.0191 108.94 18.7691C108.7 18.5191 108.34 18.2891 107.79 17.9891C107.25 17.6891 106.52 17.3891 105.61 16.9591C104.28 16.4191 103.37 15.9291 102.77 15.4491C102.16 14.9691 101.74 14.4791 101.44 13.8791C101.14 13.2791 101.02 12.5491 101.02 11.6491C101.02 10.1391 101.62 8.98906 102.77 8.14906C103.92 7.29906 105.61 6.93906 107.73 6.93906C109.85 6.93906 111.78 7.35906 113.66 8.26906L112.27 11.5891C111.42 11.2291 110.64 10.9291 109.91 10.6791C109.18 10.4391 108.4 10.3191 107.67 10.3191C106.28 10.3191 105.61 10.6791 105.61 11.4091C105.61 11.8291 105.85 12.1891 106.28 12.4991C106.7 12.7991 107.67 13.2191 109.18 13.8291C110.51 14.3691 111.48 14.8591 112.08 15.3391C112.68 15.8191 113.17 16.3691 113.47 16.9691C113.65 17.5091 113.83 18.2391 113.83 19.0791L113.86 19.0691ZM90.69 10.1291C89.72 10.1291 88.94 10.4291 88.39 11.0391C87.85 11.6391 87.54 12.5491 87.42 13.6991H93.89C93.89 12.5491 93.59 11.7091 92.98 11.0391C92.44 10.4391 91.65 10.1291 90.68 10.1291H90.69ZM91.36 24.3791C88.64 24.3791 86.52 23.6591 84.95 22.1491C83.44 20.6391 82.65 18.5291 82.65 15.7491C82.65 12.9691 83.38 10.7391 84.77 9.16906C86.16 7.59906 88.16 6.87906 90.64 6.87906C93.12 6.87906 94.88 7.53906 96.21 8.92906C97.54 10.3191 98.21 12.1891 98.21 14.5391V16.7691H87.26C87.32 18.0991 87.68 19.1191 88.41 19.8491C89.14 20.5791 90.16 20.9391 91.5 20.9391C92.53 20.9391 93.5 20.8191 94.4 20.6391C95.31 20.3991 96.28 20.0991 97.24 19.6091V23.1691C96.45 23.5891 95.55 23.8891 94.64 24.0791C93.79 24.2591 92.7 24.3791 91.37 24.3791H91.36ZM75.32 12.9091C75.32 8.13906 73.2 5.78906 69.03 5.78906H66.55V20.1591H68.55C73.09 20.2191 75.33 17.8091 75.33 12.9191L75.32 12.9091ZM80.22 12.7891C80.22 16.4091 79.19 19.1891 77.13 21.1791C75.07 23.1691 72.05 24.0791 68.12 24.0791H61.83V1.98906H68.79C72.42 1.98906 75.2 2.95906 77.2 4.82906C79.2 6.75906 80.23 9.41906 80.23 12.7991L80.22 12.7891ZM41.38 7.17906H46.46L49.67 16.7191C49.97 17.5591 50.15 18.5291 50.21 19.6791H50.33C50.45 18.6491 50.63 17.6891 51 16.7191L54.15 7.17906H59.11L51.91 26.2491C51.24 27.9991 50.34 29.3291 49.13 30.2291C47.92 31.1391 46.47 31.5591 44.83 31.5591C44.04 31.5591 43.26 31.4991 42.47 31.3191V27.6391C43.01 27.7591 43.62 27.8191 44.29 27.8191C45.14 27.8191 45.8 27.5791 46.41 27.0991C47.01 26.6191 47.5 25.8291 47.86 24.8691L48.16 24.0291L41.38 7.18906V7.17906ZM39.51 24.0791H34.91V14.2391C34.91 13.0291 34.67 12.1291 34.24 11.5191C33.82 10.9191 33.09 10.6091 32.18 10.6091C30.91 10.6091 29.94 11.0291 29.4 11.8791C28.86 12.7291 28.55 14.1691 28.55 16.1691V24.1391H23.95V7.23906H27.46L28.07 9.40906H28.31C28.85 8.55906 29.52 7.95906 30.43 7.53906C31.34 7.11906 32.37 6.93906 33.52 6.93906C35.52 6.93906 36.97 7.47906 38 8.50906C39.03 9.53906 39.51 11.1091 39.51 13.0991V24.0791ZM13.67 14.8991C12.16 10.1291 11.37 7.41906 11.19 6.80906C11.01 6.20906 10.83 5.65906 10.77 5.29906C10.41 6.56906 9.5 9.76906 7.93 14.8991H13.68H13.67ZM16.4 24.0791L14.77 18.8291H6.72L5.09 24.0791H0L7.87 1.85906H13.62L21.49 24.0691H16.41L16.4 24.0791Z" fill="#3F6DEE"/>
</svg>
