<svg width="111" height="34" viewBox="0 0 111 34" fill="none" xmlns="http://www.w3.org/2000/svg">
<path d="M67.1812 0.938593H74.5912V3.86859C77.0612 0.848593 79.9912 0.108593 82.4212 0.108593C85.7312 0.108593 88.8512 1.68859 90.6212 4.75859C93.2812 0.998594 97.2312 0.108593 100.031 0.108593C103.901 0.108593 107.251 1.91859 109.071 5.07859C109.681 6.14859 110.751 8.46859 110.751 13.0686V32.6386H103.341V15.2586C103.341 11.7286 102.971 10.2886 102.641 9.63859C102.171 8.42859 101.061 6.84859 98.4012 6.84859C96.5812 6.84859 95.0012 7.82859 94.0212 9.16859C92.7212 10.9786 92.5812 13.6786 92.5812 16.3686V32.6786H85.1712V15.2486C85.1712 11.7186 84.8012 10.2786 84.4712 9.62859C84.0012 8.41859 82.8912 6.83859 80.2312 6.83859C78.4112 6.83859 76.8312 7.81859 75.8512 9.15859C74.5512 10.9686 74.4112 13.6686 74.4112 16.3586V32.6686H67.1912V0.938593H67.1812ZM41.6112 0.938593H49.0212V3.77859C49.8612 2.79859 51.0712 1.72859 52.0912 1.12859C53.5312 0.288593 54.9312 0.0585938 56.6112 0.0585938C58.4312 0.0585938 60.3812 0.338593 62.4312 1.54859L59.4012 8.23859C57.7212 7.16859 56.3712 7.11859 55.6312 7.11859C54.0512 7.11859 52.4612 7.34859 51.0212 8.83859C48.9712 11.0186 48.9712 14.0386 48.9712 16.1386V32.5886H41.5612L41.6112 0.938593ZM8.11121 16.9186C8.11121 22.3586 11.5612 26.9986 16.9112 26.9986C21.5712 26.9986 25.9012 23.6086 25.9012 17.0086C25.9012 10.0886 21.6112 6.78859 16.9112 6.78859C11.5512 6.73859 8.11121 11.2986 8.11121 16.9186ZM25.4012 0.938593H32.8112V32.5886H25.4012V29.2886C22.1412 33.0486 18.1812 33.5686 15.9012 33.5686C6.12125 33.5686 0.53125 25.4386 0.53125 16.7486C0.53125 6.42859 7.61122 0.108593 16.0012 0.108593C18.3312 0.108593 22.4312 0.708593 25.4112 4.61859V0.948593L25.4012 0.938593Z" fill="#3F6DEE"/>
</svg>
