<svg width="252" height="61" viewBox="0 0 252 61" fill="none" xmlns="http://www.w3.org/2000/svg">
<path d="M12.2 0H239.425C246.135 0 251.625 5.49 251.625 12.2V48.8C251.625 55.51 246.135 61 239.425 61H12.2C5.49 61 0 55.51 0 48.8V12.2C0 5.49 5.49 0 12.2 0Z" fill="#8D84FB"/>
<path d="M236.906 43.556C236.021 44.2727 235.121 44.4405 234.054 44.4405C232.087 44.6235 230.302 44.6235 228.518 43.556C226.917 42.6715 225.849 41.238 225.483 39.4537C224.95 37.1357 224.95 35.0007 225.483 32.6675C226.368 29.8157 228.335 28.2145 231.187 27.8485C232.788 27.6655 234.405 27.6655 236.006 28.1992C236.54 28.3822 236.723 28.733 236.723 29.2667C236.723 30.5172 236.906 30.868 235.289 30.5172C234.405 30.3342 233.505 30.1665 232.437 30.3342C229.936 30.5172 228.686 31.5847 228.335 34.0857C228.152 35.5192 228.152 36.9375 228.518 38.371C228.869 40.1552 230.119 41.4057 232.087 41.5887C233.52 41.7717 234.755 41.5887 236.006 41.238H236.89C236.89 42.3055 236.89 42.8392 236.89 43.556H236.906Z" fill="white"/>
<path d="M78.2933 30.5323C79.1778 28.931 80.2605 28.0312 82.2125 28.0312C84.1645 28.0312 85.2473 29.0988 85.964 30.7C86.086 30.578 86.147 30.4611 86.147 30.3493C87.2145 28.565 88.9988 27.6805 90.966 28.2143C92.9333 28.748 94.0008 30.1815 94.0008 32.3165V43.7388C94.0008 44.2725 93.8178 44.4555 93.284 44.4555H90.966C90.2493 44.4555 90.0815 44.2725 90.0815 43.571V33.5823C89.8985 32.5148 89.5478 31.981 88.648 31.798C87.7483 31.615 86.8638 32.3318 86.513 33.2315C86.33 33.7653 86.33 34.299 86.33 34.8328V43.4033C86.33 43.9929 86.0352 44.2878 85.4455 44.2878H83.1275C82.4108 44.2878 82.4108 44.1048 82.4108 43.571V34.8328C82.4108 34.299 82.4108 33.7653 82.2278 33.2315C82.0448 32.347 81.511 31.798 80.6265 31.798C79.742 31.798 79.0253 32.1488 78.8423 33.0485C78.6593 33.7653 78.4915 34.6498 78.4915 35.3665V43.2203C78.4915 43.9319 78.1357 44.2878 77.424 44.2878H75.4568C74.74 44.2878 74.5723 44.1048 74.5723 43.4033V29.3123C74.5723 28.4278 74.7553 28.2448 75.6398 28.2448H77.607C78.1408 28.2448 78.3238 28.4278 78.3238 28.9615C78.3238 29.4953 78.3238 30.029 78.3238 30.5628L78.2933 30.5323Z" fill="white"/>
<path d="M163.397 29.8292C163.931 29.4784 164.465 29.1124 165.182 28.9447C166.615 28.2279 167.85 27.8772 169.467 27.8772C171.083 27.8772 172.502 28.4109 173.218 30.0122C173.752 29.6614 174.286 29.2954 175.003 28.9447C176.436 28.2279 178.037 27.6942 179.822 27.6942C182.323 27.6942 183.924 29.2954 184.107 31.6134V43.2034C184.107 43.9202 183.924 44.0879 183.222 44.0879H181.789C181.072 44.0879 181.072 43.9049 180.904 43.2034V33.5654C180.904 33.0317 180.904 32.4979 180.721 31.9642C180.538 30.5307 179.654 29.9969 178.22 29.9969C176.619 29.9969 175.186 30.5307 173.935 31.2474C173.752 31.4304 173.584 31.5982 173.584 31.9642V42.8527C173.584 43.7372 173.584 43.9202 172.517 43.9202H171.266C170.55 43.9202 170.55 43.7372 170.55 43.0357V33.3977C170.55 32.8639 170.55 32.3302 170.367 31.7964C170.184 30.3629 169.299 29.8292 168.049 29.8292C166.447 29.8292 165.014 30.1799 163.763 31.0797C163.58 31.2627 163.413 31.6134 163.413 31.7964V42.6849C163.413 43.5694 163.413 43.7524 162.345 43.7524H161.095C160.378 43.7524 160.378 43.5694 160.378 42.8679V28.4109C160.378 27.6942 160.561 27.6942 161.095 27.6942C161.628 27.6942 162.345 27.5112 162.696 27.8772C163.047 28.5939 163.047 29.3107 163.413 29.8444L163.397 29.8292Z" fill="white"/>
<path d="M105.952 42.4904C105.769 42.6734 105.601 42.8412 105.418 43.0242C103.985 44.4577 102.2 44.8084 100.248 44.4577C98.2963 44.1069 97.2136 42.8564 96.8628 40.8892C96.5121 38.0374 97.7473 35.7194 100.614 35.0027C101.865 34.6519 103.283 34.4689 104.717 34.2859C105.25 34.2859 105.433 34.1029 105.433 33.5692V33.0354C105.433 31.7849 104.9 31.2512 103.649 31.0682C102.582 30.8852 101.514 31.6019 101.148 32.5017C100.914 33.0913 100.497 33.3303 99.8976 33.2184C99.1808 33.2184 98.6471 33.0354 97.9303 33.0354C97.2136 33.0354 97.2136 32.8524 97.3966 32.1509C97.9303 30.1837 98.9978 28.9332 100.965 28.3994C102.749 27.8657 104.351 27.8657 106.135 28.2164C108.27 28.7502 109.52 30.1837 109.52 32.5017V38.7389C109.52 39.8064 109.871 40.7062 110.405 41.4077C110.939 42.1092 110.939 42.2922 110.222 42.8412C109.688 43.3749 109.154 43.7257 108.621 44.2747C108.27 44.6254 107.736 44.6254 107.37 44.2747C106.836 43.5579 106.303 43.0242 105.937 42.4904H105.952ZM105.235 36.4209C104.518 36.6039 103.802 36.6039 103.1 36.7717C101.499 37.1224 100.782 38.2052 100.965 39.8064C100.965 40.5232 101.316 41.0569 102.033 41.4077C102.749 41.7584 103.466 41.5907 104 41.0569C104.351 40.7062 104.717 40.1724 105.067 39.6234C105.418 38.7389 105.418 37.6562 105.25 36.4057L105.235 36.4209Z" fill="white"/>
<path d="M67.5847 42.4886C67.4017 42.6716 67.0509 42.8394 66.8679 43.2054C65.2667 44.6389 63.4824 44.8066 61.3322 44.4559C59.7309 44.1051 58.4804 42.4886 58.4804 40.7044C58.2974 37.8526 59.7309 35.7024 62.5827 35.0009C63.8332 34.6501 65.2514 34.4671 66.5019 34.4671C67.0357 34.4671 67.2187 34.2841 67.2187 33.7504V33.2166C67.2187 31.9661 66.6849 31.2494 65.6174 31.0816C64.5499 30.8986 63.2994 31.4324 63.1164 32.5151C62.7657 33.5826 62.5827 33.3996 61.6829 33.3996C60.9662 33.3996 60.4324 33.2166 59.7157 33.2166C59.1819 33.2166 58.9989 32.8659 59.1819 32.3321C59.5327 30.5479 60.6154 29.2974 62.3997 28.5806C64.3669 27.8639 66.3189 27.6961 68.2862 28.3976C70.2534 29.1144 71.3209 30.3649 71.3209 32.4999V38.7371C71.3209 39.8046 71.5039 40.7044 72.2054 41.5889C72.5613 42.0667 72.5003 42.5445 72.0224 43.0224C71.4887 43.5561 70.9549 43.9069 70.4212 44.4559C69.8874 44.8066 69.7044 44.9896 69.1707 44.4559C68.4539 43.5714 68.1032 43.0224 67.5694 42.4886H67.5847ZM67.0509 37.8526V37.1359C67.0509 36.7851 66.8679 36.6021 66.5172 36.6021C65.8004 36.7851 65.2667 36.7851 64.5499 36.9529C63.2994 37.3036 62.7657 38.2034 62.7657 39.4539C62.7657 40.5214 63.2994 41.2381 64.0162 41.4211C64.9007 41.6041 65.8004 41.4211 66.3342 40.5366C66.8679 39.8199 67.0509 38.7524 67.0509 37.8679V37.8526Z" fill="white"/>
<path d="M144.663 30.7111C144.846 30.3604 145.014 29.9944 145.197 29.8266C146.081 28.3931 147.515 27.6916 149.482 28.0424C151.083 28.3931 152.151 29.4759 152.517 31.0771C152.7 32.1446 152.7 33.2121 152.7 34.1119V43.2161C152.7 44.1006 152.517 44.1006 151.815 44.1006H149.497C148.78 44.1006 148.78 43.9176 148.78 43.3839V34.8134C148.78 34.0966 148.781 33.5629 148.598 32.8461C148.415 32.1294 148.064 31.5956 147.347 31.4126C146.463 31.2296 145.913 31.5956 145.563 32.2971C145.212 32.9986 145.029 33.7306 145.029 34.6151V43.1856C145.029 44.0701 144.846 44.0701 144.144 44.0701H142.01C141.293 44.0701 141.125 43.8871 141.125 43.1856V29.0946C141.125 28.2101 141.308 28.2101 142.01 28.2101H143.977C144.694 28.2101 144.861 28.3931 144.861 29.0946C144.51 29.6284 144.511 30.1621 144.678 30.6959L144.663 30.7111Z" fill="white"/>
<path d="M138.603 36.4185C138.603 38.3858 138.253 40.17 137.002 41.7713C134.501 45.5228 128.798 45.5228 126.647 41.4205C124.68 38.035 124.68 34.2835 126.647 30.898C127.898 28.763 129.865 27.8633 132.351 27.8633C134.669 28.0463 136.27 29.1138 137.353 31.081C138.237 32.8653 138.603 34.4665 138.603 36.4338V36.4185ZM134.501 36.0678C134.318 35.0003 134.15 33.5668 133.784 32.3163C133.601 31.5995 132.9 31.0658 132.183 31.0658C131.299 31.0658 130.75 31.2488 130.399 31.9503C130.216 32.301 130.048 32.8348 129.865 33.3838C129.514 35.168 129.514 36.9523 129.865 38.7365C130.048 39.4533 130.216 39.987 130.399 40.5208C131.116 41.7713 132.534 41.7713 133.434 40.7038C133.784 40.353 133.967 39.8193 133.967 39.4533C134.15 38.3858 134.318 37.3183 134.501 36.0678Z" fill="white"/>
<path d="M95.9697 56.2258C87.5822 56.2258 79.3777 53.1911 72.4237 47.1216C72.2407 46.9386 72.0729 46.7708 71.8899 46.5878C71.8899 46.4048 71.7069 46.2371 71.8899 46.0541C72.0729 45.8711 72.2407 45.8711 72.4237 45.8711C72.6067 45.8711 72.7744 46.0541 72.9574 46.0541C79.9114 49.9733 87.5822 52.1236 95.6189 52.4743C102.573 52.8251 109.176 51.5898 115.779 48.9058C115.962 48.9058 116.13 48.7228 116.496 48.7228C116.847 48.5398 117.381 48.5398 117.564 49.0736C117.747 49.4243 117.564 49.7903 117.213 50.1411C115.962 50.8578 114.712 51.7423 113.461 52.4591C107.926 54.9601 102.405 56.2106 95.9697 56.2106V56.2258Z" fill="white"/>
<path d="M198.374 42.6685C197.657 43.0193 196.941 43.553 196.239 43.919C194.989 44.6358 193.57 44.8035 191.954 44.8035C189.453 44.6205 187.852 43.2023 187.852 40.7013V29.279C187.852 28.3945 188.035 28.3945 188.736 28.3945H190.17C190.886 28.3945 190.886 28.5775 190.886 29.1113V39.1C190.886 41.601 192.137 42.6685 194.638 42.1348C195.705 41.9518 196.605 41.418 197.673 41.0673C198.023 40.8843 198.206 40.7165 198.206 40.1828V29.2943C198.206 28.4098 198.389 28.4098 199.091 28.4098H200.341C200.931 28.4098 201.226 28.7046 201.226 29.2943V43.5683C201.226 44.285 201.043 44.4528 200.341 44.4528C199.808 44.4528 199.091 44.6358 198.74 44.2698C198.557 43.919 198.557 43.2023 198.389 42.6685H198.374Z" fill="white"/>
<path d="M118.445 31.4285H113.992C113.108 31.4285 112.925 31.2455 112.925 30.361V28.7597C112.925 28.409 113.108 28.043 113.641 28.043H123.096C123.447 28.043 123.63 28.226 123.813 28.7597C123.996 30.0102 123.63 31.2607 122.929 32.3282C121.495 34.2955 120.077 36.4305 118.643 38.3977C118.46 38.5807 118.46 38.7485 118.293 38.9315C119.177 39.1145 120.26 39.1145 121.144 39.2822C122.029 39.45 122.746 39.816 123.462 40.1667C123.996 40.3497 124.179 40.7005 124.179 41.2342V43.0185C124.179 43.903 123.828 44.086 123.112 43.7352C120.077 42.3017 117.225 42.3017 114.19 43.5522C114.007 43.7352 113.657 43.7352 113.474 43.903C113.123 44.086 112.757 43.903 112.757 43.5522V40.7005C112.757 40.3497 112.94 39.9837 113.291 39.633C115.075 37.132 116.676 34.631 118.46 32.1452C118.277 31.9622 118.277 31.7945 118.46 31.4285H118.445Z" fill="white"/>
<path d="M210.328 44.6338C208.01 44.6338 206.577 44.4508 205.159 43.7493C204.442 43.3986 204.091 42.1481 204.442 41.4313C204.625 41.2483 204.976 41.2483 205.159 41.2483C206.409 41.4313 207.66 41.7821 208.91 41.9651C209.627 42.1481 210.344 41.9651 211.045 41.9651C211.396 41.9651 211.762 41.7821 212.113 41.6143C213.363 40.8976 213.363 38.9456 212.113 38.2288C210.862 37.5121 209.612 37.1613 208.361 36.6276C207.828 36.4446 207.294 36.2768 206.928 35.9108C205.327 35.0263 204.61 33.5928 204.61 31.8086C204.793 30.0243 205.86 28.7738 207.461 28.0571C209.063 27.3403 210.847 27.3403 212.464 27.7063C213.18 27.8893 213.714 28.0571 214.431 28.2401C214.965 28.4231 215.148 28.7738 215.148 29.1246C215.148 30.1921 214.67 30.5479 213.714 30.1921C212.463 29.8413 211.045 29.6583 209.795 29.8413C209.444 29.8413 209.078 30.0243 208.727 30.1921C207.477 30.7258 207.126 32.5101 208.376 33.4098C209.261 33.9436 210.161 34.2943 211.045 34.6603C211.93 35.0263 212.829 35.3771 213.714 35.7278C215.147 36.4446 216.032 37.6951 216.032 39.4793C216.032 41.2636 215.315 42.5141 213.714 43.3986C212.463 44.4661 211.045 44.8321 210.328 44.6491V44.6338Z" fill="white"/>
<path d="M218.531 36.2483V29.462C218.531 28.7504 218.887 28.3945 219.599 28.3945H220.849C221.2 28.3945 221.566 28.5775 221.566 28.9283V43.2023C221.566 43.9139 221.21 44.2698 220.498 44.2698H219.614C218.546 44.2698 218.363 44.2698 218.363 43.2023C218.546 40.8843 218.546 38.5663 218.546 36.2483H218.531Z" fill="white"/>
<path d="M116.657 46.7716C115.406 46.9546 114.339 46.9546 113.271 47.1223C113.088 47.1223 112.738 47.1223 112.555 46.9393C112.738 46.7563 112.738 46.4056 113.088 46.2226C114.522 45.3381 116.123 44.7891 117.907 44.7891C118.975 44.7891 120.042 44.9721 121.125 45.1398C121.842 45.1398 122.01 45.6736 122.01 46.2073C121.827 49.0591 120.942 51.3771 119.158 53.5273C118.975 53.7103 118.441 53.8781 118.273 54.0611C118.273 53.7103 118.273 53.3443 118.456 52.9936C118.99 51.3923 119.341 49.9588 119.89 48.3576C120.073 47.4731 119.707 47.1071 118.822 46.9241C117.755 46.9241 117.221 46.9241 116.687 46.7411L116.657 46.7716Z" fill="white"/>
<path d="M220.128 25.3609C218.878 25.3609 218.161 24.6441 218.161 23.3936C218.161 22.1431 218.878 21.6094 220.296 21.6094C221.364 21.6094 222.08 22.3261 222.08 23.5766C222.08 24.8271 221.364 25.5439 220.113 25.3609H220.128Z" fill="white"/>
<path d="M66.4083 21.7175H60.7354V12.6133H62.1536V20.406H66.4236V21.7023L66.4083 21.7175Z" fill="white"/>
<path d="M68.0508 12.827C68.0508 12.3543 68.4168 11.9883 68.92 11.9883C69.4233 11.9883 69.7893 12.3543 69.7893 12.827C69.7893 13.2998 69.4233 13.6505 68.92 13.6505C68.4168 13.6505 68.0508 13.2845 68.0508 12.827ZM68.249 14.8553H69.591V21.7178H68.249V14.8553Z" fill="white"/>
<path d="M74.3027 14.7148C75.8429 14.7148 76.8494 15.4316 76.9867 16.6516H75.6904C75.5684 16.1483 75.0652 15.8281 74.3027 15.8281C73.5402 15.8281 72.9759 16.1941 72.9759 16.7278C72.9759 17.1396 73.3267 17.3988 74.0739 17.5666L75.2177 17.8258C76.5292 18.1308 77.1392 18.6951 77.1392 19.7016C77.1392 20.9978 75.9344 21.8518 74.3027 21.8518C72.6709 21.8518 71.6034 21.1198 71.4814 19.8998H72.8387C73.0064 20.4336 73.5097 20.7538 74.3332 20.7538C75.1567 20.7538 75.7819 20.3726 75.7819 19.8236C75.7819 19.4118 75.4617 19.1526 74.7754 18.9848L73.5707 18.7103C72.2592 18.4053 71.6644 17.8106 71.6644 16.7888C71.6644 15.5688 72.7777 14.7148 74.3332 14.7148H74.3027Z" fill="white"/>
<path d="M80.7252 13.1484V14.8869H82.2197V16.0307H80.7252V19.5687C80.7252 20.2854 81.0149 20.6057 81.7012 20.6057C81.9147 20.6057 82.0214 20.6057 82.2197 20.5752V21.7037C82.0062 21.7342 81.7469 21.7799 81.4877 21.7799C79.9779 21.7799 79.3832 21.2462 79.3832 19.9194V16.0459H78.2852V14.9022H79.3832V13.1637H80.7404L80.7252 13.1484Z" fill="white"/>
<path d="M89.7444 19.8736C89.4394 21.1089 88.3414 21.8561 86.7706 21.8561C84.8034 21.8561 83.5986 20.5141 83.5986 18.3181C83.5986 16.1221 84.8339 14.7344 86.7706 14.7344C88.7074 14.7344 89.8359 16.0459 89.8359 18.1961V18.6689H84.9864V18.7451C85.0321 19.9499 85.7336 20.7124 86.8164 20.7124C87.6399 20.7124 88.2041 20.4226 88.4481 19.8736H89.7596H89.7444ZM84.9711 17.6624H88.4329C88.4024 16.5796 87.7466 15.8781 86.7401 15.8781C85.7336 15.8781 85.0321 16.5796 84.9559 17.6624H84.9711Z" fill="white"/>
<path d="M91.6289 14.8564H92.9404V15.9544H93.0472C93.3827 15.1919 94.0689 14.7344 95.0907 14.7344C96.6157 14.7344 97.4697 15.6494 97.4697 17.2811V21.7189H96.1124V17.6166C96.1124 16.5186 95.6397 15.9696 94.6332 15.9696C93.6267 15.9696 92.9862 16.6406 92.9862 17.7081V21.7189H91.6289V14.8564Z" fill="white"/>
<path d="M102.947 18.2833C102.947 16.0721 104.183 14.7148 106.196 14.7148C108.209 14.7148 109.429 16.0568 109.429 18.2833C109.429 20.5098 108.193 21.8518 106.196 21.8518C104.198 21.8518 102.947 20.5098 102.947 18.2833ZM108.026 18.2833C108.026 16.7888 107.355 15.9196 106.18 15.9196C105.006 15.9196 104.335 16.7888 104.335 18.2833C104.335 19.7778 104.991 20.6471 106.18 20.6471C107.37 20.6471 108.026 19.7778 108.026 18.2833Z" fill="white"/>
<path d="M111.239 14.8564H112.551V15.9544H112.658C112.993 15.1919 113.679 14.7344 114.701 14.7344C116.226 14.7344 117.08 15.6494 117.08 17.2811V21.7189H115.723V17.6166C115.723 16.5186 115.25 15.9696 114.244 15.9696C113.237 15.9696 112.597 16.6406 112.597 17.7081V21.7189H111.239V14.8564Z" fill="white"/>
<path fill-rule="evenodd" clip-rule="evenodd" d="M48.9553 43.844C48.5893 44.7895 47.7353 46.1162 46.5153 47.0465C45.8138 47.5802 44.975 48.0988 43.8313 48.4342C42.6113 48.8003 41.1015 48.9223 39.2258 48.9223H22.0695C20.1938 48.9223 18.684 48.8003 17.464 48.4342C16.3203 48.0988 15.4815 47.5802 14.78 47.0465C13.56 46.1162 12.706 44.7895 12.34 43.844C11.5928 41.953 11.5928 39.8027 11.5928 38.4455V21.2892C11.5928 19.932 11.5928 17.7817 12.34 15.8907C12.706 14.9453 13.56 13.6185 14.78 12.6882C15.4815 12.1545 16.3203 11.636 17.464 11.3005C18.684 10.9345 20.1938 10.8125 22.0695 10.8125H39.2258C41.1015 10.8125 42.6113 10.9345 43.8313 11.3005C44.975 11.636 45.8138 12.1545 46.5153 12.6882C47.7353 13.6185 48.5893 14.9453 48.9553 15.8907C49.7025 17.7817 49.7025 19.932 49.7025 21.2892V38.4455C49.7025 39.8027 49.7025 41.953 48.9553 43.844Z" fill="white"/>
<path d="M35.3593 28.7481C35.1611 28.8701 34.8713 28.9768 34.5206 28.9768C33.9716 28.9768 33.4683 28.9158 32.9498 28.7481C32.8278 28.7176 32.7211 28.6871 32.6601 28.6871C32.5686 28.6871 32.5381 28.7481 32.5381 28.8853V29.2056C32.5381 29.2971 32.5686 29.3733 32.5991 29.4343C32.6296 29.4648 32.6906 29.5258 32.7973 29.5563C33.3158 29.7851 33.8801 29.8766 34.5358 29.8766C35.2068 29.8766 35.7253 29.7088 36.1371 29.3886C36.5488 29.0683 36.7471 28.6566 36.7471 28.1076C36.7471 27.7263 36.6556 27.4366 36.4573 27.1773C36.2591 26.9486 35.9388 26.7351 35.4966 26.5673L34.5968 26.2166C34.2461 26.0946 33.9868 25.9573 33.8953 25.8353C33.7733 25.7133 33.6971 25.5761 33.6971 25.3473C33.6971 24.8593 34.0478 24.6153 34.7798 24.6153C35.1916 24.6153 35.6186 24.6763 35.9998 24.8136C36.1218 24.8441 36.2286 24.8746 36.2591 24.8746C36.3506 24.8746 36.4268 24.8136 36.4268 24.6763V24.3561C36.4268 24.2646 36.3963 24.1883 36.3658 24.1273C36.3353 24.0663 36.2743 24.0358 36.1676 24.0053C35.6796 23.8376 35.2068 23.7461 34.7188 23.7461C34.1088 23.7461 33.5903 23.9138 33.2091 24.1883C32.8278 24.4628 32.6296 24.8898 32.6296 25.3778C32.6296 26.1098 33.0413 26.6588 33.8801 26.9791L34.8408 27.3298C35.1611 27.4518 35.3593 27.5586 35.4813 27.6806C35.6033 27.8026 35.6491 27.9398 35.6491 28.1228C35.6491 28.3821 35.5576 28.6108 35.3593 28.7328V28.7481Z" fill="#8D84FB"/>
<path d="M30.3208 24.1233V28.3933C29.7718 28.744 29.2381 28.9423 28.6891 28.9423C28.3383 28.9423 28.0791 28.8508 27.9266 28.6525C27.7741 28.4543 27.6978 28.1645 27.6978 27.7528V24.1233C27.6978 23.9555 27.6368 23.8945 27.4691 23.8945H26.7981C26.6303 23.8945 26.5693 23.9555 26.5693 24.1233V28.1035C26.5693 28.6525 26.6913 29.0948 26.9811 29.3845C27.2708 29.6743 27.6826 29.8268 28.2316 29.8268C28.9636 29.8268 29.7108 29.5675 30.4123 29.0643L30.4733 29.4455C30.4733 29.537 30.5038 29.5675 30.5648 29.6133C30.5953 29.6438 30.6563 29.6438 30.7631 29.6438H31.2511C31.4188 29.6438 31.4798 29.5828 31.4798 29.415V24.1233C31.4798 23.9555 31.4188 23.8945 31.2511 23.8945H30.5801C30.3818 23.8945 30.3208 23.986 30.3208 24.1233Z" fill="#8D84FB"/>
<path d="M24.2426 29.6783H24.9136C25.0813 29.6783 25.1423 29.6173 25.1423 29.4496V25.4388C25.1423 24.8898 25.0203 24.4781 24.7306 24.1883C24.4408 23.8986 24.0596 23.7461 23.5106 23.7461C22.7786 23.7461 22.0008 24.0053 21.2688 24.5543C21.0096 24.0053 20.5368 23.7461 19.8201 23.7461C19.1033 23.7461 18.4171 24.0053 17.7003 24.4781L17.6393 24.1273C17.6393 24.0358 17.6088 24.0053 17.5478 23.9596C17.5173 23.9291 17.4563 23.9291 17.3801 23.9291H16.8616C16.6938 23.9291 16.6328 23.9901 16.6328 24.1578V29.4801C16.6328 29.6478 16.6938 29.7088 16.8616 29.7088H17.5326C17.7003 29.7088 17.7613 29.6478 17.7613 29.4801V25.1491C18.3103 24.8288 18.8441 24.6306 19.4236 24.6306C19.7438 24.6306 19.9726 24.7221 20.0946 24.9203C20.2166 25.1186 20.3233 25.3626 20.3233 25.7591V29.4496C20.3233 29.6173 20.3843 29.6783 20.5521 29.6783H21.2231C21.3908 29.6783 21.4518 29.6173 21.4518 29.4496V25.1491C22.0313 24.7983 22.5803 24.6306 23.1141 24.6306C23.4343 24.6306 23.6631 24.7221 23.7851 24.9203C23.9071 25.1186 24.0138 25.3626 24.0138 25.7591V29.4496C24.0138 29.6173 24.0748 29.6783 24.2426 29.6783Z" fill="#8D84FB"/>
<path d="M41.6981 33.9333C38.2058 35.4125 34.3933 36.1445 30.9316 36.1445C25.8076 36.1445 20.8361 34.7415 16.8253 32.393C16.7643 32.3625 16.7033 32.332 16.6271 32.332C16.3983 32.332 16.2763 32.5913 16.5051 32.82C20.2261 36.1903 25.1671 38.2033 30.6113 38.2033C34.5153 38.2033 39.0445 36.9833 42.1556 34.6805C42.7045 34.2993 42.2471 33.7198 41.7133 33.9485L41.6981 33.9333Z" fill="#8D84FB"/>
<path d="M41.61 25.1796C41.8998 24.8593 42.342 24.6916 42.9825 24.6916C43.3028 24.6916 43.623 24.7221 43.9128 24.8136C44.0043 24.8441 44.0348 24.8441 44.111 24.8441C44.2025 24.8441 44.2788 24.7831 44.2788 24.6153V24.2951C44.2788 24.2036 44.2483 24.0968 44.2178 24.0663C44.1873 24.0358 44.1263 23.9748 44.05 23.9443C43.6383 23.8528 43.2113 23.7461 42.83 23.7461C41.9303 23.7461 41.2593 24.0053 40.7408 24.5543C40.2528 25.0728 40.0088 25.8353 40.0088 26.7961C40.0088 27.7568 40.2375 28.4888 40.7103 29.0073C41.1983 29.5258 41.8693 29.7698 42.769 29.7698C43.257 29.7698 43.6993 29.7088 44.05 29.5411C44.1415 29.5106 44.2178 29.4801 44.2483 29.4191C44.2788 29.3886 44.2788 29.2971 44.2788 29.1903V28.8701C44.2788 28.7023 44.2178 28.6413 44.111 28.6413C44.0805 28.6413 44.0195 28.6413 43.9433 28.6718C43.5925 28.7633 43.2418 28.8396 42.9215 28.8396C42.3115 28.8396 41.8693 28.6718 41.5795 28.3516C41.2898 28.0313 41.1678 27.5128 41.1678 26.8418V26.6741C41.1983 25.9726 41.3355 25.4541 41.61 25.1338V25.1796Z" fill="#8D84FB"/>
<path d="M43.0389 36.9514C44.7011 35.5484 45.1586 32.6204 44.8079 32.1781C44.6401 31.9799 43.8776 31.7969 42.9169 31.7969C41.8951 31.7969 40.6751 32.0256 39.7449 32.6661C39.4551 32.8644 39.5161 33.1084 39.8059 33.0779C40.7971 32.9559 43.0389 32.6966 43.4659 33.1999C43.8471 33.7184 43.0236 35.8229 42.6271 36.7531C42.5356 37.0429 42.7491 37.1344 43.0389 36.9514Z" fill="#8D84FB"/>
<path d="M38.5853 23.8945H37.9143C37.7465 23.8945 37.6855 23.9555 37.6855 24.1233V29.4455C37.6855 29.6133 37.7465 29.6743 37.9143 29.6743H38.5853C38.753 29.6743 38.814 29.6133 38.814 29.4455V24.1233C38.814 24.0013 38.753 23.8945 38.5853 23.8945Z" fill="#8D84FB"/>
<path d="M38.7843 21.7178C38.6623 21.5958 38.4641 21.5195 38.2353 21.5195C38.0066 21.5195 37.8541 21.5805 37.7168 21.7178C37.5796 21.855 37.5186 22.0075 37.5186 22.2058C37.5186 22.404 37.5796 22.587 37.7168 22.6938C37.8388 22.8158 38.0066 22.892 38.2353 22.892C38.4641 22.892 38.6166 22.831 38.7538 22.6938C38.8911 22.5565 38.9521 22.404 38.9521 22.2058C38.9521 22.0075 38.9216 21.8245 38.7843 21.7178Z" fill="#8D84FB"/>
</svg>
