<svg width="366" height="366" viewBox="0 0 366 366" fill="none" xmlns="http://www.w3.org/2000/svg">
<rect width="366" height="366" rx="30" fill="white"/>
<path d="M203.319 88.0413C198.07 82.7827 190.814 79.5391 182.8 79.5391C166.763 79.5391 153.761 92.5318 153.761 108.569V155.725C153.761 170.118 164.251 182.062 177.993 184.348V191.531H175.482C173.322 191.531 171.569 193.284 171.569 195.444C171.569 197.603 173.322 199.356 175.482 199.356H190.498C192.658 199.356 194.41 197.603 194.41 195.444C194.41 193.284 192.658 191.531 190.498 191.531H187.986V184.276C201.539 181.828 211.812 169.982 211.812 155.725V108.569C211.812 100.555 208.56 93.2908 203.31 88.0503L203.319 88.0413ZM193.823 141.991C193.823 141.991 193.778 141.937 193.751 141.91C193.814 141.982 193.841 142.018 193.823 141.991ZM172.654 139.217C172.681 139.38 172.708 139.551 172.708 139.723C172.708 139.913 172.69 139.705 172.654 139.217Z" fill="url(#paint0_linear_2_57127)"/>
<path d="M135.859 156.422C133.853 156.422 132.227 154.795 132.227 152.789V111.507C132.227 109.501 133.853 107.875 135.859 107.875C137.865 107.875 139.491 109.501 139.491 111.507V152.789C139.491 154.795 137.865 156.422 135.859 156.422Z" fill="url(#paint1_linear_2_57127)"/>
<path d="M121.325 149.21C119.319 149.21 117.692 147.583 117.692 145.577V118.706C117.692 116.701 119.319 115.074 121.325 115.074C123.33 115.074 124.957 116.701 124.957 118.706V145.577C124.957 147.583 123.33 149.21 121.325 149.21Z" fill="url(#paint2_linear_2_57127)"/>
<path d="M106.776 143.611C104.77 143.611 103.144 141.985 103.144 139.979V124.312C103.144 122.306 104.77 120.68 106.776 120.68C108.782 120.68 110.408 122.306 110.408 124.312V139.979C110.408 141.985 108.782 143.611 106.776 143.611Z" fill="url(#paint3_linear_2_57127)"/>
<path d="M117.681 130.77V140.79C117.681 139.778 117.274 138.874 116.614 138.215C115.955 137.564 115.042 137.148 114.039 137.148C112.034 137.148 110.407 138.775 110.407 140.79V130.77C110.407 132.775 112.025 134.411 114.039 134.411C116.054 134.411 117.681 132.784 117.681 130.77Z" fill="url(#paint4_linear_2_57127)"/>
<path d="M132.229 120.406V130.77C132.229 129.767 131.823 128.863 131.163 128.204C130.513 127.544 129.6 127.138 128.597 127.138C126.591 127.138 124.956 128.764 124.956 130.77V120.406C124.956 122.412 126.582 124.047 128.597 124.047C130.612 124.047 132.229 122.421 132.229 120.406Z" fill="url(#paint5_linear_2_57127)"/>
<path d="M132.229 135.605V145.969C132.229 144.966 131.823 144.062 131.163 143.403C130.513 142.743 129.6 142.337 128.597 142.337C126.591 142.337 124.956 143.963 124.956 145.969V135.605C124.956 137.611 126.582 139.247 128.597 139.247C130.612 139.247 132.229 137.62 132.229 135.605Z" fill="url(#paint6_linear_2_57127)"/>
<path d="M92.2279 137.736C90.2221 137.736 88.5957 136.11 88.5957 134.104V130.183C88.5957 128.177 90.2221 126.551 92.2279 126.551C94.2337 126.551 95.8601 128.177 95.8601 130.183V134.104C95.8601 136.11 94.2337 137.736 92.2279 137.736Z" fill="url(#paint7_linear_2_57127)"/>
<path d="M230.138 156.422C232.144 156.422 233.77 154.795 233.77 152.789V111.507C233.77 109.501 232.144 107.875 230.138 107.875C228.132 107.875 226.506 109.501 226.506 111.507V152.789C226.506 154.795 228.132 156.422 230.138 156.422Z" fill="url(#paint8_linear_2_57127)"/>
<path d="M244.679 149.21C246.685 149.21 248.311 147.583 248.311 145.577V118.706C248.311 116.701 246.685 115.074 244.679 115.074C242.673 115.074 241.047 116.701 241.047 118.706V145.577C241.047 147.583 242.673 149.21 244.679 149.21Z" fill="url(#paint9_linear_2_57127)"/>
<path d="M259.22 143.611C261.226 143.611 262.852 141.985 262.852 139.979V124.312C262.852 122.306 261.226 120.68 259.22 120.68C257.214 120.68 255.588 122.306 255.588 124.312V139.979C255.588 141.985 257.214 143.611 259.22 143.611Z" fill="url(#paint10_linear_2_57127)"/>
<path d="M248.317 130.77V140.79C248.317 139.778 248.724 138.874 249.384 138.215C250.043 137.564 250.956 137.148 251.959 137.148C253.964 137.148 255.591 138.775 255.591 140.79V130.77C255.591 132.775 253.973 134.411 251.959 134.411C249.944 134.411 248.317 132.784 248.317 130.77Z" fill="url(#paint11_linear_2_57127)"/>
<path d="M233.77 120.406V130.77C233.77 129.767 234.176 128.863 234.836 128.204C235.486 127.544 236.399 127.138 237.402 127.138C239.408 127.138 241.043 128.764 241.043 130.77V120.406C241.043 122.412 239.417 124.047 237.402 124.047C235.387 124.047 233.77 122.421 233.77 120.406Z" fill="url(#paint12_linear_2_57127)"/>
<path d="M233.77 135.605V145.969C233.77 144.966 234.176 144.062 234.836 143.403C235.486 142.743 236.399 142.337 237.402 142.337C239.408 142.337 241.043 143.963 241.043 145.969V135.605C241.043 137.611 239.417 139.247 237.402 139.247C235.387 139.247 233.77 137.62 233.77 135.605Z" fill="url(#paint13_linear_2_57127)"/>
<path d="M273.761 137.736C275.767 137.736 277.393 136.11 277.393 134.104V130.183C277.393 128.177 275.767 126.551 273.761 126.551C271.755 126.551 270.129 128.177 270.129 130.183V134.104C270.129 136.11 271.755 137.736 273.761 137.736Z" fill="url(#paint14_linear_2_57127)"/>
<path d="M248.305 117.307C248.305 119.033 248.233 120.731 248.106 122.421H240.797C240.941 120.74 241.023 119.033 241.023 117.307C241.023 93.9418 227.217 73.8021 207.321 64.6042L207.194 64.9476C206.454 66.9805 204.186 68.0196 202.171 67.2425C196.217 64.9566 189.747 63.7097 182.989 63.7097C176.231 63.7097 169.761 64.9656 163.807 67.2425C161.783 68.0196 159.524 66.9805 158.783 64.9476L158.657 64.6042C138.761 73.8021 124.955 93.9418 124.955 117.307C124.955 119.033 125.037 120.74 125.181 122.421H117.872C117.745 120.731 117.673 119.033 117.673 117.307C117.682 81.2382 146.92 52 182.998 52C219.076 52 248.305 81.2382 248.305 117.307Z" fill="url(#paint15_linear_2_57127)"/>
<path d="M203.319 88.0413C198.07 82.7827 190.814 79.5391 182.8 79.5391C166.763 79.5391 153.761 92.5318 153.761 108.569V155.725C153.761 170.118 164.251 182.062 177.993 184.348V191.531H175.482C173.322 191.531 171.569 193.284 171.569 195.444C171.569 197.603 173.322 199.356 175.482 199.356H190.498C192.658 199.356 194.41 197.603 194.41 195.444C194.41 193.284 192.658 191.531 190.498 191.531H187.986V184.276C201.539 181.828 211.812 169.982 211.812 155.725V108.569C211.812 100.555 208.56 93.2908 203.31 88.0503L203.319 88.0413ZM193.823 141.991C193.823 141.991 193.778 141.937 193.751 141.91C193.814 141.982 193.841 142.018 193.823 141.991ZM172.654 139.217C172.681 139.38 172.708 139.551 172.708 139.723C172.708 139.913 172.69 139.705 172.654 139.217Z" fill="url(#paint16_linear_2_57127)"/>
<path d="M135.859 156.422C133.853 156.422 132.227 154.795 132.227 152.789V111.507C132.227 109.501 133.853 107.875 135.859 107.875C137.865 107.875 139.491 109.501 139.491 111.507V152.789C139.491 154.795 137.865 156.422 135.859 156.422Z" fill="url(#paint17_linear_2_57127)"/>
<path d="M121.325 149.21C119.319 149.21 117.692 147.583 117.692 145.577V118.706C117.692 116.701 119.319 115.074 121.325 115.074C123.33 115.074 124.957 116.701 124.957 118.706V145.577C124.957 147.583 123.33 149.21 121.325 149.21Z" fill="url(#paint18_linear_2_57127)"/>
<path d="M106.776 143.611C104.77 143.611 103.144 141.985 103.144 139.979V124.312C103.144 122.306 104.77 120.68 106.776 120.68C108.782 120.68 110.408 122.306 110.408 124.312V139.979C110.408 141.985 108.782 143.611 106.776 143.611Z" fill="url(#paint19_linear_2_57127)"/>
<path d="M117.681 130.77V140.79C117.681 139.778 117.274 138.874 116.614 138.215C115.955 137.564 115.042 137.148 114.039 137.148C112.034 137.148 110.407 138.775 110.407 140.79V130.77C110.407 132.775 112.025 134.411 114.039 134.411C116.054 134.411 117.681 132.784 117.681 130.77Z" fill="url(#paint20_linear_2_57127)"/>
<path d="M132.229 120.406V130.77C132.229 129.767 131.823 128.863 131.163 128.204C130.513 127.544 129.6 127.138 128.597 127.138C126.591 127.138 124.956 128.764 124.956 130.77V120.406C124.956 122.412 126.582 124.047 128.597 124.047C130.612 124.047 132.229 122.421 132.229 120.406Z" fill="url(#paint21_linear_2_57127)"/>
<path d="M132.229 135.605V145.969C132.229 144.966 131.823 144.062 131.163 143.403C130.513 142.743 129.6 142.337 128.597 142.337C126.591 142.337 124.956 143.963 124.956 145.969V135.605C124.956 137.611 126.582 139.247 128.597 139.247C130.612 139.247 132.229 137.62 132.229 135.605Z" fill="url(#paint22_linear_2_57127)"/>
<path d="M92.2279 137.736C90.2221 137.736 88.5957 136.11 88.5957 134.104V130.183C88.5957 128.177 90.2221 126.551 92.2279 126.551C94.2337 126.551 95.8601 128.177 95.8601 130.183V134.104C95.8601 136.11 94.2337 137.736 92.2279 137.736Z" fill="url(#paint23_linear_2_57127)"/>
<path d="M230.138 156.422C232.144 156.422 233.77 154.795 233.77 152.789V111.507C233.77 109.501 232.144 107.875 230.138 107.875C228.132 107.875 226.506 109.501 226.506 111.507V152.789C226.506 154.795 228.132 156.422 230.138 156.422Z" fill="url(#paint24_linear_2_57127)"/>
<path d="M244.679 149.21C246.685 149.21 248.311 147.583 248.311 145.577V118.706C248.311 116.701 246.685 115.074 244.679 115.074C242.673 115.074 241.047 116.701 241.047 118.706V145.577C241.047 147.583 242.673 149.21 244.679 149.21Z" fill="url(#paint25_linear_2_57127)"/>
<path d="M259.22 143.611C261.226 143.611 262.852 141.985 262.852 139.979V124.312C262.852 122.306 261.226 120.68 259.22 120.68C257.214 120.68 255.588 122.306 255.588 124.312V139.979C255.588 141.985 257.214 143.611 259.22 143.611Z" fill="url(#paint26_linear_2_57127)"/>
<path d="M248.317 130.77V140.79C248.317 139.778 248.724 138.874 249.384 138.215C250.043 137.564 250.956 137.148 251.959 137.148C253.964 137.148 255.591 138.775 255.591 140.79V130.77C255.591 132.775 253.973 134.411 251.959 134.411C249.944 134.411 248.317 132.784 248.317 130.77Z" fill="url(#paint27_linear_2_57127)"/>
<path d="M233.77 120.406V130.77C233.77 129.767 234.176 128.863 234.836 128.204C235.486 127.544 236.399 127.138 237.402 127.138C239.408 127.138 241.043 128.764 241.043 130.77V120.406C241.043 122.412 239.417 124.047 237.402 124.047C235.387 124.047 233.77 122.421 233.77 120.406Z" fill="url(#paint28_linear_2_57127)"/>
<path d="M233.77 135.605V145.969C233.77 144.966 234.176 144.062 234.836 143.403C235.486 142.743 236.399 142.337 237.402 142.337C239.408 142.337 241.043 143.963 241.043 145.969V135.605C241.043 137.611 239.417 139.247 237.402 139.247C235.387 139.247 233.77 137.62 233.77 135.605Z" fill="url(#paint29_linear_2_57127)"/>
<path d="M273.761 137.736C275.767 137.736 277.393 136.11 277.393 134.104V130.183C277.393 128.177 275.767 126.551 273.761 126.551C271.755 126.551 270.129 128.177 270.129 130.183V134.104C270.129 136.11 271.755 137.736 273.761 137.736Z" fill="url(#paint30_linear_2_57127)"/>
<path d="M248.305 117.307C248.305 119.033 248.233 120.731 248.106 122.421H240.797C240.941 120.74 241.023 119.033 241.023 117.307C241.023 93.9418 227.217 73.8021 207.321 64.6042L207.194 64.9476C206.454 66.9805 204.186 68.0196 202.171 67.2425C196.217 64.9566 189.747 63.7097 182.989 63.7097C176.231 63.7097 169.761 64.9656 163.807 67.2425C161.783 68.0196 159.524 66.9805 158.783 64.9476L158.657 64.6042C138.761 73.8021 124.955 93.9418 124.955 117.307C124.955 119.033 125.037 120.74 125.181 122.421H117.872C117.745 120.731 117.673 119.033 117.673 117.307C117.682 81.2382 146.92 52 182.998 52C219.076 52 248.305 81.2382 248.305 117.307Z" fill="url(#paint31_linear_2_57127)"/>
<path opacity="0.3" d="M192.508 128.921C192.508 128.189 192.102 127.52 191.469 127.168C191.171 126.996 190.828 126.906 190.485 126.915H173.923V133.086H190.485C191.614 133.077 192.517 132.155 192.508 131.026V128.93V128.921Z" fill="#2471CE"/>
<path opacity="0.3" d="M190.485 137.664H173.923V143.835H190.494C191.605 143.835 192.508 142.923 192.508 141.811V139.715C192.508 138.595 191.605 137.673 190.485 137.664Z" fill="#2471CE"/>
<path opacity="0.3" d="M203.729 129.026V121.102L202.166 119.557L200.594 117.985L197.495 114.904V114.895H188.171H168.483L162.275 121.066H162.312L162.293 121.084H162.275V121.102V129.008V142.172V150.096V150.114L164.335 152.174L168.483 156.321V156.303V156.285H188.171V156.303H197.45V156.312H197.477L197.495 156.303V156.312L203.684 150.123L203.693 150.114H203.702H203.729V142.154H197.45V150.105H188.171V150.114H168.483V121.066H188.171V121.084H197.45V129.026H203.729Z" fill="#2471CE"/>
<path d="M192.508 128.921C192.508 128.189 192.102 127.52 191.469 127.168C191.171 126.996 190.828 126.906 190.485 126.915H173.923V133.086H190.485C191.614 133.077 192.517 132.155 192.508 131.026V128.93V128.921Z" fill="white"/>
<path d="M190.485 137.664H173.923V143.835H190.494C191.605 143.835 192.508 142.923 192.508 141.811V139.715C192.508 138.595 191.605 137.673 190.485 137.664Z" fill="white"/>
<path d="M203.729 129.026V121.102L202.166 119.557L200.594 117.985L197.495 114.904V114.895H188.171H168.483L162.275 121.066H162.312L162.293 121.084H162.275V121.102V129.008V142.172V150.096V150.114L164.335 152.174L168.483 156.321V156.303V156.285H188.171V156.303H197.45V156.312H197.477L197.495 156.303V156.312L203.684 150.123L203.693 150.114H203.702H203.729V142.154H197.45V150.105H188.171V150.114H168.483V121.066H188.171V121.084H197.45V129.026H203.729Z" fill="white"/>
<path d="M68.8694 270.711C74.8779 270.711 79.7479 275.581 79.7479 281.589V283.162C79.7479 284.21 79.7479 284.725 79.4407 284.978C79.1516 285.222 78.5733 285.222 77.453 285.222H75.0315C73.6491 285.222 73.0166 285.222 72.7365 284.833C72.5016 284.508 72.5016 283.912 72.5016 282.809V281.598C72.5016 279.593 70.8753 277.975 68.8785 277.975C66.8817 277.975 65.2553 279.602 65.2553 281.598V303.355C65.2553 305.361 66.8817 306.979 68.8785 306.979C70.8753 306.979 72.5016 305.352 72.5016 303.355V302.244C72.5016 301.069 72.5016 300.446 72.7727 300.112C73.0799 299.732 73.7304 299.732 75.1309 299.732H77.1819C78.4107 299.732 79.0522 299.732 79.3865 299.994C79.757 300.283 79.757 300.889 79.757 302.163V303.364C79.757 309.373 74.8869 314.243 68.8785 314.243C62.87 314.243 58 309.373 58 303.364V281.607C58 275.599 62.87 270.729 68.8785 270.729L68.8694 270.711Z" fill="#2279F3"/>
<path d="M88.3876 270.711H90.6916C91.839 270.711 92.4173 270.711 92.7245 270.991C93.0407 271.289 93.0407 271.886 93.0407 273.132V286.423C93.0407 287.589 93.0407 288.185 93.2937 288.501C93.5648 288.845 94.134 288.845 95.3176 288.845H98.0553C99.1938 288.845 99.763 288.845 100.034 288.529C100.296 288.221 100.296 287.616 100.296 286.432V273.141C100.296 272.012 100.296 271.416 100.558 271.09C100.856 270.72 101.507 270.72 102.898 270.72H105.202C106.35 270.72 106.928 270.72 107.235 271C107.551 271.298 107.551 271.895 107.551 273.141V311.812C107.551 313.05 107.551 313.656 107.235 313.954C106.937 314.234 106.35 314.234 105.202 314.234H102.898C101.507 314.234 100.865 314.234 100.558 313.863C100.296 313.538 100.296 312.942 100.296 311.812V298.567C100.296 297.275 100.296 296.66 99.9708 296.371C99.6817 296.109 99.1124 296.109 98.0463 296.109H95.3086C94.134 296.109 93.5738 296.109 93.2937 296.425C93.0317 296.724 93.0317 297.293 93.0317 298.404V311.821C93.0317 313.059 93.0317 313.665 92.7155 313.963C92.4173 314.243 91.83 314.243 90.6825 314.243H88.3785C86.9871 314.243 86.3456 314.243 86.0384 313.872C85.7764 313.547 85.7764 312.951 85.7764 311.821V273.15C85.7764 272.021 85.7764 271.425 86.0384 271.099C86.3366 270.729 86.9871 270.729 88.3785 270.729L88.3876 270.711Z" fill="#2279F3"/>
<path d="M116.181 270.708H124.457C130.466 270.708 135.336 275.578 135.336 281.587V285.21C135.336 289.818 132.472 293.757 128.424 295.338L135.372 311.195C135.914 312.442 136.212 313.201 136.077 313.644C135.941 314.087 135.39 314.213 134.261 314.213H131.442C130.131 314.213 129.454 314.078 128.984 313.734C128.469 313.355 128.225 312.74 127.719 311.774L121.936 298.573C121.647 297.995 121.313 297.435 121.096 297.426C120.943 297.426 120.843 297.679 120.843 298.374V311.792C120.843 313.03 120.843 313.635 120.527 313.933C120.229 314.213 119.642 314.213 118.494 314.213H116.19C114.799 314.213 114.157 314.213 113.85 313.843C113.588 313.517 113.588 312.921 113.588 311.792V273.121C113.588 271.991 113.588 271.395 113.85 271.07C114.148 270.699 114.799 270.699 116.19 270.699L116.181 270.708ZM123.283 277.964C121.991 277.964 121.385 277.964 121.096 278.28C120.843 278.56 120.843 279.093 120.843 280.096V286.339C120.843 287.469 120.843 288.083 121.087 288.426C121.385 288.842 122.054 288.842 123.545 288.842H124.475C126.481 288.842 128.099 287.216 128.099 285.219V281.596C128.099 279.59 126.472 277.973 124.475 277.973H123.292L123.283 277.964Z" fill="#2279F3"/>
<path d="M150.74 270.711C156.748 270.711 161.618 275.581 161.618 281.589V303.346C161.618 309.355 156.748 314.225 150.74 314.225C144.731 314.225 139.861 309.355 139.861 303.346V281.589C139.861 275.581 144.731 270.711 150.74 270.711ZM150.74 277.966C148.734 277.966 147.117 279.593 147.117 281.589V303.346C147.117 305.352 148.743 306.97 150.74 306.97C152.737 306.97 154.363 305.343 154.363 303.346V281.589C154.363 279.584 152.737 277.966 150.74 277.966Z" fill="#2279F3"/>
<path d="M169.661 270.711H171.965C173.112 270.711 173.69 270.711 173.998 270.991C174.224 271.208 174.413 271.488 174.576 271.795C174.847 272.301 175.064 272.897 175.308 273.503L183.331 292.043C183.792 293.127 184.099 293.615 184.298 293.624C184.506 293.624 184.587 293.082 184.587 292.116V273.141C184.587 272.012 184.587 271.416 184.849 271.09C185.147 270.72 185.798 270.72 187.189 270.72H189.493C190.641 270.72 191.219 270.72 191.526 271C191.842 271.298 191.842 271.895 191.842 273.141V311.812C191.842 313.05 191.842 313.656 191.526 313.954C191.228 314.234 190.641 314.234 189.493 314.234H187.189C185.798 314.234 185.274 314.234 184.976 313.863C184.686 313.493 184.289 312.418 184.018 311.885L175.624 292.486C175.217 291.438 174.847 290.796 174.603 290.923C174.422 291.022 174.314 291.546 174.314 292.658V311.812C174.314 313.05 174.314 313.656 173.998 313.954C173.7 314.234 173.112 314.234 171.965 314.234H169.661C168.269 314.234 167.628 314.234 167.321 313.863C167.059 313.538 167.059 312.942 167.059 311.812V273.141C167.059 272.012 167.059 271.416 167.321 271.09C167.619 270.72 168.269 270.72 169.661 270.72V270.711Z" fill="#2279F3"/>
<path d="M200.105 270.711H202.409C203.557 270.711 204.135 270.711 204.442 270.991C204.758 271.289 204.758 271.886 204.758 273.132V311.803C204.758 313.041 204.758 313.647 204.442 313.945C204.144 314.225 203.557 314.225 202.409 314.225H200.105C198.714 314.225 198.072 314.225 197.765 313.854C197.503 313.529 197.503 312.933 197.503 311.803V273.132C197.503 272.003 197.503 271.407 197.765 271.081C198.063 270.711 198.714 270.711 200.105 270.711Z" fill="#2279F3"/>
<path d="M221.135 270.711C227.144 270.711 232.014 275.581 232.014 281.589V283.162C232.014 284.21 232.014 284.725 231.706 284.978C231.417 285.222 230.839 285.222 229.719 285.222H227.297C225.915 285.222 225.282 285.222 225.002 284.833C224.767 284.508 224.767 283.912 224.767 282.809V281.598C224.767 279.593 223.141 277.975 221.144 277.975C219.147 277.975 217.521 279.602 217.521 281.598V303.355C217.521 305.361 219.147 306.979 221.144 306.979C223.141 306.979 224.767 305.352 224.767 303.355V302.244C224.767 301.069 224.767 300.446 225.038 300.112C225.346 299.732 225.996 299.732 227.397 299.732H229.448C230.676 299.732 231.318 299.732 231.652 299.994C232.023 300.283 232.023 300.889 232.023 302.163V303.364C232.023 309.373 227.153 314.243 221.144 314.243C215.136 314.243 210.266 309.373 210.266 303.364V281.607C210.266 275.599 215.136 270.729 221.144 270.729L221.135 270.711Z" fill="#2279F3"/>
<path d="M239.268 270.711H241.572C242.72 270.711 243.298 270.711 243.605 270.991C243.921 271.289 243.921 271.886 243.921 273.132V304.458C243.921 305.714 243.921 306.337 244.21 306.653C244.5 306.97 245.096 306.97 246.28 306.97H254.312C255.441 306.97 256.038 306.97 256.363 307.232C256.733 307.53 256.733 308.18 256.733 309.572V311.876C256.733 313.023 256.733 313.61 256.453 313.909C256.155 314.225 255.55 314.225 254.312 314.225H239.268C237.877 314.225 237.235 314.225 236.928 313.854C236.666 313.529 236.666 312.933 236.666 311.803V273.132C236.666 272.003 236.666 271.407 236.928 271.081C237.226 270.711 237.877 270.711 239.268 270.711Z" fill="#2279F3"/>
<path d="M263.511 270.708H280.353C281.346 270.708 281.916 270.708 282.241 270.907C282.666 271.178 282.666 271.802 282.666 273.256V275.389C282.666 276.735 282.666 277.376 282.331 277.683C282.024 277.964 281.446 277.964 280.353 277.964H270.613C269.438 277.964 268.824 277.964 268.507 278.244C268.164 278.542 268.164 279.156 268.164 280.439V286.421C268.164 287.523 268.164 288.128 268.426 288.454C268.733 288.842 269.402 288.842 270.866 288.842H278.988C280.073 288.842 280.687 288.842 281.03 289.059C281.464 289.339 281.464 289.99 281.464 291.462V293.766C281.464 295.067 281.464 295.637 281.057 295.89C280.741 296.088 280.172 296.088 279.16 296.088H270.531C269.311 296.088 268.724 296.088 268.444 296.414C268.173 296.721 268.173 297.317 268.173 298.465V304.365C268.173 305.603 268.173 306.253 268.462 306.587C268.778 306.967 269.456 306.967 270.875 306.967H280.362C281.419 306.967 281.988 306.967 282.304 307.193C282.684 307.473 282.684 308.069 282.684 309.406V311.71C282.684 313.093 282.684 313.716 282.25 313.987C281.898 314.213 281.265 314.213 280.109 314.213H263.529C262.137 314.213 261.496 314.213 261.189 313.843C260.927 313.517 260.927 312.921 260.927 311.792V273.121C260.927 271.991 260.927 271.395 261.189 271.07C261.487 270.699 262.137 270.699 263.529 270.699L263.511 270.708Z" fill="#2279F3"/>
<path d="M297.614 270.711C303.623 270.711 308.493 275.581 308.493 281.589V283.162C308.493 284.21 308.493 284.725 308.185 284.978C307.896 285.222 307.318 285.222 306.198 285.222H303.776C302.394 285.222 301.761 285.222 301.481 284.833C301.237 284.508 301.237 283.912 301.237 282.809V281.598C301.237 279.593 299.611 277.975 297.614 277.975C295.617 277.975 293.991 279.602 293.991 281.598V285.222C293.991 287.227 295.617 288.845 297.614 288.845C303.623 288.845 308.493 293.715 308.493 299.723V303.346C308.493 309.355 303.623 314.225 297.614 314.225C291.606 314.225 286.736 309.355 286.736 303.346V301.774C286.736 300.726 286.736 300.211 287.043 299.958C287.332 299.714 287.91 299.714 289.031 299.714H291.452C292.834 299.714 293.467 299.714 293.747 300.103C293.982 300.428 293.982 301.024 293.982 302.127V303.337C293.982 305.343 295.608 306.96 297.605 306.96C299.602 306.96 301.228 305.334 301.228 303.337V299.714C301.228 297.708 299.602 296.091 297.605 296.091C291.597 296.091 286.727 291.221 286.727 285.213V281.589C286.727 275.581 291.597 270.711 297.605 270.711H297.614Z" fill="#2279F3"/>
<path d="M68.8694 215.516C74.8779 215.516 79.7479 220.386 79.7479 226.394V227.966C79.7479 229.014 79.7479 229.529 79.4407 229.782C79.1516 230.026 78.5733 230.026 77.453 230.026H75.0315C73.6491 230.026 73.0166 230.026 72.7365 229.638C72.5016 229.313 72.5016 228.707 72.5016 227.614V226.403C72.5016 224.397 70.8753 222.78 68.8785 222.78C66.8817 222.78 65.2553 224.406 65.2553 226.403V248.16C65.2553 250.166 66.8817 251.783 68.8785 251.783C70.8753 251.783 72.5016 250.157 72.5016 248.16V247.049C72.5016 245.874 72.5016 245.251 72.7727 244.916C73.0799 244.537 73.7304 244.537 75.1309 244.537H77.1819C78.4107 244.537 79.0522 244.537 79.3865 244.799C79.757 245.088 79.757 245.693 79.757 246.967V248.169C79.757 254.178 74.8869 259.048 68.8785 259.048C62.87 259.048 58 254.178 58 248.169V226.412C58 220.404 62.87 215.534 68.8785 215.534L68.8694 215.516Z" fill="#2279F3"/>
<path d="M88.3876 215.516H90.6916C91.839 215.516 92.4173 215.516 92.7245 215.796C93.0407 216.094 93.0407 216.69 93.0407 217.937V231.228C93.0407 232.394 93.0407 232.99 93.2937 233.306C93.5648 233.649 94.134 233.649 95.3176 233.649H98.0553C99.1938 233.649 99.763 233.649 100.034 233.333C100.296 233.026 100.296 232.421 100.296 231.228V217.937C100.296 216.808 100.296 216.211 100.558 215.886C100.856 215.516 101.507 215.516 102.898 215.516H105.202C106.35 215.516 106.928 215.516 107.235 215.796C107.551 216.094 107.551 216.69 107.551 217.937V256.608C107.551 257.846 107.551 258.451 107.235 258.749C106.937 259.03 106.35 259.03 105.202 259.03H102.898C101.507 259.03 100.865 259.03 100.558 258.659C100.296 258.334 100.296 257.738 100.296 256.608V243.362C100.296 242.07 100.296 241.456 99.9708 241.167C99.6817 240.905 99.1124 240.905 98.0463 240.905H95.3086C94.134 240.905 93.5738 240.905 93.2937 241.221C93.0317 241.519 93.0317 242.088 93.0317 243.2V256.617C93.0317 257.855 93.0317 258.46 92.7155 258.758C92.4173 259.039 91.83 259.039 90.6825 259.039H88.3785C86.9871 259.039 86.3456 259.039 86.0384 258.668C85.7764 258.343 85.7764 257.747 85.7764 256.617V217.946C85.7764 216.817 85.7764 216.22 86.0384 215.895C86.3366 215.525 86.9871 215.525 88.3785 215.525L88.3876 215.516Z" fill="#2279F3"/>
<path d="M116.18 215.516H133.022C134.015 215.516 134.585 215.516 134.91 215.723C135.335 215.994 135.335 216.618 135.335 218.073V220.214C135.335 221.56 135.335 222.202 135 222.509C134.693 222.78 134.115 222.78 133.022 222.78H123.282C122.107 222.78 121.493 222.78 121.176 223.06C120.833 223.358 120.833 223.973 120.833 225.256V231.237C120.833 232.339 120.833 232.945 121.095 233.27C121.402 233.658 122.071 233.658 123.535 233.658H131.657C132.741 233.658 133.356 233.658 133.699 233.884C134.133 234.164 134.133 234.815 134.133 236.288V238.592C134.133 239.893 134.133 240.462 133.726 240.715C133.41 240.914 132.841 240.914 131.829 240.914H123.2C121.98 240.914 121.393 240.914 121.113 241.239C120.842 241.546 120.842 242.143 120.842 243.29V249.19C120.842 250.428 120.842 251.078 121.131 251.413C121.447 251.792 122.125 251.792 123.544 251.792H133.031C134.088 251.792 134.657 251.792 134.973 252.018C135.353 252.298 135.353 252.895 135.353 254.232V256.536C135.353 257.918 135.353 258.542 134.919 258.813C134.567 259.039 133.934 259.039 132.778 259.039H116.198C114.806 259.039 114.165 259.039 113.858 258.668C113.596 258.343 113.596 257.747 113.596 256.617V217.946C113.596 216.817 113.596 216.22 113.858 215.895C114.156 215.525 114.806 215.525 116.198 215.525L116.18 215.516Z" fill="#2279F3"/>
<path d="M151.387 215.516C157.395 215.516 162.266 220.386 162.266 226.394V227.966C162.266 229.014 162.266 229.529 161.958 229.782C161.669 230.026 161.091 230.026 159.971 230.026H157.549C156.167 230.026 155.534 230.026 155.254 229.638C155.019 229.313 155.019 228.707 155.019 227.614V226.403C155.019 224.397 153.393 222.78 151.396 222.78C149.399 222.78 147.773 224.406 147.773 226.403V248.16C147.773 250.166 149.399 251.783 151.396 251.783C153.393 251.783 155.019 250.157 155.019 248.16V247.049C155.019 245.874 155.019 245.251 155.29 244.916C155.597 244.537 156.248 244.537 157.648 244.537H159.699C160.928 244.537 161.57 244.537 161.904 244.799C162.275 245.088 162.275 245.693 162.275 246.967V248.169C162.275 254.178 157.405 259.048 151.396 259.048C145.388 259.048 140.518 254.178 140.518 248.169V226.412C140.518 220.404 145.388 215.534 151.396 215.534L151.387 215.516Z" fill="#2279F3"/>
<path d="M170.903 215.516H173.207C174.354 215.516 174.933 215.516 175.24 215.796C175.556 216.094 175.556 216.69 175.556 217.937V225.247C175.556 225.942 175.628 226.231 175.782 226.25C175.954 226.268 176.216 225.942 176.604 225.445L180.779 217.928C181.339 217.034 181.763 216.437 182.414 216.058C183.073 215.678 183.959 215.525 185.432 215.525H187.826C188.721 215.525 189.254 215.669 189.498 215.976C189.859 216.428 189.552 217.241 188.784 218.461L180.788 232.854C180.254 233.767 180.001 234.363 180.056 235.014C180.101 235.583 180.381 236.188 180.905 237.092L191.63 256.391C192.244 257.638 192.524 258.307 192.28 258.659C192.064 258.975 191.422 259.039 190.22 259.039H187.654C186.191 259.039 185.387 258.93 184.727 258.379C184.293 258.018 183.914 257.466 183.453 256.626L176.939 244.889C176.532 244.076 176.171 243.688 175.927 243.706C175.692 243.724 175.556 244.103 175.556 244.817V256.608C175.556 257.846 175.556 258.451 175.24 258.749C174.942 259.03 174.354 259.03 173.207 259.03H170.903C169.512 259.03 168.87 259.03 168.563 258.659C168.301 258.334 168.301 257.738 168.301 256.608V217.937C168.301 216.808 168.301 216.211 168.563 215.886C168.861 215.516 169.512 215.516 170.903 215.516Z" fill="#2279F3"/>
<path d="M199.682 215.513H209.829C215.837 215.513 220.707 220.383 220.707 226.391V230.015C220.707 231.713 220.301 233.376 219.551 234.876C219.235 235.598 219.072 236.041 219.072 236.448C219.072 236.872 219.271 237.27 219.668 237.902C221.114 239.791 221.909 242.104 221.918 244.516V248.139C221.918 254.148 217.048 259.018 211.04 259.018H199.682C198.291 259.018 197.649 259.018 197.342 258.647C197.08 258.322 197.08 257.726 197.08 256.596V217.925C197.08 216.796 197.08 216.2 197.342 215.874C197.64 215.504 198.291 215.504 199.682 215.504V215.513ZM208.564 222.768C207.362 222.768 204.896 222.768 204.606 223.075C204.326 223.374 204.326 223.943 204.326 225.072V231.225C204.326 232.373 204.326 232.978 204.588 233.294C204.878 233.647 207.362 233.647 208.645 233.647H209.829C211.835 233.647 213.452 232.02 213.452 230.024V226.4C213.452 224.395 211.826 222.777 209.829 222.777H208.564V222.768ZM211.04 240.893H208.736C207.462 240.893 204.959 240.893 204.643 241.2C204.326 241.507 204.326 242.122 204.326 243.351V249.251C204.326 250.416 204.326 251.04 204.561 251.374C204.832 251.762 207.29 251.762 208.555 251.762H211.031C213.036 251.762 214.654 250.136 214.654 248.139V244.516C214.654 242.51 213.027 240.893 211.031 240.893H211.04Z" fill="#2279F3"/>
<path d="M238.689 215.516C244.924 215.516 249.974 220.386 249.974 226.394V248.151C249.974 254.16 244.915 259.03 238.689 259.03C232.464 259.03 227.404 254.16 227.404 248.151V226.394C227.404 220.386 232.464 215.516 238.689 215.516ZM238.689 222.771C236.611 222.771 234.931 224.397 234.931 226.394V248.151C234.931 250.157 236.62 251.774 238.689 251.774C240.758 251.774 242.448 250.148 242.448 248.151V226.394C242.448 224.388 240.758 222.771 238.689 222.771Z" fill="#2279F3"/>
<path d="M267.539 215.516C273.773 215.516 278.824 220.386 278.824 226.394V248.151C278.824 254.16 273.764 259.03 267.539 259.03C261.314 259.03 256.254 254.16 256.254 248.151V226.394C256.254 220.386 261.314 215.516 267.539 215.516ZM267.539 222.771C265.461 222.771 263.78 224.397 263.78 226.394V248.151C263.78 250.157 265.47 251.774 267.539 251.774C269.608 251.774 271.298 250.148 271.298 248.151V226.394C271.298 224.388 269.608 222.771 267.539 222.771Z" fill="#2279F3"/>
<path d="M287.035 215.516H289.339C290.486 215.516 291.065 215.516 291.372 215.796C291.688 216.094 291.688 216.69 291.688 217.937V225.247C291.688 225.942 291.76 226.231 291.914 226.25C292.086 226.268 292.348 225.942 292.736 225.445L296.91 217.928C297.471 217.034 297.895 216.437 298.546 216.058C299.205 215.678 300.091 215.525 301.564 215.525H303.958C304.852 215.525 305.385 215.669 305.629 215.976C305.991 216.428 305.684 217.241 304.916 218.461L296.919 232.854C296.386 233.767 296.133 234.363 296.188 235.014C296.233 235.583 296.513 236.188 297.037 237.092L307.762 256.391C308.376 257.638 308.656 258.307 308.412 258.659C308.195 258.975 307.554 259.039 306.352 259.039H303.786C302.322 259.039 301.518 258.93 300.859 258.379C300.425 258.018 300.046 257.466 299.585 256.626L293.07 244.889C292.664 244.076 292.302 243.688 292.058 243.706C291.823 243.724 291.688 244.103 291.688 244.817V256.608C291.688 257.846 291.688 258.451 291.372 258.749C291.074 259.03 290.486 259.03 289.339 259.03H287.035C285.643 259.03 285.002 259.03 284.695 258.659C284.433 258.334 284.433 257.738 284.433 256.608V217.937C284.433 216.808 284.433 216.211 284.695 215.886C284.993 215.516 285.643 215.516 287.035 215.516Z" fill="#2279F3"/>
<defs>
<linearGradient id="paint0_linear_2_57127" x1="153.761" y1="139.443" x2="211.831" y2="139.443" gradientUnits="userSpaceOnUse">
<stop stop-color="#2279F3"/>
<stop offset="0.12" stop-color="#2B79F3"/>
<stop offset="0.32" stop-color="#4479F3"/>
<stop offset="0.57" stop-color="#6E79F3"/>
<stop offset="0.87" stop-color="#A779F3"/>
<stop offset="0.99" stop-color="#C279F3"/>
</linearGradient>
<linearGradient id="paint1_linear_2_57127" x1="132.227" y1="132.144" x2="139.491" y2="132.144" gradientUnits="userSpaceOnUse">
<stop stop-color="#2279F3"/>
<stop offset="0.12" stop-color="#2B79F3"/>
<stop offset="0.32" stop-color="#4479F3"/>
<stop offset="0.57" stop-color="#6E79F3"/>
<stop offset="0.87" stop-color="#A779F3"/>
<stop offset="0.99" stop-color="#C279F3"/>
</linearGradient>
<linearGradient id="paint2_linear_2_57127" x1="117.683" y1="132.142" x2="124.957" y2="132.142" gradientUnits="userSpaceOnUse">
<stop stop-color="#2279F3"/>
<stop offset="0.12" stop-color="#2B79F3"/>
<stop offset="0.32" stop-color="#4479F3"/>
<stop offset="0.57" stop-color="#6E79F3"/>
<stop offset="0.87" stop-color="#A779F3"/>
<stop offset="0.99" stop-color="#C279F3"/>
</linearGradient>
<linearGradient id="paint3_linear_2_57127" x1="103.144" y1="132.145" x2="110.408" y2="132.145" gradientUnits="userSpaceOnUse">
<stop stop-color="#2279F3"/>
<stop offset="0.12" stop-color="#2B79F3"/>
<stop offset="0.32" stop-color="#4479F3"/>
<stop offset="0.57" stop-color="#6E79F3"/>
<stop offset="0.87" stop-color="#A779F3"/>
<stop offset="0.99" stop-color="#C279F3"/>
</linearGradient>
<linearGradient id="paint4_linear_2_57127" x1="110.407" y1="135.784" x2="117.681" y2="135.784" gradientUnits="userSpaceOnUse">
<stop stop-color="#2279F3"/>
<stop offset="0.12" stop-color="#2B79F3"/>
<stop offset="0.32" stop-color="#4479F3"/>
<stop offset="0.57" stop-color="#6E79F3"/>
<stop offset="0.87" stop-color="#A779F3"/>
<stop offset="0.99" stop-color="#C279F3"/>
</linearGradient>
<linearGradient id="paint5_linear_2_57127" x1="124.956" y1="125.593" x2="132.229" y2="125.593" gradientUnits="userSpaceOnUse">
<stop stop-color="#2279F3"/>
<stop offset="0.12" stop-color="#2B79F3"/>
<stop offset="0.32" stop-color="#4479F3"/>
<stop offset="0.57" stop-color="#6E79F3"/>
<stop offset="0.87" stop-color="#A779F3"/>
<stop offset="0.99" stop-color="#C279F3"/>
</linearGradient>
<linearGradient id="paint6_linear_2_57127" x1="124.956" y1="140.792" x2="132.229" y2="140.792" gradientUnits="userSpaceOnUse">
<stop stop-color="#2279F3"/>
<stop offset="0.12" stop-color="#2B79F3"/>
<stop offset="0.32" stop-color="#4479F3"/>
<stop offset="0.57" stop-color="#6E79F3"/>
<stop offset="0.87" stop-color="#A779F3"/>
<stop offset="0.99" stop-color="#C279F3"/>
</linearGradient>
<linearGradient id="paint7_linear_2_57127" x1="88.5957" y1="132.144" x2="95.8691" y2="132.144" gradientUnits="userSpaceOnUse">
<stop stop-color="#2279F3"/>
<stop offset="0.12" stop-color="#2B79F3"/>
<stop offset="0.32" stop-color="#4479F3"/>
<stop offset="0.57" stop-color="#6E79F3"/>
<stop offset="0.87" stop-color="#A779F3"/>
<stop offset="0.99" stop-color="#C279F3"/>
</linearGradient>
<linearGradient id="paint8_linear_2_57127" x1="226.497" y1="132.144" x2="233.77" y2="132.144" gradientUnits="userSpaceOnUse">
<stop stop-color="#2279F3"/>
<stop offset="0.12" stop-color="#2B79F3"/>
<stop offset="0.32" stop-color="#4479F3"/>
<stop offset="0.57" stop-color="#6E79F3"/>
<stop offset="0.87" stop-color="#A779F3"/>
<stop offset="0.99" stop-color="#C279F3"/>
</linearGradient>
<linearGradient id="paint9_linear_2_57127" x1="241.047" y1="132.142" x2="248.32" y2="132.142" gradientUnits="userSpaceOnUse">
<stop stop-color="#2279F3"/>
<stop offset="0.12" stop-color="#2B79F3"/>
<stop offset="0.32" stop-color="#4479F3"/>
<stop offset="0.57" stop-color="#6E79F3"/>
<stop offset="0.87" stop-color="#A779F3"/>
<stop offset="0.99" stop-color="#C279F3"/>
</linearGradient>
<linearGradient id="paint10_linear_2_57127" x1="255.579" y1="132.145" x2="262.852" y2="132.145" gradientUnits="userSpaceOnUse">
<stop stop-color="#2279F3"/>
<stop offset="0.12" stop-color="#2B79F3"/>
<stop offset="0.32" stop-color="#4479F3"/>
<stop offset="0.57" stop-color="#6E79F3"/>
<stop offset="0.87" stop-color="#A779F3"/>
<stop offset="0.99" stop-color="#C279F3"/>
</linearGradient>
<linearGradient id="paint11_linear_2_57127" x1="248.317" y1="135.784" x2="255.582" y2="135.784" gradientUnits="userSpaceOnUse">
<stop stop-color="#2279F3"/>
<stop offset="0.12" stop-color="#2B79F3"/>
<stop offset="0.32" stop-color="#4479F3"/>
<stop offset="0.57" stop-color="#6E79F3"/>
<stop offset="0.87" stop-color="#A779F3"/>
<stop offset="0.99" stop-color="#C279F3"/>
</linearGradient>
<linearGradient id="paint12_linear_2_57127" x1="233.77" y1="125.593" x2="241.034" y2="125.593" gradientUnits="userSpaceOnUse">
<stop stop-color="#2279F3"/>
<stop offset="0.12" stop-color="#2B79F3"/>
<stop offset="0.32" stop-color="#4479F3"/>
<stop offset="0.57" stop-color="#6E79F3"/>
<stop offset="0.87" stop-color="#A779F3"/>
<stop offset="0.99" stop-color="#C279F3"/>
</linearGradient>
<linearGradient id="paint13_linear_2_57127" x1="233.77" y1="140.792" x2="241.034" y2="140.792" gradientUnits="userSpaceOnUse">
<stop stop-color="#2279F3"/>
<stop offset="0.12" stop-color="#2B79F3"/>
<stop offset="0.32" stop-color="#4479F3"/>
<stop offset="0.57" stop-color="#6E79F3"/>
<stop offset="0.87" stop-color="#A779F3"/>
<stop offset="0.99" stop-color="#C279F3"/>
</linearGradient>
<linearGradient id="paint14_linear_2_57127" x1="270.129" y1="132.144" x2="277.402" y2="132.144" gradientUnits="userSpaceOnUse">
<stop stop-color="#2279F3"/>
<stop offset="0.12" stop-color="#2B79F3"/>
<stop offset="0.32" stop-color="#4479F3"/>
<stop offset="0.57" stop-color="#6E79F3"/>
<stop offset="0.87" stop-color="#A779F3"/>
<stop offset="0.99" stop-color="#C279F3"/>
</linearGradient>
<linearGradient id="paint15_linear_2_57127" x1="117.682" y1="87.2105" x2="248.305" y2="87.2105" gradientUnits="userSpaceOnUse">
<stop stop-color="#2279F3"/>
<stop offset="0.12" stop-color="#2B79F3"/>
<stop offset="0.32" stop-color="#4479F3"/>
<stop offset="0.57" stop-color="#6E79F3"/>
<stop offset="0.87" stop-color="#A779F3"/>
<stop offset="0.99" stop-color="#C279F3"/>
</linearGradient>
<linearGradient id="paint16_linear_2_57127" x1="182.999" y1="199.347" x2="182.999" y2="51.9995" gradientUnits="userSpaceOnUse">
<stop stop-color="#2279F3"/>
<stop offset="0.99" stop-color="#C279F3"/>
</linearGradient>
<linearGradient id="paint17_linear_2_57127" x1="182.996" y1="199.348" x2="182.996" y2="52.0008" gradientUnits="userSpaceOnUse">
<stop stop-color="#2279F3"/>
<stop offset="0.99" stop-color="#C279F3"/>
</linearGradient>
<linearGradient id="paint18_linear_2_57127" x1="182.999" y1="199.346" x2="182.999" y2="51.9989" gradientUnits="userSpaceOnUse">
<stop stop-color="#2279F3"/>
<stop offset="0.99" stop-color="#C279F3"/>
</linearGradient>
<linearGradient id="paint19_linear_2_57127" x1="182.997" y1="199.35" x2="182.997" y2="52.0025" gradientUnits="userSpaceOnUse">
<stop stop-color="#2279F3"/>
<stop offset="0.99" stop-color="#C279F3"/>
</linearGradient>
<linearGradient id="paint20_linear_2_57127" x1="182.997" y1="199.347" x2="182.997" y2="52" gradientUnits="userSpaceOnUse">
<stop stop-color="#2279F3"/>
<stop offset="0.99" stop-color="#C279F3"/>
</linearGradient>
<linearGradient id="paint21_linear_2_57127" x1="182.999" y1="199.348" x2="182.999" y2="52.0001" gradientUnits="userSpaceOnUse">
<stop stop-color="#2279F3"/>
<stop offset="0.99" stop-color="#C279F3"/>
</linearGradient>
<linearGradient id="paint22_linear_2_57127" x1="182.999" y1="199.349" x2="182.999" y2="52.002" gradientUnits="userSpaceOnUse">
<stop stop-color="#2279F3"/>
<stop offset="0.99" stop-color="#C279F3"/>
</linearGradient>
<linearGradient id="paint23_linear_2_57127" x1="182.996" y1="199.348" x2="182.996" y2="52.0007" gradientUnits="userSpaceOnUse">
<stop stop-color="#2279F3"/>
<stop offset="0.99" stop-color="#C279F3"/>
</linearGradient>
<linearGradient id="paint24_linear_2_57127" x1="183.001" y1="199.348" x2="183.001" y2="52.0008" gradientUnits="userSpaceOnUse">
<stop stop-color="#2279F3"/>
<stop offset="0.99" stop-color="#C279F3"/>
</linearGradient>
<linearGradient id="paint25_linear_2_57127" x1="183.004" y1="199.346" x2="183.004" y2="51.9989" gradientUnits="userSpaceOnUse">
<stop stop-color="#2279F3"/>
<stop offset="0.99" stop-color="#C279F3"/>
</linearGradient>
<linearGradient id="paint26_linear_2_57127" x1="182.998" y1="199.35" x2="182.998" y2="52.0025" gradientUnits="userSpaceOnUse">
<stop stop-color="#2279F3"/>
<stop offset="0.99" stop-color="#C279F3"/>
</linearGradient>
<linearGradient id="paint27_linear_2_57127" x1="183.001" y1="199.347" x2="183.001" y2="52" gradientUnits="userSpaceOnUse">
<stop stop-color="#2279F3"/>
<stop offset="0.99" stop-color="#C279F3"/>
</linearGradient>
<linearGradient id="paint28_linear_2_57127" x1="183" y1="199.348" x2="183" y2="52.0001" gradientUnits="userSpaceOnUse">
<stop stop-color="#2279F3"/>
<stop offset="0.99" stop-color="#C279F3"/>
</linearGradient>
<linearGradient id="paint29_linear_2_57127" x1="183" y1="199.349" x2="183" y2="52.002" gradientUnits="userSpaceOnUse">
<stop stop-color="#2279F3"/>
<stop offset="0.99" stop-color="#C279F3"/>
</linearGradient>
<linearGradient id="paint30_linear_2_57127" x1="183.002" y1="199.348" x2="183.002" y2="52.0007" gradientUnits="userSpaceOnUse">
<stop stop-color="#2279F3"/>
<stop offset="0.99" stop-color="#C279F3"/>
</linearGradient>
<linearGradient id="paint31_linear_2_57127" x1="182.998" y1="199.347" x2="182.998" y2="52" gradientUnits="userSpaceOnUse">
<stop stop-color="#2279F3"/>
<stop offset="0.99" stop-color="#C279F3"/>
</linearGradient>
</defs>
</svg>
