<svg width="252" height="61" viewBox="0 0 252 61" fill="none" xmlns="http://www.w3.org/2000/svg">
<path d="M239.425 0H12.2C5.46213 0 0 5.46213 0 12.2V48.8C0 55.5379 5.46213 61 12.2 61H239.425C246.163 61 251.625 55.5379 251.625 48.8V12.2C251.625 5.46213 246.163 0 239.425 0Z" fill="#8D84FB"/>
<path d="M13.8806 27.4609C12.5538 27.4609 11.4863 28.5284 11.4863 29.8399V32.4324C11.4863 33.7439 12.5538 34.8114 13.8806 34.8114C15.2073 34.8114 16.2748 33.7439 16.2748 32.4324V29.8399C16.2748 28.5284 15.2073 27.4609 13.8806 27.4609Z" fill="white"/>
<path d="M47.4304 27.4609C46.1036 27.4609 45.0361 28.5284 45.0361 29.8399V32.4324C45.0361 33.7439 46.1036 34.8114 47.4304 34.8114C48.7571 34.8114 49.8246 33.7439 49.8246 32.4324V29.8399C49.8246 28.5284 48.7571 27.4609 47.4304 27.4609Z" fill="white"/>
<path d="M22.1609 35.2617C20.8341 35.2617 19.7666 36.3292 19.7666 37.6407V40.2332C19.7666 41.5447 20.8341 42.6122 22.1609 42.6122C23.4876 42.6122 24.5551 41.5447 24.5551 40.2332V37.6407C24.5551 36.3292 23.4876 35.2617 22.1609 35.2617Z" fill="white"/>
<path d="M22.1609 19.6719C20.8341 19.6719 19.7666 20.7394 19.7666 22.0509V30.5604C19.7971 31.8566 20.8494 32.8936 22.1609 32.8936C23.4724 32.8936 24.5246 31.8566 24.5551 30.5604V22.0509C24.5551 20.7394 23.4876 19.6719 22.1609 19.6719Z" fill="white"/>
<path d="M39.1501 19.6719C37.8234 19.6719 36.7559 20.7394 36.7559 22.0509V24.6434C36.7559 25.9549 37.8234 27.0224 39.1501 27.0224C40.4769 27.0224 41.5444 25.9549 41.5444 24.6434V22.0509C41.5444 20.7394 40.4769 19.6719 39.1501 19.6719Z" fill="white"/>
<path d="M30.656 12.0938C29.3292 12.0938 28.2617 13.1612 28.2617 14.4727V17.0652C28.2617 18.3767 29.3292 19.4443 30.656 19.4443C31.9827 19.4443 33.0502 18.3767 33.0502 17.0652V14.4727C33.0502 13.1612 31.9827 12.0938 30.656 12.0938Z" fill="white"/>
<path d="M30.656 42.8555C29.3292 42.8555 28.2617 43.923 28.2617 45.2345V47.827C28.2617 49.1385 29.3292 50.206 30.656 50.206C31.9827 50.206 33.0502 49.1385 33.0502 47.827V45.2345C33.0502 43.923 31.9827 42.8555 30.656 42.8555Z" fill="white"/>
<path d="M39.1501 29.418C37.8234 29.418 36.7559 30.4855 36.7559 31.797V40.2455C36.7559 41.557 37.8234 42.6245 39.1501 42.6245C40.4769 42.6245 41.5444 41.557 41.5444 40.2455V31.797C41.5444 30.4855 40.4769 29.418 39.1501 29.418Z" fill="white"/>
<path d="M33.0502 24.2188C33.0502 22.9073 31.9827 21.8398 30.656 21.8398C29.3292 21.8398 28.2617 22.9073 28.2617 24.2188V38.0811C28.2617 39.3926 29.3292 40.4601 30.656 40.4601C31.9827 40.4601 33.0502 39.3926 33.0502 38.0811V24.2188Z" fill="white"/>
<path d="M145.955 46.4851V39.3786H149.798C150.774 39.3786 151.689 39.1651 152.513 38.7228C153.336 38.2806 154.007 37.6706 154.51 36.8776C155.014 36.0846 155.258 35.2001 155.258 34.2088C155.258 33.2176 155.014 32.3331 154.51 31.5401C154.007 30.7471 153.351 30.1371 152.513 29.6948C151.674 29.2526 150.774 29.0391 149.798 29.0391H143.896V46.4698H145.955V46.4851ZM149.844 37.3961H145.955V31.0216H149.844C150.5 31.0216 151.079 31.1741 151.567 31.4791C152.07 31.7841 152.452 32.1806 152.726 32.6686C153.001 33.1566 153.138 33.6598 153.138 34.2088C153.138 34.7578 153.001 35.2611 152.726 35.7491C152.452 36.2371 152.055 36.6336 151.567 36.9386C151.064 37.2436 150.5 37.3961 149.844 37.3961ZM162.135 46.8663C163.355 46.8663 164.469 46.5766 165.445 45.9971C166.421 45.4176 167.183 44.6246 167.732 43.6181C168.281 42.6116 168.556 41.4983 168.556 40.2783C168.556 39.0583 168.281 37.9451 167.732 36.9386C167.183 35.9321 166.421 35.1391 165.445 34.5596C164.469 33.9801 163.371 33.6903 162.135 33.6903C160.9 33.6903 159.802 33.9801 158.826 34.5596C157.85 35.1391 157.088 35.9321 156.539 36.9386C155.99 37.9451 155.715 39.0583 155.715 40.2783C155.715 41.4983 155.99 42.6116 156.539 43.6181C157.088 44.6246 157.85 45.4176 158.826 45.9971C159.802 46.5766 160.9 46.8663 162.135 46.8663ZM162.135 44.9906C161.373 44.9906 160.656 44.7923 159.985 44.4111C159.314 44.0298 158.78 43.4808 158.384 42.7641C157.987 42.0473 157.789 41.2086 157.789 40.2631C157.789 39.3176 157.987 38.4636 158.384 37.7621C158.78 37.0453 159.314 36.4963 159.985 36.1151C160.656 35.7338 161.373 35.5356 162.135 35.5356C162.898 35.5356 163.615 35.7338 164.27 36.1151C164.926 36.4963 165.46 37.0453 165.856 37.7621C166.253 38.4788 166.451 39.3176 166.451 40.2631C166.451 41.2086 166.253 42.0626 165.856 42.7641C165.46 43.4808 164.926 44.0298 164.27 44.4111C163.615 44.7923 162.898 44.9906 162.135 44.9906ZM175.921 46.8663C176.882 46.8663 177.736 46.6528 178.499 46.2258C179.246 45.7988 179.825 45.2651 180.207 44.6551H180.298V46.4851H182.281V29.0543H180.207V34.1936L180.298 35.9168H180.207C179.81 35.2763 179.246 34.7578 178.499 34.3156C177.751 33.8886 176.897 33.6751 175.921 33.6751C174.808 33.6751 173.802 33.9648 172.902 34.5291C172.002 35.0933 171.285 35.8863 170.767 36.8928C170.248 37.8993 169.989 39.0278 169.989 40.2783C169.989 41.5288 170.248 42.6726 170.767 43.6791C171.285 44.6703 172.002 45.4633 172.902 46.0276C173.802 46.5918 174.808 46.8816 175.921 46.8816V46.8663ZM176.165 44.9906C175.449 44.9906 174.762 44.7923 174.137 44.4111C173.497 44.0146 172.993 43.4656 172.612 42.7488C172.231 42.0321 172.033 41.2086 172.033 40.2783C172.033 39.3481 172.231 38.5246 172.612 37.8078C172.993 37.0911 173.512 36.5268 174.137 36.1456C174.778 35.7491 175.449 35.5661 176.165 35.5661C176.882 35.5661 177.584 35.7643 178.209 36.1456C178.834 36.5421 179.337 37.0911 179.734 37.8078C180.115 38.5246 180.313 39.3481 180.313 40.2936C180.313 41.2391 180.115 42.0626 179.734 42.7793C179.353 43.4961 178.849 44.0451 178.209 44.4416C177.584 44.8381 176.897 45.0211 176.165 45.0211V44.9906ZM190.561 46.8663C191.903 46.8663 193.032 46.5461 193.977 45.9208C194.923 45.2803 195.594 44.4568 196.021 43.4351L194.16 42.6573C193.855 43.4046 193.383 43.9841 192.742 44.3806C192.102 44.7923 191.339 44.9906 190.47 44.9906C189.738 44.9906 189.052 44.7923 188.411 44.3958C187.771 43.9993 187.267 43.4351 186.886 42.7336C186.505 42.0168 186.307 41.1933 186.307 40.2783C186.307 39.3633 186.505 38.5398 186.886 37.8231C187.267 37.1063 187.786 36.5573 188.411 36.1608C189.052 35.7643 189.738 35.5661 190.47 35.5661C191.339 35.5661 192.071 35.7643 192.681 36.1608C193.291 36.5573 193.749 37.1368 194.069 37.8993L195.96 37.1216C195.563 36.0846 194.908 35.2458 193.993 34.6206C193.078 33.9953 191.934 33.6903 190.577 33.6903C189.372 33.6903 188.289 33.9801 187.313 34.5443C186.352 35.1086 185.605 35.9016 185.056 36.9081C184.522 37.9146 184.248 39.0431 184.248 40.2936C184.248 41.5441 184.522 42.6726 185.056 43.6638C185.59 44.6551 186.352 45.4481 187.313 46.0276C188.274 46.6071 189.357 46.8968 190.577 46.8968L190.561 46.8663ZM201.801 46.8663C202.7 46.8663 203.509 46.6528 204.225 46.2258C204.942 45.7988 205.476 45.2956 205.842 44.6856H205.933V46.4698H207.916V38.6008C207.916 37.0758 207.428 35.8711 206.452 34.9866C205.476 34.1021 204.149 33.6598 202.441 33.6598C201.404 33.6598 200.443 33.8733 199.589 34.3003C198.735 34.7273 198.064 35.3068 197.576 36.0541L199.147 37.2283C199.483 36.6946 199.955 36.2676 200.55 35.9778C201.145 35.6728 201.785 35.5203 202.487 35.5203C203.478 35.5203 204.302 35.7948 204.957 36.3591C205.613 36.9233 205.933 37.6553 205.933 38.5856V39.3328C205.598 39.1193 205.095 38.9363 204.454 38.7686C203.814 38.6008 203.112 38.5246 202.365 38.5246C200.84 38.5246 199.589 38.8906 198.598 39.6378C197.607 40.3698 197.104 41.4068 197.104 42.7183C197.104 43.5113 197.302 44.2281 197.698 44.8533C198.095 45.4786 198.644 45.9666 199.361 46.3326C200.077 46.6833 200.901 46.8663 201.816 46.8663H201.801ZM201.999 45.0363C201.206 45.0363 200.535 44.8228 200.016 44.3958C199.498 43.9688 199.239 43.4198 199.239 42.7336C199.239 41.9863 199.528 41.3763 200.108 40.9036C200.687 40.4308 201.541 40.2021 202.685 40.2021C203.326 40.2021 203.92 40.2783 204.5 40.4461C205.064 40.6138 205.552 40.8121 205.949 41.0866C205.949 41.8033 205.766 42.4591 205.415 43.0538C205.049 43.6486 204.576 44.1366 203.966 44.4873C203.356 44.8381 202.716 45.0211 202.014 45.0211L201.999 45.0363ZM214.702 46.8663C215.617 46.8663 216.456 46.7138 217.203 46.4088C217.95 46.1038 218.545 45.6616 218.987 45.0821C219.43 44.5026 219.643 43.8316 219.643 43.0691C219.643 42.1998 219.338 41.4526 218.713 40.8426C218.088 40.2326 217.173 39.7751 215.953 39.4701L214.138 39.0126C213.421 38.8296 212.887 38.6008 212.521 38.3111C212.155 38.0213 211.988 37.6553 211.988 37.1978C211.988 36.7098 212.247 36.3133 212.765 35.9931C213.284 35.6728 213.879 35.5203 214.565 35.5203C215.983 35.5203 216.974 36.0693 217.523 37.1826L219.338 36.3591C218.972 35.5203 218.377 34.8646 217.508 34.3918C216.654 33.9191 215.678 33.6903 214.58 33.6903C213.741 33.6903 212.979 33.8428 212.247 34.1326C211.53 34.4223 210.951 34.8493 210.524 35.3831C210.097 35.9321 209.868 36.5573 209.868 37.2741C209.868 38.2043 210.188 38.9516 210.829 39.5311C211.469 40.1106 212.277 40.5223 213.284 40.7663L214.809 41.1628C215.754 41.3916 216.456 41.6661 216.883 41.9711C217.325 42.2913 217.539 42.7031 217.539 43.2216C217.539 43.8011 217.264 44.2586 216.7 44.5788C216.136 44.8991 215.48 45.0516 214.687 45.0516C213.955 45.0516 213.284 44.8533 212.674 44.4416C212.064 44.0298 211.606 43.4656 211.286 42.7183L209.426 43.5418C209.807 44.5178 210.432 45.3108 211.332 45.9361C212.232 46.5613 213.345 46.8663 214.687 46.8663H214.702ZM226.262 46.6681C226.658 46.6681 226.978 46.6376 227.222 46.5918C227.482 46.5461 227.726 46.4546 227.97 46.3478V44.3196C227.527 44.5941 227.07 44.7313 226.597 44.7313C226.002 44.7313 225.56 44.5483 225.255 44.1976C224.996 43.8773 224.859 43.3741 224.859 42.6878V35.9168H227.893V34.0411H224.859V30.5336H222.785V34.0411H220.604V35.9168H222.785V43.1911C222.785 43.7706 222.861 44.2738 223.029 44.6703C223.196 45.0821 223.44 45.4328 223.761 45.7378C224.05 46.0123 224.416 46.2258 224.843 46.3936C225.27 46.5613 225.743 46.6376 226.246 46.6376L226.262 46.6681ZM234.68 46.8663C235.595 46.8663 236.433 46.7138 237.181 46.4088C237.928 46.1038 238.523 45.6616 238.965 45.0821C239.407 44.5026 239.621 43.8316 239.621 43.0691C239.621 42.1998 239.316 41.4526 238.69 40.8426C238.065 40.2326 237.15 39.7751 235.93 39.4701L234.115 39.0126C233.399 38.8296 232.865 38.6008 232.499 38.3111C232.133 38.0213 231.965 37.6553 231.965 37.1978C231.965 36.7098 232.224 36.3133 232.743 35.9931C233.261 35.6728 233.856 35.5203 234.542 35.5203C235.961 35.5203 236.952 36.0693 237.501 37.1826L239.316 36.3591C238.95 35.5203 238.355 34.8646 237.486 34.3918C236.632 33.9191 235.656 33.6903 234.558 33.6903C233.719 33.6903 232.956 33.8428 232.224 34.1326C231.508 34.4223 230.928 34.8493 230.501 35.3831C230.074 35.9321 229.845 36.5573 229.845 37.2741C229.845 38.2043 230.166 38.9516 230.806 39.5311C231.447 40.1106 232.255 40.5223 233.261 40.7663L234.786 41.1628C235.732 41.3916 236.433 41.6661 236.86 41.9711C237.287 42.2761 237.516 42.7031 237.516 43.2216C237.516 43.8011 237.242 44.2586 236.677 44.5788C236.113 44.8991 235.457 45.0516 234.664 45.0516C233.932 45.0516 233.261 44.8533 232.651 44.4416C232.041 44.0298 231.584 43.4656 231.264 42.7183L229.403 43.5418C229.784 44.5178 230.41 45.3108 231.309 45.9361C232.209 46.5613 233.322 46.8663 234.664 46.8663H234.68Z" fill="white"/>
<path d="M113.213 33.8701C114.753 33.8701 115.973 34.5563 116.599 35.3036H116.69V34.2666H119.389V45.7651C119.389 50.4926 116.583 52.4293 113.274 52.4293C110.148 52.4293 108.272 50.3401 107.555 48.6473L110.011 47.6256C110.453 48.6626 111.52 49.8978 113.244 49.8978C115.363 49.8978 116.675 48.5863 116.675 46.1463V45.2161H116.583C115.958 45.9938 114.738 46.6801 113.198 46.6801C109.98 46.6801 107.022 43.8741 107.022 40.2903C107.022 36.7066 109.98 33.8701 113.198 33.8701H113.213ZM85.3208 34.0531C88.8893 34.0531 91.7716 36.7371 91.7716 40.4581C91.7716 44.1791 88.8741 46.8631 85.3208 46.8631C81.7676 46.8631 78.8701 44.1486 78.8701 40.4581C78.8701 36.7676 81.7676 34.0531 85.3208 34.0531ZM99.4118 34.0531C102.98 34.0531 105.863 36.7371 105.863 40.4581C105.863 44.1791 102.965 46.8631 99.4118 46.8631C95.8586 46.8631 92.9611 44.1486 92.9611 40.4581C92.9611 36.7676 95.8586 34.0531 99.4118 34.0531ZM131.589 34.0531C134.929 34.0531 136.561 36.6913 137.095 38.1248L137.384 38.8416L128.783 42.3796C129.454 43.6453 130.461 44.3163 131.91 44.3163C133.358 44.3163 134.35 43.6148 135.097 42.5626L137.293 44.0266C136.576 45.0636 134.868 46.8631 131.925 46.8631C128.265 46.8631 125.55 44.0418 125.55 40.4581C125.55 36.6456 128.311 34.0531 131.62 34.0531H131.589ZM68.6373 26.8551C71.6873 26.8551 73.8528 28.0446 75.4998 29.6001L73.5631 31.5063C72.4041 30.4083 70.8181 29.5543 68.6526 29.5543C64.6418 29.5543 61.4851 32.7721 61.4851 36.7676C61.4851 40.7631 64.6266 43.9808 68.6526 43.9808C71.2603 43.9808 72.7396 42.9438 73.7003 41.9983C74.4781 41.2206 74.9966 40.1073 75.1796 38.5823H68.6526V35.8678H77.8483C77.9398 36.3558 78.0008 36.9353 78.0008 37.5758C78.0008 39.6193 77.4518 42.1356 75.6371 43.9198C73.8681 45.7346 71.6263 46.7106 68.6526 46.7106C63.1321 46.7106 58.4961 42.2576 58.4961 36.7828C58.4961 31.3081 63.1168 26.8398 68.6526 26.8398L68.6373 26.8551ZM124.147 27.6176V46.4208H121.326V27.6176H124.147ZM85.3208 36.5541C83.3536 36.5541 81.6761 38.1248 81.6761 40.4428C81.6761 42.7608 83.3688 44.3316 85.3208 44.3316C87.2728 44.3316 88.9656 42.7456 88.9656 40.4428C88.9656 38.1401 87.2728 36.5541 85.3208 36.5541ZM99.4118 36.5541C97.4446 36.5541 95.7671 38.1248 95.7671 40.4428C95.7671 42.7608 97.4598 44.3316 99.4118 44.3316C101.364 44.3316 103.057 42.7456 103.057 40.4428C103.057 38.1401 101.379 36.5541 99.4118 36.5541ZM113.472 36.3863C111.536 36.3863 109.889 38.0333 109.889 40.2903C109.889 42.5473 111.52 44.1486 113.472 44.1486C115.424 44.1486 116.919 42.5321 116.904 40.2903C116.904 38.0333 115.394 36.3863 113.472 36.3863ZM131.696 36.5236C130.247 36.5236 128.25 37.7893 128.326 40.2598L134.075 37.8961C133.77 37.0878 132.825 36.5388 131.696 36.5388V36.5236Z" fill="white"/>
<path d="M67.372 23.1078V21.9335H62.187V12.2345H60.7383V23.1078H67.372ZM70.0103 13.668C70.2848 13.668 70.483 13.5918 70.6203 13.4393C70.7575 13.2868 70.8338 13.1038 70.8338 12.875C70.8338 12.6463 70.7575 12.4633 70.6203 12.3108C70.483 12.1583 70.2695 12.082 70.0103 12.082C69.751 12.082 69.5375 12.1583 69.4003 12.3108C69.263 12.4633 69.1868 12.6615 69.1868 12.875C69.1868 13.0885 69.263 13.2868 69.4003 13.4393C69.5375 13.5918 69.7358 13.668 70.0103 13.668ZM70.6965 23.1078V15.0253H69.3088V23.1078H70.6965ZM76.2933 23.2603C77.2235 23.2603 77.9708 23.0468 78.5503 22.6045C79.1298 22.1623 79.4195 21.598 79.4195 20.866C79.4195 20.439 79.3128 20.073 79.1145 19.768C78.901 19.463 78.5808 19.2038 78.1538 18.9903C77.7268 18.7768 77.1625 18.5938 76.4763 18.4413C75.79 18.2888 75.302 18.121 75.0428 17.9533C74.7835 17.7855 74.6463 17.5263 74.6463 17.206C74.6463 16.8553 74.7835 16.5655 75.0733 16.352C75.363 16.1385 75.7595 16.0165 76.2628 16.0165C76.766 16.0165 77.1625 16.1538 77.4828 16.4283C77.803 16.7028 77.9708 17.023 77.9708 17.4043H79.3738C79.3738 16.6723 79.084 16.0623 78.5198 15.5895C77.9403 15.1168 77.193 14.888 76.278 14.888C75.363 14.888 74.6768 15.1168 74.1125 15.5743C73.5483 16.0318 73.2738 16.596 73.2738 17.2518C73.2738 17.6483 73.3653 17.999 73.5635 18.2888C73.7618 18.5785 74.0668 18.8225 74.4785 19.036C74.8903 19.2495 75.4545 19.4173 76.156 19.5698C76.8575 19.7223 77.3455 19.89 77.6353 20.1035C77.925 20.317 78.0623 20.6068 78.0623 20.9728C78.0623 21.3235 77.9098 21.6133 77.5895 21.8268C77.2693 22.0403 76.8575 22.147 76.3238 22.147C75.7595 22.147 75.2868 22.0098 74.9513 21.7353C74.6005 21.4608 74.4175 21.0948 74.387 20.6373H72.9993C72.9993 21.11 73.1365 21.5523 73.4263 21.964C73.716 22.3758 74.0973 22.696 74.6005 22.9248C75.1038 23.1535 75.6833 23.2755 76.3238 23.2755L76.2933 23.2603ZM83.9945 23.2603C84.3453 23.2603 84.696 23.2145 85.062 23.1078V21.9945C84.7875 22.0555 84.5588 22.086 84.4063 22.086C84.086 22.086 83.8573 22.0098 83.72 21.842C83.5828 21.6743 83.5218 21.4303 83.5218 21.11V16.108H85.0315V15.0405H83.5218V13.0885H82.134V15.0405H80.6548V16.108H82.134V21.11C82.134 21.7963 82.2865 22.33 82.6068 22.696C82.927 23.062 83.3845 23.2603 84.0098 23.2603H83.9945ZM90.3995 23.2603C91.7568 23.2603 92.7785 22.7418 93.4648 21.7048L92.6108 21.049C92.3515 21.3845 92.0618 21.6438 91.711 21.842C91.3755 22.0403 90.9485 22.147 90.4605 22.147C89.7743 22.147 89.1948 21.903 88.7525 21.415C88.3103 20.927 88.0663 20.2865 88.051 19.4783H93.5563V18.8988C93.5563 17.6025 93.2665 16.6265 92.6718 15.925C92.0923 15.2388 91.2688 14.888 90.2165 14.888C89.576 14.888 88.966 15.071 88.417 15.4218C87.868 15.7725 87.441 16.2758 87.1208 16.901C86.8005 17.5263 86.6633 18.243 86.6633 19.0513V19.3105C86.6633 20.5153 87.014 21.476 87.7003 22.1928C88.3865 22.9095 89.2863 23.2755 90.3843 23.2755L90.3995 23.2603ZM92.1838 18.3345H88.112C88.2035 17.6025 88.4323 17.0383 88.8135 16.6265C89.1948 16.2148 89.6675 16.0165 90.2318 16.0165C90.796 16.0165 91.2688 16.2148 91.6195 16.596C91.9703 16.9773 92.1533 17.5263 92.1838 18.2278V18.3345ZM96.957 23.1078V17.3585C97.14 16.9773 97.4145 16.657 97.75 16.413C98.0855 16.169 98.482 16.0623 98.9395 16.0623C99.4885 16.0623 99.9003 16.1995 100.16 16.474C100.419 16.7485 100.556 17.1908 100.556 17.7703V23.1078H101.944V17.7703C101.944 15.8488 101.059 14.888 99.3513 14.888C98.3448 14.888 97.5365 15.2693 96.9265 16.047L96.8808 15.0253H95.5693V23.1078H96.957ZM111.963 23.2603C112.695 23.2603 113.336 23.0925 113.9 22.7418C114.464 22.391 114.891 21.903 115.196 21.2778C115.501 20.6525 115.654 19.951 115.654 19.158V19.0665C115.654 17.8008 115.318 16.7943 114.632 16.0318C113.946 15.2693 113.061 14.888 111.948 14.888C111.231 14.888 110.591 15.0558 110.042 15.4065C109.477 15.7573 109.05 16.23 108.73 16.8705C108.41 17.4958 108.257 18.2125 108.257 19.0055V19.097C108.257 20.3475 108.593 21.354 109.279 22.1165C109.965 22.879 110.85 23.2603 111.948 23.2603H111.963ZM111.963 22.1318C111.262 22.1318 110.697 21.8573 110.286 21.3235C109.874 20.7745 109.66 20.0578 109.66 19.1733C109.66 18.1668 109.874 17.389 110.286 16.84C110.713 16.291 111.262 16.0318 111.948 16.0318C112.634 16.0318 113.214 16.3063 113.625 16.8553C114.052 17.4043 114.266 18.121 114.266 19.0055C114.266 19.9968 114.052 20.7593 113.641 21.3235C113.229 21.8725 112.665 22.147 111.963 22.147V22.1318ZM119.176 23.1078V17.3585C119.359 16.9773 119.634 16.657 119.969 16.413C120.305 16.169 120.701 16.0623 121.159 16.0623C121.708 16.0623 122.12 16.1995 122.379 16.474C122.638 16.7485 122.775 17.1908 122.775 17.7703V23.1078H124.163V17.7703C124.163 15.8488 123.279 14.888 121.571 14.888C120.564 14.888 119.756 15.2693 119.146 16.047L119.1 15.0253H117.789V23.1078H119.176Z" fill="white"/>
</svg>
