<svg width="235" height="43" viewBox="0 0 235 43" fill="none" xmlns="http://www.w3.org/2000/svg">
<path d="M6.33724 0V42.3287L0 35.9915V6.34994L6.33724 0Z" fill="#3D77EB"/>
<path d="M30.9014 14.3181V16.4644C30.9014 17.6201 29.987 18.5599 28.8313 18.5726H11.9023V12.2734H28.8313C29.1869 12.2734 29.5298 12.3623 29.8346 12.5401C30.4823 12.8957 30.9014 13.5815 30.9014 14.3308V14.3181Z" fill="#3D77EB"/>
<path d="M30.8965 25.3679V27.5142C30.8965 28.6572 29.9821 29.5843 28.8391 29.5843H11.9102V23.2852H28.8391C29.9821 23.2852 30.9092 24.2249 30.9092 25.3806L30.8965 25.3679Z" fill="#3D77EB"/>
<path d="M42.316 6.31184H0L6.33724 0H35.9788L39.1664 3.16227L42.316 6.31184Z" fill="#3D77EB"/>
<path d="M42.316 35.9883V36.001L35.9915 42.3255V42.3128L35.9788 42.3001H6.33724V42.3128L0 35.9883H42.316Z" fill="#3D77EB"/>
<path d="M42.3656 27.8672V35.9951H42.3402H42.3275L35.9776 42.3324H35.9395V27.8672H42.3656Z" fill="#3D77EB"/>
<path d="M42.3656 6.33724V14.4525H35.9395V0L39.1652 3.17497L42.3656 6.33724Z" fill="#3D77EB"/>
<path d="M85.7164 13.9657L82.8844 16.7977C81.0048 14.6769 78.795 13.6228 76.382 13.6228C74.439 13.5847 72.5848 14.3848 71.264 15.7945C69.8797 17.2295 69.1304 19.1599 69.1685 21.1538C69.1431 22.5254 69.4479 23.8843 70.0829 25.0908C70.6925 26.2211 71.6069 27.1609 72.7118 27.7959C73.8548 28.4562 75.1501 28.7864 76.4709 28.761C77.5758 28.761 78.668 28.5451 79.684 28.0879C80.8905 27.4403 81.97 26.5894 82.8971 25.5861L85.6402 28.5578C84.3703 29.9294 82.8717 31.0597 81.1953 31.8852C79.684 32.5202 78.0584 32.8377 76.4201 32.7996C73.3849 32.9012 70.4385 31.7201 68.3303 29.5357C66.2094 27.2752 65.0791 24.2526 65.1934 21.1538C65.1426 19.0964 65.6506 17.0644 66.6412 15.2738C67.6064 13.5466 69.0288 12.1115 70.756 11.1209C72.4832 10.0922 74.4644 9.54611 76.4836 9.55881C78.2362 9.55881 79.9761 9.95251 81.5509 10.7272C83.1765 11.4511 84.5989 12.5687 85.7038 13.9657" fill="#3D77EB"/>
<path d="M88.8281 9.50781H92.7651V17.4833C93.4509 16.8483 94.2383 16.315 95.0892 15.9213C95.8258 15.5784 96.6259 15.3879 97.4513 15.3879C98.9499 15.3625 100.398 15.9848 101.388 17.1023C102.303 18.0675 102.773 19.5153 102.773 21.4076V32.2406H98.8864V25.0779C98.9372 23.7825 98.8483 22.4998 98.6197 21.2171C98.5054 20.6329 98.1879 20.0995 97.7307 19.7185C97.2862 19.3756 96.7274 19.2105 96.1687 19.2232C95.394 19.2105 94.6574 19.5026 94.1113 20.0487C93.5017 20.671 93.0953 21.4584 92.9302 22.3093C92.7778 23.4396 92.7143 24.5699 92.7524 25.7002V32.266H88.8408V9.50781" fill="#3D77EB"/>
<path d="M122.294 25.2472H109.645C109.772 26.3267 110.292 27.3046 111.118 28.0158C111.969 28.7143 113.048 29.0826 114.153 29.0445C115.575 29.0445 116.947 28.4603 117.912 27.4189L121.24 29.0445C120.503 30.1875 119.474 31.1273 118.268 31.7496C116.985 32.3719 115.563 32.6767 114.14 32.6386C111.88 32.7148 109.695 31.8258 108.133 30.2002C106.571 28.5619 105.733 26.3648 105.809 24.1043C105.72 21.7929 106.558 19.5323 108.133 17.8305C109.619 16.1922 111.727 15.2778 113.937 15.3286C116.21 15.2524 118.42 16.1668 119.97 17.8305C121.532 19.4815 122.294 21.6532 122.294 24.3963V25.2472ZM118.357 21.9707C118.103 21.0817 117.569 20.2943 116.833 19.7355C116.058 19.164 115.118 18.8592 114.153 18.8719C113.112 18.8592 112.083 19.2021 111.257 19.8371C110.622 20.4213 110.127 21.1452 109.81 21.958H118.344L118.357 21.9707Z" fill="#3D77EB"/>
<path d="M140.848 19.1704L137.584 21.05C137.076 20.4658 136.454 19.9832 135.755 19.6403C135.082 19.3609 134.358 19.2339 133.634 19.2593C131.044 19.1323 128.846 21.1135 128.719 23.7043C128.719 23.8567 128.719 24.0218 128.719 24.1742C128.605 26.676 130.548 28.8096 133.063 28.9112C133.215 28.9112 133.368 28.9112 133.52 28.9112C135.12 28.9874 136.657 28.2889 137.647 27.0316L140.734 29.2414C139.083 31.502 136.403 32.7847 133.609 32.6577C130.84 32.6577 128.694 31.7941 127.132 30.0923C124.516 27.2602 124.02 23.0566 125.925 19.7038C126.687 18.3957 127.78 17.3035 129.113 16.5669C131.844 15.0937 135.107 15.0302 137.889 16.3891C139.095 17.0749 140.124 18.0274 140.886 19.1958" fill="#3D77EB"/>
<path d="M144.445 9.50781H148.382V22.6014L154.199 15.8324H159.139L152.383 23.6936L159.952 32.2279H155.062L148.408 24.6588V32.2279H144.471V9.50781" fill="#3D77EB"/>
<path d="M165.47 9.50781V17.6611C166.131 16.9626 166.905 16.3912 167.769 15.9848C168.594 15.6038 169.496 15.4133 170.41 15.426C172.43 15.426 174.36 16.315 175.655 17.8643C177.141 19.6042 177.903 21.8521 177.802 24.1381C177.865 26.386 177.078 28.5703 175.592 30.2594C174.297 31.8342 172.366 32.7613 170.322 32.7613C169.458 32.7613 168.607 32.5835 167.82 32.266C166.943 31.8469 166.143 31.2754 165.47 30.5642V32.3041H161.559V9.50781H165.47ZM169.636 19.2232C168.455 19.1978 167.337 19.6804 166.537 20.544C165.686 21.4965 165.229 22.7411 165.28 24.0238C165.229 25.3192 165.673 26.5765 166.537 27.5544C167.312 28.4433 168.455 28.9386 169.636 28.9132C170.804 28.9132 171.909 28.4179 172.658 27.529C173.509 26.5638 173.954 25.3192 173.916 24.0365C173.966 22.7792 173.535 21.5473 172.709 20.5948C171.934 19.7185 170.817 19.2232 169.648 19.2359H169.636V19.2232Z" fill="#3D77EB"/>
<path d="M188.441 15.4337C189.915 15.4337 191.362 15.8401 192.62 16.6148C193.902 17.3641 194.956 18.4436 195.68 19.7517C196.404 21.0598 196.785 22.5457 196.772 24.0443C196.772 25.5683 196.404 27.0795 195.68 28.4257C194.982 29.7211 193.953 30.8006 192.683 31.5626C191.413 32.3246 189.953 32.7183 188.467 32.7056C186.27 32.7183 184.174 31.8039 182.688 30.2037C181.113 28.5654 180.263 26.381 180.301 24.1078C180.25 21.6821 181.24 19.358 183.006 17.707C184.415 16.2338 186.384 15.421 188.416 15.4337H188.441ZM188.505 19.3199C187.336 19.2945 186.219 19.7771 185.444 20.6407C184.619 21.5805 184.187 22.7997 184.238 24.057C184.174 25.327 184.606 26.5715 185.444 27.524C186.219 28.3876 187.349 28.8702 188.505 28.8321C189.673 28.8702 190.803 28.3622 191.565 27.4732C192.416 26.5334 192.874 25.2889 192.823 24.0316C192.874 22.7743 192.442 21.5551 191.616 20.6153C190.829 19.7517 189.699 19.2691 188.53 19.2945H188.518L188.505 19.3199Z" fill="#3D77EB"/>
<path d="M207.343 15.4346C208.816 15.4346 210.264 15.841 211.521 16.6157C212.804 17.365 213.871 18.4444 214.582 19.7525C215.306 21.0606 215.674 22.5465 215.661 24.0451C215.661 25.5691 215.293 27.0804 214.582 28.4266C213.883 29.722 212.842 30.8014 211.585 31.5634C210.315 32.3254 208.854 32.7191 207.368 32.7064C205.184 32.7191 203.088 31.8047 201.603 30.2045C200.028 28.5663 199.164 26.3819 199.215 24.1086C199.164 21.6829 200.142 19.3461 201.92 17.6952C203.342 16.2347 205.298 15.4219 207.33 15.4219L207.343 15.4346ZM207.406 19.3207C206.238 19.308 205.12 19.7779 204.346 20.6415C203.52 21.5813 203.088 22.8005 203.139 24.0578C203.076 25.3278 203.508 26.5724 204.346 27.5249C205.12 28.3885 206.251 28.8711 207.406 28.833C208.575 28.8711 209.705 28.3631 210.467 27.4741C211.318 26.5343 211.775 25.2897 211.724 24.0324C211.775 22.7751 211.343 21.5559 210.518 20.6161C209.731 19.7398 208.6 19.2572 207.432 19.2953H207.419L207.406 19.3207Z" fill="#3D77EB"/>
<path d="M218.914 9.50781H222.851V22.6014L228.655 15.8324H233.595L226.851 23.6936L234.421 32.2279H229.531L222.876 24.6588V32.2279H218.939V9.50781" fill="#3D77EB"/>
<path style="mix-blend-mode:multiply" opacity="0.3" d="M35.9917 35.9766H26.4668V42.3011H35.9917V35.9766Z" fill="url(#paint0_linear_226_24177)"/>
<path style="mix-blend-mode:multiply" opacity="0.3" d="M35.9917 0H26.4668V6.32454H35.9917V0Z" fill="url(#paint1_linear_226_24177)"/>
<path style="mix-blend-mode:multiply" opacity="0.3" d="M6.32454 6.31641H0V14.4189H6.32454V6.31641Z" fill="url(#paint2_linear_226_24177)"/>
<path style="mix-blend-mode:multiply" opacity="0.3" d="M6.32454 27.875H0V35.9775H6.32454V27.875Z" fill="url(#paint3_linear_226_24177)"/>
<defs>
<linearGradient id="paint0_linear_226_24177" x1="26.4668" y1="39.1388" x2="35.9917" y2="39.1388" gradientUnits="userSpaceOnUse">
<stop stop-color="white"/>
<stop offset="1"/>
</linearGradient>
<linearGradient id="paint1_linear_226_24177" x1="85.5086" y1="3.16227" x2="86.7785" y2="3.16227" gradientUnits="userSpaceOnUse">
<stop stop-color="white"/>
<stop offset="1"/>
</linearGradient>
<linearGradient id="paint2_linear_226_24177" x1="3.16227" y1="14.4189" x2="3.16227" y2="6.31641" gradientUnits="userSpaceOnUse">
<stop stop-color="white"/>
<stop offset="1"/>
</linearGradient>
<linearGradient id="paint3_linear_226_24177" x1="3.16227" y1="27.875" x2="3.16227" y2="35.9775" gradientUnits="userSpaceOnUse">
<stop stop-color="white"/>
<stop offset="1"/>
</linearGradient>
</defs>
</svg>
