<svg width="47" height="53" viewBox="0 0 47 53" fill="none" xmlns="http://www.w3.org/2000/svg">
<path d="M19.0511 34.9681C18.7362 34.6532 18.2268 34.6532 17.9119 34.9681C17.5971 35.2829 17.5971 35.7923 17.9119 36.1072L20.5699 38.7651C20.7273 38.9226 20.9311 39.0059 21.1441 39.0059C21.3571 39.0059 21.5608 38.9226 21.7182 38.7651L29.2568 31.2266C29.5716 30.9117 29.5716 30.4024 29.2568 30.0875C28.9419 29.7726 28.4325 29.7726 28.1177 30.0875L21.1533 37.0518L19.0696 34.9681H19.0511Z" fill="#3EA8BD"/>
<path d="M28.3872 33.4956C27.9519 33.579 27.6649 34.005 27.7575 34.4403C28.3594 37.4779 26.3776 40.4507 23.3399 41.0527C20.3023 41.6546 17.3295 39.6728 16.7275 36.6351C16.1255 33.5975 18.1074 30.634 21.1451 30.0227C22.6176 29.7264 24.1179 30.0227 25.3681 30.8655C25.7386 31.1155 26.2386 31.0137 26.4887 30.6432C26.7387 30.2728 26.6369 29.7727 26.2664 29.5226C24.6643 28.4483 22.7287 28.0686 20.8394 28.4391C16.9313 29.217 14.3752 33.0326 15.1531 36.95C15.8385 40.3859 18.8668 42.7752 22.2471 42.7752C22.7102 42.7752 23.1825 42.7289 23.6641 42.6363C27.5722 41.8584 30.1283 38.0428 29.3504 34.1254C29.267 33.6901 28.841 33.403 28.4057 33.4956H28.3872Z" fill="#3EA8BD"/>
<path d="M3.38031 47.4342H30.2652C31.9693 47.4342 33.3584 46.0451 33.3584 44.341V5.3704C33.3584 3.66636 31.9693 2.2772 30.2652 2.2772H24.6715V1.33257C24.6715 0.888038 24.3104 0.526855 23.8658 0.526855H9.78898C9.34445 0.526855 8.98327 0.888038 8.98327 1.33257V2.2772H3.38031C1.67627 2.2772 0.287109 3.6571 0.287109 5.3704V44.3503C0.287109 46.0543 1.67627 47.4435 3.38031 47.4435V47.4342ZM10.5947 2.13828H23.0601V4.55543C23.0601 5.3704 22.3933 6.0372 21.5783 6.0372H12.0672C11.2522 6.0372 10.5854 5.3704 10.5854 4.55543V2.13828H10.5947ZM1.9078 5.3704C1.9078 4.55543 2.5746 3.88863 3.38957 3.88863H8.98327V4.55543C8.98327 6.25947 10.3724 7.64863 12.0765 7.64863H21.5876C23.2916 7.64863 24.6808 6.25947 24.6808 4.55543V3.88863H30.2745C31.0895 3.88863 31.7563 4.55543 31.7563 5.3704V44.3503C31.7563 45.1653 31.0895 45.8321 30.2745 45.8321H3.38031C2.56534 45.8321 1.89854 45.1653 1.89854 44.3503V5.3704H1.9078Z" fill="#3EA8BD"/>
<path d="M7.39946 13.9659H17.4848C17.9293 13.9659 18.2905 13.6047 18.2905 13.1602C18.2905 12.7157 17.9293 12.3545 17.4848 12.3545H7.39946C6.95493 12.3545 6.59375 12.7157 6.59375 13.1602C6.59375 13.6047 6.95493 13.9659 7.39946 13.9659Z" fill="#3EA8BD"/>
<path d="M7.39946 20.5482H26.255C26.6996 20.5482 27.0607 20.187 27.0607 19.7425C27.0607 19.298 26.6996 18.9368 26.255 18.9368H7.39946C6.95493 18.9368 6.59375 19.298 6.59375 19.7425C6.59375 20.187 6.95493 20.5482 7.39946 20.5482Z" fill="#3EA8BD"/>
<path d="M7.39946 25.5062H26.255C26.6996 25.5062 27.0607 25.145 27.0607 24.7005C27.0607 24.256 26.6996 23.8948 26.255 23.8948H7.39946C6.95493 23.8948 6.59375 24.256 6.59375 24.7005C6.59375 25.145 6.95493 25.5062 7.39946 25.5062Z" fill="#3EA8BD"/>
<path d="M7.39946 30.4681H13.9841C14.4286 30.4681 14.7898 30.1069 14.7898 29.6624C14.7898 29.2179 14.4286 28.8567 13.9841 28.8567H7.39946C6.95493 28.8567 6.59375 29.2179 6.59375 29.6624C6.59375 30.1069 6.95493 30.4681 7.39946 30.4681Z" fill="#3EA8BD"/>
<path d="M46.3704 11.5744C46.3704 10.5649 45.9814 9.61104 45.259 8.88867C44.5459 8.17557 43.592 7.77734 42.5733 7.77734C40.4803 7.77734 38.7763 9.48138 38.7763 11.5744V14.0008H37.0815C36.637 14.0008 36.2758 14.362 36.2758 14.8065L36.248 25.1048C36.248 25.1048 36.211 25.1234 36.1924 25.1234C35.7479 25.1234 35.3867 25.4845 35.3867 25.9291C35.3867 26.3736 35.7479 26.7348 36.1924 26.7348C36.637 26.7348 37.0722 26.5588 37.3871 26.2347C37.702 25.9105 37.8779 25.4938 37.8779 25.04V15.603H38.767V37.0053C38.767 37.0053 38.767 37.0238 38.767 37.0331C38.767 37.1165 38.7763 37.1998 38.8133 37.2832L41.7491 45.4607V47.3963C41.7491 47.8408 42.1103 48.202 42.5548 48.202C42.9993 48.202 43.3605 47.8408 43.3605 47.3963V45.4607L46.3055 37.2832C46.3333 37.1998 46.3426 37.1165 46.3518 37.0331C46.3518 37.0331 46.3518 37.0146 46.3518 37.0053V11.5744H46.3704ZM40.397 36.1996V15.603H44.7589V36.1903H42.5733H40.3877L40.397 36.1996ZM40.3877 11.5744C40.3877 10.3704 41.3694 9.38877 42.5733 9.38877C43.1568 9.38877 43.7032 9.61104 44.1107 10.0278C44.5181 10.4353 44.7497 10.9909 44.7497 11.5744V14.0008H40.3877V11.5744ZM42.5733 37.811H44.4163L42.5733 42.9324L40.7304 37.811H42.5733Z" fill="#3EA8BD"/>
<path d="M45.5657 50.6665H0.899464C0.454932 50.6665 0.09375 51.0277 0.09375 51.4722C0.09375 51.9167 0.454932 52.2779 0.899464 52.2779H45.5657C46.0102 52.2779 46.3714 51.9167 46.3714 51.4722C46.3714 51.0277 46.0102 50.6665 45.5657 50.6665Z" fill="#3EA8BD"/>
</svg>
