<svg width="85" height="86" viewBox="0 0 85 86" fill="none" xmlns="http://www.w3.org/2000/svg">
<path d="M70.2683 0.140625H14.7317C6.59558 0.140625 0 6.73621 0 14.8723V70.409C0 78.545 6.59558 85.1406 14.7317 85.1406H70.2683C78.4044 85.1406 85 78.545 85 70.409V14.8723C85 6.73621 78.4044 0.140625 70.2683 0.140625Z" fill="#9180FF"/>
<path d="M49.7262 34.7793C49.5459 33.2286 48.7885 32.0205 47.4903 31.155C46.174 30.2895 44.5692 29.8567 42.6579 29.8567C41.2695 29.8567 40.0433 30.0731 39.0155 30.5419C37.9697 30.9927 37.1583 31.6058 36.5813 32.3992C36.0043 33.1926 35.7158 34.0941 35.7158 35.0858C35.7158 35.9333 35.9141 36.6546 36.3289 37.2496C36.7255 37.8447 37.2485 38.3495 37.8976 38.7462C38.5287 39.1429 39.1958 39.4675 39.8991 39.7199C40.6023 39.9724 41.2334 40.1707 41.8284 40.333L45.02 41.1985C45.8494 41.4149 46.751 41.7034 47.7608 42.082C48.7705 42.4607 49.7442 42.9836 50.6638 43.6327C51.5834 44.2819 52.3588 45.1113 52.9538 46.1391C53.5669 47.1489 53.8554 48.393 53.8554 49.8716C53.8554 51.5665 53.4046 53.1172 52.521 54.4876C51.6375 55.858 50.3392 56.9579 48.6443 57.7513C46.9493 58.5627 44.8938 58.9594 42.4776 58.9594C40.2236 58.9594 38.2762 58.5988 36.6354 57.8775C34.9945 57.1563 33.6963 56.1285 32.7586 54.8302C31.821 53.532 31.2981 52.0173 31.1719 50.3043H35.1027C35.2109 51.4944 35.6076 52.4681 36.3108 53.2435C37.014 54.0188 37.8976 54.5958 38.9795 54.9564C40.0614 55.3351 41.2334 55.5154 42.4776 55.5154C43.9381 55.5154 45.2364 55.281 46.3904 54.7942C47.5444 54.3253 48.464 53.6582 49.1492 52.7927C49.8344 51.9272 50.1589 50.9354 50.1589 49.7814C50.1589 48.7356 49.8704 47.8881 49.2754 47.239C48.6984 46.5899 47.923 46.0489 46.9674 45.6342C46.0117 45.2195 44.9839 44.8589 43.884 44.5523L40.0073 43.4524C37.555 42.7492 35.6076 41.7394 34.1651 40.4231C32.7406 39.1068 32.0193 37.3939 32.0193 35.2662C32.0193 33.4991 32.5062 31.9664 33.4619 30.6501C34.4175 29.3338 35.7158 28.306 37.3386 27.5848C38.9614 26.8455 40.7826 26.4849 42.7841 26.4849C44.7856 26.4849 46.6067 26.8455 48.1935 27.5668C49.7803 28.288 51.0244 29.2797 51.944 30.5239C52.8636 31.7681 53.3685 33.1925 53.4046 34.7793H49.7081H49.7262ZM41.2334 62.3133V22.9688H43.7578V62.3133H41.2334Z" fill="#EEF4FD"/>
</svg>
