<svg width="432" height="290" viewBox="0 0 432 290" fill="none" xmlns="http://www.w3.org/2000/svg">
<path d="M424.67 129.569C424.48 129.649 424.29 129.739 424.11 129.839C422.88 128.129 421.41 126.639 419.78 125.409C419.88 125.229 419.98 125.049 420.06 124.859C421.16 122.269 419.96 119.279 417.38 118.169C414.79 117.069 411.8 118.269 410.7 120.849C410.62 121.039 410.55 121.239 410.5 121.429C408.48 121.099 406.39 121.069 404.3 121.359C404.25 121.159 404.19 120.969 404.11 120.769C403.06 118.159 400.1 116.889 397.49 117.939C394.88 118.989 393.62 121.959 394.66 124.569C394.74 124.759 394.83 124.949 394.93 125.129C393.22 126.359 391.74 127.829 390.5 129.469C390.32 129.369 390.14 129.269 389.95 129.189C387.36 128.089 384.37 129.289 383.27 131.869C382.17 134.459 383.37 137.449 385.95 138.559C386.14 138.639 386.34 138.709 386.53 138.759C386.2 140.789 386.17 142.869 386.46 144.959C386.26 145.009 386.07 145.069 385.87 145.149C383.26 146.199 382 149.169 383.04 151.779C384.09 154.389 387.05 155.659 389.66 154.609C389.85 154.529 390.04 154.439 390.22 154.339C391.45 156.049 392.92 157.539 394.55 158.769C394.45 158.949 394.35 159.129 394.27 159.319C393.17 161.909 394.37 164.899 396.95 166.009C399.54 167.109 402.53 165.909 403.63 163.329C403.71 163.139 403.78 162.939 403.83 162.749C405.85 163.079 407.94 163.109 410.03 162.819C410.08 163.019 410.14 163.209 410.22 163.409C411.27 166.019 414.23 167.289 416.84 166.239C419.45 165.189 420.71 162.219 419.67 159.609C419.59 159.419 419.5 159.229 419.4 159.049C421.11 157.819 422.59 156.349 423.83 154.709C424.01 154.809 424.19 154.909 424.38 154.989C426.97 156.089 429.96 154.889 431.06 152.309C432.16 149.719 430.96 146.729 428.38 145.619C428.19 145.539 427.99 145.469 427.8 145.419C428.13 143.389 428.16 141.309 427.87 139.219C428.07 139.169 428.26 139.109 428.46 139.029C431.07 137.979 432.33 135.009 431.29 132.399C430.24 129.789 427.28 128.519 424.67 129.569ZM410.26 149.809C406.01 151.519 401.17 149.449 399.46 145.199C397.75 140.939 399.82 136.109 404.07 134.399C408.32 132.689 413.16 134.759 414.87 139.009C416.58 143.259 414.51 148.099 410.26 149.809Z" fill="white"/>
<path d="M414.96 166.948C414.24 166.948 413.51 166.798 412.83 166.508C411.49 165.938 410.46 164.878 409.92 163.528C409.88 163.418 409.84 163.308 409.8 163.188C407.9 163.428 405.99 163.408 404.1 163.128C404.06 163.248 404.02 163.358 403.97 163.458C403.4 164.798 402.34 165.828 401 166.368C399.65 166.908 398.17 166.898 396.84 166.318C394.08 165.138 392.8 161.938 393.97 159.178C394.01 159.078 394.07 158.968 394.12 158.858C392.61 157.688 391.27 156.318 390.13 154.778C390.02 154.828 389.91 154.878 389.81 154.928C388.46 155.468 386.98 155.458 385.65 154.878C384.31 154.308 383.28 153.248 382.74 151.898C381.62 149.118 382.98 145.938 385.76 144.818C385.87 144.778 385.98 144.738 386.1 144.698C385.86 142.798 385.88 140.878 386.16 138.988C386.04 138.948 385.93 138.908 385.83 138.858C383.07 137.678 381.79 134.478 382.96 131.718C383.53 130.378 384.59 129.348 385.93 128.808C387.28 128.268 388.76 128.278 390.09 128.848C390.19 128.888 390.3 128.948 390.41 128.998C391.58 127.488 392.95 126.148 394.49 125.008C394.44 124.898 394.39 124.788 394.34 124.678C393.22 121.898 394.58 118.718 397.36 117.598C398.71 117.058 400.19 117.068 401.52 117.648C402.86 118.218 403.89 119.278 404.43 120.628C404.47 120.738 404.51 120.848 404.55 120.968C406.45 120.728 408.36 120.748 410.25 121.028C410.29 120.908 410.33 120.798 410.38 120.698C410.95 119.358 412.01 118.328 413.35 117.788C414.7 117.248 416.18 117.258 417.51 117.838C420.27 119.018 421.55 122.218 420.38 124.978C420.34 125.078 420.28 125.188 420.23 125.298C421.74 126.468 423.08 127.838 424.22 129.378C424.33 129.328 424.44 129.278 424.54 129.238C425.89 128.698 427.37 128.708 428.7 129.288C430.04 129.858 431.07 130.918 431.61 132.268C432.73 135.048 431.37 138.228 428.59 139.348C428.48 139.388 428.37 139.428 428.25 139.468C428.49 141.368 428.47 143.288 428.19 145.178C428.31 145.218 428.42 145.258 428.52 145.308C431.28 146.488 432.56 149.688 431.39 152.448C430.82 153.788 429.76 154.818 428.42 155.358C427.07 155.898 425.59 155.888 424.26 155.308C424.16 155.268 424.05 155.218 423.94 155.158C422.77 156.668 421.4 158.008 419.86 159.148C419.92 159.258 419.96 159.368 420.01 159.478C421.13 162.258 419.77 165.438 416.99 166.558C416.33 166.818 415.65 166.958 414.96 166.958V166.948ZM410.04 162.468C410.19 162.468 410.33 162.568 410.37 162.728C410.43 162.938 410.48 163.118 410.55 163.278C411.02 164.458 411.92 165.378 413.09 165.878C414.26 166.378 415.54 166.388 416.72 165.918C419.15 164.938 420.33 162.168 419.35 159.738C419.29 159.578 419.21 159.408 419.1 159.218C419.02 159.068 419.06 158.868 419.2 158.768C420.86 157.568 422.32 156.138 423.55 154.508C423.66 154.368 423.85 154.328 424 154.418C424.19 154.528 424.36 154.608 424.51 154.678C425.68 155.178 426.96 155.188 428.14 154.718C429.32 154.248 430.24 153.338 430.73 152.178C431.76 149.768 430.64 146.978 428.23 145.948C428.07 145.878 427.9 145.818 427.69 145.758C427.52 145.708 427.42 145.538 427.44 145.368C427.77 143.348 427.79 141.298 427.51 139.268C427.49 139.098 427.59 138.928 427.76 138.888C427.97 138.828 428.15 138.778 428.31 138.708C430.74 137.728 431.92 134.958 430.94 132.528C430.47 131.348 429.57 130.428 428.4 129.928C427.23 129.428 425.95 129.418 424.77 129.888C424.61 129.958 424.44 130.038 424.25 130.138C424.1 130.228 423.9 130.178 423.8 130.038C422.6 128.378 421.17 126.908 419.54 125.678C419.4 125.568 419.36 125.378 419.45 125.228C419.56 125.038 419.64 124.868 419.71 124.718C420.74 122.308 419.62 119.518 417.21 118.488C416.04 117.988 414.75 117.978 413.58 118.448C412.4 118.918 411.48 119.828 410.99 120.988C410.92 121.148 410.86 121.328 410.8 121.528C410.75 121.698 410.58 121.798 410.41 121.778C408.39 121.448 406.34 121.428 404.32 121.708C404.15 121.738 403.98 121.628 403.94 121.458C403.88 121.248 403.83 121.068 403.76 120.908C403.29 119.728 402.39 118.808 401.22 118.308C400.05 117.808 398.77 117.798 397.59 118.268C395.16 119.248 393.98 122.018 394.96 124.448C395.02 124.608 395.11 124.778 395.21 124.968C395.29 125.118 395.25 125.318 395.11 125.418C393.45 126.618 391.99 128.048 390.76 129.678C390.65 129.818 390.46 129.858 390.31 129.768C390.13 129.658 389.96 129.578 389.8 129.508C388.63 129.008 387.35 128.998 386.17 129.468C384.99 129.938 384.07 130.838 383.58 132.008C382.55 134.418 383.67 137.208 386.08 138.238C386.24 138.308 386.42 138.368 386.62 138.428C386.79 138.478 386.89 138.648 386.87 138.818C386.54 140.838 386.52 142.888 386.8 144.918C386.82 145.088 386.72 145.258 386.55 145.298C386.34 145.358 386.16 145.408 386 145.478C383.57 146.458 382.39 149.228 383.37 151.658C383.84 152.838 384.74 153.758 385.91 154.258C387.08 154.758 388.37 154.768 389.54 154.298C389.7 154.228 389.87 154.148 390.06 154.048C390.21 153.968 390.41 154.008 390.51 154.148C391.71 155.808 393.14 157.278 394.77 158.508C394.91 158.618 394.95 158.808 394.86 158.958C394.75 159.148 394.67 159.318 394.6 159.468C393.57 161.878 394.69 164.668 397.1 165.698C398.27 166.198 399.56 166.208 400.73 165.738C401.91 165.268 402.83 164.368 403.32 163.198C403.39 163.038 403.45 162.868 403.51 162.648C403.56 162.478 403.73 162.378 403.9 162.398C405.92 162.728 407.97 162.748 409.99 162.468C410.01 162.468 410.02 162.468 410.04 162.468ZM407.17 150.758C406.02 150.758 404.87 150.528 403.78 150.058C401.66 149.148 400.01 147.468 399.15 145.328C397.37 140.898 399.53 135.848 403.95 134.068C406.09 133.208 408.44 133.228 410.57 134.138C412.69 135.048 414.34 136.728 415.2 138.868C416.98 143.298 414.82 148.348 410.4 150.118C409.36 150.538 408.27 150.748 407.18 150.748L407.17 150.758ZM407.17 134.128C406.17 134.128 405.16 134.318 404.21 134.708C400.14 136.348 398.16 140.988 399.79 145.058C400.58 147.028 402.09 148.578 404.05 149.408C406 150.238 408.17 150.268 410.14 149.478C414.21 147.838 416.19 143.198 414.56 139.128C413.77 137.158 412.26 135.608 410.3 134.778C409.3 134.348 408.24 134.138 407.18 134.138L407.17 134.128Z" fill="black"/>
<path d="M98.6252 18.5977H378.775C384.065 18.5977 388.365 22.8977 388.365 28.1877V219.308H89.0352V28.1977C89.0352 22.9077 93.3352 18.6077 98.6252 18.6077V18.5977Z" fill="white"/>
<path d="M388.374 219.658H89.0336C88.8436 219.658 88.6836 219.498 88.6836 219.308V28.1978C88.6836 22.7178 93.1436 18.2578 98.6236 18.2578H378.774C384.254 18.2578 388.714 22.7178 388.714 28.1978V219.318C388.714 219.508 388.554 219.668 388.364 219.668L388.374 219.658ZM89.3736 218.958H388.024V28.1978C388.024 23.0978 383.874 18.9478 378.774 18.9478H98.6236C93.5236 18.9478 89.3736 23.0978 89.3736 28.1978V218.968V218.958Z" fill="black"/>
<path d="M379.114 201.586H280.304C280.114 201.586 279.954 201.426 279.954 201.236C279.954 201.046 280.114 200.886 280.304 200.886H378.764V37.0064H98.6336V163.016C98.6336 163.206 98.4736 163.366 98.2836 163.366C98.0936 163.366 97.9336 163.206 97.9336 163.016V36.6664C97.9336 36.4764 98.0936 36.3164 98.2836 36.3164H379.104C379.294 36.3164 379.454 36.4764 379.454 36.6664V201.246C379.454 201.436 379.294 201.596 379.104 201.596L379.114 201.586Z" fill="black"/>
<path d="M393.57 244.107H84.2704C70.1204 244.107 57.1004 238.047 50.3904 228.327L47.1604 223.647C44.8904 220.367 47.2404 215.887 51.2304 215.887H426.16C429.97 215.887 432.35 220.007 430.45 223.307L428.68 226.387C422.47 237.177 408.73 244.117 393.57 244.117V244.107Z" fill="white"/>
<path d="M393.572 244.447H84.2723C69.9823 244.447 56.8923 238.337 50.1023 228.517L46.8723 223.837C45.7323 222.187 45.6123 220.137 46.5423 218.367C47.4723 216.587 49.2223 215.527 51.2323 215.527H426.162C428.072 215.527 429.792 216.517 430.752 218.177C431.712 219.837 431.712 221.817 430.752 223.467L428.982 226.547C422.722 237.417 408.822 244.447 393.572 244.447ZM51.2323 216.227C49.4923 216.227 47.9623 217.147 47.1523 218.687C46.3423 220.227 46.4523 222.007 47.4423 223.447L50.6723 228.127C57.3323 237.767 70.2023 243.757 84.2623 243.757H393.562C408.572 243.757 422.232 236.867 428.372 226.207L430.142 223.127C430.972 221.687 430.972 219.967 430.142 218.527C429.312 217.087 427.822 216.227 426.152 216.227H51.2323Z" fill="black"/>
<path d="M361.073 178.808H276.703V126.168L361.073 178.808Z" fill="white"/>
<path d="M361.072 179.149H276.702C276.512 179.149 276.352 178.989 276.352 178.799V126.159C276.352 125.969 276.512 125.809 276.702 125.809C276.892 125.809 277.052 125.969 277.052 126.159V178.449H361.082C361.272 178.449 361.432 178.609 361.432 178.799C361.432 178.989 361.272 179.149 361.082 179.149H361.072Z" fill="black"/>
<path d="M355.773 143.109H283.543V172.799H355.773V143.109Z" fill="#E2EAFF"/>
<path d="M289.745 165.118C289.655 165.118 289.565 165.078 289.495 165.008C289.365 164.868 289.365 164.648 289.505 164.518L326.005 129.508C326.145 129.378 326.355 129.378 326.495 129.508L336.705 139.738L360.245 116.148C360.385 116.008 360.595 116.008 360.735 116.148C360.875 116.288 360.875 116.498 360.735 116.638L336.945 140.468C336.815 140.598 336.585 140.598 336.455 140.468L326.245 130.238L289.995 165.018C289.925 165.078 289.845 165.118 289.755 165.118H289.745Z" fill="black"/>
<path d="M359.155 120.86L358.525 120.57L360.435 116.45L356.325 118.38L356.035 117.75L361.875 115.02L359.155 120.86Z" fill="black"/>
<path d="M338.402 83.947C331.312 89.217 322.422 92.187 313.482 92.317C312.712 92.327 312.242 91.497 312.682 90.877L314.062 88.967C304.602 91.007 294.872 91.877 285.182 91.557C283.542 91.507 281.682 91.317 280.932 89.687C280.702 89.177 280.632 88.617 280.692 88.067C280.852 86.637 281.722 85.477 282.602 84.377C288.412 77.127 295.332 70.787 302.222 64.487L297.502 64.997C296.882 65.067 296.502 64.367 296.912 63.907C302.082 58.167 310.172 52.907 317.192 49.457L338.402 83.937V83.947Z" fill="#5479F7"/>
<path d="M307.591 66.7285C307.481 66.7285 307.371 66.6785 307.301 66.5785C307.191 66.4185 307.241 66.2085 307.401 66.0985L315.641 60.5785C315.801 60.4685 316.011 60.5185 316.121 60.6785C316.231 60.8385 316.181 61.0485 316.021 61.1585L307.781 66.6785C307.721 66.7185 307.651 66.7385 307.591 66.7385V66.7285Z" fill="black"/>
<path d="M292.202 86.066C292.102 86.066 291.992 86.016 291.922 85.926C291.802 85.776 291.832 85.556 291.982 85.436C300.382 78.996 309.242 72.966 318.302 67.516C318.462 67.416 318.682 67.466 318.782 67.636C318.882 67.796 318.832 68.016 318.662 68.116C309.622 73.556 300.792 79.576 292.412 85.996C292.352 86.046 292.272 86.066 292.202 86.066Z" fill="black"/>
<path d="M316.404 79.5764C316.284 79.5764 316.164 79.5164 316.104 79.4064C316.004 79.2364 316.064 79.0264 316.224 78.9364L323.414 74.7364C323.584 74.6364 323.794 74.6964 323.884 74.8564C323.984 75.0264 323.924 75.2364 323.764 75.3264L316.574 79.5264C316.514 79.5564 316.454 79.5764 316.404 79.5764Z" fill="black"/>
<path d="M338.402 80.5659L340.362 96.1559C340.512 97.3659 341.892 97.9759 342.872 97.2659C349.612 92.4259 369.562 76.6259 368.592 59.8359L338.412 80.5659H338.402Z" fill="white"/>
<path d="M341.943 97.9173C341.683 97.9173 341.413 97.8673 341.163 97.7573C340.523 97.4773 340.093 96.8973 340.003 96.2073L338.043 80.6173C338.023 80.4873 338.083 80.3573 338.193 80.2873L368.373 59.5573C368.473 59.4873 368.613 59.4773 368.723 59.5273C368.833 59.5873 368.913 59.6973 368.913 59.8173C369.903 76.8873 349.373 93.0173 343.053 97.5473C342.713 97.7873 342.323 97.9173 341.923 97.9173H341.943ZM338.773 80.7373L340.703 96.1173C340.763 96.5673 341.043 96.9373 341.453 97.1173C341.853 97.2973 342.313 97.2473 342.673 96.9873C348.843 92.5573 368.713 76.9673 368.273 60.4773L338.783 80.7273L338.773 80.7373Z" fill="black"/>
<path d="M319.642 51.0155L306.412 42.6955C305.382 42.0455 305.412 40.5355 306.462 39.9355C313.642 35.7955 336.242 24.1555 350.962 32.0855L319.642 51.0255V51.0155Z" fill="white"/>
<path d="M319.641 51.3571C319.581 51.3571 319.511 51.3371 319.461 51.3071L306.231 42.9871C305.641 42.6171 305.301 41.9871 305.321 41.2871C305.331 40.5971 305.701 39.9771 306.301 39.6271C313.031 35.7471 336.171 23.7071 351.131 31.7771C351.241 31.8371 351.311 31.9471 351.311 32.0771C351.311 32.1971 351.251 32.3171 351.141 32.3771L319.821 51.3171C319.761 51.3471 319.701 51.3671 319.641 51.3671V51.3571ZM339.171 29.7371C326.111 29.7371 311.691 37.3171 306.631 40.2271C306.241 40.4471 306.011 40.8471 306.001 41.2971C306.001 41.7471 306.211 42.1571 306.591 42.3971L319.641 50.6071L350.251 32.0971C346.871 30.4071 343.081 29.7271 339.171 29.7271V29.7371Z" fill="black"/>
<path d="M338.042 84.2578C339.202 84.2978 340.382 83.9978 341.412 83.3478C356.692 73.7178 419.902 32.3478 424.022 4.53776V4.51776C397.242 -3.36224 333.482 37.1478 318.402 47.0878C316.372 48.4278 315.352 50.8778 315.832 53.2778C318.342 65.6678 324.652 75.6077 334.762 83.0878C335.742 83.8078 336.892 84.1978 338.052 84.2378L338.042 84.2578Z" fill="white"/>
<path d="M408.253 30.9184C416.713 21.7184 422.822 12.5684 424.022 4.53838V4.51838C416.212 2.22838 405.273 4.03838 393.312 7.99838C393.312 7.99838 394.313 14.6384 398.793 21.2084C403.623 28.2984 408.263 30.9084 408.263 30.9084L408.253 30.9184Z" fill="#5479F7"/>
<path d="M338.25 84.6091C338.25 84.6091 338.2 84.6091 338.18 84.6091C337.99 84.6091 337.84 84.4491 337.84 84.2591C337.84 84.0691 338 83.9191 338.19 83.9191C338.22 83.9191 338.24 83.9191 338.26 83.9191C339.31 83.9191 340.33 83.6191 341.22 83.0591C351.47 76.5991 386.56 53.7491 407.51 31.0491C407.64 30.9091 407.86 30.8991 408 31.0291C408.14 31.1591 408.15 31.3791 408.02 31.5191C387.01 54.2791 351.86 77.1791 341.59 83.6491C340.59 84.2791 339.44 84.6191 338.26 84.6191L338.25 84.6091Z" fill="black"/>
<path d="M316.203 50.0576C316.203 50.0576 316.113 50.0576 316.063 50.0276C315.883 49.9476 315.803 49.7476 315.883 49.5676C316.373 48.4376 317.173 47.4776 318.203 46.7976C328.303 40.1376 363.533 17.6376 392.713 7.9276C392.893 7.8676 393.093 7.9676 393.153 8.1476C393.213 8.3276 393.113 8.5276 392.933 8.5876C363.833 18.2676 328.673 40.7276 318.593 47.3776C317.683 47.9776 316.963 48.8276 316.533 49.8376C316.473 49.9676 316.353 50.0476 316.213 50.0476L316.203 50.0576Z" fill="black"/>
<path d="M364.163 55.4983C371.359 55.4983 377.193 49.6198 377.193 42.3683C377.193 35.1168 371.359 29.2383 364.163 29.2383C356.967 29.2383 351.133 35.1168 351.133 42.3683C351.133 49.6198 356.967 55.4983 364.163 55.4983Z" fill="white"/>
<path d="M364.193 55.8482C363.233 55.8482 362.273 55.7482 361.323 55.5382C357.823 54.7682 354.833 52.6682 352.903 49.6282C348.933 43.3682 350.753 35.0182 356.963 31.0182C359.963 29.0782 363.533 28.4382 367.023 29.1982C370.523 29.9682 373.513 32.0682 375.443 35.1082C379.413 41.3682 377.593 49.7182 371.383 53.7182C369.203 55.1182 366.723 55.8482 364.203 55.8482H364.193ZM364.143 29.5782C361.753 29.5782 359.403 30.2682 357.333 31.5982C351.443 35.3982 349.713 43.3182 353.483 49.2582C355.313 52.1382 358.143 54.1282 361.463 54.8582C364.763 55.5882 368.153 54.9682 370.993 53.1382C376.883 49.3382 378.613 41.4182 374.843 35.4782C373.013 32.5982 370.183 30.6082 366.863 29.8782C365.953 29.6782 365.043 29.5782 364.143 29.5782Z" fill="black"/>
<path d="M364.164 51.4369C369.135 51.4369 373.164 47.3761 373.164 42.3669C373.164 37.3577 369.135 33.2969 364.164 33.2969C359.193 33.2969 355.164 37.3577 355.164 42.3669C355.164 47.3761 359.193 51.4369 364.164 51.4369Z" fill="#5479F7"/>
<path d="M346.523 78.0386C346.453 78.0386 346.373 78.0186 346.313 77.9686C335.733 69.8586 328.013 57.6986 325.133 44.6286C325.093 44.4386 325.213 44.2586 325.393 44.2186C325.583 44.1786 325.763 44.2986 325.803 44.4786C328.653 57.3986 336.273 69.4086 346.723 77.4186C346.873 77.5386 346.903 77.7486 346.783 77.9086C346.713 77.9986 346.613 78.0486 346.503 78.0486L346.523 78.0386Z" fill="black"/>
<path d="M260.203 115.808C260.083 115.808 259.973 115.748 259.903 115.648C259.803 115.488 259.853 115.268 260.013 115.168L283.223 100.868C283.383 100.768 283.603 100.818 283.703 100.978C283.803 101.138 283.753 101.358 283.593 101.458L260.383 115.758C260.323 115.788 260.263 115.808 260.203 115.808Z" fill="black"/>
<path d="M260.121 96.298C260.001 96.298 259.881 96.238 259.821 96.118C259.731 95.948 259.781 95.738 259.951 95.648L274.271 87.548C274.441 87.458 274.651 87.508 274.741 87.678C274.831 87.848 274.781 88.058 274.611 88.148L260.291 96.248C260.241 96.278 260.181 96.298 260.121 96.298Z" fill="black"/>
<path d="M269.282 78.5161C269.162 78.5161 269.052 78.4561 268.982 78.3461C268.882 78.1861 268.942 77.9661 269.102 77.8761L283.942 69.1661C284.102 69.0661 284.322 69.1261 284.412 69.2861C284.512 69.4461 284.452 69.6661 284.292 69.7561L269.452 78.4661C269.402 78.4961 269.332 78.5161 269.282 78.5161Z" fill="black"/>
<path d="M286.672 115.956C286.552 115.956 286.442 115.896 286.372 115.796C286.272 115.636 286.322 115.416 286.482 115.316L305.482 103.606C305.642 103.506 305.862 103.556 305.962 103.716C306.062 103.876 306.012 104.096 305.852 104.196L286.852 115.906C286.792 115.936 286.732 115.956 286.672 115.956Z" fill="black"/>
<path d="M165.493 124.03H148.873C148.683 124.03 148.523 123.87 148.523 123.68C148.523 123.49 148.683 123.33 148.873 123.33H165.143V102.69C165.143 102.5 165.303 102.34 165.493 102.34C165.683 102.34 165.843 102.5 165.843 102.69V123.68C165.843 123.87 165.683 124.03 165.493 124.03Z" fill="black"/>
<path d="M142.947 127.84C145.239 127.818 147.079 125.941 147.056 123.649C147.033 121.357 145.157 119.518 142.865 119.541C140.573 119.564 138.733 121.44 138.756 123.732C138.779 126.024 140.655 127.863 142.947 127.84Z" fill="#E2EAFF"/>
<path d="M206.191 289.588L220.251 225.558C221.461 220.558 227.751 217.218 232.831 217.948L273.161 223.738C273.161 223.738 277.271 238.178 278.891 242.908C284.561 259.358 285.051 289.428 285.051 289.428L249.371 289.618L206.191 289.588Z" fill="white"/>
<path d="M285.052 289.779C284.862 289.779 284.712 289.629 284.702 289.439C283.872 244.869 272.092 226.939 271.972 226.769C271.862 226.609 271.902 226.399 272.062 226.289C272.222 226.179 272.432 226.219 272.542 226.379C272.662 226.559 284.562 244.619 285.392 289.429C285.392 289.619 285.242 289.779 285.052 289.779Z" fill="black"/>
<path d="M206.23 289.779C206.23 289.779 206.181 289.779 206.161 289.779C205.971 289.739 205.85 289.559 205.89 289.369L217.191 236.879C217.231 236.689 217.421 236.569 217.601 236.609C217.791 236.649 217.91 236.829 217.87 237.019L206.571 289.509C206.541 289.669 206.39 289.779 206.23 289.779Z" fill="black"/>
<path d="M237.262 131.328L248.012 148.708L234.562 154.248L223.832 133.998L237.262 131.328Z" fill="white"/>
<path d="M245.342 144.728C245.222 144.728 245.112 144.668 245.042 144.568L238.052 133.278C237.952 133.118 238.002 132.898 238.162 132.798C238.322 132.698 238.542 132.748 238.642 132.908L245.632 144.198C245.732 144.358 245.682 144.578 245.522 144.678C245.462 144.718 245.402 144.728 245.342 144.728Z" fill="black"/>
<path d="M232.902 150.837C232.782 150.837 232.662 150.777 232.602 150.657L225.522 137.867C225.432 137.697 225.492 137.487 225.662 137.397C225.832 137.307 226.042 137.367 226.132 137.537L233.212 150.327C233.302 150.497 233.242 150.707 233.072 150.797C233.022 150.827 232.962 150.837 232.902 150.837Z" fill="black"/>
<path d="M220.171 107.448C214.701 110.368 213.121 113.938 213.141 118.418C213.151 122.078 215.901 123.028 219.681 121.608C223.101 120.318 226.171 125.938 229.741 125.188C229.531 127.308 231.311 129.048 232.971 130.378C234.621 131.708 236.441 133.048 238.561 133.158C241.881 133.338 244.671 130.278 245.391 127.028C246.101 123.778 246.261 118.068 243.661 115.468C247.761 116.888 250.431 114.828 252.221 112.838C256.031 108.618 252.581 102.828 248.551 98.8079C244.521 94.7879 237.661 93.2079 233.511 97.0879C229.781 100.568 234.121 106.978 234.121 106.978C234.121 106.978 232.441 105.788 228.471 105.368C225.951 105.098 222.931 105.968 220.181 107.438L220.171 107.448Z" fill="black"/>
<path d="M234.952 127.277C234.952 127.277 235.902 125.807 237.512 126.327C239.092 126.847 239.992 128.767 239.622 130.387C239.262 132.017 237.732 133.267 236.082 133.427C235.152 133.517 234.272 133.507 233.382 132.877C232.082 134.537 230.422 135.947 228.462 136.737C226.512 137.527 224.252 137.647 222.302 136.847C219.042 135.507 217.222 131.827 217.052 128.307C216.882 124.777 217.772 122.117 218.952 118.797C218.952 118.797 220.882 114.917 227.102 116.947C228.472 117.397 229.892 117.547 230.142 118.977C230.792 122.597 232.642 127.067 234.952 127.277Z" fill="white"/>
<path d="M225.143 137.746C224.103 137.746 223.083 137.556 222.153 137.176C219.033 135.896 216.893 132.416 216.693 128.326C216.513 124.606 217.533 121.726 218.613 118.676C218.613 118.666 218.623 118.646 218.633 118.636C218.653 118.596 220.773 114.516 227.203 116.616C227.423 116.686 227.633 116.746 227.843 116.806C229.013 117.146 230.223 117.496 230.473 118.906C231.133 122.586 232.903 126.486 234.783 126.886C235.253 126.306 236.283 125.546 237.603 125.976C239.293 126.526 240.363 128.576 239.943 130.446C239.553 132.186 237.933 133.576 236.093 133.756C235.293 133.836 234.363 133.866 233.433 133.316C232.023 135.036 230.353 136.316 228.573 137.036C227.453 137.486 226.273 137.716 225.133 137.716L225.143 137.746ZM219.263 118.936C218.023 122.426 217.233 124.966 217.393 128.296C217.543 131.426 219.163 135.196 222.423 136.536C224.193 137.266 226.343 137.226 228.323 136.426C230.073 135.716 231.723 134.426 233.093 132.676C233.203 132.526 233.413 132.496 233.563 132.606C234.313 133.146 235.063 133.196 236.033 133.096C237.583 132.946 238.943 131.776 239.273 130.326C239.613 128.816 238.733 127.106 237.393 126.666C236.063 126.236 235.243 127.466 235.233 127.476C235.163 127.586 235.043 127.646 234.913 127.636C232.233 127.406 230.383 122.376 229.793 119.056C229.623 118.116 228.873 117.856 227.653 117.496C227.433 117.436 227.213 117.366 226.983 117.296C221.313 115.446 219.393 118.696 219.253 118.956L219.263 118.936Z" fill="black"/>
<path d="M234.532 131.225C234.452 131.225 234.372 131.195 234.312 131.145C234.162 131.025 234.142 130.805 234.262 130.655C234.952 129.815 235.952 129.245 237.022 129.075C237.212 129.045 237.392 129.175 237.422 129.365C237.452 129.555 237.322 129.735 237.132 129.765C236.232 129.905 235.382 130.385 234.802 131.095C234.732 131.175 234.632 131.225 234.532 131.225Z" fill="black"/>
<path d="M139.93 223.729L141.14 222.929C145.67 219.949 150.89 218.159 156.29 217.749L185.58 215.519L185.61 195.219L145.83 197.809C143.07 197.989 140.35 199.099 137.73 199.979L134.46 201.079L127.25 212.959L139.92 223.729H139.93Z" fill="white"/>
<path d="M139.93 224.069C139.85 224.069 139.77 224.039 139.71 223.989L127.04 213.219C126.91 213.109 126.88 212.919 126.97 212.779L134.17 200.899C134.21 200.829 134.28 200.779 134.36 200.749L137.63 199.649C138.08 199.499 138.53 199.339 138.98 199.189C141.19 198.419 143.48 197.619 145.82 197.469L185.6 194.879C185.7 194.879 185.79 194.909 185.86 194.969C185.93 195.039 185.97 195.129 185.97 195.219L185.94 215.519C185.94 215.699 185.8 215.849 185.62 215.859L156.33 218.089C150.99 218.499 145.81 220.269 141.34 223.209L140.13 224.009C140.07 224.049 140.01 224.069 139.94 224.069H139.93ZM127.71 212.879L139.96 223.289L140.95 222.639C145.52 219.629 150.82 217.819 156.27 217.399L185.24 215.189L185.27 195.579L145.86 198.149C143.62 198.299 141.38 199.079 139.21 199.829C138.76 199.989 138.3 200.149 137.86 200.299L134.71 201.359L127.72 212.879H127.71Z" fill="black"/>
<path d="M242.92 140.469C228.36 140.469 219.11 160.129 215.03 171.859L209.33 189.329L159.18 195.439L162.05 219.539L206.39 217.999C208.69 217.769 210.92 217.239 213.04 216.449L216.56 238.709C225.84 229.079 275.91 233.189 275.91 233.189C275.91 233.189 266.64 140.469 242.93 140.469H242.92Z" fill="#5479F7"/>
<path d="M212.739 215.077C212.579 215.077 212.429 214.957 212.399 214.797C212.359 214.597 208.879 194.787 214.429 173.137C214.479 172.947 214.669 172.837 214.849 172.887C215.039 172.937 215.149 173.127 215.099 173.307C209.589 194.807 213.049 214.477 213.089 214.677C213.119 214.867 212.999 215.047 212.809 215.077C212.789 215.077 212.769 215.077 212.749 215.077H212.739Z" fill="black"/>
<path d="M187.858 197.5L212.828 199.14C214.248 199.23 215.338 197.89 214.958 196.51L206.628 166.51C206.388 165.66 205.648 165.05 204.768 165L179.808 163.36C178.388 163.27 177.298 164.61 177.678 165.99L186.008 195.99C186.248 196.84 186.988 197.45 187.868 197.5H187.858Z" fill="black"/>
<path d="M192.468 169.722C191.958 170.172 191.908 170.942 192.358 171.452C192.798 171.962 193.578 172.012 194.078 171.562C194.588 171.112 194.638 170.342 194.188 169.832C193.748 169.322 192.968 169.272 192.468 169.722Z" fill="#5479F7"/>
<path d="M194.509 174.629C194.509 174.629 192.399 174.019 193.389 171.969C194.279 170.119 205.609 166.279 223.929 177.359C225.799 178.489 227.479 179.529 228.999 180.479C227.269 185.239 223.629 194.619 217.509 200.369C213.389 195.009 208.619 189.699 202.929 188.479C192.879 186.339 201.629 184.749 201.629 184.749C201.629 184.749 194.059 184.169 194.169 182.419C194.319 180.099 200.459 180.309 203.049 180.509C203.749 180.579 204.189 180.609 204.189 180.609C204.189 180.609 203.739 180.559 203.049 180.509C200.179 180.219 192.829 179.309 192.249 177.489C191.529 175.209 194.509 174.629 194.509 174.629Z" fill="white"/>
<path d="M205.629 176.048C205.629 176.048 205.569 176.048 205.539 176.038C201.889 175.108 197.869 174.978 195.139 175.038C194.959 175.038 194.789 174.888 194.789 174.698C194.789 174.508 194.939 174.348 195.129 174.348C197.899 174.288 201.989 174.418 205.709 175.368C205.899 175.418 206.009 175.608 205.959 175.788C205.919 175.948 205.779 176.048 205.619 176.048H205.629Z" fill="black"/>
<path d="M242.741 190.34L232.901 144.11C232.901 144.11 237.461 139.49 241.991 140.68C244.901 141.44 252.131 141.34 264.781 168.25C278.951 198.4 282.251 216.5 270.921 224.6C256.141 235.17 233.201 218.41 226.321 211.5C223.331 208.5 220.211 204.01 217.051 199.9C223.171 194.15 226.981 185.07 228.711 180.31C241.391 188.25 242.741 190.35 242.741 190.35V190.34Z" fill="#5479F7"/>
<path d="M260.88 227.941C248.44 227.941 233.88 217.691 227.38 211.171C226.71 210.501 225.98 209.781 225.2 209.031C222.43 206.321 219.28 203.261 216.82 200.041C216.7 199.891 216.73 199.671 216.88 199.551C217.03 199.431 217.25 199.461 217.37 199.611C219.81 202.781 222.93 205.831 225.69 208.521C226.47 209.281 227.21 210.001 227.87 210.671C233.15 215.981 255.81 233.911 270.12 224.701C272.05 223.461 272.69 222.731 273.94 221.211C274.06 221.061 274.28 221.041 274.43 221.161C274.58 221.281 274.6 221.501 274.48 221.651C273.21 223.191 272.51 223.991 270.5 225.291C267.6 227.161 264.32 227.941 260.88 227.941Z" fill="black"/>
<path d="M252.331 198.54C252.251 198.54 252.171 198.51 252.111 198.46L251.941 198.32C242.431 190.53 234.651 184.62 228.811 180.76C228.651 180.65 228.611 180.44 228.711 180.28C228.821 180.12 229.031 180.08 229.191 180.18C235.051 184.05 242.851 189.97 252.371 197.78L252.541 197.92C252.691 198.04 252.711 198.26 252.591 198.41C252.521 198.49 252.421 198.54 252.321 198.54H252.331Z" fill="black"/>
<path d="M128.203 161.397C121.433 159.657 117.843 156.447 115.953 153.657C116.673 151.367 117.383 149.087 118.173 146.837C121.203 138.157 125.803 129.337 133.873 124.947C135.313 124.167 136.923 123.527 138.543 123.717C140.163 123.907 141.753 125.177 141.823 126.817C141.963 130.487 135.603 131.167 134.913 134.767C137.143 132.857 141.213 134.157 141.933 137.007C144.163 137.287 145.793 139.857 145.103 141.997C146.473 143.217 146.983 145.297 146.333 147.017C145.683 148.727 143.923 149.957 142.093 149.967C141.843 153.387 141.453 156.797 140.933 160.177C137.983 161.567 133.523 162.747 128.193 161.387L128.203 161.397Z" fill="white"/>
<path d="M132.932 162.359C131.432 162.359 129.822 162.179 128.112 161.739C121.002 159.919 117.422 156.449 115.662 153.849C115.602 153.759 115.582 153.649 115.622 153.549C116.332 151.279 117.062 148.959 117.842 146.719C121.742 135.549 126.922 128.329 133.702 124.639C134.902 123.989 136.702 123.149 138.582 123.379C140.282 123.579 142.092 124.919 142.162 126.809C142.242 128.919 140.412 130.109 138.642 131.259C137.432 132.039 136.192 132.849 135.582 133.939C136.612 133.459 137.852 133.399 139.082 133.789C140.622 134.279 141.762 135.369 142.192 136.719C143.262 136.929 144.242 137.619 144.892 138.639C145.542 139.669 145.752 140.849 145.482 141.919C146.842 143.249 147.322 145.379 146.652 147.169C145.992 148.929 144.282 150.189 142.412 150.329C142.162 153.619 141.782 156.959 141.272 160.259C141.252 160.369 141.182 160.469 141.082 160.519C139.112 161.449 136.312 162.369 132.932 162.369V162.359ZM128.282 161.069C133.532 162.409 137.862 161.229 140.622 159.959C141.132 156.639 141.512 153.269 141.752 149.959C141.762 149.779 141.912 149.639 142.092 149.639C143.772 149.639 145.412 148.479 146.002 146.909C146.592 145.339 146.112 143.389 144.862 142.269C144.762 142.179 144.722 142.039 144.762 141.899C145.062 140.979 144.892 139.919 144.312 138.999C143.732 138.079 142.842 137.479 141.882 137.359C141.742 137.339 141.622 137.239 141.592 137.099C141.292 135.879 140.272 134.879 138.882 134.439C137.492 133.999 136.092 134.219 135.142 135.039C135.032 135.139 134.872 135.149 134.742 135.079C134.612 135.009 134.552 134.859 134.572 134.719C134.932 132.849 136.632 131.749 138.272 130.679C139.952 129.589 141.542 128.559 141.472 126.839C141.412 125.339 139.882 124.239 138.502 124.069C136.822 123.869 135.152 124.649 134.032 125.259C127.412 128.859 122.332 135.959 118.492 146.959C117.732 149.149 117.012 151.419 116.332 153.609C118.052 156.089 121.512 159.339 128.282 161.079V161.069Z" fill="black"/>
<path d="M129.724 151.6C129.434 151.6 129.134 151.55 128.854 151.43C128.674 151.36 128.594 151.15 128.664 150.98C128.734 150.8 128.944 150.72 129.114 150.79C130.014 151.17 131.074 150.6 131.664 149.85C132.214 149.13 132.504 148.21 132.784 147.32C132.834 147.17 132.884 147.02 132.924 146.87C133.274 145.79 133.764 144.59 134.764 143.85C135.304 143.45 135.924 143.24 136.524 143.03C136.814 142.93 137.094 142.83 137.364 142.72C138.074 142.41 138.844 141.81 138.874 141.04C138.904 140.14 137.924 139.47 137.344 139.15C135.234 138 132.684 137.64 130.344 138.15C128.004 138.66 125.834 140.05 124.384 141.97C124.264 142.12 124.054 142.15 123.894 142.04C123.744 141.92 123.714 141.71 123.824 141.55C125.364 139.5 127.684 138.01 130.184 137.47C132.684 136.92 135.414 137.31 137.664 138.54C138.914 139.22 139.594 140.11 139.564 141.06C139.534 141.99 138.814 142.84 137.634 143.35C137.344 143.48 137.034 143.58 136.744 143.68C136.164 143.88 135.624 144.07 135.164 144.4C134.324 145.02 133.884 146.1 133.574 147.07C133.524 147.22 133.484 147.37 133.434 147.52C133.134 148.47 132.834 149.45 132.204 150.27C131.634 151.01 130.674 151.6 129.704 151.6H129.724Z" fill="black"/>
<path d="M136.211 146.529C135.361 146.529 134.501 146.229 133.941 145.509C133.821 145.359 133.851 145.139 134.001 145.019C134.151 144.899 134.371 144.929 134.491 145.079C135.161 145.929 136.471 145.989 137.361 145.599C138.231 145.229 139.001 144.459 139.731 143.269C140.771 141.549 141.401 139.569 141.531 137.559C141.541 137.369 141.711 137.229 141.901 137.239C142.091 137.249 142.241 137.419 142.221 137.609C142.081 139.729 141.421 141.809 140.321 143.629C139.521 144.949 138.641 145.809 137.631 146.239C137.201 146.419 136.711 146.529 136.211 146.529Z" fill="black"/>
<path d="M139.272 148.709C137.752 148.709 136.312 147.769 135.892 146.439C135.832 146.259 135.932 146.059 136.122 146.009C136.302 145.949 136.502 146.049 136.552 146.239C136.912 147.379 138.252 148.149 139.592 148.009C140.782 147.879 141.972 147.119 142.862 145.909C143.642 144.839 144.122 143.619 144.652 142.139C144.722 141.959 144.912 141.869 145.092 141.929C145.272 141.989 145.362 142.189 145.302 142.369C144.862 143.579 144.322 145.079 143.412 146.309C142.412 147.669 141.042 148.539 139.662 148.689C139.532 148.699 139.402 148.709 139.272 148.709Z" fill="black"/>
<path d="M141.72 150.2C140.69 150.2 139.65 149.67 139.09 148.8C138.99 148.64 139.03 148.42 139.19 148.32C139.35 148.22 139.57 148.26 139.67 148.42C140.2 149.24 141.27 149.67 142.22 149.45C142.41 149.41 142.59 149.52 142.64 149.71C142.68 149.9 142.57 150.08 142.38 150.13C142.16 150.18 141.94 150.21 141.71 150.21L141.72 150.2Z" fill="black"/>
<path d="M68.5437 150.727C69.3637 150.257 72.6837 152.717 73.4937 153.177C77.0337 155.147 80.5637 157.107 84.1037 159.077C92.1337 163.537 100.154 168.007 108.184 172.467C111.854 166.737 113.904 160.197 115.954 153.667C117.844 156.457 121.424 159.677 128.204 161.407C133.524 162.767 137.994 161.597 140.944 160.197C139.354 170.527 136.534 180.657 132.534 190.307C130.664 194.817 128.394 199.407 124.494 202.337C120.594 205.267 115.414 206.167 110.584 205.517C105.754 204.867 100.094 203.047 95.9437 200.487C85.4737 194.017 76.3637 189.137 71.3837 177.887C68.8937 172.267 69.1737 161.057 68.4737 154.947C68.3737 154.107 67.6637 151.247 68.5637 150.727H68.5437Z" fill="white"/>
<path d="M113.542 206.069C112.542 206.069 111.532 205.999 110.522 205.859C105.342 205.159 99.6824 203.209 95.7424 200.779C94.9224 200.269 94.1024 199.769 93.2924 199.279C83.8424 193.489 75.6724 188.489 71.0424 178.029C69.2524 173.989 68.8824 167.269 68.5624 161.349C68.4324 158.989 68.3124 156.759 68.1024 154.989C68.0824 154.839 68.0524 154.629 68.0024 154.379C67.7024 152.659 67.4824 150.929 68.3624 150.429C69.0524 150.029 70.4624 150.799 72.8224 152.339C73.1824 152.569 73.4924 152.779 73.6624 152.869L108.062 171.999C111.612 166.359 113.652 159.849 115.622 153.559C115.662 153.429 115.772 153.339 115.902 153.319C116.032 153.299 116.162 153.359 116.242 153.469C117.932 155.959 121.392 159.309 128.292 161.069C133.652 162.439 138.052 161.179 140.792 159.879C140.912 159.829 141.042 159.839 141.152 159.919C141.252 159.999 141.312 160.119 141.292 160.249C139.702 170.629 136.862 180.779 132.852 190.439C130.962 195.009 128.662 199.639 124.692 202.609C121.702 204.849 117.752 206.059 113.552 206.059L113.542 206.069ZM68.8424 150.999C68.7924 150.999 68.7424 150.999 68.7124 151.029C68.1824 151.329 68.5524 153.459 68.6924 154.269C68.7424 154.539 68.7724 154.759 68.7924 154.919C69.0024 156.709 69.1224 158.949 69.2524 161.319C69.5724 167.189 69.9424 173.839 71.6824 177.759C76.2224 188.019 84.3024 192.969 93.6624 198.699C94.4724 199.189 95.2824 199.689 96.1124 200.199C99.9724 202.589 105.532 204.499 110.622 205.189C115.742 205.879 120.722 204.749 124.282 202.079C128.112 199.209 130.362 194.669 132.212 190.189C136.112 180.779 138.902 170.889 140.502 160.789C137.632 162.029 133.312 163.079 128.122 161.749C121.522 160.059 117.962 156.949 116.082 154.439C114.122 160.669 112.062 167.079 108.482 172.659C108.382 172.809 108.182 172.859 108.022 172.779L73.3324 153.489C73.1424 153.379 72.8424 153.179 72.4524 152.929C70.5124 151.649 69.3024 151.009 68.8524 151.009L68.8424 150.999Z" fill="black"/>
<path d="M103.491 178.228C103.401 178.228 103.311 178.188 103.241 178.118C103.111 177.978 103.111 177.758 103.251 177.628C104.551 176.378 105.741 174.998 106.771 173.528C106.881 173.368 107.101 173.338 107.251 173.448C107.411 173.558 107.441 173.778 107.331 173.928C106.271 175.438 105.051 176.848 103.721 178.128C103.651 178.188 103.571 178.228 103.481 178.228H103.491Z" fill="black"/>
<path d="M70.911 145.226C72.281 145.586 73.341 146.646 73.711 148.016C79.101 168.056 89.531 200.516 94.141 220.786C94.941 224.316 95.491 228.036 94.471 231.506C93.541 234.666 91.361 237.336 88.801 239.406C86.241 241.476 83.301 243.006 80.371 244.526C76.321 235.366 75.161 211.126 71.921 201.646C68.781 192.456 65.641 183.246 63.651 173.746C62.261 167.086 40.271 167.686 40.461 160.876C40.511 158.946 33.601 148.536 34.891 146.946C37.981 143.156 68.241 144.526 70.901 145.216L70.911 145.226Z" fill="white"/>
<path d="M80.3805 244.878C80.3805 244.878 80.3005 244.878 80.2605 244.858C80.1705 244.828 80.1005 244.758 80.0605 244.668C77.8305 239.618 76.4805 230.118 75.1705 220.928C74.0805 213.268 73.0505 206.038 71.6005 201.768C68.5105 192.718 65.3105 183.368 63.3205 173.828C62.6805 170.778 57.1305 169.278 51.7505 167.818C45.7105 166.178 40.0105 164.628 40.1205 160.878C40.1405 160.168 38.9105 157.798 37.7205 155.508C35.3105 150.878 33.8005 147.768 34.6405 146.748C37.9005 142.748 68.5805 144.268 71.0005 144.908C72.4805 145.298 73.6505 146.458 74.0505 147.938C76.1105 155.578 78.8805 164.968 81.8105 174.908C86.6405 191.258 91.6305 208.178 94.4905 220.718C95.2505 224.068 95.8905 227.978 94.8105 231.618C93.9505 234.538 91.9505 237.328 89.0205 239.698C86.4205 241.798 83.4305 243.348 80.5405 244.848C80.4905 244.878 80.4405 244.888 80.3805 244.888V244.878ZM54.2105 144.798C45.6305 144.798 36.6805 145.338 35.1805 147.188C34.5705 147.938 36.8405 152.308 38.3405 155.198C39.8905 158.188 40.8505 160.058 40.8205 160.908C40.7305 164.118 46.4305 165.658 51.9405 167.158C57.5205 168.668 63.2805 170.238 64.0005 173.698C65.9805 183.198 69.1705 192.528 72.2505 201.558C73.7305 205.888 74.7605 213.158 75.8505 220.848C77.1205 229.788 78.4305 239.018 80.5405 244.068C83.3005 242.638 86.1305 241.138 88.5805 239.158C91.4005 236.878 93.3205 234.208 94.1405 231.428C95.1705 227.948 94.5505 224.138 93.8005 220.878C90.9505 208.348 85.9605 191.448 81.1405 175.108C78.2005 165.158 75.4305 155.768 73.3705 148.118C73.0405 146.878 72.0605 145.898 70.8205 145.578C69.5905 145.258 62.0505 144.808 54.2005 144.808L54.2105 144.798Z" fill="black"/>
<path d="M0.351562 289.541C12.9316 255.891 24.6116 226.281 30.6516 215.541L82.6716 213.961C82.6716 213.961 87.1816 246.931 86.9416 289.591L0.351562 289.531V289.541Z" fill="white"/>
<path d="M49.8709 289.941C49.8709 289.941 49.8009 289.941 49.7609 289.921C49.5809 289.861 49.4809 289.661 49.5409 289.481L63.4009 247.211C64.2509 244.631 66.4109 242.651 69.0509 242.041L72.9309 241.141C73.1209 241.101 73.3009 241.211 73.3509 241.401C73.3909 241.591 73.2809 241.771 73.0909 241.821L69.2109 242.721C66.8009 243.281 64.8309 245.081 64.0609 247.431L50.2009 289.701C50.1509 289.851 50.0209 289.941 49.8709 289.941Z" fill="black"/>
<path d="M0.351572 289.889C0.351572 289.889 0.271572 289.889 0.231572 289.869C0.0515722 289.799 -0.0384278 289.599 0.0315722 289.419C14.9516 249.529 25.1516 224.619 30.3516 215.369C30.4116 215.259 30.5216 215.199 30.6416 215.189L82.6616 213.609C82.8416 213.609 82.9916 213.729 83.0116 213.909C83.0616 214.239 87.5116 247.229 87.2816 289.429C87.2816 289.619 87.1216 289.769 86.9316 289.769C86.7416 289.769 86.5816 289.609 86.5916 289.419C86.8116 249.449 82.8216 217.749 82.3716 214.309L30.8616 215.869C25.6516 225.219 15.5016 250.039 0.681572 289.649C0.631572 289.789 0.501572 289.879 0.361572 289.879L0.351572 289.889Z" fill="black"/>
<path d="M38.0039 215.622H81.8439C84.0739 215.622 85.7039 213.492 85.1039 211.332C83.7339 206.372 81.2339 197.322 77.8739 185.222C72.6639 166.462 69.2939 153.262 67.4839 148.872C65.6639 144.482 65.3439 142.112 57.9239 141.782C51.0839 141.482 42.8639 140.432 42.0539 148.162C41.8939 149.662 41.0839 151.022 39.8639 151.912L35.0039 155.512L37.9939 215.602L38.0039 215.622Z" fill="#5479F7"/>
<path d="M54.0436 163.373C53.9436 163.373 53.8536 163.333 53.7836 163.263L46.9236 155.783C46.7936 155.643 46.8036 155.422 46.9436 155.292C47.0836 155.162 47.3036 155.173 47.4336 155.313L53.9836 162.463L59.3936 153.873C59.4436 153.793 59.5236 153.733 59.6136 153.723C59.7036 153.703 59.8036 153.723 59.8836 153.773L67.0336 158.723L68.1036 154.853C68.1536 154.673 68.3436 154.563 68.5336 154.613C68.7136 154.663 68.8236 154.852 68.7736 155.042L67.5736 159.383C67.5436 159.493 67.4636 159.583 67.3536 159.613C67.2436 159.653 67.1336 159.633 67.0336 159.573L59.7836 154.553L54.3236 163.213C54.2636 163.303 54.1736 163.363 54.0636 163.373C54.0536 163.373 54.0436 163.373 54.0336 163.373H54.0436Z" fill="white"/>
<path d="M96.0445 195.342H118.705C125.495 195.342 132.205 196.832 138.355 199.712L132.725 201.792L143.575 220.632C145.395 223.792 141.765 227.432 139.065 225.112C139.005 225.062 138.945 225.002 138.885 224.942C139.555 228.202 135.115 229.042 132.865 226.192C133.475 229.182 129.425 230.672 126.715 227.472C127.705 230.902 122.875 232.262 120.665 228.732C118.335 225.012 111.165 212.742 111.165 212.742H95.6445L96.0545 195.332L96.0445 195.342Z" fill="white"/>
<path d="M124.093 231.164C122.783 231.164 121.343 230.494 120.363 228.934C118.203 225.494 111.833 214.614 110.963 213.104H95.643C95.553 213.104 95.463 213.064 95.393 213.004C95.323 212.934 95.293 212.844 95.293 212.754L95.703 195.344C95.703 195.154 95.863 195.004 96.053 195.004H118.713C125.513 195.004 132.353 196.524 138.513 199.404C138.643 199.464 138.723 199.594 138.713 199.734C138.713 199.874 138.623 199.994 138.483 200.044L133.233 201.984L143.873 220.464C144.953 222.344 144.253 224.374 143.003 225.414C141.873 226.344 140.473 226.444 139.293 225.714C139.253 226.724 138.713 227.534 137.783 227.974C136.573 228.534 134.703 228.374 133.253 227.124C133.153 228.064 132.603 228.854 131.693 229.294C130.503 229.874 128.743 229.784 127.183 228.464C127.153 229.524 126.563 230.424 125.543 230.874C125.113 231.064 124.613 231.174 124.103 231.174L124.093 231.164ZM95.993 212.404H111.163C111.283 212.404 111.403 212.474 111.463 212.574C111.533 212.694 118.653 224.884 120.953 228.554C122.103 230.394 123.993 230.794 125.263 230.224C126.303 229.754 126.723 228.764 126.383 227.574C126.333 227.414 126.413 227.254 126.553 227.174C126.693 227.094 126.873 227.134 126.983 227.254C128.453 228.994 130.263 229.204 131.403 228.654C132.323 228.204 132.753 227.314 132.533 226.264C132.503 226.104 132.583 225.944 132.723 225.884C132.863 225.814 133.043 225.854 133.143 225.984C134.413 227.584 136.333 227.874 137.493 227.334C138.383 226.924 138.763 226.074 138.553 225.014C138.523 224.864 138.593 224.714 138.723 224.644C138.853 224.574 139.023 224.594 139.133 224.694C139.193 224.744 139.243 224.794 139.303 224.844C140.493 225.874 141.773 225.534 142.573 224.874C143.573 224.044 144.223 222.424 143.283 220.804L132.433 201.964C132.383 201.874 132.373 201.774 132.403 201.674C132.433 201.574 132.513 201.504 132.613 201.464L137.453 199.674C131.583 197.064 125.123 195.684 118.713 195.684H96.393L96.003 212.404H95.993Z" fill="black"/>
<path d="M118.553 214.561L112.323 217.251C111.063 217.791 109.613 217.211 109.073 215.961C108.533 214.701 109.113 213.241 110.363 212.701L116.593 210.011C117.853 209.471 119.303 210.051 119.843 211.301C120.383 212.561 119.803 214.021 118.553 214.561Z" fill="white"/>
<path d="M111.343 217.812C110.993 217.812 110.633 217.742 110.303 217.612C109.603 217.332 109.053 216.802 108.753 216.102C108.133 214.672 108.793 213.002 110.223 212.392L116.453 209.702C117.143 209.402 117.913 209.392 118.613 209.672C119.313 209.952 119.863 210.482 120.163 211.182C120.783 212.612 120.123 214.282 118.693 214.892L112.463 217.582C112.103 217.742 111.723 217.812 111.343 217.812ZM117.573 210.152C117.283 210.152 117.003 210.212 116.733 210.332L110.503 213.022C109.423 213.492 108.923 214.742 109.393 215.822C109.623 216.342 110.033 216.752 110.563 216.962C111.093 217.172 111.673 217.162 112.193 216.942L118.423 214.252C119.503 213.782 120.003 212.532 119.533 211.452C119.303 210.932 118.893 210.522 118.363 210.312C118.113 210.212 117.843 210.162 117.573 210.162V210.152Z" fill="black"/>
<path d="M121.034 218.783L114.804 221.473C113.544 222.013 112.094 221.433 111.554 220.183C111.014 218.923 111.594 217.463 112.844 216.923L119.074 214.233C120.334 213.693 121.784 214.273 122.324 215.523C122.864 216.773 122.284 218.243 121.034 218.783Z" fill="white"/>
<path d="M113.823 222.022C113.473 222.022 113.123 221.952 112.783 221.822C112.083 221.542 111.533 221.012 111.233 220.312C110.613 218.882 111.273 217.212 112.703 216.602L118.933 213.912C119.623 213.612 120.393 213.602 121.093 213.882C121.793 214.162 122.343 214.692 122.643 215.392C123.263 216.822 122.603 218.492 121.173 219.102L114.943 221.792C114.583 221.952 114.203 222.022 113.823 222.022ZM120.053 214.372C119.763 214.372 119.483 214.432 119.213 214.552L112.983 217.242C111.903 217.712 111.403 218.962 111.873 220.042C112.103 220.562 112.513 220.972 113.043 221.182C113.573 221.392 114.153 221.382 114.673 221.162L120.903 218.472C121.983 218.002 122.483 216.752 122.013 215.672C121.783 215.152 121.373 214.742 120.843 214.532C120.593 214.432 120.323 214.382 120.053 214.382V214.372Z" fill="black"/>
<path d="M123.873 223.002L117.643 225.692C116.383 226.232 114.933 225.652 114.393 224.402C113.853 223.142 114.433 221.682 115.683 221.142L121.913 218.452C123.173 217.912 124.623 218.492 125.163 219.742C125.703 220.992 125.123 222.462 123.873 223.002Z" fill="white"/>
<path d="M116.663 226.241C116.313 226.241 115.953 226.171 115.623 226.041C114.923 225.761 114.373 225.231 114.073 224.531C113.453 223.101 114.113 221.431 115.543 220.821L121.773 218.131C122.463 217.831 123.233 217.821 123.933 218.101C124.633 218.381 125.183 218.911 125.483 219.611C126.103 221.041 125.443 222.711 124.013 223.321L117.783 226.011C117.423 226.171 117.043 226.241 116.663 226.241ZM122.893 218.591C122.603 218.591 122.323 218.651 122.053 218.771L115.823 221.461C114.743 221.931 114.243 223.181 114.713 224.261C114.943 224.781 115.353 225.191 115.883 225.401C116.413 225.611 116.993 225.601 117.513 225.381L123.743 222.691C124.823 222.221 125.323 220.971 124.853 219.891C124.623 219.371 124.213 218.961 123.683 218.751C123.433 218.651 123.163 218.601 122.903 218.601L122.893 218.591Z" fill="black"/>
<path d="M126.202 226.452L121.072 228.672C120.032 229.122 118.832 228.642 118.392 227.602C117.942 226.562 118.422 225.362 119.462 224.912L124.592 222.692C125.632 222.242 126.832 222.722 127.272 223.762C127.712 224.802 127.242 226.002 126.202 226.452Z" fill="white"/>
<path d="M120.263 229.181C119.963 229.181 119.663 229.121 119.383 229.011C118.793 228.771 118.323 228.321 118.073 227.731C117.553 226.521 118.113 225.111 119.323 224.591L124.453 222.371C125.033 222.121 125.683 222.111 126.283 222.341C126.873 222.581 127.343 223.031 127.593 223.621C128.113 224.831 127.553 226.241 126.343 226.761L121.213 228.981C120.913 229.111 120.593 229.181 120.263 229.181ZM125.403 222.881C125.173 222.881 124.943 222.931 124.733 223.021L119.603 225.241C118.743 225.611 118.353 226.611 118.723 227.471C118.903 227.891 119.233 228.211 119.653 228.381C120.073 228.551 120.533 228.541 120.953 228.361L126.083 226.141C126.943 225.771 127.333 224.771 126.963 223.911C126.783 223.491 126.453 223.171 126.033 223.011C125.833 222.931 125.623 222.891 125.413 222.891L125.403 222.881Z" fill="black"/>
<path d="M136.234 200.484L122.914 204.934C122.914 204.934 122.614 209.784 127.384 208.724C134.094 207.234 135.454 209.944 139.004 210.904C144.784 212.454 147.824 209.284 147.824 209.284L136.244 200.484H136.234Z" fill="white"/>
<path d="M142.115 211.682C141.155 211.682 140.085 211.552 138.905 211.232C137.835 210.942 136.945 210.492 136.095 210.062C134.025 209.012 132.075 208.032 127.455 209.052C125.935 209.392 124.725 209.192 123.875 208.462C122.445 207.242 122.565 204.992 122.565 204.902C122.565 204.762 122.665 204.642 122.805 204.592L136.125 200.142C136.305 200.082 136.505 200.182 136.565 200.362C136.625 200.542 136.525 200.742 136.345 200.802L123.255 205.172C123.265 205.722 123.395 207.142 124.325 207.942C125.005 208.522 126.015 208.672 127.305 208.382C132.165 207.302 134.325 208.382 136.405 209.442C137.265 209.882 138.075 210.292 139.085 210.562C144.605 212.042 147.535 209.072 147.565 209.042C147.695 208.902 147.915 208.902 148.055 209.032C148.195 209.162 148.195 209.382 148.065 209.522C147.965 209.632 145.935 211.682 142.115 211.682Z" fill="black"/>
<path d="M26.8636 158.852C29.1436 156.562 31.3936 155.462 32.1436 152.312C32.6436 150.202 32.7536 147.152 34.9136 146.962C34.9136 146.962 39.2636 146.482 42.2636 151.502C43.7636 154.022 44.2036 157.012 44.6036 159.922C47.1736 178.822 49.1536 207.742 45.6836 226.492C45.1836 229.182 43.1836 240.512 37.1736 243.392C33.3336 245.232 28.4936 244.842 24.2436 244.842C19.9936 244.842 4.96358 246.392 3.83358 243.402C3.61358 242.812 2.90358 242.432 2.97358 240.962C4.94358 232.092 12.0036 203.702 17.0536 186.332C20.6236 174.052 23.3036 162.422 26.8636 158.862V158.852Z" fill="white"/>
<path d="M8.34325 245.433C7.95325 245.433 7.58325 245.433 7.22325 245.433C5.82325 245.433 4.52325 244.803 3.64325 243.713C2.76325 242.623 2.43325 241.213 2.73325 239.833C6.15325 224.133 21.1132 167.183 25.8032 159.473C26.5332 158.273 27.6032 157.323 28.6332 156.413C30.0532 155.153 31.3932 153.963 31.8132 152.233C31.9032 151.853 31.9832 151.453 32.0632 151.033C32.4432 149.053 32.8632 146.803 34.8932 146.623C35.0232 146.603 38.3432 146.283 41.2432 149.513C41.3732 149.653 41.3632 149.873 41.2132 150.003C41.0732 150.133 40.8532 150.123 40.7232 149.973C38.0732 147.023 34.9932 147.313 34.9632 147.313C33.4432 147.443 33.0933 149.333 32.7432 151.163C32.6632 151.593 32.5833 152.003 32.4932 152.403C32.0333 154.343 30.5432 155.663 29.1032 156.943C28.1032 157.823 27.0732 158.743 26.4032 159.853C21.7432 167.513 6.83325 224.323 3.42325 240.003C3.17325 241.163 3.45325 242.373 4.20325 243.293C4.95325 244.223 6.05325 244.753 7.24325 244.753C14.8732 244.753 28.1432 244.733 31.1132 244.523C36.1133 244.173 40.0132 242.093 41.5532 238.933C42.5832 236.813 48.0232 219.503 47.9432 217.003C47.9432 216.813 48.0932 216.653 48.2832 216.643H48.2932C48.4832 216.643 48.6332 216.793 48.6432 216.983C48.7232 219.633 43.2532 237.023 42.1832 239.233C39.8132 244.103 33.6932 245.033 31.1732 245.213C28.3132 245.413 16.1332 245.443 8.37325 245.443L8.34325 245.433Z" fill="black"/>
<path d="M42.1347 161.184L64.9747 194.484H105.205V221.014L60.8447 223.584C60.7147 223.584 60.5847 223.594 60.4647 223.594C51.8747 223.534 43.8547 219.304 38.9347 212.244L25.5247 192.964C17.4247 181.314 22.0147 165.164 35.0347 159.534L35.5847 159.294C37.9347 158.274 40.6847 159.064 42.1347 161.184Z" fill="white"/>
<path d="M48.8264 221.145C48.7764 221.145 48.7264 221.135 48.6764 221.105C44.6764 219.105 41.2164 216.105 38.6664 212.435L24.0464 191.425C23.9364 191.265 23.9764 191.055 24.1364 190.945C24.2964 190.835 24.5064 190.875 24.6164 191.035L39.2364 212.045C41.7264 215.625 45.0964 218.545 48.9864 220.495C49.1564 220.585 49.2264 220.785 49.1464 220.965C49.0864 221.085 48.9664 221.155 48.8364 221.155L48.8264 221.145Z" fill="black"/>
<path d="M60.6719 223.933C51.8819 223.933 43.6619 219.633 38.6519 212.433C38.5419 212.273 38.5819 212.063 38.7419 211.953C38.9019 211.843 39.1119 211.883 39.2219 212.043C44.1019 219.063 52.1119 223.253 60.6519 223.253L104.862 220.693V194.833H81.0119C80.8219 194.833 80.6619 194.673 80.6619 194.483C80.6619 194.293 80.8219 194.133 81.0119 194.133H105.212C105.402 194.133 105.562 194.293 105.562 194.483V221.013C105.562 221.193 105.422 221.353 105.232 221.363L60.6819 223.943L60.6719 223.933Z" fill="black"/>
<path d="M41.1418 116.09C41.6718 114.27 46.5118 108.63 48.0018 107.47C49.4918 106.31 51.8018 106.02 53.2418 107.24C56.6618 104.89 61.2518 104.14 65.1018 105.68C68.9518 107.22 71.8318 111.18 71.7218 115.34C71.6118 119.5 63.8118 116.16 64.1018 123.81C63.4418 127.42 60.0618 130.15 56.4418 130.71C53.1718 131.22 47.4418 129.84 45.5418 126.57C43.4418 122.96 39.8218 120.63 41.1418 116.08V116.09Z" fill="black"/>
<path d="M62.4134 136.901L59.7034 154.051C59.7034 154.051 47.2634 146.301 47.1634 146.171C47.0634 146.041 49.2834 131.451 49.2834 131.451C49.2834 131.451 52.1634 126.631 62.4034 136.891L62.4134 136.901Z" fill="white"/>
<path d="M66.9629 121.479C66.9629 121.479 71.6129 133.739 66.9629 137.689C64.2029 140.029 55.4929 141.259 49.9229 132.829C49.9229 132.829 46.0629 133.019 45.1829 129.069C44.3029 125.119 46.2729 123.629 49.4629 126.409C49.4629 126.409 53.3229 128.379 52.0529 122.899C51.5029 120.519 53.5329 118.339 57.9829 117.049C66.0329 114.719 65.2929 116.759 66.9629 121.479Z" fill="white"/>
<path d="M61.2122 139.769C60.6322 139.769 60.0422 139.729 59.4322 139.639C56.7322 139.259 52.8722 137.819 49.7322 133.169C48.8822 133.139 45.6522 132.789 44.8422 129.139C44.3722 127.029 44.6722 125.469 45.6722 124.879C46.6422 124.299 48.0622 124.739 49.6522 126.119C50.0222 126.299 50.9822 126.619 51.5022 126.209C51.8722 125.919 52.2122 125.119 51.7122 122.979C51.0922 120.319 53.3422 118.039 57.8922 116.719C64.8522 114.709 65.5522 115.809 66.7222 119.609C66.8822 120.129 67.0622 120.729 67.2922 121.359C67.5022 121.919 71.9522 133.899 67.1922 137.949C66.0422 138.929 63.8522 139.759 61.2222 139.759L61.2122 139.769ZM49.9222 132.479C50.0422 132.479 50.1522 132.539 50.2122 132.639C53.2222 137.189 56.9422 138.589 59.5322 138.959C62.7322 139.419 65.4522 138.519 66.7422 137.429C71.1522 133.689 66.6922 121.729 66.6422 121.609C66.4122 120.959 66.2322 120.359 66.0622 119.829C65.0322 116.489 64.7222 115.479 58.0922 117.399C53.9522 118.599 51.8822 120.579 52.4022 122.829C52.8722 124.859 52.7222 126.149 51.9422 126.759C50.9422 127.539 49.3822 126.759 49.3222 126.719C49.2922 126.709 49.2722 126.689 49.2522 126.669C47.9122 125.499 46.7422 125.059 46.0522 125.479C45.3422 125.899 45.1522 127.219 45.5422 128.989C46.3422 132.599 49.7722 132.489 49.9222 132.479C49.9222 132.479 49.9322 132.479 49.9422 132.479H49.9222Z" fill="black"/>
<path d="M50.0037 130.578C49.8837 130.578 49.7638 130.518 49.7038 130.408C49.2038 129.538 48.2038 128.958 47.2038 128.958C47.2038 128.958 47.2037 128.958 47.1937 128.958C47.0037 128.958 46.8438 128.808 46.8438 128.608C46.8438 128.418 46.9937 128.258 47.1937 128.258H47.2038C48.4638 128.258 49.6837 128.968 50.3037 130.058C50.4037 130.228 50.3437 130.438 50.1737 130.528C50.1237 130.558 50.0637 130.578 50.0037 130.578Z" fill="black"/>
<path d="M48.1236 141.62L47.4336 141.52C47.4336 141.52 48.2036 136.3 48.7436 132.72C48.7736 132.53 48.9436 132.4 49.1336 132.43C49.3236 132.46 49.4536 132.64 49.4236 132.82C48.8836 136.4 48.1136 141.62 48.1136 141.62H48.1236Z" fill="black"/>
<path d="M61.6334 142.169C61.6334 142.169 61.5934 142.169 61.5834 142.169C61.3934 142.139 61.2634 141.959 61.2934 141.769L61.6734 139.369C61.7034 139.179 61.8834 139.049 62.0734 139.079C62.2634 139.109 62.3934 139.289 62.3634 139.479L61.9834 141.879C61.9534 142.049 61.8134 142.169 61.6434 142.169H61.6334Z" fill="black"/>
<path d="M197.761 100.803C222.562 95.0221 237.969 70.1784 232.174 45.3128C226.378 20.4471 201.575 4.97556 176.774 10.7561C151.972 16.5366 136.565 41.3803 142.361 66.2459C148.157 91.1116 172.96 106.583 197.761 100.803Z" fill="white"/>
<path d="M187.404 102.378C185.464 102.378 183.514 102.258 181.564 102.018C169.234 100.478 158.234 94.2182 150.604 84.3782C134.864 64.0982 138.494 34.7882 158.714 19.0282C168.494 11.4082 180.654 8.04818 192.954 9.58818C205.284 11.1282 216.284 17.3882 223.914 27.2282C239.654 47.5082 236.024 76.8182 215.804 92.5782C207.574 98.9882 197.664 102.378 187.394 102.378H187.404ZM187.114 9.91818C177.004 9.91818 167.234 13.2582 159.134 19.5782C139.224 35.0982 135.644 63.9782 151.144 83.9582C158.664 93.6482 169.494 99.8182 181.644 101.338C193.764 102.848 205.744 99.5482 215.374 92.0382C235.284 76.5182 238.864 47.6382 223.364 27.6582C215.844 17.9682 205.014 11.7982 192.864 10.2782C190.944 10.0382 189.024 9.91818 187.114 9.91818Z" fill="black"/>
<path d="M165.492 7.13091C187.322 -2.87909 213.942 3.01091 229.392 22.7909L187.322 55.5909C187.322 55.5909 169.212 15.1509 165.492 7.13091Z" fill="white"/>
<path d="M187.322 55.9303C187.322 55.9303 187.262 55.9303 187.242 55.9203C187.142 55.8903 187.052 55.8203 187.012 55.7303C186.832 55.3303 168.862 15.2003 165.192 7.28033C165.152 7.20033 165.152 7.10033 165.182 7.01033C165.212 6.92033 165.282 6.85033 165.362 6.82033C176.092 1.90033 188.372 0.710333 199.932 3.46033C211.832 6.29033 222.122 12.9103 229.682 22.5903C229.742 22.6603 229.762 22.7503 229.752 22.8503C229.742 22.9403 229.692 23.0203 229.622 23.0803L187.552 55.8803C187.492 55.9303 187.412 55.9503 187.342 55.9503L187.322 55.9303ZM165.952 7.30033C169.712 15.4503 185.572 50.8503 187.452 55.0403L228.902 22.7303C213.822 3.67033 188.032 -2.64967 165.952 7.30033Z" fill="black"/>
<path d="M237.242 55.3828C237.492 68.8028 232.252 81.5728 223.172 90.9228C214.482 82.3628 187.762 55.9728 187.762 55.9728C187.762 55.9728 229.012 55.5728 237.232 55.3928L237.242 55.3828Z" fill="white"/>
<path d="M223.172 91.2712C223.082 91.2712 222.992 91.2313 222.932 91.1712C214.342 82.7113 187.792 56.4813 187.522 56.2113C187.422 56.1113 187.392 55.9613 187.442 55.8313C187.492 55.7013 187.622 55.6113 187.762 55.6113C188.172 55.6113 229.102 55.2113 237.232 55.0312C237.322 55.0312 237.412 55.0613 237.482 55.1313C237.552 55.2013 237.582 55.2813 237.592 55.3713C237.832 68.6012 232.672 81.6413 223.422 91.1513C223.362 91.2213 223.272 91.2513 223.182 91.2513L223.172 91.2712ZM188.602 56.3013C192.552 60.2013 215.072 82.4513 223.162 90.4212C232.052 81.1413 237.042 68.5413 236.892 55.7313C228.722 55.9013 194.402 56.2413 188.592 56.3013H188.602Z" fill="black"/>
<path d="M143.495 102.702C156.44 102.702 166.935 92.1938 166.935 79.2317C166.935 66.2696 156.44 55.7617 143.495 55.7617C130.549 55.7617 120.055 66.2696 120.055 79.2317C120.055 92.1938 130.549 102.702 143.495 102.702Z" fill="white"/>
<path d="M143.493 103.05C130.373 103.05 119.703 92.3702 119.703 79.2302C119.703 66.0902 130.373 55.4102 143.493 55.4102C156.613 55.4102 167.283 66.0902 167.283 79.2302C167.283 92.3702 156.613 103.05 143.493 103.05ZM143.493 56.1002C130.763 56.1002 120.403 66.4702 120.403 79.2202C120.403 91.9702 130.763 102.34 143.493 102.34C156.223 102.34 166.583 91.9702 166.583 79.2202C166.583 66.4702 156.223 56.1002 143.493 56.1002Z" fill="black"/>
<path d="M149.596 102.702C162.542 102.702 173.036 92.1938 173.036 79.2317C173.036 66.2696 162.542 55.7617 149.596 55.7617C136.651 55.7617 126.156 66.2696 126.156 79.2317C126.156 92.1938 136.651 102.702 149.596 102.702Z" fill="white"/>
<path d="M149.595 103.05C136.475 103.05 125.805 92.3702 125.805 79.2302C125.805 66.0902 136.475 55.4102 149.595 55.4102C162.715 55.4102 173.385 66.0902 173.385 79.2302C173.385 92.3702 162.715 103.05 149.595 103.05ZM149.595 56.1002C136.865 56.1002 126.505 66.4702 126.505 79.2202C126.505 91.9702 136.865 102.34 149.595 102.34C162.325 102.34 172.685 91.9702 172.685 79.2202C172.685 66.4702 162.325 56.1002 149.595 56.1002Z" fill="black"/>
<path d="M155.495 102.702C168.44 102.702 178.935 92.1938 178.935 79.2317C178.935 66.2696 168.44 55.7617 155.495 55.7617C142.549 55.7617 132.055 66.2696 132.055 79.2317C132.055 92.1938 142.549 102.702 155.495 102.702Z" fill="white"/>
<path d="M155.493 103.05C142.373 103.05 131.703 92.3702 131.703 79.2302C131.703 66.0902 142.373 55.4102 155.493 55.4102C168.613 55.4102 179.283 66.0902 179.283 79.2302C179.283 92.3702 168.613 103.05 155.493 103.05ZM155.493 56.1002C142.763 56.1002 132.403 66.4702 132.403 79.2202C132.403 91.9702 142.763 102.34 155.493 102.34C168.223 102.34 178.583 91.9702 178.583 79.2202C178.583 66.4702 168.223 56.1002 155.493 56.1002Z" fill="black"/>
<path d="M155.496 97.6813C165.675 97.6813 173.926 89.4209 173.926 79.2313C173.926 69.0416 165.675 60.7812 155.496 60.7812C145.318 60.7812 137.066 69.0416 137.066 79.2313C137.066 89.4209 145.318 97.6813 155.496 97.6813Z" fill="white"/>
<path d="M155.495 98.0297C145.145 98.0297 136.715 89.5997 136.715 79.2297C136.715 68.8597 145.135 60.4297 155.495 60.4297C165.855 60.4297 174.275 68.8597 174.275 79.2297C174.275 89.5997 165.855 98.0297 155.495 98.0297ZM155.495 61.1197C145.525 61.1197 137.415 69.2397 137.415 79.2297C137.415 89.2197 145.525 97.3397 155.495 97.3397C165.465 97.3397 173.575 89.2197 173.575 79.2297C173.575 69.2397 165.465 61.1197 155.495 61.1197Z" fill="black"/>
<path d="M160.452 81.3387C160.262 80.8687 159.982 80.4387 159.592 80.0587C159.212 79.6787 158.732 79.3388 158.152 79.0488C157.582 78.7588 156.752 78.4287 155.682 78.0687C154.622 77.7087 153.792 77.3388 153.202 76.9788C152.622 76.6188 152.212 76.2287 151.962 75.7887C151.712 75.3587 151.592 74.7588 151.592 74.0088C151.592 72.9588 151.972 72.0887 152.712 71.4287C153.452 70.7687 154.462 70.4287 155.702 70.4287C156.942 70.4287 158.002 70.8288 158.732 71.6188C159.472 72.4088 159.842 73.4687 159.842 74.7787C159.842 74.8187 159.872 74.8587 159.922 74.8587H160.552C160.552 74.8587 160.632 74.8287 160.632 74.7787C160.632 73.2487 160.232 72.0187 159.442 71.1287C158.662 70.2487 157.552 69.7587 156.132 69.6687V67.5488C156.132 67.5488 156.102 67.4688 156.052 67.4688H155.412C155.412 67.4688 155.332 67.4988 155.332 67.5488V69.6687C154.012 69.7287 152.912 70.1488 152.082 70.9088C151.232 71.6888 150.802 72.7487 150.802 74.0387C150.802 74.8287 150.952 75.5187 151.242 76.0687C151.532 76.6287 151.982 77.1187 152.582 77.5387C153.182 77.9487 154.122 78.3787 155.372 78.8187C156.612 79.2487 157.572 79.6588 158.202 80.0488C158.832 80.4288 159.282 80.8487 159.542 81.3087C159.802 81.7587 159.932 82.3387 159.932 83.0387C159.932 84.0387 159.542 84.8988 158.762 85.5788C157.982 86.2688 156.982 86.6188 155.772 86.6188C154.312 86.6188 153.142 86.2288 152.302 85.4688C151.462 84.7087 151.032 83.6387 151.032 82.2787C151.032 82.2387 151.002 82.1987 150.952 82.1987H150.322C150.322 82.1987 150.242 82.2287 150.242 82.2787C150.242 83.8387 150.712 85.0788 151.622 85.9688C152.522 86.8487 153.812 87.3288 155.442 87.3988V89.5187C155.442 89.5187 155.472 89.5987 155.522 89.5987H156.172C156.172 89.5987 156.252 89.5687 156.252 89.5187V87.3887C157.592 87.2987 158.682 86.8687 159.482 86.0987C160.302 85.3187 160.722 84.2787 160.722 83.0187C160.722 82.3887 160.632 81.8287 160.442 81.3587L160.452 81.3387Z" fill="black"/>
<path d="M30.2128 63.5239C32.5047 63.5011 34.3441 61.6247 34.3213 59.3329C34.2985 57.041 32.4221 55.2015 30.1303 55.2243C27.8384 55.2471 25.999 57.1236 26.0218 59.4154C26.0446 61.7073 27.921 63.5467 30.2128 63.5239Z" fill="#E2EAFF"/>
<path d="M30.2352 75.6341C32.5271 75.6181 34.3721 73.7472 34.3561 71.4552C34.3401 69.1633 32.4692 67.3183 30.1772 67.3343C27.8853 67.3503 26.0403 69.2213 26.0563 71.5132C26.0723 73.8051 27.9433 75.6501 30.2352 75.6341Z" fill="#E2EAFF"/>
<path d="M30.2831 87.7544C32.575 87.7316 34.4145 85.8552 34.3917 83.5633C34.3689 81.2715 32.4924 79.432 30.2006 79.4548C27.9087 79.4776 26.0693 81.354 26.0921 83.6459C26.1149 85.9378 27.9913 87.7772 30.2831 87.7544Z" fill="#E2EAFF"/>
<path d="M30.2406 52.5495C30.0506 52.5495 29.8906 52.3895 29.8906 52.1995V34.8695C29.8906 34.6795 30.0506 34.5195 30.2406 34.5195H84.9206C85.1106 34.5195 85.2706 34.6795 85.2706 34.8695C85.2706 35.0595 85.1106 35.2195 84.9206 35.2195H30.5906V52.1995C30.5906 52.3895 30.4306 52.5495 30.2406 52.5495Z" fill="black"/>
</svg>
