<svg width="417" height="730" viewBox="0 0 417 730" fill="none" xmlns="http://www.w3.org/2000/svg">
<g filter="url(#filter0_d_2_74612)">
<path d="M350.991 718.03L64.3605 718.45C33.6105 718.5 8.41054 693.64 8.37054 663.19L7.48054 59.9901C7.43054 28.9401 32.8305 3.47007 63.9205 3.43007L353.721 3.00007C384.811 2.95007 410.131 28.3401 409.981 59.4001L407.151 662.61C407.011 693.06 381.731 717.99 350.981 718.04L350.991 718.03Z" fill="white"/>
<path d="M406.901 662.609C406.762 692.719 381.927 717.412 351.587 717.786L351.594 717.779L350.99 717.78L64.3602 718.2C33.7458 718.25 8.66036 693.499 8.62054 663.19L7.73054 59.9897L7.73054 59.9897C7.68076 29.0779 32.9688 3.7199 63.9209 3.68007L63.9209 3.68007L353.721 3.25007C384.672 3.2003 409.88 28.4777 409.731 59.3989L406.901 662.609Z" stroke="#DEDEDE" stroke-width="0.5"/>
</g>
<path d="M350.991 718.03L64.3605 718.45C33.6105 718.5 8.41054 693.64 8.37054 663.19L7.48054 59.9901C7.43054 28.9401 32.8305 3.47007 63.9205 3.43007L353.721 3.00007C384.811 2.95007 410.131 28.3401 409.981 59.4001L407.151 662.61C407.011 693.06 381.731 717.99 350.981 718.04L350.991 718.03Z" stroke="url(#paint0_linear_2_74612)" stroke-width="0.25" stroke-miterlimit="10"/>
<path d="M209.971 669.28H207.501C193.031 669.28 181.201 657.45 181.201 642.98C181.201 628.52 193.041 616.68 207.501 616.68H209.971C224.441 616.68 236.271 628.51 236.271 642.98C236.271 657.44 224.441 669.28 209.971 669.28Z" stroke="url(#paint1_linear_2_74612)" stroke-width="0.5" stroke-linecap="round" stroke-linejoin="round"/>
<path d="M242.43 54.9316H175.04C173.23 54.9316 171.75 53.4516 171.75 51.6416C171.75 49.8316 173.23 48.3516 175.04 48.3516H242.43C244.24 48.3516 245.72 49.8316 245.72 51.6416C245.72 53.4516 244.24 54.9316 242.43 54.9316Z" stroke="url(#paint2_linear_2_74612)" stroke-width="0.5" stroke-linecap="round" stroke-linejoin="round"/>
<path d="M386.89 125.891H30.5799C27.454 125.891 24.9199 128.425 24.9199 131.551V551.721C24.9199 554.847 27.454 557.381 30.5799 557.381H386.89C390.016 557.381 392.55 554.847 392.55 551.721V131.551C392.55 128.425 390.016 125.891 386.89 125.891Z" fill="white"/>
<path d="M63.2302 148.301V175.461L59.1602 171.391V152.361L63.2302 148.301Z" fill="#5148E9"/>
<path d="M78.9905 157.48V158.86C78.9905 159.21 78.8505 159.56 78.6105 159.81C78.3605 160.06 78.0205 160.21 77.6705 160.21H66.8105V156.16H77.6705C77.9005 156.16 78.1205 156.22 78.3105 156.33C78.5205 156.44 78.6905 156.61 78.8105 156.81C78.9305 157.01 78.9905 157.24 79.0005 157.48H78.9905Z" fill="#5148E9"/>
<path d="M78.9908 164.57V165.95C78.9908 166.12 78.9608 166.3 78.8908 166.46C78.8208 166.62 78.7308 166.77 78.6008 166.89C78.4808 167.01 78.3308 167.11 78.1708 167.18C78.0108 167.25 77.8408 167.28 77.6608 167.28H66.8008V163.23H77.6608C77.8408 163.23 78.0108 163.27 78.1708 163.33C78.3308 163.4 78.4808 163.5 78.6008 163.62C78.7208 163.74 78.8208 163.89 78.8908 164.05C78.9608 164.21 78.9908 164.39 78.9908 164.56V164.57Z" fill="#5148E9"/>
<path d="M86.3202 152.339H59.1602L63.2302 148.289H82.2502L84.2902 150.319L86.3202 152.339Z" fill="#5148E9"/>
<path d="M86.3202 171.391L82.2502 175.451V175.441H63.2302V175.451L59.1602 171.391H86.3202Z" fill="#5148E9"/>
<path d="M86.3407 166.172V171.392H86.3307H86.3207L82.2407 175.452H82.2207V175.462V166.172H86.3407Z" fill="#5148E9"/>
<path d="M86.3407 152.359V157.559H82.2207V148.289L84.2907 150.329L86.3407 152.359Z" fill="#5148E9"/>
<path d="M339.92 487.43H77.0404C67.0219 487.43 58.9004 495.551 58.9004 505.57V506.66C58.9004 516.678 67.0219 524.8 77.0404 524.8H339.92C349.939 524.8 358.06 516.678 358.06 506.66V505.57C358.06 495.551 349.939 487.43 339.92 487.43Z" fill="#3F6DEE"/>
<path d="M245.87 508.729V511.589H244.37V500.179H245.87V507.259L249.85 503.669H251.73L248.09 506.909L251.89 511.579H250.12L246.97 507.739L245.87 508.719V508.729ZM235.03 507.639C235.03 505.119 236.7 503.459 239.09 503.459C241.48 503.459 242.66 505.019 242.82 506.919L241.5 507.009C241.37 505.619 240.54 504.669 239.07 504.669C237.6 504.669 236.57 505.809 236.57 507.639C236.57 509.469 237.58 510.609 239.07 510.609C240.56 510.609 241.37 509.609 241.5 508.219L242.82 508.349C242.66 510.269 241.41 511.809 239.09 511.809C236.77 511.809 235.03 510.159 235.03 507.639ZM227.65 507.029H232.38C232.33 505.759 231.62 504.599 230.12 504.599C228.62 504.599 227.84 505.719 227.66 507.029H227.65ZM232.63 508.779L233.88 508.919C233.48 510.709 232.16 511.799 230.19 511.799C227.84 511.799 226.11 510.209 226.11 507.739C226.11 505.269 227.83 503.449 230.11 503.449C232.63 503.449 233.91 505.239 233.91 507.399V507.999H227.61C227.68 509.539 228.79 510.629 230.2 510.629C231.52 510.629 232.3 509.999 232.63 508.779ZM219.14 507.049V511.599H217.64V500.189H219.14V505.099C219.52 504.139 220.59 503.469 221.77 503.469C223.83 503.469 224.67 504.849 224.67 506.689V511.599H223.17V506.819C223.17 505.499 222.54 504.659 221.29 504.659C220.04 504.659 219.15 505.599 219.15 507.049H219.14ZM205.12 505.889C205.12 502.379 207.57 499.969 210.72 499.969C213.87 499.969 215.83 501.979 216.04 504.909L214.52 504.979C214.39 502.879 213.07 501.299 210.72 501.299C208.37 501.299 206.74 503.069 206.74 505.879C206.74 508.689 208.41 510.459 210.72 510.459C213.03 510.459 214.4 508.879 214.52 506.779L216.04 506.849C215.82 509.779 213.98 511.789 210.72 511.789C207.46 511.789 205.12 509.379 205.12 505.869V505.889ZM198.76 511.589V509.939C198.4 510.919 197.4 511.809 195.92 511.809C193.57 511.809 192.3 509.979 192.3 507.639C192.3 505.299 193.57 503.459 195.92 503.459C197.41 503.459 198.4 504.369 198.76 505.339V500.179H200.26V511.589H198.76ZM198.78 507.859V507.409C198.78 505.689 197.69 504.679 196.26 504.679C194.7 504.679 193.83 505.839 193.83 507.649C193.83 509.459 194.7 510.619 196.26 510.619C197.69 510.619 198.78 509.609 198.78 507.869V507.859ZM185.32 507.049V511.599H183.82V503.679H185.32V505.089C185.7 504.129 186.77 503.459 187.95 503.459C190.01 503.459 190.85 504.839 190.85 506.679V511.589H189.35V506.809C189.35 505.489 188.72 504.649 187.47 504.649C186.22 504.649 185.33 505.589 185.33 507.039L185.32 507.049ZM175.99 507.029H180.72C180.67 505.759 179.96 504.599 178.46 504.599C176.96 504.599 176.18 505.719 176 507.029H175.99ZM180.97 508.779L182.22 508.919C181.82 510.709 180.5 511.799 178.53 511.799C176.18 511.799 174.45 510.209 174.45 507.739C174.45 505.269 176.17 503.449 178.45 503.449C180.97 503.449 182.25 505.239 182.25 507.399V507.999H175.95C176.02 509.539 177.13 510.629 178.54 510.629C179.86 510.629 180.64 509.999 180.97 508.779ZM164.1 507.519L165.51 507.429C165.6 509.509 167.03 510.579 168.95 510.579C170.65 510.579 171.72 509.859 171.72 508.609C171.72 507.559 171.03 507.049 169.55 506.759L167.29 506.329C165.61 505.999 164.45 505.099 164.45 503.319C164.45 501.329 166.03 499.969 168.53 499.969C171.39 499.969 173.04 501.489 173.06 504.059L171.63 504.129C171.58 502.249 170.43 501.179 168.55 501.179C166.9 501.179 165.98 501.959 165.98 503.229C165.98 504.349 166.72 504.719 168.04 504.969L170.1 505.369C172.18 505.769 173.23 506.669 173.23 508.499C173.23 510.599 171.42 511.809 168.96 511.809C166.15 511.809 164.11 510.269 164.11 507.519H164.1Z" fill="white"/>
<path d="M132.11 361.332V363.482H130.98V354.922H132.11V360.232L135.1 357.542H136.51L133.78 359.972L136.63 363.472H135.3L132.94 360.592L132.11 361.322V361.332ZM130.14 357.652L130.03 358.672C129.7 358.492 129.47 358.432 129.11 358.432C128.25 358.432 127.62 359.202 127.62 360.352V363.492H126.49V357.552H127.62V358.762C127.84 358.082 128.45 357.392 129.3 357.392C129.67 357.392 129.94 357.492 130.14 357.662V357.652ZM125.32 360.522C125.32 362.372 124.03 363.642 122.28 363.642C120.53 363.642 119.26 362.362 119.26 360.522C119.26 358.682 120.54 357.382 122.28 357.382C124.02 357.382 125.32 358.672 125.32 360.522ZM120.41 360.522C120.41 361.842 121.08 362.772 122.27 362.772C123.46 362.772 124.16 361.832 124.16 360.522C124.16 359.212 123.48 358.262 122.27 358.262C121.06 358.262 120.41 359.182 120.41 360.522ZM115.04 357.542L116.32 362.042H116.37L117.74 357.542H118.79L116.9 363.482H115.81L114.55 359.052H114.5L113.25 363.482H112.16L110.26 357.542H111.39L112.79 362.042H112.84L114.09 357.542H115.04ZM104.55 362.092V358.352H103.65V357.742L104.03 357.672C104.59 357.562 104.71 357.292 104.85 356.722L105.03 355.892H105.67V357.532H107.34V358.342H105.67V361.942C105.67 362.472 105.89 362.712 106.4 362.712C106.78 362.712 107.17 362.552 107.51 362.362V363.122C107.08 363.452 106.64 363.622 105.99 363.622C105.15 363.622 104.55 363.232 104.55 362.072V362.092ZM97.3398 360.522C97.3398 358.632 98.5898 357.382 100.38 357.382C102.17 357.382 103.06 358.552 103.18 359.972L102.19 360.042C102.09 358.992 101.47 358.292 100.37 358.292C99.2699 358.292 98.4998 359.152 98.4998 360.522C98.4998 361.892 99.2598 362.752 100.37 362.752C101.48 362.752 102.1 362.002 102.19 360.962L103.18 361.062C103.06 362.502 102.12 363.652 100.38 363.652C98.6398 363.652 97.3398 362.412 97.3398 360.532V360.522ZM95.9298 359.652V362.312C95.9298 362.622 96.1098 362.772 96.3898 362.772C96.5298 362.772 96.7399 362.732 96.9099 362.632V363.242C96.7099 363.442 96.4598 363.592 95.9998 363.592C95.3898 363.592 94.9498 363.132 94.8898 362.422C94.5598 363.112 93.7198 363.632 92.7598 363.632C91.6098 363.632 90.8598 363.012 90.8598 361.992C90.8598 360.862 91.8198 360.402 93.2498 360.122L94.8498 359.792V359.562C94.8498 358.752 94.3699 358.242 93.5499 358.242C92.7299 358.242 92.2298 358.742 92.0598 359.442L91.0499 359.302C91.2799 358.192 92.1598 357.372 93.5598 357.372C95.0498 357.372 95.9398 358.132 95.9398 359.642L95.9298 359.652ZM94.8398 360.832V360.542L93.5098 360.832C92.5699 361.032 91.9799 361.212 91.9799 361.932C91.9799 362.432 92.3198 362.812 92.9998 362.812C94.0498 362.812 94.8498 362.022 94.8498 360.832H94.8398ZM90.3798 357.652L90.2698 358.672C89.9398 358.492 89.7098 358.432 89.3498 358.432C88.4898 358.432 87.8598 359.202 87.8598 360.352V363.492H86.7299V357.552H87.8598V358.762C88.0798 358.082 88.6898 357.392 89.5398 357.392C89.9098 357.392 90.1798 357.492 90.3798 357.662V357.652ZM82.7798 362.092V358.352H81.8798V357.742L82.2598 357.672C82.8198 357.562 82.9398 357.292 83.0798 356.722L83.2598 355.892H83.8998V357.532H85.5698V358.342H83.8998V361.942C83.8998 362.472 84.1198 362.712 84.6298 362.712C85.0098 362.712 85.3998 362.552 85.7398 362.362V363.122C85.3098 363.452 84.8698 363.622 84.2198 363.622C83.3798 363.622 82.7798 363.232 82.7798 362.072V362.092ZM76.9598 360.072V363.482H75.8298V357.542H76.9598V358.602C77.2498 357.882 78.0498 357.382 78.9298 357.382C80.4798 357.382 81.0998 358.412 81.0998 359.802V363.482H79.9698V359.892C79.9698 358.902 79.4898 358.272 78.5598 358.272C77.6298 358.272 76.9598 358.982 76.9598 360.062V360.072ZM74.6698 360.522C74.6698 362.372 73.3798 363.642 71.6298 363.642C69.8798 363.642 68.6098 362.362 68.6098 360.522C68.6098 358.682 69.8898 357.382 71.6298 357.382C73.3698 357.382 74.6698 358.672 74.6698 360.522ZM69.7598 360.522C69.7598 361.842 70.4298 362.772 71.6199 362.772C72.8099 362.772 73.5098 361.832 73.5098 360.522C73.5098 359.212 72.8299 358.262 71.6199 358.262C70.4099 358.262 69.7598 359.182 69.7598 360.522ZM59.5898 359.202C59.5898 356.562 61.4198 354.762 63.7898 354.762C66.1598 354.762 67.6198 356.272 67.7798 358.472L66.6398 358.522C66.5398 356.942 65.5498 355.762 63.7898 355.762C62.0298 355.762 60.7999 357.092 60.7999 359.202C60.7999 361.312 62.0498 362.642 63.7898 362.642C65.5298 362.642 66.5498 361.462 66.6398 359.882L67.7798 359.932C67.6198 362.132 66.2298 363.642 63.7898 363.642C61.3498 363.642 59.5898 361.832 59.5898 359.202ZM80.0098 332.892H83.5598C83.5198 331.942 82.9898 331.072 81.8598 331.072C80.7298 331.072 80.1498 331.912 80.0098 332.892ZM83.7398 334.212L84.6798 334.322C84.3798 335.662 83.3899 336.482 81.9099 336.482C80.1399 336.482 78.8498 335.282 78.8498 333.442C78.8498 331.602 80.1398 330.222 81.8498 330.222C83.7398 330.222 84.6998 331.562 84.6998 333.182V333.632H79.9698C80.0198 334.782 80.8499 335.602 81.9099 335.602C82.8999 335.602 83.4899 335.122 83.7299 334.212H83.7398ZM75.3398 334.922V331.182H74.4398V330.572L74.8198 330.502C75.3798 330.392 75.4998 330.122 75.6398 329.552L75.8198 328.722H76.4598V330.362H78.1298V331.172H76.4598V334.772C76.4598 335.302 76.6798 335.542 77.1898 335.542C77.5698 335.542 77.9599 335.382 78.2999 335.192V335.952C77.8699 336.282 77.4298 336.452 76.7798 336.452C75.9398 336.452 75.3398 336.062 75.3398 334.902V334.922ZM73.3298 332.482V335.142C73.3298 335.452 73.5098 335.602 73.7898 335.602C73.9298 335.602 74.1398 335.562 74.3098 335.462V336.072C74.1098 336.272 73.8598 336.422 73.3998 336.422C72.7898 336.422 72.3498 335.962 72.2898 335.252C71.9598 335.942 71.1199 336.462 70.1599 336.462C69.0099 336.462 68.2598 335.842 68.2598 334.822C68.2598 333.692 69.2198 333.232 70.6498 332.952L72.2498 332.622V332.392C72.2498 331.582 71.7698 331.072 70.9498 331.072C70.1298 331.072 69.6298 331.572 69.4598 332.272L68.4498 332.132C68.6798 331.022 69.5598 330.202 70.9598 330.202C72.4498 330.202 73.3398 330.962 73.3398 332.472L73.3298 332.482ZM72.2498 333.662V333.372L70.9198 333.662C69.9798 333.862 69.3898 334.042 69.3898 334.762C69.3898 335.262 69.7299 335.642 70.4099 335.642C71.4599 335.642 72.2598 334.852 72.2598 333.662H72.2498ZM59.9799 336.312V327.752H63.0798C65.7698 327.752 67.4698 329.352 67.4698 332.032C67.4698 334.712 65.7698 336.312 63.0798 336.312H59.9799ZM61.1698 335.352H63.0198C65.1098 335.352 66.2498 334.112 66.2498 332.042C66.2498 329.972 65.1098 328.732 63.0198 328.732H61.1698V335.362V335.352ZM92.4598 305.722H96.0098C95.9698 304.772 95.4398 303.902 94.3098 303.902C93.1798 303.902 92.5998 304.742 92.4598 305.722ZM96.1998 307.042L97.1398 307.152C96.8398 308.492 95.8498 309.312 94.3699 309.312C92.5998 309.312 91.3098 308.112 91.3098 306.272C91.3098 304.432 92.5998 303.052 94.3098 303.052C96.1998 303.052 97.1599 304.392 97.1599 306.012V306.462H92.4298C92.4798 307.612 93.3098 308.432 94.3699 308.432C95.3599 308.432 95.9498 307.952 96.1898 307.042H96.1998ZM84.6498 306.182C84.6498 304.292 85.8998 303.042 87.6898 303.042C89.4799 303.042 90.3698 304.212 90.4898 305.632L89.4998 305.702C89.3998 304.652 88.7798 303.952 87.6798 303.952C86.5798 303.952 85.8098 304.812 85.8098 306.182C85.8098 307.552 86.5698 308.412 87.6798 308.412C88.7898 308.412 89.4098 307.662 89.4998 306.622L90.4898 306.722C90.3698 308.162 89.4298 309.312 87.6898 309.312C85.9499 309.312 84.6498 308.072 84.6498 306.192V306.182ZM82.3298 301.862V300.582H83.4998V301.862H82.3298ZM82.3598 303.212H83.4898V309.152H82.3598V303.212ZM81.1898 306.182C81.1898 308.032 79.8998 309.302 78.1498 309.302C76.3998 309.302 75.1298 308.022 75.1298 306.182C75.1298 304.342 76.4098 303.042 78.1498 303.042C79.8898 303.042 81.1898 304.332 81.1898 306.182ZM76.2898 306.182C76.2898 307.502 76.9598 308.432 78.1498 308.432C79.3398 308.432 80.0398 307.492 80.0398 306.182C80.0398 304.872 79.3598 303.922 78.1498 303.922C76.9398 303.922 76.2898 304.842 76.2898 306.182ZM72.3098 309.142H71.2098L68.7598 303.202H69.9398L71.7898 307.762H71.8398L73.6498 303.202H74.7498L72.2999 309.142H72.3098ZM63.8998 305.732V309.142H62.7698V303.202H63.8998V304.262C64.1898 303.542 64.9899 303.042 65.8699 303.042C67.4199 303.042 68.0398 304.072 68.0398 305.462V309.142H66.9099V305.552C66.9099 304.562 66.4298 303.932 65.4998 303.932C64.5698 303.932 63.8998 304.642 63.8998 305.722V305.732ZM59.9799 300.582H61.1599V309.142H59.9799V300.582Z" fill="#081213"/>
<path d="M354.45 355.982L350.97 360.232H354.45V355.982ZM355.6 354.922V360.232H357.07V361.192H355.6V363.472H354.45V361.192H349.95V360.082L354.17 354.922H355.6ZM345.31 362.462H349.78V363.482H343.49V362.802L345.91 360.722C347.25 359.552 348.26 358.682 348.26 357.432C348.26 356.422 347.69 355.722 346.56 355.722C345.43 355.722 344.74 356.472 344.74 357.722C344.74 357.982 344.77 358.242 344.84 358.492L343.67 358.442C343.62 358.172 343.57 357.902 343.57 357.642C343.57 355.892 344.75 354.762 346.57 354.762C348.57 354.762 349.48 355.932 349.48 357.382C349.48 358.932 348.16 360.112 346.93 361.132L345.31 362.462ZM338.77 364.612L342.25 354.532H343.31L339.85 364.612H338.78H338.77ZM338.1 354.922V355.982H334C333.99 356.442 333.78 358.192 333.69 358.632C334.08 358.152 334.78 357.762 335.73 357.762C337.67 357.762 338.68 359.062 338.68 360.642C338.68 362.422 337.43 363.642 335.57 363.642C333.51 363.642 332.32 362.352 332.42 360.452L333.56 360.552C333.56 361.842 334.25 362.712 335.6 362.712C336.81 362.712 337.54 361.912 337.54 360.662C337.54 359.532 336.81 358.702 335.6 358.702C334.65 358.702 334.04 359.202 333.73 359.792L332.56 359.712C332.78 358.532 333.06 356.342 333.1 354.932H338.11L338.1 354.922ZM328.11 356.932V356.172C329.31 356.172 329.81 355.762 330.12 354.872H330.89V363.482H329.71V356.932H328.11ZM323.39 364.612L326.87 354.532H327.93L324.47 364.612H323.4H323.39ZM319.88 356.932V356.172C321.08 356.172 321.58 355.762 321.89 354.872H322.66V363.482H321.48V356.932H319.88ZM316.91 360.522C316.91 362.372 315.62 363.642 313.87 363.642C312.12 363.642 310.85 362.362 310.85 360.522C310.85 358.682 312.13 357.382 313.87 357.382C315.61 357.382 316.91 358.672 316.91 360.522ZM312 360.522C312 361.842 312.67 362.772 313.86 362.772C315.05 362.772 315.75 361.832 315.75 360.522C315.75 359.212 315.07 358.262 313.86 358.262C312.65 358.262 312 359.182 312 360.522ZM307.33 362.092V358.352H306.43V357.742L306.81 357.672C307.37 357.562 307.49 357.292 307.63 356.722L307.81 355.892H308.45V357.532H310.12V358.342H308.45V361.942C308.45 362.472 308.67 362.712 309.18 362.712C309.56 362.712 309.95 362.552 310.29 362.362V363.122C309.86 363.452 309.42 363.622 308.77 363.622C307.93 363.622 307.33 363.232 307.33 362.072V362.092ZM301.2 355.982L297.72 360.232H301.2V355.982ZM302.35 354.922V360.232H303.82V361.192H302.35V363.472H301.2V361.192H296.7V360.082L300.92 354.922H302.35ZM292.07 362.462H296.54V363.482H290.25V362.802L292.67 360.722C294.01 359.552 295.02 358.682 295.02 357.432C295.02 356.422 294.45 355.722 293.32 355.722C292.19 355.722 291.5 356.472 291.5 357.722C291.5 357.982 291.53 358.242 291.6 358.492L290.43 358.442C290.38 358.172 290.33 357.902 290.33 357.642C290.33 355.892 291.51 354.762 293.33 354.762C295.33 354.762 296.24 355.932 296.24 357.382C296.24 358.932 294.92 360.112 293.69 361.132L292.07 362.462ZM285.52 364.612L289 354.532H290.06L286.6 364.612H285.53H285.52ZM282 356.932V356.172C283.2 356.172 283.7 355.762 284.01 354.872H284.78V363.482H283.6V356.932H282ZM277.28 364.612L280.76 354.532H281.82L278.36 364.612H277.29H277.28ZM273.76 356.932V356.172C274.96 356.172 275.46 355.762 275.77 354.872H276.54V363.482H275.36V356.932H273.76ZM354.45 328.812L350.97 333.062H354.45V328.812ZM355.6 327.752V333.062H357.07V334.022H355.6V336.302H354.45V334.022H349.95V332.912L354.17 327.752H355.6ZM345.31 335.292H349.78V336.312H343.49V335.632L345.91 333.552C347.25 332.382 348.26 331.512 348.26 330.262C348.26 329.252 347.69 328.552 346.56 328.552C345.43 328.552 344.74 329.302 344.74 330.552C344.74 330.812 344.77 331.072 344.84 331.322L343.67 331.272C343.62 331.002 343.57 330.732 343.57 330.472C343.57 328.722 344.75 327.592 346.57 327.592C348.57 327.592 349.48 328.762 349.48 330.212C349.48 331.762 348.16 332.942 346.93 333.962L345.31 335.292ZM341.47 332.032C341.47 329.712 340.72 328.542 339.15 328.542C337.58 328.542 336.83 329.712 336.83 332.032C336.83 334.352 337.58 335.522 339.15 335.522C340.72 335.522 341.47 334.352 341.47 332.032ZM342.71 332.032C342.71 334.872 341.39 336.472 339.15 336.472C336.91 336.472 335.6 334.872 335.6 332.032C335.6 329.192 336.9 327.592 339.15 327.592C341.4 327.592 342.71 329.192 342.71 332.032ZM330.47 335.292H334.94V336.312H328.65V335.632L331.07 333.552C332.41 332.382 333.42 331.512 333.42 330.262C333.42 329.252 332.85 328.552 331.72 328.552C330.59 328.552 329.9 329.302 329.9 330.552C329.9 330.812 329.93 331.072 330 331.322L328.83 331.272C328.78 331.002 328.73 330.732 328.73 330.472C328.73 328.722 329.91 327.592 331.73 327.592C333.73 327.592 334.64 328.762 334.64 330.212C334.64 331.762 333.32 332.942 332.09 333.962L330.47 335.292ZM319.62 329.762V329.002C320.82 329.002 321.32 328.592 321.63 327.702H322.4V336.312H321.22V329.762H319.62ZM311.77 335.072L311.53 336.312H310.67V327.752H311.8V331.622C312.06 330.892 312.82 330.212 313.93 330.212C315.68 330.212 316.65 331.602 316.65 333.352C316.65 335.102 315.69 336.472 313.92 336.472C312.82 336.472 312.05 335.822 311.77 335.072ZM311.77 333.172V333.512C311.77 334.812 312.6 335.572 313.67 335.572C314.84 335.572 315.48 334.702 315.48 333.342C315.48 331.982 314.84 331.112 313.67 331.112C312.6 331.112 311.77 331.872 311.77 333.162V333.172ZM304.8 332.892H308.35C308.31 331.942 307.78 331.072 306.65 331.072C305.52 331.072 304.94 331.912 304.8 332.892ZM308.53 334.212L309.47 334.322C309.17 335.662 308.18 336.482 306.7 336.482C304.93 336.482 303.64 335.282 303.64 333.442C303.64 331.602 304.93 330.222 306.64 330.222C308.53 330.222 309.49 331.562 309.49 333.182V333.632H304.76C304.81 334.782 305.64 335.602 306.7 335.602C307.69 335.602 308.28 335.122 308.52 334.212H308.53ZM298.92 336.312H297.75V327.752H303.59V328.732H298.92V331.572H302.59V332.552H298.92V336.312ZM356.22 300.582V301.642H352.12C352.11 302.102 351.9 303.852 351.81 304.292C352.2 303.812 352.9 303.422 353.85 303.422C355.79 303.422 356.8 304.722 356.8 306.302C356.8 308.082 355.55 309.302 353.69 309.302C351.63 309.302 350.44 308.012 350.54 306.112L351.68 306.212C351.68 307.502 352.37 308.372 353.72 308.372C354.93 308.372 355.66 307.572 355.66 306.322C355.66 305.192 354.93 304.362 353.72 304.362C352.77 304.362 352.16 304.862 351.85 305.452L350.68 305.372C350.9 304.192 351.18 302.002 351.22 300.592H356.23L356.22 300.582ZM345.38 308.122H349.85V309.142H343.56V308.462L345.98 306.382C347.32 305.212 348.33 304.342 348.33 303.092C348.33 302.082 347.76 301.382 346.63 301.382C345.5 301.382 344.81 302.132 344.81 303.382C344.81 303.642 344.84 303.902 344.91 304.152L343.74 304.102C343.69 303.832 343.64 303.562 343.64 303.302C343.64 301.552 344.82 300.422 346.64 300.422C348.64 300.422 349.55 301.592 349.55 303.042C349.55 304.592 348.23 305.772 347 306.792L345.38 308.122ZM341.37 303.362C341.37 302.182 340.57 301.382 339.29 301.382C338.01 301.382 337.28 302.172 337.28 303.362C337.28 304.552 338.03 305.362 339.33 305.362C340.63 305.362 341.37 304.572 341.37 303.362ZM339.24 308.372C340.98 308.372 341.73 306.782 341.71 304.542C341.41 305.532 340.54 306.292 339.16 306.292C337.31 306.292 336.16 305.082 336.16 303.402C336.16 301.722 337.37 300.432 339.28 300.432C341.56 300.432 342.76 302.092 342.76 304.712C342.76 307.332 341.63 309.312 339.23 309.312C337.53 309.312 336.39 308.332 336.24 306.732L337.37 306.692C337.52 307.702 338.09 308.372 339.24 308.372ZM331.07 308.122H335.54V309.142H329.25V308.462L331.67 306.382C333.01 305.212 334.02 304.342 334.02 303.092C334.02 302.082 333.45 301.382 332.32 301.382C331.19 301.382 330.5 302.132 330.5 303.382C330.5 303.642 330.53 303.902 330.6 304.152L329.43 304.102C329.38 303.832 329.33 303.562 329.33 303.302C329.33 301.552 330.51 300.422 332.33 300.422C334.33 300.422 335.24 301.592 335.24 303.042C335.24 304.592 333.92 305.772 332.69 306.792L331.07 308.122ZM324.04 303.642L323.47 306.092H325.48L326.05 303.642H324.04ZM328.04 306.092L327.89 306.882H326.25L325.71 309.152H324.75L325.29 306.882H323.28L322.74 309.152H321.79L322.33 306.882H320.9L321.05 306.092H322.52L323.09 303.642H321.47L321.62 302.842H323.28L323.82 300.582H324.77L324.23 302.842H326.24L326.78 300.582H327.74L327.2 302.842H328.61L328.46 303.642H327.01L326.44 306.092H328.04Z" fill="#081213"/>
<path d="M351.779 239.412C351.779 237.522 353.029 236.272 354.819 236.272C356.609 236.272 357.499 237.442 357.619 238.862L356.629 238.932C356.529 237.882 355.909 237.182 354.809 237.182C353.709 237.182 352.939 238.042 352.939 239.412C352.939 240.782 353.699 241.642 354.809 241.642C355.919 241.642 356.539 240.892 356.629 239.852L357.619 239.952C357.499 241.392 356.559 242.542 354.819 242.542C353.079 242.542 351.779 241.302 351.779 239.422V239.412ZM346.539 238.962V242.372H345.409V236.432H346.539V237.492C346.829 236.772 347.629 236.272 348.509 236.272C350.059 236.272 350.679 237.302 350.679 238.692V242.372H349.549V238.782C349.549 237.792 349.069 237.162 348.139 237.162C347.209 237.162 346.539 237.872 346.539 238.952V238.962ZM342.629 233.822H343.809V242.382H342.629V233.822ZM334.769 240.232V242.382H333.639V233.822H334.769V239.132L337.759 236.442H339.169L336.439 238.872L339.289 242.372H337.959L335.599 239.492L334.769 240.222V240.232ZM332.469 239.412C332.469 241.262 331.179 242.532 329.429 242.532C327.679 242.532 326.409 241.252 326.409 239.412C326.409 237.572 327.689 236.272 329.429 236.272C331.169 236.272 332.469 237.562 332.469 239.412ZM327.569 239.412C327.569 240.732 328.239 241.662 329.429 241.662C330.619 241.662 331.319 240.722 331.319 239.412C331.319 238.102 330.639 237.152 329.429 237.152C328.219 237.152 327.569 238.072 327.569 239.412ZM325.589 239.412C325.589 241.262 324.299 242.532 322.549 242.532C320.799 242.532 319.529 241.252 319.529 239.412C319.529 237.572 320.809 236.272 322.549 236.272C324.289 236.272 325.589 237.562 325.589 239.412ZM320.679 239.412C320.679 240.732 321.349 241.662 322.539 241.662C323.729 241.662 324.429 240.722 324.429 239.412C324.429 238.102 323.749 237.152 322.539 237.152C321.329 237.152 320.679 238.072 320.679 239.412ZM313.819 241.142L313.579 242.382H312.719V233.822H313.849V237.692C314.109 236.962 314.869 236.282 315.979 236.282C317.729 236.282 318.699 237.672 318.699 239.422C318.699 241.172 317.739 242.542 315.969 242.542C314.869 242.542 314.099 241.892 313.819 241.142ZM313.819 239.242V239.582C313.819 240.882 314.649 241.642 315.719 241.642C316.889 241.642 317.529 240.772 317.529 239.412C317.529 238.052 316.889 237.182 315.719 237.182C314.649 237.182 313.819 237.942 313.819 239.232V239.242ZM307.349 240.232V242.382H306.219V233.822H307.349V239.132L310.339 236.442H311.749L309.019 238.872L311.869 242.372H310.539L308.179 239.492L307.349 240.222V240.232ZM299.219 239.412C299.219 237.522 300.469 236.272 302.259 236.272C304.049 236.272 304.939 237.442 305.059 238.862L304.069 238.932C303.969 237.882 303.349 237.182 302.249 237.182C301.149 237.182 300.379 238.042 300.379 239.412C300.379 240.782 301.139 241.642 302.249 241.642C303.359 241.642 303.979 240.892 304.069 239.852L305.059 239.952C304.939 241.392 303.999 242.542 302.259 242.542C300.519 242.542 299.219 241.302 299.219 239.422V239.412ZM293.689 238.952H297.239C297.199 238.002 296.669 237.132 295.539 237.132C294.409 237.132 293.829 237.972 293.689 238.952ZM297.419 240.272L298.359 240.382C298.059 241.722 297.069 242.542 295.589 242.542C293.819 242.542 292.529 241.342 292.529 239.502C292.529 237.662 293.819 236.282 295.529 236.282C297.419 236.282 298.379 237.622 298.379 239.242V239.692H293.649C293.699 240.842 294.529 241.662 295.589 241.662C296.579 241.662 297.169 241.182 297.409 240.272H297.419ZM287.299 238.962V242.372H286.169V233.812H287.299V237.492C287.589 236.772 288.389 236.272 289.269 236.272C290.819 236.272 291.439 237.302 291.439 238.692V242.372H290.309V238.782C290.309 237.792 289.829 237.162 288.899 237.162C287.969 237.162 287.299 237.872 287.299 238.952V238.962ZM276.789 238.092C276.789 235.452 278.619 233.652 280.989 233.652C283.359 233.652 284.819 235.162 284.979 237.362L283.839 237.412C283.739 235.832 282.749 234.652 280.989 234.652C279.229 234.652 277.999 235.982 277.999 238.092C277.999 240.202 279.249 241.532 280.989 241.532C282.729 241.532 283.749 240.352 283.839 238.772L284.979 238.822C284.819 241.022 283.429 242.532 280.989 242.532C278.549 242.532 276.789 240.722 276.789 238.092Z" fill="#081213"/>
<path d="M331.26 440.272L331.15 441.292C330.82 441.112 330.59 441.052 330.23 441.052C329.37 441.052 328.74 441.822 328.74 442.972V446.112H327.61V440.172H328.74V441.382C328.96 440.702 329.57 440.012 330.42 440.012C330.79 440.012 331.06 440.112 331.26 440.282V440.272ZM321.73 442.672H325.28C325.24 441.722 324.71 440.852 323.58 440.852C322.45 440.852 321.87 441.692 321.73 442.672ZM325.47 443.992L326.41 444.102C326.11 445.442 325.12 446.262 323.64 446.262C321.87 446.262 320.58 445.062 320.58 443.222C320.58 441.382 321.87 440.002 323.58 440.002C325.47 440.002 326.43 441.342 326.43 442.962V443.412H321.7C321.75 444.562 322.58 445.382 323.64 445.382C324.63 445.382 325.22 444.902 325.46 443.992H325.47ZM317.42 440.982H316.51V440.172H317.42V439.482C317.42 438.222 318.14 437.392 319.39 437.392C320.41 437.392 320.98 437.852 321.25 438.752L320.48 439.022C320.33 438.562 319.99 438.202 319.45 438.202C318.83 438.202 318.54 438.652 318.54 439.352V440.172H320.21V440.982H318.54V446.102H317.43V440.982H317.42ZM310.88 444.102L311.83 444.032C311.94 444.942 312.58 445.432 313.6 445.432C314.39 445.432 314.97 445.142 314.97 444.552C314.97 443.992 314.58 443.802 313.84 443.672L312.83 443.492C311.72 443.312 311.05 442.842 311.05 441.822C311.05 440.732 311.96 440.002 313.33 440.002C314.91 440.002 315.83 440.732 315.94 442.112L315.03 442.162C314.89 441.252 314.34 440.832 313.33 440.832C312.58 440.832 312.09 441.172 312.09 441.712C312.09 442.192 312.39 442.432 313 442.542L314.11 442.722C315.31 442.922 316.01 443.372 316.01 444.452C316.01 445.632 314.96 446.272 313.58 446.272C312.1 446.272 310.97 445.582 310.86 444.112L310.88 444.102ZM305.7 442.692V446.102H304.57V440.162H305.7V441.222C305.99 440.502 306.79 440.002 307.67 440.002C309.22 440.002 309.84 441.032 309.84 442.422V446.102H308.71V442.512C308.71 441.522 308.23 440.892 307.3 440.892C306.37 440.892 305.7 441.602 305.7 442.682V442.692ZM302.71 442.272V444.932C302.71 445.242 302.89 445.392 303.17 445.392C303.31 445.392 303.52 445.352 303.69 445.252V445.862C303.49 446.062 303.24 446.212 302.78 446.212C302.17 446.212 301.73 445.752 301.67 445.042C301.34 445.732 300.5 446.252 299.54 446.252C298.39 446.252 297.64 445.632 297.64 444.612C297.64 443.482 298.6 443.022 300.03 442.742L301.63 442.412V442.182C301.63 441.372 301.15 440.862 300.33 440.862C299.51 440.862 299.01 441.362 298.84 442.062L297.83 441.922C298.06 440.812 298.94 439.992 300.34 439.992C301.83 439.992 302.72 440.752 302.72 442.262L302.71 442.272ZM301.62 443.452V443.162L300.29 443.452C299.35 443.652 298.76 443.832 298.76 444.552C298.76 445.052 299.1 445.432 299.78 445.432C300.83 445.432 301.63 444.642 301.63 443.452H301.62ZM297.16 440.272L297.05 441.292C296.72 441.112 296.49 441.052 296.13 441.052C295.27 441.052 294.64 441.822 294.64 442.972V446.112H293.51V440.172H294.64V441.382C294.86 440.702 295.47 440.012 296.32 440.012C296.69 440.012 296.96 440.112 297.16 440.282V440.272ZM289.56 444.712V440.972H288.66V440.362L289.04 440.292C289.6 440.182 289.72 439.912 289.86 439.342L290.04 438.512H290.68V440.152H292.35V440.962H290.68V444.562C290.68 445.092 290.9 445.332 291.41 445.332C291.79 445.332 292.18 445.172 292.52 444.982V445.742C292.09 446.072 291.65 446.242 291 446.242C290.16 446.242 289.56 445.852 289.56 444.692V444.712ZM281.54 443.952V446.102H280.41V437.542H281.54V442.852L284.53 440.162H285.94L283.21 442.592L286.06 446.092H284.73L282.37 443.212L281.54 443.942V443.952ZM274.8 442.692V446.102H273.67V440.162H274.8V441.222C275.09 440.502 275.89 440.002 276.77 440.002C278.32 440.002 278.94 441.032 278.94 442.422V446.102H277.81V442.512C277.81 441.522 277.33 440.892 276.4 440.892C275.47 440.892 274.8 441.602 274.8 442.682V442.692ZM271.81 442.272V444.932C271.81 445.242 271.99 445.392 272.27 445.392C272.41 445.392 272.62 445.352 272.79 445.252V445.862C272.59 446.062 272.34 446.212 271.88 446.212C271.27 446.212 270.83 445.752 270.77 445.042C270.44 445.732 269.6 446.252 268.64 446.252C267.49 446.252 266.74 445.632 266.74 444.612C266.74 443.482 267.7 443.022 269.13 442.742L270.73 442.412V442.182C270.73 441.372 270.25 440.862 269.43 440.862C268.61 440.862 268.11 441.362 267.94 442.062L266.93 441.922C267.16 440.812 268.04 439.992 269.44 439.992C270.93 439.992 271.82 440.752 271.82 442.262L271.81 442.272ZM270.73 443.452V443.162L269.4 443.452C268.46 443.652 267.87 443.832 267.87 444.552C267.87 445.052 268.21 445.432 268.89 445.432C269.94 445.432 270.74 444.642 270.74 443.452H270.73ZM260.98 444.862L260.74 446.102H259.88V437.542H261.01V441.412C261.27 440.682 262.03 440.002 263.14 440.002C264.89 440.002 265.86 441.392 265.86 443.142C265.86 444.892 264.9 446.262 263.13 446.262C262.03 446.262 261.26 445.612 260.98 444.862ZM260.98 442.962V443.302C260.98 444.602 261.81 445.362 262.88 445.362C264.05 445.362 264.69 444.492 264.69 443.132C264.69 441.772 264.05 440.902 262.88 440.902C261.81 440.902 260.98 441.662 260.98 442.952V442.962ZM250.44 443.142C250.44 441.252 251.69 440.002 253.48 440.002C255.27 440.002 256.16 441.172 256.28 442.592L255.29 442.662C255.19 441.612 254.57 440.912 253.47 440.912C252.37 440.912 251.6 441.772 251.6 443.142C251.6 444.512 252.36 445.372 253.47 445.372C254.58 445.372 255.2 444.622 255.29 443.582L256.28 443.682C256.16 445.122 255.22 446.272 253.48 446.272C251.74 446.272 250.44 445.032 250.44 443.152V443.142ZM248.13 438.822V437.542H249.3V438.822H248.13ZM248.15 440.162H249.28V446.102H248.15V440.162ZM242.54 442.692V446.102H241.41V440.162H242.54V441.222C242.83 440.502 243.63 440.002 244.51 440.002C246.06 440.002 246.68 441.032 246.68 442.422V446.102H245.55V442.512C245.55 441.522 245.07 440.892 244.14 440.892C243.21 440.892 242.54 441.602 242.54 442.682V442.692ZM240.25 443.142C240.25 444.992 238.96 446.262 237.21 446.262C235.46 446.262 234.19 444.982 234.19 443.142C234.19 441.302 235.47 440.002 237.21 440.002C238.95 440.002 240.25 441.292 240.25 443.142ZM235.34 443.142C235.34 444.462 236.01 445.392 237.2 445.392C238.39 445.392 239.09 444.452 239.09 443.142C239.09 441.832 238.41 440.882 237.2 440.882C235.99 440.882 235.34 441.802 235.34 443.142ZM233.9 440.272L233.79 441.292C233.46 441.112 233.23 441.052 232.87 441.052C232.01 441.052 231.38 441.822 231.38 442.972V446.112H230.25V440.172H231.38V441.382C231.6 440.702 232.21 440.012 233.06 440.012C233.43 440.012 233.7 440.112 233.9 440.282V440.272ZM226.3 444.712V440.972H225.4V440.362L225.78 440.292C226.34 440.182 226.46 439.912 226.6 439.342L226.78 438.512H227.42V440.152H229.09V440.962H227.42V444.562C227.42 445.092 227.64 445.332 228.15 445.332C228.53 445.332 228.92 445.172 229.26 444.982V445.742C228.83 446.072 228.39 446.242 227.74 446.242C226.9 446.242 226.3 445.852 226.3 444.692V444.712ZM219.09 443.142C219.09 441.252 220.34 440.002 222.13 440.002C223.92 440.002 224.81 441.172 224.93 442.592L223.94 442.662C223.84 441.612 223.22 440.912 222.12 440.912C221.02 440.912 220.25 441.772 220.25 443.142C220.25 444.512 221.01 445.372 222.12 445.372C223.23 445.372 223.85 444.622 223.94 443.582L224.93 443.682C224.81 445.122 223.87 446.272 222.13 446.272C220.39 446.272 219.09 445.032 219.09 443.152V443.142ZM213.56 442.672H217.11C217.07 441.722 216.54 440.852 215.41 440.852C214.28 440.852 213.7 441.692 213.56 442.672ZM217.3 443.992L218.24 444.102C217.94 445.442 216.95 446.262 215.47 446.262C213.7 446.262 212.41 445.062 212.41 443.222C212.41 441.382 213.7 440.002 215.41 440.002C217.3 440.002 218.26 441.342 218.26 442.962V443.412H213.53C213.58 444.562 214.41 445.382 215.47 445.382C216.46 445.382 217.05 444.902 217.29 443.992H217.3ZM210.12 437.542H211.25V446.102H210.12V437.542ZM204.25 442.672H207.8C207.76 441.722 207.23 440.852 206.1 440.852C204.97 440.852 204.39 441.692 204.25 442.672ZM207.99 443.992L208.93 444.102C208.63 445.442 207.64 446.262 206.16 446.262C204.39 446.262 203.1 445.062 203.1 443.222C203.1 441.382 204.39 440.002 206.1 440.002C207.99 440.002 208.95 441.342 208.95 442.962V443.412H204.22C204.27 444.562 205.1 445.382 206.16 445.382C207.15 445.382 207.74 444.902 207.98 443.992H207.99ZM195.16 442.672H198.71C198.67 441.722 198.14 440.852 197.01 440.852C195.88 440.852 195.3 441.692 195.16 442.672ZM198.9 443.992L199.84 444.102C199.54 445.442 198.55 446.262 197.07 446.262C195.3 446.262 194.01 445.062 194.01 443.222C194.01 441.382 195.3 440.002 197.01 440.002C198.9 440.002 199.86 441.342 199.86 442.962V443.412H195.13C195.18 444.562 196.01 445.382 197.07 445.382C198.06 445.382 198.65 444.902 198.89 443.992H198.9ZM193.72 440.272L193.61 441.292C193.28 441.112 193.05 441.052 192.69 441.052C191.83 441.052 191.2 441.822 191.2 442.972V446.112H190.07V440.172H191.2V441.382C191.42 440.702 192.03 440.012 192.88 440.012C193.25 440.012 193.52 440.112 193.72 440.282V440.272ZM187.39 443.572V440.162H188.52V446.102H187.39V445.052C187.1 445.762 186.34 446.262 185.45 446.262C183.9 446.262 183.33 445.242 183.33 443.862V440.172H184.46V443.762C184.46 444.752 184.89 445.392 185.83 445.392C186.71 445.392 187.39 444.682 187.39 443.582V443.572ZM176.39 443.142C176.39 441.252 177.64 440.002 179.43 440.002C181.22 440.002 182.11 441.172 182.23 442.592L181.24 442.662C181.14 441.612 180.52 440.912 179.42 440.912C178.32 440.912 177.55 441.772 177.55 443.142C177.55 444.512 178.31 445.372 179.42 445.372C180.53 445.372 181.15 444.622 181.24 443.582L182.23 443.682C182.11 445.122 181.17 446.272 179.43 446.272C177.69 446.272 176.39 445.032 176.39 443.152V443.142ZM170.86 442.672H174.41C174.37 441.722 173.84 440.852 172.71 440.852C171.58 440.852 171 441.692 170.86 442.672ZM174.6 443.992L175.54 444.102C175.24 445.442 174.25 446.262 172.77 446.262C171 446.262 169.71 445.062 169.71 443.222C169.71 441.382 171 440.002 172.71 440.002C174.6 440.002 175.56 441.342 175.56 442.962V443.412H170.83C170.88 444.562 171.71 445.382 172.77 445.382C173.76 445.382 174.35 444.902 174.59 443.992H174.6ZM163.75 444.102L164.7 444.032C164.81 444.942 165.45 445.432 166.47 445.432C167.26 445.432 167.84 445.142 167.84 444.552C167.84 443.992 167.45 443.802 166.71 443.672L165.7 443.492C164.59 443.312 163.92 442.842 163.92 441.822C163.92 440.732 164.83 440.002 166.2 440.002C167.78 440.002 168.7 440.732 168.81 442.112L167.9 442.162C167.76 441.252 167.21 440.832 166.2 440.832C165.45 440.832 164.96 441.172 164.96 441.712C164.96 442.192 165.26 442.432 165.87 442.542L166.98 442.722C168.18 442.922 168.88 443.372 168.88 444.452C168.88 445.632 167.83 446.272 166.45 446.272C164.97 446.272 163.84 445.582 163.73 444.112L163.75 444.102ZM159.88 442.272V444.932C159.88 445.242 160.06 445.392 160.34 445.392C160.48 445.392 160.69 445.352 160.86 445.252V445.862C160.66 446.062 160.41 446.212 159.95 446.212C159.34 446.212 158.9 445.752 158.84 445.042C158.51 445.732 157.67 446.252 156.71 446.252C155.56 446.252 154.81 445.632 154.81 444.612C154.81 443.482 155.77 443.022 157.2 442.742L158.8 442.412V442.182C158.8 441.372 158.32 440.862 157.5 440.862C156.68 440.862 156.18 441.362 156.01 442.062L155 441.922C155.23 440.812 156.11 439.992 157.51 439.992C159 439.992 159.89 440.752 159.89 442.262L159.88 442.272ZM158.79 443.452V443.162L157.46 443.452C156.52 443.652 155.93 443.832 155.93 444.552C155.93 445.052 156.27 445.432 156.95 445.432C158 445.432 158.8 444.642 158.8 443.452H158.79ZM152.4 438.822V437.542H153.57V438.822H152.4ZM152.43 440.162H153.56V446.102H152.43V440.162ZM149.11 446.102H148.01L145.56 440.162H146.74L148.59 444.722H148.64L150.45 440.162H151.55L149.1 446.102H149.11ZM141.16 446.102V444.742H142.52V446.102H141.16ZM134.58 443.142C134.58 441.252 135.83 440.002 137.62 440.002C139.41 440.002 140.3 441.172 140.42 442.592L139.43 442.662C139.33 441.612 138.71 440.912 137.61 440.912C136.51 440.912 135.74 441.772 135.74 443.142C135.74 444.512 136.5 445.372 137.61 445.372C138.72 445.372 139.34 444.622 139.43 443.582L140.42 443.682C140.3 445.122 139.36 446.272 137.62 446.272C135.88 446.272 134.58 445.032 134.58 443.152V443.142ZM129.35 442.692V446.102H128.22V440.162H129.35V441.222C129.64 440.502 130.44 440.002 131.32 440.002C132.87 440.002 133.49 441.032 133.49 442.422V446.102H132.36V442.512C132.36 441.522 131.88 440.892 130.95 440.892C130.02 440.892 129.35 441.602 129.35 442.682V442.692ZM125.44 437.542H126.62V446.102H125.44V437.542ZM117.57 443.952V446.102H116.44V437.542H117.57V442.852L120.56 440.162H121.97L119.24 442.592L122.09 446.092H120.76L118.4 443.212L117.57 443.942V443.952ZM115.27 443.142C115.27 444.992 113.98 446.262 112.23 446.262C110.48 446.262 109.21 444.982 109.21 443.142C109.21 441.302 110.49 440.002 112.23 440.002C113.97 440.002 115.27 441.292 115.27 443.142ZM110.37 443.142C110.37 444.462 111.04 445.392 112.23 445.392C113.42 445.392 114.12 444.452 114.12 443.142C114.12 441.832 113.44 440.882 112.23 440.882C111.02 440.882 110.37 441.802 110.37 443.142ZM108.39 443.142C108.39 444.992 107.1 446.262 105.35 446.262C103.6 446.262 102.33 444.982 102.33 443.142C102.33 441.302 103.61 440.002 105.35 440.002C107.09 440.002 108.39 441.292 108.39 443.142ZM103.49 443.142C103.49 444.462 104.16 445.392 105.35 445.392C106.54 445.392 107.24 444.452 107.24 443.142C107.24 441.832 106.56 440.882 105.35 440.882C104.14 440.882 103.49 441.802 103.49 443.142ZM96.6199 444.862L96.3798 446.102H95.5198V437.542H96.6498V441.412C96.9098 440.682 97.6698 440.002 98.7798 440.002C100.53 440.002 101.5 441.392 101.5 443.142C101.5 444.892 100.54 446.262 98.7698 446.262C97.6698 446.262 96.8998 445.612 96.6199 444.862ZM96.6199 442.962V443.302C96.6199 444.602 97.4498 445.362 98.5198 445.362C99.6898 445.362 100.33 444.492 100.33 443.132C100.33 441.772 99.6898 440.902 98.5198 440.902C97.4498 440.902 96.6199 441.662 96.6199 442.952V442.962ZM90.1498 443.952V446.102H89.0198V437.542H90.1498V442.852L93.1398 440.162H94.5499L91.8198 442.592L94.6698 446.092H93.3398L90.9799 443.212L90.1498 443.942V443.952ZM82.0198 443.142C82.0198 441.252 83.2698 440.002 85.0598 440.002C86.8498 440.002 87.7398 441.172 87.8598 442.592L86.8699 442.662C86.7698 441.612 86.1499 440.912 85.0499 440.912C83.9499 440.912 83.1798 441.772 83.1798 443.142C83.1798 444.512 83.9398 445.372 85.0499 445.372C86.1599 445.372 86.7799 444.622 86.8699 443.582L87.8598 443.682C87.7398 445.122 86.7998 446.272 85.0598 446.272C83.3198 446.272 82.0198 445.032 82.0198 443.152V443.142ZM76.4898 442.672H80.0398C79.9998 441.722 79.4698 440.852 78.3398 440.852C77.2098 440.852 76.6298 441.692 76.4898 442.672ZM80.2299 443.992L81.1698 444.102C80.8698 445.442 79.8798 446.262 78.3998 446.262C76.6298 446.262 75.3398 445.062 75.3398 443.222C75.3398 441.382 76.6298 440.002 78.3398 440.002C80.2298 440.002 81.1898 441.342 81.1898 442.962V443.412H76.4598C76.5098 444.562 77.3398 445.382 78.3998 445.382C79.3898 445.382 79.9798 444.902 80.2198 443.992H80.2299ZM70.0998 442.692V446.102H68.9698V437.542H70.0998V441.222C70.3898 440.502 71.1898 440.002 72.0698 440.002C73.6198 440.002 74.2398 441.032 74.2398 442.422V446.102H73.1098V442.512C73.1098 441.522 72.6298 440.892 71.6998 440.892C70.7698 440.892 70.0998 441.602 70.0998 442.682V442.692ZM59.5898 441.822C59.5898 439.182 61.4198 437.382 63.7898 437.382C66.1598 437.382 67.6198 438.892 67.7798 441.092L66.6398 441.142C66.5398 439.562 65.5498 438.382 63.7898 438.382C62.0298 438.382 60.7999 439.712 60.7999 441.822C60.7999 443.932 62.0498 445.262 63.7898 445.262C65.5298 445.262 66.5498 444.082 66.6398 442.502L67.7798 442.552C67.6198 444.752 66.2298 446.262 63.7898 446.262C61.3498 446.262 59.5898 444.452 59.5898 441.822ZM348.67 427.292C348.67 429.142 347.38 430.412 345.63 430.412C343.88 430.412 342.61 429.132 342.61 427.292C342.61 425.452 343.89 424.152 345.63 424.152C347.37 424.152 348.67 425.442 348.67 427.292ZM343.76 427.292C343.76 428.612 344.43 429.542 345.62 429.542C346.81 429.542 347.51 428.602 347.51 427.292C347.51 425.982 346.83 425.032 345.62 425.032C344.41 425.032 343.76 425.952 343.76 427.292ZM339.09 428.862V425.122H338.19V424.512L338.57 424.442C339.13 424.332 339.25 424.062 339.39 423.492L339.57 422.662H340.21V424.302H341.88V425.112H340.21V428.712C340.21 429.242 340.43 429.482 340.94 429.482C341.32 429.482 341.71 429.322 342.05 429.132V429.892C341.62 430.222 341.18 430.392 340.53 430.392C339.69 430.392 339.09 430.002 339.09 428.842V428.862ZM332.5 428.862V425.122H331.6V424.512L331.98 424.442C332.54 424.332 332.66 424.062 332.8 423.492L332.98 422.662H333.62V424.302H335.29V425.112H333.62V428.712C333.62 429.242 333.84 429.482 334.35 429.482C334.73 429.482 335.12 429.322 335.46 429.132V429.892C335.03 430.222 334.59 430.392 333.94 430.392C333.1 430.392 332.5 430.002 332.5 428.842V428.862ZM326.69 426.842V430.252H325.56V424.312H326.69V425.372C326.98 424.652 327.78 424.152 328.66 424.152C330.21 424.152 330.83 425.182 330.83 426.572V430.252H329.7V426.662C329.7 425.672 329.22 425.042 328.29 425.042C327.36 425.042 326.69 425.752 326.69 426.832V426.842ZM319.69 426.832H323.24C323.2 425.882 322.67 425.012 321.54 425.012C320.41 425.012 319.83 425.852 319.69 426.832ZM323.42 428.142L324.36 428.252C324.06 429.592 323.07 430.412 321.59 430.412C319.82 430.412 318.53 429.212 318.53 427.372C318.53 425.532 319.82 424.152 321.53 424.152C323.42 424.152 324.38 425.492 324.38 427.112V427.562H319.65C319.7 428.712 320.53 429.532 321.59 429.532C322.58 429.532 323.17 429.052 323.41 428.142H323.42ZM313.34 425.442C313.65 424.712 314.39 424.152 315.34 424.152C316.89 424.152 317.43 425.222 317.43 426.572V430.252H316.3V426.662C316.3 425.672 315.89 425.042 314.98 425.042C314.14 425.042 313.46 425.752 313.46 426.832V430.242H312.33V426.652C312.33 425.662 311.92 425.032 311.01 425.032C310.17 425.032 309.5 425.742 309.5 426.822V430.232H308.37V424.292H309.5V425.352C309.79 424.632 310.48 424.132 311.39 424.132C312.45 424.132 313.07 424.652 313.33 425.422L313.34 425.442ZM304.09 432.532H302.99L303.95 430.232L301.45 424.312H302.63L304.52 428.872H304.57L306.39 424.312H307.5L304.08 432.532H304.09ZM300.49 426.422V429.082C300.49 429.392 300.67 429.542 300.95 429.542C301.09 429.542 301.3 429.502 301.47 429.402V430.012C301.27 430.212 301.02 430.362 300.56 430.362C299.95 430.362 299.51 429.902 299.45 429.192C299.12 429.882 298.28 430.402 297.32 430.402C296.17 430.402 295.42 429.782 295.42 428.762C295.42 427.632 296.38 427.172 297.81 426.892L299.41 426.562V426.332C299.41 425.522 298.93 425.012 298.11 425.012C297.29 425.012 296.79 425.512 296.62 426.212L295.61 426.072C295.84 424.962 296.72 424.142 298.12 424.142C299.61 424.142 300.5 424.902 300.5 426.412L300.49 426.422ZM299.41 427.602V427.312L298.08 427.602C297.14 427.802 296.55 427.982 296.55 428.702C296.55 429.202 296.89 429.582 297.57 429.582C298.62 429.582 299.42 428.792 299.42 427.602H299.41ZM289.69 429.012V432.532H288.56V424.312H289.69V425.562C289.95 424.832 290.71 424.152 291.82 424.152C293.57 424.152 294.54 425.542 294.54 427.292C294.54 429.042 293.58 430.412 291.82 430.412C290.71 430.412 289.95 429.742 289.69 429.012ZM289.66 427.112V427.452C289.66 428.752 290.49 429.512 291.56 429.512C292.73 429.512 293.37 428.642 293.37 427.282C293.37 425.922 292.73 425.052 291.56 425.052C290.49 425.052 289.66 425.812 289.66 427.102V427.112ZM284.26 426.422V429.082C284.26 429.392 284.44 429.542 284.72 429.542C284.86 429.542 285.07 429.502 285.24 429.402V430.012C285.04 430.212 284.79 430.362 284.33 430.362C283.72 430.362 283.28 429.902 283.22 429.192C282.89 429.882 282.05 430.402 281.09 430.402C279.94 430.402 279.19 429.782 279.19 428.762C279.19 427.632 280.15 427.172 281.58 426.892L283.18 426.562V426.332C283.18 425.522 282.7 425.012 281.88 425.012C281.06 425.012 280.56 425.512 280.39 426.212L279.38 426.072C279.61 424.962 280.49 424.142 281.89 424.142C283.38 424.142 284.27 424.902 284.27 426.412L284.26 426.422ZM283.17 427.602V427.312L281.84 427.602C280.9 427.802 280.31 427.982 280.31 428.702C280.31 429.202 280.65 429.582 281.33 429.582C282.38 429.582 283.18 428.792 283.18 427.602H283.17ZM274.37 430.252V429.012C274.1 429.742 273.35 430.412 272.24 430.412C270.47 430.412 269.52 429.042 269.52 427.292C269.52 425.542 270.47 424.152 272.24 424.152C273.35 424.152 274.1 424.832 274.37 425.562V421.692H275.5V430.252H274.37ZM274.38 427.452V427.112C274.38 425.822 273.56 425.062 272.49 425.062C271.32 425.062 270.67 425.932 270.67 427.292C270.67 428.652 271.32 429.522 272.49 429.522C273.56 429.522 274.38 428.762 274.38 427.462V427.452ZM264.29 426.842V430.252H263.16V424.312H264.29V425.372C264.58 424.652 265.38 424.152 266.26 424.152C267.81 424.152 268.43 425.182 268.43 426.572V430.252H267.3V426.662C267.3 425.672 266.82 425.042 265.89 425.042C264.96 425.042 264.29 425.752 264.29 426.832V426.842ZM257.29 426.832H260.84C260.8 425.882 260.27 425.012 259.14 425.012C258.01 425.012 257.43 425.852 257.29 426.832ZM261.02 428.142L261.96 428.252C261.66 429.592 260.67 430.412 259.19 430.412C257.42 430.412 256.13 429.212 256.13 427.372C256.13 425.532 257.42 424.152 259.13 424.152C261.02 424.152 261.98 425.492 261.98 427.112V427.562H257.25C257.3 428.712 258.13 429.532 259.19 429.532C260.18 429.532 260.77 429.052 261.01 428.142H261.02ZM250.17 428.252L251.12 428.182C251.23 429.092 251.87 429.582 252.89 429.582C253.68 429.582 254.26 429.292 254.26 428.702C254.26 428.142 253.87 427.952 253.13 427.822L252.12 427.642C251.01 427.462 250.34 426.992 250.34 425.972C250.34 424.882 251.25 424.152 252.62 424.152C254.2 424.152 255.12 424.882 255.23 426.262L254.32 426.312C254.18 425.402 253.63 424.982 252.62 424.982C251.87 424.982 251.38 425.322 251.38 425.862C251.38 426.342 251.68 426.582 252.29 426.692L253.4 426.872C254.6 427.072 255.3 427.522 255.3 428.602C255.3 429.782 254.25 430.422 252.87 430.422C251.39 430.422 250.26 429.732 250.15 428.262L250.17 428.252ZM247 427.292C247 429.142 245.71 430.412 243.96 430.412C242.21 430.412 240.94 429.132 240.94 427.292C240.94 425.452 242.22 424.152 243.96 424.152C245.7 424.152 247 425.442 247 427.292ZM242.1 427.292C242.1 428.612 242.77 429.542 243.96 429.542C245.15 429.542 245.85 428.602 245.85 427.292C245.85 425.982 245.17 425.032 243.96 425.032C242.75 425.032 242.1 425.952 242.1 427.292ZM237.43 428.862V425.122H236.53V424.512L236.91 424.442C237.47 424.332 237.59 424.062 237.73 423.492L237.91 422.662H238.55V424.302H240.22V425.112H238.55V428.712C238.55 429.242 238.77 429.482 239.28 429.482C239.66 429.482 240.05 429.322 240.39 429.132V429.892C239.96 430.222 239.52 430.392 238.87 430.392C238.03 430.392 237.43 430.002 237.43 428.842V428.862ZM229.17 426.842V430.252H228.04V424.312H229.17V425.372C229.46 424.652 230.26 424.152 231.14 424.152C232.69 424.152 233.31 425.182 233.31 426.572V430.252H232.18V426.662C232.18 425.672 231.7 425.042 230.77 425.042C229.84 425.042 229.17 425.752 229.17 426.832V426.842ZM226.88 427.292C226.88 429.142 225.59 430.412 223.84 430.412C222.09 430.412 220.82 429.132 220.82 427.292C220.82 425.452 222.1 424.152 223.84 424.152C225.58 424.152 226.88 425.442 226.88 427.292ZM221.97 427.292C221.97 428.612 222.64 429.542 223.83 429.542C225.02 429.542 225.72 428.602 225.72 427.292C225.72 425.982 225.04 425.032 223.83 425.032C222.62 425.032 221.97 425.952 221.97 427.292ZM217.3 428.862V425.122H216.4V424.512L216.78 424.442C217.34 424.332 217.46 424.062 217.6 423.492L217.78 422.662H218.42V424.302H220.09V425.112H218.42V428.712C218.42 429.242 218.64 429.482 219.15 429.482C219.53 429.482 219.92 429.322 220.26 429.132V429.892C219.83 430.222 219.39 430.392 218.74 430.392C217.9 430.392 217.3 430.002 217.3 428.842V428.862ZM213.15 428.862V425.122H212.25V424.512L212.63 424.442C213.19 424.332 213.31 424.062 213.45 423.492L213.63 422.662H214.27V424.302H215.94V425.112H214.27V428.712C214.27 429.242 214.49 429.482 215 429.482C215.38 429.482 215.77 429.322 216.11 429.132V429.892C215.68 430.222 215.24 430.392 214.59 430.392C213.75 430.392 213.15 430.002 213.15 428.842V428.862ZM210.27 427.722V424.312H211.4V430.252H210.27V429.202C209.98 429.912 209.22 430.412 208.33 430.412C206.78 430.412 206.21 429.392 206.21 428.012V424.322H207.34V427.912C207.34 428.902 207.77 429.542 208.71 429.542C209.59 429.542 210.27 428.832 210.27 427.732V427.722ZM200.23 429.012L199.99 430.252H199.13V421.692H200.26V425.562C200.52 424.832 201.28 424.152 202.39 424.152C204.14 424.152 205.11 425.542 205.11 427.292C205.11 429.042 204.15 430.412 202.38 430.412C201.28 430.412 200.51 429.762 200.23 429.012ZM200.23 427.112V427.452C200.23 428.752 201.06 429.512 202.13 429.512C203.3 429.512 203.94 428.642 203.94 427.282C203.94 425.922 203.3 425.052 202.13 425.052C201.06 425.052 200.23 425.812 200.23 427.102V427.112ZM194.05 422.982V421.692H195.39V422.972C195.39 423.922 195.15 424.452 194.05 424.462V423.792C194.57 423.752 194.69 423.572 194.69 422.972H194.05V422.982ZM189.04 428.102V430.252H187.91V421.692H189.04V427.002L192.03 424.312H193.44L190.71 426.742L193.56 430.242H192.23L189.87 427.362L189.04 428.092V428.102ZM180.92 427.292C180.92 425.402 182.17 424.152 183.96 424.152C185.75 424.152 186.64 425.322 186.76 426.742L185.77 426.812C185.67 425.762 185.05 425.062 183.95 425.062C182.85 425.062 182.08 425.922 182.08 427.292C182.08 428.662 182.84 429.522 183.95 429.522C185.06 429.522 185.68 428.772 185.77 427.732L186.76 427.832C186.64 429.272 185.7 430.422 183.96 430.422C182.22 430.422 180.92 429.182 180.92 427.302V427.292ZM175.38 426.832H178.93C178.89 425.882 178.36 425.012 177.23 425.012C176.1 425.012 175.52 425.852 175.38 426.832ZM179.12 428.142L180.06 428.252C179.76 429.592 178.77 430.412 177.29 430.412C175.52 430.412 174.23 429.212 174.23 427.372C174.23 425.532 175.52 424.152 177.23 424.152C179.12 424.152 180.08 425.492 180.08 427.112V427.562H175.35C175.4 428.712 176.23 429.532 177.29 429.532C178.28 429.532 178.87 429.052 179.11 428.142H179.12ZM169 426.842V430.252H167.87V421.692H169V425.372C169.29 424.652 170.09 424.152 170.97 424.152C172.52 424.152 173.14 425.182 173.14 426.572V430.252H172.01V426.662C172.01 425.672 171.53 425.042 170.6 425.042C169.67 425.042 169 425.752 169 426.832V426.842ZM158.48 425.972C158.48 423.332 160.31 421.532 162.68 421.532C165.05 421.532 166.51 423.042 166.67 425.242L165.53 425.292C165.43 423.712 164.44 422.532 162.68 422.532C160.92 422.532 159.69 423.862 159.69 425.972C159.69 428.082 160.94 429.412 162.68 429.412C164.42 429.412 165.44 428.232 165.53 426.652L166.67 426.702C166.51 428.902 165.12 430.412 162.68 430.412C160.24 430.412 158.48 428.602 158.48 425.972ZM153.72 430.252V429.012C153.45 429.742 152.7 430.412 151.59 430.412C149.82 430.412 148.87 429.042 148.87 427.292C148.87 425.542 149.82 424.152 151.59 424.152C152.7 424.152 153.45 424.832 153.72 425.562V421.692H154.85V430.252H153.72ZM153.73 427.452V427.112C153.73 425.822 152.91 425.062 151.84 425.062C150.67 425.062 150.02 425.932 150.02 427.292C150.02 428.652 150.67 429.522 151.84 429.522C152.91 429.522 153.73 428.762 153.73 427.462V427.452ZM143.64 426.842V430.252H142.51V424.312H143.64V425.372C143.93 424.652 144.73 424.152 145.61 424.152C147.16 424.152 147.78 425.182 147.78 426.572V430.252H146.65V426.662C146.65 425.672 146.17 425.042 145.24 425.042C144.31 425.042 143.64 425.752 143.64 426.832V426.842ZM136.64 426.832H140.19C140.15 425.882 139.62 425.012 138.49 425.012C137.36 425.012 136.78 425.852 136.64 426.832ZM140.37 428.142L141.31 428.252C141.01 429.592 140.02 430.412 138.54 430.412C136.77 430.412 135.48 429.212 135.48 427.372C135.48 425.532 136.77 424.152 138.48 424.152C140.37 424.152 141.33 425.492 141.33 427.112V427.562H136.6C136.65 428.712 137.48 429.532 138.54 429.532C139.53 429.532 140.12 429.052 140.36 428.142H140.37ZM127.72 427.192L128.78 427.122C128.85 428.682 129.92 429.482 131.36 429.482C132.64 429.482 133.44 428.942 133.44 428.002C133.44 427.212 132.92 426.832 131.81 426.612L130.11 426.282C128.85 426.042 127.98 425.362 127.98 424.022C127.98 422.532 129.16 421.512 131.04 421.512C133.19 421.512 134.42 422.652 134.44 424.582L133.37 424.632C133.33 423.222 132.47 422.422 131.06 422.422C129.82 422.422 129.13 423.002 129.13 423.952C129.13 424.792 129.69 425.062 130.68 425.252L132.23 425.552C133.79 425.852 134.58 426.532 134.58 427.902C134.58 429.482 133.22 430.392 131.37 430.392C129.26 430.392 127.73 429.242 127.73 427.172L127.72 427.192ZM126.96 423.042V424.332H125.62V423.072C125.62 422.122 125.86 421.582 126.96 421.582V422.232C126.44 422.272 126.32 422.452 126.32 423.042H126.96ZM117.56 426.832H121.11C121.07 425.882 120.54 425.012 119.41 425.012C118.28 425.012 117.7 425.852 117.56 426.832ZM121.3 428.142L122.24 428.252C121.94 429.592 120.95 430.412 119.47 430.412C117.7 430.412 116.41 429.212 116.41 427.372C116.41 425.532 117.7 424.152 119.41 424.152C121.3 424.152 122.26 425.492 122.26 427.112V427.562H117.53C117.58 428.712 118.41 429.532 119.47 429.532C120.46 429.532 121.05 429.052 121.29 428.142H121.3ZM111.17 426.842V430.252H110.04V421.692H111.17V425.372C111.46 424.652 112.26 424.152 113.14 424.152C114.69 424.152 115.31 425.182 115.31 426.572V430.252H114.18V426.662C114.18 425.672 113.7 425.042 112.77 425.042C111.84 425.042 111.17 425.752 111.17 426.832V426.842ZM106.1 428.862V425.122H105.2V424.512L105.58 424.442C106.14 424.332 106.26 424.062 106.4 423.492L106.58 422.662H107.22V424.302H108.89V425.112H107.22V428.712C107.22 429.242 107.44 429.482 107.95 429.482C108.33 429.482 108.72 429.322 109.06 429.132V429.892C108.63 430.222 108.19 430.392 107.54 430.392C106.7 430.392 106.1 430.002 106.1 428.842V428.862ZM97.8398 426.842V430.252H96.7098V424.312H97.8398V425.372C98.1298 424.652 98.9298 424.152 99.8098 424.152C101.36 424.152 101.98 425.182 101.98 426.572V430.252H100.85V426.662C100.85 425.672 100.37 425.042 99.4398 425.042C98.5098 425.042 97.8398 425.752 97.8398 426.832V426.842ZM95.5499 427.292C95.5499 429.142 94.2598 430.412 92.5098 430.412C90.7598 430.412 89.4898 429.132 89.4898 427.292C89.4898 425.452 90.7698 424.152 92.5098 424.152C94.2499 424.152 95.5499 425.442 95.5499 427.292ZM90.6398 427.292C90.6398 428.612 91.3098 429.542 92.4998 429.542C93.6898 429.542 94.3898 428.602 94.3898 427.292C94.3898 425.982 93.7098 425.032 92.4998 425.032C91.2898 425.032 90.6398 425.952 90.6398 427.292ZM82.0598 428.102V430.252H80.9298V421.692H82.0598V427.002L85.0499 424.312H86.4598L83.7299 426.742L86.5798 430.242H85.2498L82.8898 427.362L82.0598 428.092V428.102ZM73.9298 427.292C73.9298 425.402 75.1798 424.152 76.9698 424.152C78.7598 424.152 79.6498 425.322 79.7698 426.742L78.7798 426.812C78.6798 425.762 78.0598 425.062 76.9598 425.062C75.8598 425.062 75.0898 425.922 75.0898 427.292C75.0898 428.662 75.8498 429.522 76.9598 429.522C78.0698 429.522 78.6898 428.772 78.7798 427.732L79.7698 427.832C79.6498 429.272 78.7098 430.422 76.9698 430.422C75.2298 430.422 73.9298 429.182 73.9298 427.302V427.292ZM71.6199 422.972V421.692H72.7898V422.972H71.6199ZM71.6398 424.312H72.7698V430.252H71.6398V424.312ZM68.9799 421.692H70.1098V430.252H68.9799V421.692ZM59.5898 425.972C59.5898 423.332 61.4198 421.532 63.7898 421.532C66.1598 421.532 67.6198 423.042 67.7798 425.242L66.6398 425.292C66.5398 423.712 65.5498 422.532 63.7898 422.532C62.0298 422.532 60.7999 423.862 60.7999 425.972C60.7999 428.082 62.0498 429.412 63.7898 429.412C65.5298 429.412 66.5498 428.232 66.6398 426.652L67.7798 426.702C67.6198 428.902 66.2298 430.412 63.7898 430.412C61.3498 430.412 59.5898 428.602 59.5898 425.972Z" fill="#898989"/>
<path d="M160.591 233.102C160.591 228.072 158.971 225.542 155.561 225.542C152.151 225.542 150.531 228.072 150.531 233.102C150.531 238.132 152.151 240.662 155.561 240.662C158.971 240.662 160.591 238.132 160.591 233.102ZM163.271 233.102C163.271 239.252 160.421 242.722 155.561 242.722C150.701 242.722 147.881 239.252 147.881 233.102C147.881 226.952 150.711 223.482 155.561 223.482C160.411 223.482 163.271 226.952 163.271 233.102ZM143.291 233.102C143.291 228.072 141.671 225.542 138.261 225.542C134.851 225.542 133.231 228.072 133.231 233.102C133.231 238.132 134.851 240.662 138.261 240.662C141.671 240.662 143.291 238.132 143.291 233.102ZM145.971 233.102C145.971 239.252 143.121 242.722 138.261 242.722C133.401 242.722 130.581 239.252 130.581 233.102C130.581 226.952 133.411 223.482 138.261 223.482C143.111 223.482 145.971 226.952 145.971 233.102ZM126.411 242.372V239.432H129.351V242.312C129.351 244.372 128.761 245.582 126.411 245.612V244.172C127.501 244.082 127.791 243.672 127.791 242.372H126.411ZM122.541 233.102C122.541 228.072 120.921 225.542 117.511 225.542C114.101 225.542 112.481 228.072 112.481 233.102C112.481 238.132 114.101 240.662 117.511 240.662C120.921 240.662 122.541 238.132 122.541 233.102ZM125.211 233.102C125.211 239.252 122.361 242.722 117.501 242.722C112.641 242.722 109.821 239.252 109.821 233.102C109.821 226.952 112.651 223.482 117.501 223.482C122.351 223.482 125.211 226.952 125.211 233.102ZM105.231 233.102C105.231 228.072 103.611 225.542 100.201 225.542C96.7908 225.542 95.1708 228.072 95.1708 233.102C95.1708 238.132 96.7908 240.662 100.201 240.662C103.611 240.662 105.231 238.132 105.231 233.102ZM107.911 233.102C107.911 239.252 105.061 242.722 100.201 242.722C95.3408 242.722 92.5208 239.252 92.5208 233.102C92.5208 226.952 95.3508 223.482 100.201 223.482C105.051 223.482 107.911 226.952 107.911 233.102ZM85.6708 226.132L78.1408 235.342H85.6708V226.132ZM88.1708 223.832V235.342H91.3508V237.432H88.1708V242.372H85.6708V237.432H75.9308V235.022L85.0808 223.842H88.1708V223.832ZM62.7208 228.692C62.7208 230.542 63.9908 231.252 66.1008 231.662L66.4808 231.752V225.422C64.0408 225.512 62.7108 226.662 62.7108 228.692H62.7208ZM68.5708 234.492L68.1308 234.402V240.792C70.4808 240.642 72.0408 239.442 72.0408 237.522C72.0408 235.812 70.9508 234.962 68.5708 234.492ZM59.8008 235.752L62.0708 235.602C62.1908 238.572 63.9808 240.312 66.4808 240.692V234.102L64.9208 233.782C62.2108 233.282 60.3308 231.722 60.3308 228.842C60.3308 225.692 62.6608 223.602 66.4808 223.482V220.922H68.1308V223.572C71.8708 224.012 74.0508 226.402 74.0808 230.132L71.8108 230.252C71.7208 227.662 70.3708 226.012 68.1308 225.572V232.072L69.4008 232.312C72.7608 232.962 74.4608 234.372 74.4608 237.342C74.4608 240.612 71.8108 242.552 68.1308 242.702V245.382H66.4808V242.672C62.5708 242.292 59.8008 239.842 59.8008 235.752Z" fill="#081213"/>
<path d="M92.4605 204.732H96.0105C95.9705 203.782 95.4405 202.912 94.3105 202.912C93.1805 202.912 92.6005 203.752 92.4605 204.732ZM96.2005 206.052L97.1405 206.162C96.8405 207.502 95.8505 208.322 94.3705 208.322C92.6005 208.322 91.3105 207.122 91.3105 205.282C91.3105 203.442 92.6005 202.062 94.3105 202.062C96.2005 202.062 97.1605 203.402 97.1605 205.022V205.472H92.4305C92.4805 206.622 93.3105 207.442 94.3705 207.442C95.3605 207.442 95.9505 206.962 96.1905 206.052H96.2005ZM84.6505 205.202C84.6505 203.312 85.9005 202.062 87.6905 202.062C89.4805 202.062 90.3705 203.232 90.4905 204.652L89.5005 204.722C89.4005 203.672 88.7805 202.972 87.6805 202.972C86.5805 202.972 85.8105 203.832 85.8105 205.202C85.8105 206.572 86.5705 207.432 87.6805 207.432C88.7905 207.432 89.4105 206.682 89.5005 205.642L90.4905 205.742C90.3705 207.182 89.4305 208.332 87.6905 208.332C85.9505 208.332 84.6505 207.092 84.6505 205.212V205.202ZM82.3305 200.882V199.602H83.5005V200.882H82.3305ZM82.3605 202.222H83.4905V208.162H82.3605V202.222ZM81.1905 205.202C81.1905 207.052 79.9005 208.322 78.1505 208.322C76.4005 208.322 75.1305 207.042 75.1305 205.202C75.1305 203.362 76.4105 202.062 78.1505 202.062C79.8905 202.062 81.1905 203.352 81.1905 205.202ZM76.2905 205.202C76.2905 206.522 76.9605 207.452 78.1505 207.452C79.3405 207.452 80.0405 206.512 80.0405 205.202C80.0405 203.892 79.3605 202.942 78.1505 202.942C76.9405 202.942 76.2905 203.862 76.2905 205.202ZM72.3105 208.162H71.2105L68.7605 202.222H69.9405L71.7905 206.782H71.8405L73.6505 202.222H74.7505L72.3005 208.162H72.3105ZM63.9005 204.752V208.162H62.7705V202.222H63.9005V203.282C64.1905 202.562 64.9905 202.062 65.8705 202.062C67.4205 202.062 68.0405 203.092 68.0405 204.482V208.162H66.9105V204.572C66.9105 203.582 66.4305 202.952 65.5005 202.952C64.5705 202.952 63.9005 203.662 63.9005 204.742V204.752ZM59.9805 199.602H61.1605V208.162H59.9805V199.602Z" fill="#898989"/>
<path d="M358.01 263.879H59.1602V265.009H358.01V263.879Z" fill="#E0E0E0"/>
<path d="M358.01 397.422H59.1602V398.552H358.01V397.422Z" fill="#E0E0E0"/>
<path d="M338.27 698.319L77.3504 698.709C49.3604 698.749 26.4204 676.119 26.3804 648.399L25.5704 72.1691C25.5304 43.8991 48.6504 20.7191 76.9504 20.6791L340.76 20.2891C369.06 20.2491 392.11 43.3591 391.98 71.6291L389.4 647.869C389.27 675.589 366.26 698.289 338.27 698.329V698.319Z" stroke="url(#paint3_linear_2_74612)" stroke-width="0.5" stroke-linecap="round" stroke-linejoin="round"/>
<defs>
<filter id="filter0_d_2_74612" x="0.480469" y="0" width="416.5" height="729.449" filterUnits="userSpaceOnUse" color-interpolation-filters="sRGB">
<feFlood flood-opacity="0" result="BackgroundImageFix"/>
<feColorMatrix in="SourceAlpha" type="matrix" values="0 0 0 0 0 0 0 0 0 0 0 0 0 0 0 0 0 0 127 0" result="hardAlpha"/>
<feOffset dy="4"/>
<feGaussianBlur stdDeviation="3.5"/>
<feComposite in2="hardAlpha" operator="out"/>
<feColorMatrix type="matrix" values="0 0 0 0 0 0 0 0 0 0 0 0 0 0 0 0 0 0 0.15 0"/>
<feBlend mode="normal" in2="BackgroundImageFix" result="effect1_dropShadow_2_74612"/>
<feBlend mode="normal" in="SourceGraphic" in2="effect1_dropShadow_2_74612" result="shape"/>
</filter>
<linearGradient id="paint0_linear_2_74612" x1="7.79488" y1="360.995" x2="410.604" y2="360.362" gradientUnits="userSpaceOnUse">
<stop stop-color="white"/>
<stop offset="1" stop-color="white" stop-opacity="0.2"/>
</linearGradient>
<linearGradient id="paint1_linear_2_74612" x1="180.991" y1="642.97" x2="236.551" y2="642.97" gradientUnits="userSpaceOnUse">
<stop stop-color="#4E80F3"/>
<stop offset="1" stop-color="#67DA5E"/>
</linearGradient>
<linearGradient id="paint2_linear_2_74612" x1="171.53" y1="51.6316" x2="246" y2="51.6316" gradientUnits="userSpaceOnUse">
<stop stop-color="#4E80F3"/>
<stop offset="1" stop-color="#67DA5E"/>
</linearGradient>
<linearGradient id="paint3_linear_2_74612" x1="208.856" y1="698.898" x2="208.789" y2="19.9977" gradientUnits="userSpaceOnUse">
<stop stop-color="#4E80F3"/>
<stop offset="1" stop-color="#67DA5E"/>
</linearGradient>
</defs>
</svg>
