<svg width="205" height="25" viewBox="0 0 205 25" fill="none" xmlns="http://www.w3.org/2000/svg">
<path d="M86.882 14.8894C84.652 14.4494 83.752 14.1994 83.752 13.5694C83.752 12.9894 84.2421 12.3894 85.672 12.3894C86.8221 12.3894 87.792 12.8794 88.282 13.7294C88.392 13.9194 88.642 13.9794 88.832 13.8694L91.662 12.3094C91.772 12.2594 91.852 12.1494 91.882 12.0394C91.912 11.9294 91.882 11.7894 91.832 11.7094C90.542 9.78937 88.532 8.85938 85.702 8.85938H85.562C83.612 8.85938 81.882 9.48937 80.722 10.6094C79.842 11.4594 79.352 12.5794 79.352 13.7094C79.352 17.0294 82.152 17.9894 84.902 18.4794L85.122 18.5294C86.802 18.8294 88.122 19.0794 88.122 19.8194C88.122 20.4794 87.492 21.1394 86.092 21.1394C84.692 21.1394 83.672 20.5594 83.092 19.4394C83.042 19.3294 82.952 19.2494 82.822 19.2194C82.712 19.1894 82.602 19.1894 82.492 19.2494L79.362 20.9794C79.252 21.0294 79.202 21.1194 79.172 21.2294C79.142 21.3394 79.142 21.4494 79.202 21.5594C80.462 23.7794 82.642 24.8794 85.912 24.8794H86.052C88.582 24.8794 90.122 23.8894 90.942 23.0694C91.902 22.1394 92.452 20.8794 92.452 19.6994C92.482 16.5194 89.782 15.5294 86.902 14.8994L86.882 14.8894Z" fill="#3F6DEE"/>
<path d="M101.091 14.8894C98.861 14.4494 97.961 14.1994 97.961 13.5694C97.961 12.9894 98.451 12.3894 99.881 12.3894C101.031 12.3894 102.001 12.8794 102.491 13.7294C102.601 13.9194 102.851 13.9794 103.041 13.8694L105.871 12.3094C105.981 12.2594 106.061 12.1494 106.091 12.0394C106.121 11.9294 106.091 11.7894 106.041 11.7094C104.751 9.78937 102.741 8.85938 99.911 8.85938H99.771C97.821 8.85938 96.091 9.48937 94.931 10.6094C94.051 11.4594 93.561 12.5794 93.561 13.7094C93.561 17.0294 96.361 17.9894 99.111 18.4794L99.331 18.5294C101.011 18.8294 102.331 19.0794 102.331 19.8194C102.331 20.4794 101.701 21.1394 100.301 21.1394C98.901 21.1394 97.881 20.5594 97.301 19.4394C97.251 19.3294 97.161 19.2494 97.031 19.2194C96.921 19.1894 96.811 19.1894 96.701 19.2494L93.571 20.9794C93.461 21.0294 93.411 21.1194 93.381 21.2294C93.351 21.3394 93.351 21.4494 93.411 21.5594C94.671 23.7794 96.851 24.8794 100.121 24.8794H100.261C102.791 24.8794 104.331 23.8894 105.151 23.0694C106.111 22.1394 106.661 20.8794 106.661 19.6994C106.711 16.5194 104.021 15.5294 101.111 14.8994L101.091 14.8894Z" fill="#3F6DEE"/>
<path d="M158.252 17.7066V13.2066C158.252 13.0466 158.392 12.9066 158.552 12.9066H161.132C161.352 12.9066 161.512 12.7466 161.512 12.5266V9.61657C161.512 9.39657 161.352 9.23657 161.132 9.23657H158.552C158.392 9.23657 158.252 9.09657 158.252 8.90657V4.27657C158.252 3.97657 157.922 3.78657 157.672 3.91657L154.072 5.88657C153.932 5.96657 153.882 6.07657 153.882 6.24657V8.90657C153.882 9.06657 153.742 9.23657 153.552 9.23657H151.962C151.742 9.23657 151.582 9.39657 151.582 9.61657V12.5266C151.582 12.7466 151.742 12.9066 151.962 12.9066H153.552C153.712 12.9066 153.882 13.0466 153.882 13.2366V18.7166C153.882 21.9566 156.522 24.5266 159.762 24.5566C160.312 24.5566 160.832 24.6066 161.332 24.5066C161.472 24.4766 161.582 24.3466 161.582 24.1766V20.5866C161.582 20.4466 161.442 20.3366 161.312 20.3966C161.092 20.4466 160.872 20.5066 160.652 20.5066C159.552 20.5066 158.642 19.7666 158.402 18.7566C158.352 18.6766 158.262 18.2666 158.262 17.7166L158.252 17.7066Z" fill="#3F6DEE"/>
<path d="M167.79 16.9975V9.5675C167.79 9.3475 167.63 9.1875 167.41 9.1875H163.78C163.56 9.1875 163.4 9.3475 163.4 9.5675V17.4075C163.4 19.5975 164.06 21.4675 165.27 22.8075C166.48 24.1275 168.18 24.8375 170.19 24.8375C171.84 24.8375 173.27 24.4575 174.61 23.3875L174.69 23.3375V24.1275C174.69 24.3475 174.85 24.5075 175.07 24.5075H178.7C178.92 24.5075 179.08 24.3475 179.08 24.1275V9.5675C179.08 9.3475 178.92 9.1875 178.7 9.1875H175.07C174.85 9.1875 174.69 9.3475 174.69 9.5675V16.9175C174.69 19.3875 173.4 20.8375 171.23 20.8375C169.06 20.8375 167.79 19.4075 167.79 16.9975Z" fill="#3F6DEE"/>
<path d="M138.441 16.9975V9.5675C138.441 9.3475 138.281 9.1875 138.061 9.1875H134.431C134.211 9.1875 134.051 9.3475 134.051 9.5675V17.4075C134.051 19.5975 134.711 21.4675 135.921 22.8075C137.131 24.1275 138.831 24.8375 140.841 24.8375C142.491 24.8375 143.921 24.4575 145.261 23.3875L145.341 23.3375V24.2175C145.341 24.3775 145.481 24.5475 145.671 24.5475H149.461C149.621 24.5475 149.761 24.4075 149.761 24.2175V9.5775C149.761 9.3575 149.601 9.1975 149.381 9.1975H145.721C145.501 9.1975 145.341 9.3575 145.341 9.5775V16.9275C145.341 19.3975 144.051 20.8475 141.881 20.8475C139.711 20.8475 138.441 19.4175 138.441 17.0075V16.9975Z" fill="#3F6DEE"/>
<path d="M204.012 0.738281H200.302C200.082 0.738281 199.922 0.898281 199.922 1.11828V24.1983C199.922 24.3583 200.062 24.5283 200.252 24.5283H204.042C204.202 24.5283 204.372 24.3883 204.372 24.1983V1.04828C204.342 0.888282 204.182 0.748281 204.012 0.748281V0.738281Z" fill="#3F6DEE"/>
<path d="M60.7207 16.7772C60.7207 21.6872 64.0207 24.9472 68.9107 24.8372C70.3707 24.8072 71.7707 24.2372 72.9207 23.3272V24.1172C72.9207 24.3372 73.0807 24.4972 73.3007 24.4972H76.9307C77.1507 24.4972 77.3107 24.3372 77.3107 24.1172V9.55719C77.3107 9.33719 77.1507 9.17719 76.9307 9.17719H73.3007C73.0807 9.17719 72.9207 9.33719 72.9207 9.55719V10.3472L72.8407 10.2972C71.6007 9.33719 70.2007 8.86719 68.6407 8.86719C63.9107 8.86719 60.7307 12.0472 60.7307 16.7672L60.7207 16.7772ZM69.0407 12.6372C71.3207 12.6372 72.9407 14.3372 72.9407 16.7772C72.9407 19.2172 71.2907 21.0572 69.0407 21.0572C66.7907 21.0572 65.0807 19.2472 65.0807 16.7772C65.0807 14.3072 66.7007 12.6372 69.0407 12.6372Z" fill="#3F6DEE"/>
<path d="M180.871 16.7782C180.871 21.6882 184.171 24.9482 189.061 24.8382C190.521 24.8082 191.921 24.2382 193.071 23.3282V24.2082C193.071 24.3682 193.211 24.5382 193.401 24.5382H197.191C197.351 24.5382 197.491 24.3982 197.491 24.2082V9.51818C197.491 9.35818 197.351 9.21818 197.191 9.21818H193.401C193.241 9.21818 193.071 9.35818 193.071 9.51818V10.3982L192.991 10.3482C191.751 9.38818 190.351 8.91818 188.791 8.91818C184.061 8.88818 180.871 12.0682 180.871 16.7882V16.7782ZM189.201 12.6382C191.481 12.6382 193.101 14.3382 193.101 16.7782C193.101 19.2182 191.451 21.0582 189.201 21.0582C186.951 21.0582 185.241 19.2482 185.241 16.7782C185.241 14.3082 186.861 12.6382 189.201 12.6382Z" fill="#3F6DEE"/>
<path d="M55.3305 0.938281L47.3305 12.7283L39.3305 0.938281C39.2505 0.798281 39.1105 0.748281 38.9505 0.748281H36.2005C35.9505 0.748281 35.7305 0.938282 35.7305 1.21828V24.0783C35.7305 24.3283 35.9205 24.5483 36.2005 24.5483H39.7205C39.9705 24.5483 40.1905 24.3583 40.1905 24.0783V10.0983L46.9805 20.1083C47.1705 20.3783 47.5605 20.3783 47.7505 20.1083L54.5405 10.0983V24.0783C54.5405 24.3283 54.7305 24.5483 55.0105 24.5483H58.5305C58.7805 24.5483 59.0005 24.3583 59.0005 24.0783V1.20828C59.0005 0.958282 58.8105 0.738281 58.5305 0.738281H55.7805C55.5605 0.738281 55.4205 0.818282 55.3405 0.928282L55.3305 0.938281Z" fill="#3F6DEE"/>
<path d="M128.022 0.938281L120.022 12.7283L112.022 0.938281C111.942 0.798281 111.802 0.748281 111.642 0.748281H108.892C108.642 0.748281 108.422 0.938282 108.422 1.21828V24.0783C108.422 24.3283 108.612 24.5483 108.892 24.5483H112.412C112.662 24.5483 112.882 24.3583 112.882 24.0783V10.0983L119.672 20.1083C119.862 20.3783 120.252 20.3783 120.442 20.1083L127.232 10.0983V24.0783C127.232 24.3283 127.422 24.5483 127.702 24.5483H131.162C131.412 24.5483 131.632 24.3583 131.632 24.0783V1.20828C131.632 0.958282 131.442 0.738281 131.162 0.738281H128.412C128.252 0.738281 128.112 0.818282 128.032 0.928282L128.022 0.938281Z" fill="#3F6DEE"/>
<path d="M30.0516 21.2775C30.0516 19.3075 28.4316 17.6875 26.4516 17.6875C24.4716 17.6875 22.8516 19.3075 22.8516 21.2775C22.8516 23.2475 24.4716 24.8675 26.4516 24.8675C28.4316 24.8975 30.0516 23.2475 30.0516 21.2775Z" fill="#3F6DEE"/>
<path d="M18.7508 21.2775C18.7508 19.3075 17.1308 17.6875 15.1508 17.6875C13.1708 17.6875 11.5508 19.3075 11.5508 21.2775C11.5508 23.2475 13.1708 24.8675 15.1508 24.8675C17.1308 24.8975 18.7508 23.2475 18.7508 21.2775Z" fill="#3F6DEE"/>
<path d="M7.48125 21.2775C7.48125 19.3075 5.86126 17.6875 3.88126 17.6875C1.90126 17.6875 0.28125 19.3075 0.28125 21.2775C0.28125 23.2475 1.90126 24.8675 3.88126 24.8675C5.86126 24.8975 7.48125 23.2475 7.48125 21.2775Z" fill="#3F6DEE"/>
<path d="M20.8109 16.0394C22.7992 16.0394 24.4109 14.4321 24.4109 12.4494C24.4109 10.4667 22.7992 8.85938 20.8109 8.85938C18.8227 8.85938 17.2109 10.4667 17.2109 12.4494C17.2109 14.4321 18.8227 16.0394 20.8109 16.0394Z" fill="#3F6DEE"/>
<path d="M9.5414 16.0394C11.5296 16.0394 13.1414 14.4321 13.1414 12.4494C13.1414 10.4667 11.5296 8.85938 9.5414 8.85938C7.55317 8.85938 5.94141 10.4667 5.94141 12.4494C5.94141 14.4321 7.55317 16.0394 9.5414 16.0394Z" fill="#3F6DEE"/>
</svg>
