<svg width="48" height="48" viewBox="0 0 48 48" fill="none" xmlns="http://www.w3.org/2000/svg">
<path d="M38.97 0H8.17C3.65783 0 0 3.65783 0 8.17V38.97C0 43.4822 3.65783 47.14 8.17 47.14H38.97C43.4822 47.14 47.14 43.4822 47.14 38.97V8.17C47.14 3.65783 43.4822 0 38.97 0Z" fill="white"/>
<path d="M27.5791 19.2102C27.4791 18.3502 27.0591 17.6802 26.3391 17.2002C25.6091 16.7202 24.7191 16.4802 23.6591 16.4802C22.8891 16.4802 22.2091 16.6002 21.6391 16.8602C21.0591 17.1102 20.6091 17.4502 20.2891 17.8902C19.9691 18.3302 19.8091 18.8302 19.8091 19.3802C19.8091 19.8502 19.9191 20.2502 20.1491 20.5802C20.3691 20.9102 20.6591 21.1902 21.0191 21.4102C21.3691 21.6302 21.7391 21.8102 22.1291 21.9502C22.5191 22.0902 22.8691 22.2002 23.1991 22.2902L24.9691 22.7702C25.4291 22.8902 25.9291 23.0502 26.4891 23.2602C27.0491 23.4702 27.5891 23.7602 28.0991 24.1202C28.6091 24.4802 29.0391 24.9402 29.3691 25.5102C29.7091 26.0702 29.8691 26.7602 29.8691 27.5802C29.8691 28.5202 29.6191 29.3802 29.1291 30.1402C28.6391 30.9002 27.9191 31.5102 26.9791 31.9502C26.0391 32.4002 24.8991 32.6202 23.5591 32.6202C22.3091 32.6202 21.2291 32.4202 20.3191 32.0202C19.4091 31.6202 18.6891 31.0502 18.1691 30.3302C17.6491 29.6102 17.3591 28.7702 17.2891 27.8202H19.4691C19.5291 28.4802 19.7491 29.0202 20.1391 29.4502C20.5291 29.8802 21.0191 30.2002 21.6191 30.4002C22.2191 30.6102 22.8691 30.7102 23.5591 30.7102C24.3691 30.7102 25.0891 30.5802 25.7291 30.3102C26.3691 30.0502 26.8791 29.6802 27.2591 29.2002C27.6391 28.7202 27.8191 28.1702 27.8191 27.5302C27.8191 26.9502 27.6591 26.4802 27.3291 26.1202C27.0091 25.7602 26.5791 25.4602 26.0491 25.2302C25.5191 25.0002 24.9491 24.8002 24.3391 24.6302L22.1891 24.0202C20.8291 23.6302 19.7491 23.0702 18.9491 22.3402C18.1591 21.6102 17.7591 20.6602 17.7591 19.4802C17.7591 18.5002 18.0291 17.6502 18.5591 16.9202C19.0891 16.1902 19.8091 15.6202 20.7091 15.2202C21.6091 14.8102 22.6191 14.6102 23.7291 14.6102C24.8391 14.6102 25.8491 14.8102 26.7291 15.2102C27.6091 15.6102 28.2991 16.1602 28.8091 16.8502C29.3191 17.5402 29.5991 18.3302 29.6191 19.2102H27.5691H27.5791ZM22.8691 34.4802V12.6602H24.2691V34.4802H22.8691Z" fill="#3EA8BD"/>
</svg>
