<svg width="128" height="54" viewBox="0 0 128 54" fill="none" xmlns="http://www.w3.org/2000/svg">
<path d="M39.0677 35.0131L42.9078 45.0631C42.9378 45.1331 42.9278 45.2131 42.8778 45.2731C42.8378 45.3331 42.7678 45.3731 42.6978 45.3731H35.6478L34.2578 49.5331H44.0778C44.3578 49.5331 44.6178 49.7031 44.7178 49.9731L45.5978 52.3531C45.7678 52.8231 46.2178 53.1331 46.7178 53.1331H48.6178C49.0078 53.1331 49.3678 52.9431 49.5978 52.6231C49.8178 52.3031 49.8778 51.8931 49.7378 51.5331L41.9678 30.5031C41.7978 30.0331 41.3478 29.7031 40.8578 29.7031L39.0978 35.0231L39.0677 35.0131Z" fill="#3F6DEE"/>
<path d="M83.3092 44.3831C83.1192 44.1931 83.0292 43.9831 83.0292 43.7431V34.5431C83.0292 34.2831 83.1192 34.0631 83.3092 33.8931C83.4992 33.7231 83.7091 33.6331 83.9491 33.6331H86.2191C87.7691 33.6331 89.1091 34.1831 90.2291 35.2831C91.3491 36.3831 91.8891 37.7031 91.8691 39.2331C91.8291 40.7431 91.2691 42.0231 90.1991 43.0831C89.1291 44.1431 87.8391 44.6731 86.3191 44.6731H83.9591C83.7191 44.6731 83.5091 44.5831 83.3191 44.3931L83.3092 44.3831ZM80.3291 29.7031C79.9891 29.7031 79.6991 29.8231 79.4591 30.0731C79.2291 30.3131 79.1191 30.5931 79.1191 30.9031V51.9231C79.1191 52.2631 79.2391 52.5531 79.4691 52.7831C79.6991 53.0131 79.9891 53.1331 80.3291 53.1331H82.0991C82.4391 53.1331 82.7291 53.0131 82.9591 52.7831C83.1891 52.5531 83.3092 52.2631 83.3092 51.9231V49.1831C83.3092 49.0031 83.3691 48.8531 83.4991 48.7331C83.6291 48.6131 83.7791 48.5531 83.9391 48.5531H86.1692C88.7492 48.5531 91.0091 47.6431 92.8691 45.8531C94.7391 44.0631 95.6991 41.8431 95.7491 39.2631C95.7891 36.6631 94.8792 34.3931 93.0392 32.5231C91.1992 30.6531 88.9292 29.7031 86.2992 29.7031H80.3191H80.3291Z" fill="#3F6DEE"/>
<path d="M5.62825 29.8822C4.60825 30.3322 3.79824 30.9422 3.23824 31.6722C2.68824 32.3922 2.26824 33.1322 1.98824 33.8722C1.70824 34.6222 1.55831 35.3722 1.55831 36.1022C1.55831 36.6922 1.63828 37.2622 1.77828 37.7822C1.92828 38.3022 2.1082 38.7622 2.3282 39.1522C2.5482 39.5422 2.86829 39.9422 3.28829 40.3322C3.68829 40.7022 4.04823 41.0122 4.35823 41.2522C4.67823 41.4922 5.11828 41.7522 5.65828 42.0322C6.19828 42.3022 6.61828 42.5122 6.90828 42.6522C7.20828 42.7922 7.64822 42.9922 8.21822 43.2322C9.86822 43.9422 11.0383 44.5522 11.6783 45.0622C12.2783 45.5322 12.5682 46.1122 12.5682 46.8322C12.5682 47.3222 12.4582 47.7422 12.2182 48.1022C11.9882 48.4622 11.6882 48.7422 11.3282 48.9222C10.9482 49.1222 10.5682 49.2622 10.1982 49.3422C9.8282 49.4222 9.45823 49.4622 9.10823 49.4622C6.96823 49.4622 5.6082 48.5822 4.9482 46.7622C4.8382 46.4822 4.64827 46.2722 4.39827 46.1322C4.14827 45.9922 3.85829 45.9522 3.53829 46.0022L1.7983 46.3922C1.5783 46.4522 1.37823 46.5522 1.22823 46.7122C1.06823 46.8722 0.968281 47.0522 0.908281 47.2622C0.848281 47.4722 0.848281 47.6922 0.908281 47.9322C1.69828 50.2922 3.1882 51.9522 5.3282 52.8822L5.52828 52.9822C6.60828 53.4122 7.80823 53.6222 9.10823 53.6222C11.0682 53.6222 12.7782 53.0722 14.1982 51.9922C15.8782 50.7022 16.7382 48.9622 16.7382 46.8322C16.7382 46.3822 16.7083 45.9522 16.6383 45.5622C16.5683 45.1622 16.4483 44.7722 16.2883 44.4222C16.1283 44.0922 15.9782 43.7722 15.8182 43.4922C15.6482 43.1822 15.4283 42.8922 15.1483 42.6122C14.8883 42.3522 14.6482 42.1222 14.4382 41.9222C14.2182 41.7122 13.9183 41.4922 13.5583 41.2622L12.6882 40.7222C12.4482 40.5722 12.1182 40.4022 11.7082 40.2122C11.2982 40.0222 10.9883 39.8922 10.7783 39.8022C10.5683 39.7122 10.2783 39.5822 9.87825 39.4122C8.28825 38.7322 7.16831 38.1422 6.55831 37.6822C5.99831 37.2522 5.71822 36.7422 5.71822 36.1122V35.9322C5.71822 35.9322 5.71829 35.8422 5.78829 35.5822C5.83829 35.3922 5.90824 35.2022 5.98824 35.0222C6.06824 34.8522 6.18823 34.6622 6.35823 34.4722C6.52823 34.2722 6.72821 34.0922 6.95821 33.9322C7.17821 33.7722 7.47821 33.6522 7.83821 33.5422C8.20821 33.4422 8.6182 33.3922 9.0782 33.3922C10.9382 33.3922 12.2283 34.0622 13.0283 35.4422C13.1783 35.7022 13.3982 35.8822 13.6882 35.9722C13.9682 36.0622 14.2483 36.0422 14.5083 35.9322L16.1182 35.2222C16.4682 35.1022 16.7082 34.8622 16.8182 34.5222C16.9282 34.1822 16.8982 33.8522 16.7282 33.5422C15.1482 30.6922 12.5682 29.2422 9.06819 29.2422C7.78819 29.2422 6.62823 29.4722 5.60823 29.9222L5.62825 29.8822Z" fill="#3F6DEE"/>
<path d="M53.239 42.6127C53.219 42.9027 53.169 43.4627 53.139 43.8927C53.029 45.3227 52.809 47.9527 52.499 51.8327C52.469 52.1827 52.5789 52.4827 52.8189 52.7427C53.0589 53.0027 53.3589 53.1227 53.6989 53.1227H55.4689C55.7789 53.1227 56.059 53.0127 56.289 52.8027C56.399 52.7027 56.489 52.5827 56.549 52.4527C56.619 52.3127 56.659 52.1727 56.669 52.0127C56.929 49.2627 57.1789 46.5027 57.4389 43.7527L53.6989 36.9727C53.5389 38.9727 53.329 41.5127 53.239 42.6127Z" fill="#3F6DEE"/>
<path d="M71.1875 43.7109L71.9575 52.0009C71.9875 52.3109 72.1175 52.5809 72.3375 52.7909C72.5675 53.0009 72.8376 53.1109 73.1576 53.1109H74.9276C75.2676 53.1109 75.5676 52.9809 75.8076 52.7309C75.9376 52.5909 76.0275 52.4409 76.0875 52.2709C76.1575 52.0609 76.1376 51.8809 76.1376 51.8209C76.0176 50.4009 75.9176 49.0209 75.8076 47.6309C75.6776 46.0009 75.5576 44.3509 75.4076 42.6109C75.4076 42.5909 75.4075 42.4809 74.9575 36.9609L71.1975 43.7109H71.1875Z" fill="#3F6DEE"/>
<path d="M72.4685 29.6902C71.9985 29.6902 71.6286 29.9002 71.3986 30.3002L64.3385 43.1002C64.3385 43.1002 64.3186 43.1202 64.2686 43.1002L57.1985 30.2802C56.9685 29.8902 56.5985 29.6802 56.1285 29.6802H55.3685C55.0585 29.6802 54.7786 29.7902 54.5486 30.0002C54.4386 30.1002 54.3586 30.2102 54.2986 30.3302C54.1886 30.5302 54.1786 30.7202 54.1686 30.7802C54.0819 31.7335 54.0185 32.5035 53.9785 33.0902V33.1702L57.7185 39.8502L63.2385 49.8402C63.4585 50.2602 63.8286 50.4802 64.2986 50.4802C64.7686 50.4802 65.1285 50.2602 65.3485 49.8402L70.8986 39.8402L74.6385 33.1402V33.0602C74.6385 33.0602 74.4485 30.8002 74.4485 30.7702C74.4185 30.4602 74.2786 30.1902 74.0386 29.9802C73.7986 29.7702 73.5185 29.6602 73.2085 29.6602H72.4485L72.4685 29.6902Z" fill="#3F6DEE"/>
<path d="M19.7977 29.6914C19.4577 29.6914 19.1676 29.8114 18.9376 30.0614C18.7076 30.3014 18.5977 30.5814 18.5977 30.8914V32.6914C18.5977 33.0114 18.7076 33.2914 18.9376 33.5214C19.1676 33.7614 19.4577 33.8914 19.7977 33.8914H24.2577C24.4277 33.8914 24.5676 33.9514 24.6976 34.0814C24.8276 34.2014 24.8877 34.3414 24.8877 34.5314V51.9414C24.8877 52.2814 25.0077 52.5714 25.2277 52.7914C25.4577 53.0214 25.7476 53.1414 26.0876 53.1414H27.8577C28.1777 53.1414 28.4576 53.0314 28.6876 52.8014C28.9276 52.5714 29.0577 52.2814 29.0577 51.9414V34.5314C29.0577 34.3414 29.1177 34.2014 29.2377 34.0714C29.3577 33.9514 29.5076 33.8914 29.6976 33.8914H34.1577C34.4977 33.8914 34.7877 33.7714 35.0177 33.5214C35.2477 33.2814 35.3577 32.9914 35.3577 32.6614V30.8914C35.3577 30.5814 35.2477 30.3014 35.0177 30.0614C34.7877 29.8214 34.4977 29.6914 34.1577 29.6914H19.7877H19.7977Z" fill="#3F6DEE"/>
<path d="M99.958 29.7031C99.648 29.7031 99.368 29.8131 99.118 30.0431C98.878 30.2731 98.748 30.5631 98.748 30.9031V51.8931C98.748 52.2331 98.868 52.5231 99.108 52.7631C99.348 53.0031 99.628 53.1231 99.948 53.1231H112.178C112.518 53.1231 112.808 53.0031 113.038 52.7531C113.258 52.5131 113.378 52.2231 113.378 51.8931V50.1731C113.378 49.8331 113.258 49.5531 113.038 49.3231C112.808 49.0931 112.518 48.9831 112.178 48.9831H103.548C103.448 48.9831 103.348 48.9531 103.248 48.8931C103.148 48.8331 103.058 48.7431 102.998 48.6431C102.938 48.5431 102.908 48.4431 102.908 48.3131V30.9131C102.908 30.6931 102.858 30.4931 102.758 30.3031C102.658 30.1131 102.508 29.9631 102.318 29.8631C102.138 29.7631 101.928 29.7131 101.708 29.7131H99.938L99.958 29.7031Z" fill="#3F6DEE"/>
<path d="M116.948 29.6914C116.628 29.6914 116.348 29.8014 116.118 30.0314C115.878 30.2614 115.748 30.5514 115.748 30.8914V51.9214C115.748 52.2614 115.868 52.5514 116.118 52.7814C116.358 53.0114 116.638 53.1214 116.948 53.1214H118.718C119.058 53.1214 119.348 53.0014 119.578 52.7814C119.808 52.5514 119.928 52.2614 119.928 51.9214V30.8914C119.928 30.5514 119.808 30.2714 119.588 30.0414C119.358 29.8114 119.068 29.7014 118.728 29.7014H116.958L116.948 29.6914Z" fill="#3F6DEE"/>
<path d="M80.9082 4.60172C81.6282 4.77172 82.2581 4.93172 82.8481 5.10172L84.9781 5.68172L86.5382 1.12172C85.2082 0.711719 83.8481 0.341719 82.4781 0.0117188L80.9082 4.61172V4.60172Z" fill="#3F6DEE"/>
<path d="M58.4875 12.2131C57.2175 12.2131 56.1875 13.2431 56.1875 14.5131C56.1875 15.7831 57.2175 16.8131 58.4875 16.8031C59.7575 16.8031 60.7876 15.7731 60.7876 14.5031C60.7876 13.2331 59.7575 12.2031 58.4875 12.2031V12.2131Z" fill="#3F6DEE"/>
<path d="M67.668 14.5109C67.668 15.7809 68.6979 16.8109 69.9679 16.8109C71.2379 16.8109 72.2679 15.7809 72.2679 14.5109C72.2679 13.2409 71.2379 12.2109 69.9679 12.2109C68.6979 12.2109 67.668 13.2409 67.668 14.5109Z" fill="#3F6DEE"/>
<path d="M42.0684 1.6825L48.4285 20.2625L48.5184 20.4725C48.6584 20.7725 50.0184 23.5425 53.6584 24.2825C55.8484 24.7325 60.2284 24.9425 63.5184 25.0425L64.2284 25.0625L64.9584 25.0425C68.2284 24.9425 72.5784 24.7225 74.7684 24.2725C78.3584 23.5325 79.7284 20.8425 79.9084 20.4625L84.2784 7.6025L82.1284 7.0125C74.6384 4.9625 67.6085 4.5925 64.9285 4.5325C64.6485 4.5325 64.4185 4.5225 64.1685 4.5225C63.9785 4.5225 63.7484 4.5225 63.4684 4.5325H62.9285C57.1685 4.5325 50.2885 6.1825 50.2885 6.1825L51.6584 10.1825C51.6584 10.1825 58.8684 8.7425 62.9084 8.7425L64.1785 8.7125H64.8284C66.8984 8.7725 72.3584 9.0425 78.4684 10.4225L78.8584 10.5125L76.0485 18.7825C75.8385 19.1125 75.2085 19.9125 73.9185 20.1825C72.4585 20.4825 69.1284 20.7325 64.7684 20.8625L64.2184 20.8825L63.5984 20.8625C59.2684 20.7325 55.9484 20.4825 54.4984 20.1825C53.1684 19.9125 52.5384 19.0625 52.3784 18.8025L52.3384 18.7225L46.1284 0.5625C44.7584 0.9025 43.3984 1.2725 42.0684 1.6725V1.6825Z" fill="#3F6DEE"/>
<path d="M124.368 31.3431H124.588C124.898 31.3431 125.098 31.3531 125.178 31.3831C125.258 31.4131 125.318 31.4531 125.368 31.5131C125.408 31.5731 125.438 31.6431 125.438 31.7131C125.438 31.7831 125.418 31.8631 125.368 31.9231C125.328 31.9831 125.258 32.0231 125.188 32.0531C125.108 32.0731 124.918 32.0931 124.598 32.0931H124.378V31.3531L124.368 31.3431ZM123.818 30.9131V33.6231H124.368V32.5131H124.508C124.658 32.5131 124.788 32.5531 124.888 32.6331C124.988 32.7131 125.118 32.8931 125.268 33.1931L125.498 33.6331H126.178L125.858 33.0831C125.748 32.8931 125.678 32.7831 125.658 32.7531C125.578 32.6531 125.518 32.5831 125.478 32.5431C125.438 32.5031 125.368 32.4731 125.288 32.4431C125.518 32.4131 125.698 32.3231 125.828 32.1831C125.958 32.0431 126.018 31.8731 126.018 31.6831C126.018 31.5431 125.988 31.4131 125.918 31.2931C125.848 31.1731 125.768 31.0931 125.668 31.0331C125.568 30.9731 125.428 30.9431 125.238 30.9231C125.178 30.9231 124.888 30.9231 124.368 30.9231H123.818V30.9131ZM123.958 34.0431C123.638 33.8631 123.378 33.6031 123.198 33.2831C123.018 32.9631 122.928 32.6131 122.928 32.2631C122.928 31.9131 123.018 31.5631 123.208 31.2331C123.398 30.9031 123.648 30.6531 123.968 30.4731C124.288 30.2931 124.628 30.2131 124.978 30.2131C125.328 30.2131 125.668 30.3031 125.988 30.4731C126.308 30.6531 126.568 30.9031 126.748 31.2331C126.938 31.5631 127.028 31.9031 127.028 32.2631C127.028 32.6231 126.938 32.9631 126.758 33.2831C126.578 33.6031 126.318 33.8631 125.998 34.0431C125.678 34.2231 125.328 34.3131 124.978 34.3131C124.628 34.3131 124.278 34.2231 123.958 34.0431ZM123.708 30.0331C123.308 30.2531 122.988 30.5631 122.758 30.9731C122.528 31.3831 122.408 31.8131 122.408 32.2531C122.408 32.6931 122.518 33.1231 122.748 33.5231C122.978 33.9231 123.288 34.2431 123.698 34.4631C124.098 34.6931 124.528 34.8031 124.968 34.8031C125.408 34.8031 125.838 34.6931 126.238 34.4631C126.638 34.2431 126.958 33.9231 127.188 33.5231C127.418 33.1231 127.528 32.6931 127.528 32.2531C127.528 31.8131 127.418 31.3831 127.178 30.9731C126.948 30.5631 126.628 30.2531 126.228 30.0331C125.828 29.8131 125.408 29.7031 124.968 29.7031C124.528 29.7031 124.108 29.8131 123.708 30.0331Z" fill="#3F6DEE"/>
</svg>
