<svg width="328" height="56" viewBox="0 0 328 56" fill="none" xmlns="http://www.w3.org/2000/svg">
<path d="M127.281 35.0016C127.681 33.8016 128.081 32.7016 128.081 31.7016C128.081 27.4016 125.581 24.8016 120.281 23.9016L113.381 22.5016C110.281 21.9016 108.881 20.7016 108.881 18.6016C108.881 17.2016 109.481 16.1016 110.881 15.3016C113.081 13.9016 116.181 13.7016 119.481 14.9016C120.881 15.3016 122.181 16.3016 123.581 17.2016L126.481 13.5016C124.481 12.1016 122.781 11.3016 120.981 10.6016C118.981 10.0016 117.081 9.60156 114.881 9.60156C111.381 9.60156 108.381 10.6016 106.281 12.5016C104.181 14.4016 103.181 16.6016 103.181 19.4016C103.181 21.6016 103.981 23.3016 105.381 24.7016C106.981 26.1016 109.881 27.0016 113.981 27.8016L117.881 28.6016C119.281 28.8016 120.381 29.4016 121.181 30.0016C122.181 30.8016 122.581 31.8016 122.581 32.9016C122.581 34.1016 121.981 35.1016 120.581 36.0016C119.181 37.0016 117.681 37.4016 115.681 37.4016C113.881 37.4016 111.981 37.0016 110.181 36.0016C108.581 35.2016 107.081 34.2016 105.881 33.1016L101.781 36.4016C105.881 39.7016 110.381 41.3016 115.081 41.3016C117.281 41.3016 119.181 40.9016 120.781 40.3016C122.381 39.7016 123.681 38.9016 124.681 38.0016C125.881 37.2016 126.681 36.2016 127.281 35.0016Z" fill="white"/>
<path d="M157.577 48.6016C158.377 47.0016 158.977 45.1016 158.977 42.9016V10.6016H153.477V27.8016C153.477 30.5016 152.677 32.5016 151.277 34.1016C149.877 35.7016 147.777 36.4016 144.977 36.4016C142.677 36.4016 140.677 35.8016 139.277 34.4016C137.877 33.0016 136.977 30.9016 136.977 28.3016V10.6016H131.477V28.2016C131.477 32.3016 132.677 35.6016 134.977 38.0016C137.277 40.3016 140.077 41.7016 143.577 41.7016C150.577 41.7016 153.777 37.4016 153.777 37.4016V42.1016C153.777 44.8016 152.777 47.2016 151.277 48.6016C149.477 50.2016 147.377 50.9016 144.977 50.9016C143.377 50.9016 142.277 50.7016 140.877 49.9016C139.877 49.3016 138.677 48.5016 137.577 47.6016L132.877 50.5016C134.477 52.3016 136.177 53.6016 137.777 54.4016C139.577 55.4016 142.077 56.0016 145.177 56.0016C146.777 56.0016 148.277 55.6016 149.677 55.2016C151.277 54.6016 152.777 53.8016 154.177 52.7016C155.877 51.7016 156.877 50.3016 157.577 48.6016Z" fill="white"/>
<path d="M178.178 15.3016C180.678 15.3016 182.678 16.1016 184.078 17.5016C185.478 18.9016 186.278 21.0016 186.278 24.0016V40.8016H191.978V22.5016C191.978 20.7016 191.578 19.0016 190.978 17.4016C190.378 15.8016 189.378 14.5016 188.478 13.3016C187.578 12.1016 186.178 11.3016 184.778 10.6016C183.378 10.0016 181.878 9.60156 180.278 9.60156C178.278 9.60156 176.378 10.0016 174.778 10.8016C172.078 12.2016 169.878 14.3016 169.878 14.3016V10.4016H164.578V40.6016H170.078V23.7016C170.078 21.0016 170.878 19.0016 172.378 17.4016C173.878 16.1016 175.778 15.3016 178.178 15.3016Z" fill="white"/>
<path d="M225.378 34.9008L220.478 32.0008C219.478 33.4008 218.278 34.3008 217.178 35.1008C215.578 36.1008 214.078 36.5008 212.078 36.5008C208.978 36.5008 206.378 35.5008 204.478 33.4008C202.278 31.2008 201.378 28.7008 201.378 25.8008C201.378 22.9008 202.378 20.1008 204.478 18.2008C206.678 16.0008 209.178 15.1008 212.078 15.1008C214.078 15.1008 215.778 15.5008 217.178 16.5008C218.578 17.3008 219.478 18.3008 220.478 19.6008L225.378 16.7008C223.778 14.5008 222.078 13.0008 220.078 11.8008C217.878 10.4008 215.178 9.80078 212.278 9.80078C209.778 9.80078 207.378 10.2008 205.378 11.2008C203.178 12.2008 201.478 13.4008 200.078 14.7008C198.478 16.3008 197.578 18.0008 196.778 19.8008C195.978 21.8008 195.578 23.7008 195.578 25.7008C195.578 27.7008 195.978 29.6008 196.778 31.6008C197.578 33.6008 198.778 35.3008 200.078 36.7008C201.678 38.3008 203.378 39.4008 205.378 40.2008C207.578 41.2008 209.878 41.6008 212.278 41.6008C214.978 41.6008 217.778 40.8008 220.078 39.4008C222.278 38.4008 223.978 36.8008 225.378 34.9008Z" fill="white"/>
<path d="M231.778 36.6016C233.178 38.2016 235.678 39.7016 238.978 41.5016L241.278 37.2016L238.178 35.4016C236.978 34.8016 236.178 33.8016 235.878 32.9016C235.478 31.9016 235.078 30.6016 235.078 28.8016V15.7016H240.578V10.6016H235.078V0.601562L229.578 2.20156V30.0016C229.678 32.7016 230.478 35.0016 231.778 36.6016Z" fill="white"/>
<path d="M244.177 19.8016C243.377 21.8016 242.977 23.7016 242.977 25.7016C242.977 27.7016 243.377 29.6016 244.177 31.6016C244.977 33.6016 246.177 35.3016 247.477 36.7016C249.077 38.3016 250.777 39.4016 252.777 40.2016C254.977 41.2016 257.277 41.6016 259.677 41.6016C262.077 41.6016 264.977 40.8016 267.277 39.6016C269.477 38.4016 271.577 36.9016 273.377 34.7016L268.877 32.2016C266.377 35.3016 263.177 36.9016 259.677 36.9016C257.177 36.9016 254.777 36.1016 252.777 34.4016C250.777 32.6016 249.677 30.5016 249.477 28.1016V27.5016H275.477V26.9016C275.477 24.2016 275.077 21.6016 273.877 19.5016C272.877 17.3016 271.577 15.6016 269.977 14.2016C268.377 12.8016 266.677 11.7016 264.877 11.1016C263.077 10.3016 261.377 10.1016 259.777 10.1016C257.277 10.1016 254.877 10.5016 252.877 11.5016C250.877 12.5016 248.977 13.7016 247.577 15.0016C245.877 16.1016 244.777 17.8016 244.177 19.8016ZM249.277 22.3016C249.877 20.0016 251.077 18.0016 252.777 16.6016C254.577 15.2016 256.477 14.4016 258.877 14.4016C261.277 14.4016 263.177 15.0016 264.977 16.4016C266.777 17.8016 268.077 19.7016 268.677 22.1016L268.877 22.9016H249.077L249.277 22.3016Z" fill="white"/>
<path d="M290.777 15.3C291.177 15.3 291.577 15.5 292.377 15.7C292.577 15.7 292.977 15.9 293.177 16.1L295.177 10.6C294.377 10.2 292.877 10 291.677 10C290.477 10 289.377 10.4 288.377 11C287.377 11.8 285.477 14.3 285.477 14.3V10.6H279.977V40.8H285.477V20.6C285.477 19 286.077 17.9 287.077 16.7C288.177 15.7 289.377 15.3 290.777 15.3Z" fill="white"/>
<path d="M321.681 36.8008V40.7008H327.181V10.6008H321.681V14.5008C321.681 14.5008 317.381 9.80078 310.881 9.80078C308.581 9.80078 306.381 10.2008 304.381 11.2008C302.381 12.2008 300.681 13.4008 299.281 14.9008C297.881 16.4008 296.781 18.2008 295.981 20.0008C295.181 22.0008 294.781 23.7008 294.781 25.7008C294.781 27.7008 295.181 29.6008 295.781 31.6008C296.381 33.6008 297.581 35.3008 298.881 36.7008C300.281 38.3008 301.981 39.4008 303.981 40.4008C305.981 41.4008 308.081 41.8008 310.481 41.8008C317.381 41.5008 321.681 36.8008 321.681 36.8008ZM315.481 35.6008C314.081 36.2008 312.781 36.4008 311.581 36.4008C310.181 36.4008 308.881 36.0008 307.481 35.6008C306.081 35.0008 305.181 34.2008 304.181 33.3008C303.181 32.3008 302.381 31.1008 301.881 29.8008C301.281 28.4008 301.081 27.1008 301.081 25.7008C301.081 24.3008 301.281 22.8008 301.881 21.6008C302.481 20.2008 303.281 19.1008 304.181 18.1008C305.181 17.1008 306.381 16.3008 307.481 15.8008C309.981 14.8008 312.981 14.6008 315.481 15.8008C316.881 16.4008 317.781 17.2008 318.781 18.1008C319.781 19.1008 320.581 20.3008 320.981 21.6008C321.581 23.0008 321.781 24.3008 321.781 25.7008C321.781 27.1008 321.381 28.6008 320.981 29.8008C320.381 31.2008 319.581 32.3008 318.781 33.3008C317.981 34.3008 316.781 35.0008 315.481 35.6008Z" fill="white"/>
<path d="M17.3802 23.1L41.2802 14.5L42.8802 13.9V0L12.8802 10.8C2.78022 14.5 -2.51978 25.8 1.18022 36C4.08022 44.1 11.5802 49 19.7802 49C21.9802 49 24.2802 48.6 26.6802 47.8L29.7802 46.6L42.0802 42.1L43.0802 41.7V27.8L37.5802 29.8L25.2802 34.3L22.1802 35.5C21.3802 35.9 20.5802 35.9 19.9802 35.9C17.6802 35.9 14.8802 34.5 13.6802 31.6C12.8802 29.4 13.4802 27.5 13.8802 26.5C14.2802 25.7 15.2802 23.9 17.3802 23.1Z" fill="white"/>
<path d="M84.3766 19.7984C81.4766 11.6984 73.9766 6.89844 65.7766 6.89844C63.5766 6.89844 61.2766 7.29844 58.8766 8.09844L55.7766 9.29844L43.4766 13.7984L42.4766 14.1984V27.9984L47.9766 25.9984L60.2766 21.4984L63.3766 20.2984C64.1766 19.9984 64.9766 19.9984 65.5766 19.9984C67.8766 19.9984 70.6766 21.3984 71.8766 24.2984C72.6766 26.4984 72.0766 28.3984 71.6766 29.3984C71.2766 30.3984 70.0766 31.8984 67.9766 32.6984L42.6766 41.8984V55.7984L72.6766 44.9984C82.7766 41.2984 88.0766 29.9984 84.3766 19.7984Z" fill="white"/>
</svg>
