<svg width="105" height="34" viewBox="0 0 105 34" fill="none" xmlns="http://www.w3.org/2000/svg">
<path d="M45.3492 33.0806H36.9492L42.1992 0.640625H50.6092L45.3492 33.0806Z" fill="#3F6DEE"/>
<path d="M75.8079 1.43078C74.1479 0.770781 71.5179 0.0507812 68.2679 0.0507812C59.9679 0.0507812 54.1279 4.47078 54.0879 10.7808C54.0179 15.4408 58.2679 18.0308 61.4479 19.5808C64.6979 21.1708 65.8079 22.2008 65.8079 23.6208C65.7779 25.7908 63.1779 26.7908 60.7579 26.7908C57.4079 26.7908 55.6079 26.2708 52.8779 25.0608L51.7679 24.5408L50.5879 31.8208C52.5579 32.7208 56.1879 33.5108 59.9579 33.5508C68.7779 33.5508 74.5179 29.2008 74.5879 22.4708C74.6179 18.7808 72.3778 15.9508 67.5378 13.6408C64.5978 12.1608 62.7979 11.1608 62.7979 9.64078C62.8279 8.26078 64.3179 6.85078 67.6379 6.85078C70.3679 6.78078 72.3779 7.44078 73.8979 8.09078L74.6578 8.43078L75.7979 1.43078H75.8079Z" fill="#3F6DEE"/>
<path d="M97.3485 0.638906H90.8485C88.8485 0.638906 87.3186 1.22891 86.4586 3.32891L73.9785 33.0689H82.7985C82.7985 33.0689 84.2485 29.0689 84.5585 28.1989H95.3485C95.5885 29.3389 96.3485 33.0689 96.3485 33.0689H104.129L97.3485 0.628906V0.638906ZM86.9785 21.5889C87.6685 19.7289 90.3286 12.5089 90.3286 12.5089C90.2986 12.5789 91.0185 10.6089 91.4385 9.40891L92.0286 12.1989C92.0286 12.1989 93.6185 19.9589 93.9685 21.5889H86.9885H86.9785Z" fill="#3F6DEE"/>
<path d="M29.9277 0.638906L21.6978 22.7589L20.7977 18.2689C19.2777 13.0889 14.5077 7.46891 9.17773 4.66891L16.7177 33.0289H25.6077L38.8177 0.628906H29.9277V0.638906Z" fill="#3F6DEE"/>
<path d="M14.0584 0.640625H0.538391L0.398438 1.30062C10.9484 3.99062 17.9284 10.4806 20.7984 18.2806L17.8584 3.37062C17.3784 1.30062 15.8884 0.710625 14.0584 0.640625Z" fill="#3F6DEE"/>
</svg>
