<svg width="48" height="48" viewBox="0 0 48 48" fill="none" xmlns="http://www.w3.org/2000/svg">
<path d="M38.97 0H8.17C3.65783 0 0 3.65783 0 8.17V38.97C0 43.4822 3.65783 47.14 8.17 47.14H38.97C43.4822 47.14 47.14 43.4822 47.14 38.97V8.17C47.14 3.65783 43.4822 0 38.97 0Z" fill="#ECF2FB"/>
<path d="M18.6926 28.8912C18.5826 28.8912 18.4726 28.8612 18.3826 28.8012L11.1826 24.1412C11.0126 24.0312 10.9126 23.8512 10.9226 23.6512C10.9226 23.4512 11.0226 23.2712 11.1926 23.1612L18.3926 18.6712C18.6626 18.5012 19.0226 18.5812 19.1926 18.8512C19.3626 19.1212 19.2826 19.4812 19.0126 19.6512L12.5826 23.6612L19.0126 27.8312C19.2826 28.0012 19.3526 28.3612 19.1826 28.6312C19.0726 28.8012 18.8826 28.8912 18.6926 28.8912Z" fill="#3EA8BD"/>
<path d="M28.4525 28.8912C28.2625 28.8912 28.0825 28.8012 27.9625 28.6312C27.7925 28.3612 27.8625 28.0012 28.1325 27.8312L34.5625 23.6612L28.1325 19.6512C27.8625 19.4812 27.7825 19.1212 27.9525 18.8512C28.1225 18.5812 28.4825 18.5012 28.7525 18.6712L35.9525 23.1612C36.1225 23.2612 36.2225 23.4512 36.2225 23.6512C36.2225 23.8512 36.1225 24.0312 35.9625 24.1412L28.7625 28.8012C28.6625 28.8612 28.5525 28.8912 28.4525 28.8912Z" fill="#3EA8BD"/>
</svg>
