<svg width="228" height="42" viewBox="0 0 228 42" fill="none" xmlns="http://www.w3.org/2000/svg">
<g clip-path="url(#clip0_210_14642)">
<path d="M6.15 0.0117188V41.0617L0 34.9017V6.16172L6.15 0.0117188Z" fill="#ECF2FB"/>
<path d="M29.9708 13.8984V15.9784C29.9708 17.0984 29.0808 18.0084 27.9608 18.0184H11.5508V11.8984H27.9608C28.3008 11.8984 28.6408 11.9884 28.9308 12.1584C29.5608 12.5084 29.9608 13.1684 29.9608 13.8984H29.9708Z" fill="#ECF2FB"/>
<path d="M29.9708 24.6003V26.6803C29.9708 27.7803 29.0808 28.6803 27.9808 28.6903C27.9808 28.6903 27.9808 28.6903 27.9708 28.6903H11.5508V22.5703H27.9608C29.0708 22.5703 29.9708 23.4903 29.9708 24.6003Z" fill="#ECF2FB"/>
<path d="M41.04 6.12H0L6.15 0H34.9L37.98 3.07L41.04 6.12Z" fill="#ECF2FB"/>
<path d="M41.04 34.9102V34.9202L34.9 41.0502V41.0402V41.0302H6.15V41.0402L0 34.9102H41.04Z" fill="#ECF2FB"/>
<path d="M41.0894 27.0195V34.8995L41.0594 34.9095H41.0494L34.8894 41.0495H34.8594V41.0595V27.0195H41.0894Z" fill="#ECF2FB"/>
<path d="M41.0894 6.15V14.01H34.8594V0L37.9794 3.08L41.0894 6.15Z" fill="#ECF2FB"/>
<path d="M83.1207 13.5592L80.3807 16.2992C78.5607 14.2492 76.4107 13.2192 74.0707 13.2192C72.1907 13.1892 70.3807 13.9492 69.1007 15.3292C67.7607 16.7192 67.0207 18.5892 67.0707 20.5292C67.0407 21.8592 67.3407 23.1692 67.9607 24.3492C68.5507 25.4492 69.4307 26.3592 70.5107 26.9792C71.6207 27.6192 72.8807 27.9392 74.1607 27.9192C75.2307 27.9292 76.3007 27.7092 77.2707 27.2592C78.4407 26.6292 79.4907 25.8092 80.3807 24.8292L83.0407 27.7092C81.8107 29.0392 80.3507 30.1392 78.7307 30.9392C77.2707 31.5592 75.6907 31.8592 74.1007 31.8292C71.1507 31.9292 68.3007 30.7792 66.2507 28.6592C64.1907 26.4592 63.1007 23.5292 63.2107 20.5292C63.1707 18.5392 63.6507 16.5692 64.6107 14.8192C65.5507 13.1392 66.9307 11.7492 68.6007 10.7992C70.2807 9.7992 72.2007 9.2792 74.1507 9.2892C75.8507 9.2892 77.5307 9.6692 79.0607 10.4292C80.6407 11.1392 82.0207 12.2192 83.0807 13.5692" fill="#ECF2FB"/>
<path d="M86.1504 9.21875H89.9704V16.9587C90.6404 16.3387 91.4004 15.8287 92.2304 15.4487C92.9504 15.1087 93.7304 14.9388 94.5204 14.9288C95.9804 14.8987 97.3704 15.5087 98.3404 16.5887C99.2304 17.5287 99.6804 18.9288 99.6804 20.7587V31.2588H95.9104V24.3087C95.9604 23.0587 95.8704 21.8087 95.6504 20.5687C95.5304 19.9987 95.2304 19.4888 94.7904 19.1088C94.3504 18.7788 93.8204 18.6088 93.2804 18.6188C92.5304 18.5988 91.8104 18.8888 91.2804 19.4187C90.6904 20.0188 90.2904 20.7888 90.1404 21.6088C89.9904 22.6988 89.9304 23.7987 89.9704 24.8987V31.2687H86.1804V9.21875" fill="#ECF2FB"/>
<path d="M118.61 24.4988H106.34C106.46 25.5388 106.97 26.4988 107.77 27.1788C108.59 27.8588 109.64 28.2188 110.71 28.1788C112.09 28.1788 113.42 27.6188 114.36 26.6088L117.59 28.1788C116.87 29.2888 115.88 30.1988 114.71 30.8088C113.46 31.4088 112.09 31.6988 110.71 31.6688C108.52 31.7488 106.4 30.8888 104.89 29.2988C103.38 27.7088 102.56 25.5788 102.63 23.3888C102.54 21.1388 103.36 18.9588 104.89 17.3088C106.33 15.7288 108.38 14.8388 110.51 14.8788C112.72 14.8088 114.85 15.6988 116.36 17.3088C117.87 18.9088 118.62 21.0188 118.62 23.6688V24.4988H118.61ZM114.78 21.3188C114.54 20.4488 114.02 19.6888 113.3 19.1588C112.55 18.6088 111.64 18.3088 110.7 18.3288C109.69 18.3188 108.7 18.6488 107.9 19.2688C107.28 19.8388 106.8 20.5388 106.5 21.3188H114.78Z" fill="#ECF2FB"/>
<path d="M136.591 18.587L133.421 20.407C132.931 19.837 132.331 19.367 131.651 19.037C131.001 18.767 130.301 18.647 129.601 18.667C127.091 18.537 124.961 20.467 124.831 22.977C124.831 23.127 124.831 23.277 124.831 23.437C124.721 25.867 126.611 27.927 129.041 28.037C129.191 28.037 129.341 28.037 129.481 28.037C131.031 28.117 132.521 27.437 133.481 26.217L136.481 28.357C134.871 30.547 132.281 31.787 129.571 31.667C126.891 31.667 124.801 30.837 123.291 29.177C120.751 26.427 120.281 22.357 122.121 19.097C122.861 17.827 123.921 16.777 125.211 16.057C127.851 14.627 131.021 14.567 133.721 15.877C134.891 16.537 135.891 17.467 136.631 18.597" fill="#ECF2FB"/>
<path d="M140.08 9.21875H143.9V21.9187L149.54 15.3488H154.34L147.79 22.9687L155.13 31.2487H150.39L143.94 23.9087V31.2487H140.12V9.21875" fill="#ECF2FB"/>
<path d="M160.481 9.21875V17.1188C161.121 16.4388 161.871 15.8887 162.711 15.4887C163.511 15.1187 164.391 14.9387 165.281 14.9487C167.241 14.9487 169.111 15.8087 170.361 17.3187C171.801 19.0087 172.541 21.1787 172.451 23.3987C172.521 25.5787 171.751 27.6988 170.311 29.3288C169.051 30.8588 167.181 31.7488 165.201 31.7588C164.371 31.7588 163.541 31.5887 162.771 31.2687C161.921 30.8587 161.141 30.3088 160.491 29.6188V31.2987H156.701V9.21875H160.491H160.481ZM164.511 18.6387C163.371 18.6087 162.271 19.0787 161.511 19.9187C160.681 20.8387 160.241 22.0488 160.291 23.2888C160.241 24.5488 160.671 25.7687 161.511 26.7087C162.271 27.5687 163.371 28.0487 164.511 28.0187C165.641 28.0287 166.721 27.5387 167.451 26.6787C168.271 25.7487 168.711 24.5288 168.671 23.2888C168.721 22.0688 168.301 20.8688 167.501 19.9488C166.751 19.0988 165.671 18.6187 164.531 18.6387H164.511Z" fill="#ECF2FB"/>
<path d="M182.761 14.9574C184.191 14.9574 185.601 15.3474 186.811 16.0974C188.061 16.8274 189.081 17.8774 189.781 19.1374C190.491 20.4074 190.851 21.8474 190.841 23.2974C190.841 24.7774 190.481 26.2474 189.781 27.5574C189.101 28.8174 188.101 29.8674 186.871 30.5974C185.641 31.3374 184.221 31.7274 182.781 31.7074C180.651 31.7174 178.621 30.8374 177.181 29.2774C175.661 27.6874 174.831 25.5674 174.871 23.3674C174.821 21.0174 175.781 18.7574 177.501 17.1574C178.871 15.7274 180.771 14.9374 182.751 14.9574H182.761ZM182.821 18.7274C181.691 18.7074 180.601 19.1674 179.851 20.0074C179.041 20.9174 178.631 22.1074 178.681 23.3174C178.621 24.5474 179.041 25.7574 179.851 26.6874C180.601 27.5274 181.691 27.9974 182.821 27.9574C183.961 27.9874 185.051 27.5074 185.791 26.6474C186.621 25.7374 187.061 24.5374 187.011 23.3074C187.061 22.0974 186.651 20.9074 185.841 19.9974C185.071 19.1574 183.981 18.6874 182.841 18.7174L182.821 18.7374V18.7274Z" fill="#ECF2FB"/>
<path d="M201.081 14.9593C202.511 14.9593 203.921 15.3493 205.131 16.0993C206.381 16.8293 207.401 17.8793 208.101 19.1393C208.801 20.4093 209.171 21.8493 209.151 23.2993C209.151 24.7793 208.791 26.2393 208.101 27.5593C207.421 28.8193 206.411 29.8693 205.191 30.5993C203.961 31.3393 202.541 31.7293 201.101 31.7093C198.981 31.7193 196.951 30.8393 195.511 29.2793C193.981 27.6993 193.151 25.5693 193.191 23.3693C193.141 21.0193 194.091 18.7493 195.821 17.1493C197.201 15.7393 199.101 14.9393 201.071 14.9493L201.081 14.9593ZM201.141 18.7293C200.011 18.7093 198.931 19.1793 198.171 20.0093C197.361 20.9193 196.951 22.1093 197.001 23.3193C196.941 24.5493 197.361 25.7593 198.171 26.6893C198.931 27.5293 200.011 27.9893 201.141 27.9593C202.281 27.9893 203.371 27.5093 204.111 26.6493C204.941 25.7393 205.381 24.5393 205.331 23.3093C205.381 22.0993 204.971 20.9093 204.161 19.9993C203.401 19.1493 202.301 18.6793 201.161 18.7193L201.141 18.7393V18.7293Z" fill="#ECF2FB"/>
<path d="M212.311 9.21875H216.131V21.9187L221.751 15.3488H226.551L220.021 22.9687L227.361 31.2487H222.621L216.171 23.9087V31.2487H212.351V9.21875" fill="#ECF2FB"/>
<path opacity="0.3" d="M34.8999 34.8984H25.6699V41.0384H34.8999V34.8984Z" fill="#ECF2FB"/>
<path opacity="0.3" d="M34.8999 0H25.6699V6.14H34.8999V0Z" fill="#ECF2FB"/>
<path opacity="0.3" d="M6.14 6.14062H0V13.9906H6.14V6.14062Z" fill="#ECF2FB"/>
<path opacity="0.3" d="M6.14 27.0391H0V34.8891H6.14V27.0391Z" fill="#ECF2FB"/>
</g>
<defs>
<clipPath id="clip0_210_14642">
<rect width="227.35" height="41.06" fill="white"/>
</clipPath>
</defs>
</svg>
