<svg width="212" height="40" viewBox="0 0 212 40" fill="none" xmlns="http://www.w3.org/2000/svg">
<path d="M70.9783 13.207L68.3047 15.8806C66.4994 13.8823 64.4322 12.8762 62.1583 12.8762C60.2427 12.8762 58.6303 13.5653 57.321 14.9297C56.0118 16.294 55.3503 17.9891 55.3503 19.9874C55.3503 21.3793 55.6259 22.6334 56.2185 23.7084C56.7973 24.7971 57.638 25.6515 58.6992 26.2717C59.7603 26.8781 60.9455 27.195 62.2547 27.195C63.371 27.195 64.3633 26.9745 65.2866 26.5611C66.21 26.1201 67.2022 25.3345 68.3185 24.1907L70.9094 27.0021C69.4348 28.5043 68.0153 29.5654 66.7061 30.1442C65.3969 30.723 63.8947 31.0125 62.1996 31.0125C59.085 31.0125 56.5217 29.9789 54.551 27.9254C52.5803 25.872 51.5742 23.226 51.5742 20.0012C51.5742 17.9202 52.0152 16.0459 52.9386 14.4335C53.8344 12.8211 55.1298 11.5119 56.8387 10.5059C58.5338 9.49981 60.3391 9.03125 62.2961 9.03125C63.9636 9.03125 65.5485 9.38956 67.0782 10.1475C68.5804 10.809 69.9172 11.8426 71.0059 13.207" fill="white"/>
<path d="M73.9278 8.98438H77.6212V16.5228C78.3379 15.8613 79.0958 15.3789 79.8125 15.0482C80.5291 14.7174 81.2871 14.552 82.0313 14.552C83.5059 14.552 84.76 15.0757 85.7522 16.1644C86.6204 17.0878 87.0614 18.4384 87.0614 20.2299V30.4694H83.3956V23.689C83.3956 21.8837 83.3129 20.6847 83.1475 20.0508C82.9822 19.4168 82.7065 18.9345 82.3069 18.6313C81.921 18.3281 81.4111 18.1627 80.8323 18.1627C80.0743 18.1627 79.4128 18.4108 78.8891 18.9483C78.3654 19.472 77.9658 20.1748 77.7728 21.0844C77.6626 21.5529 77.6075 22.6141 77.6075 24.2816V30.5108H73.9141V8.98438" fill="white"/>
<path d="M105.543 23.8649H93.5813C93.7467 24.9812 94.2152 25.8356 94.9732 26.4833C95.7174 27.1173 96.6683 27.4618 97.8397 27.4618C99.2316 27.4618 100.431 26.9657 101.423 25.9321L104.565 27.4618C103.779 28.6332 102.842 29.4601 101.754 30.0251C100.665 30.5764 99.3557 30.8658 97.8535 30.8658C95.5107 30.8658 93.6226 30.0803 92.1756 28.5643C90.701 27.0346 89.9844 25.119 89.9844 22.8037C89.9844 20.4885 90.701 18.4626 92.1756 16.9053C93.6502 15.348 95.4556 14.5625 97.6606 14.5625C100.003 14.5625 101.891 15.3343 103.366 16.9053C104.841 18.4626 105.557 20.516 105.557 23.1069L105.53 23.8925L105.543 23.8649ZM101.823 20.7779C101.574 19.9097 101.106 19.2206 100.375 18.6693C99.6589 18.1456 98.8182 17.8562 97.8397 17.8562C96.8061 17.8562 95.8966 18.1594 95.111 18.7796C94.6149 19.1655 94.1601 19.8407 93.7467 20.7779H101.809H101.823Z" fill="white"/>
<path d="M123.056 18.1144L119.969 19.8922C119.39 19.2582 118.798 18.8035 118.246 18.5554C117.695 18.3073 117.02 18.1971 116.248 18.1971C114.856 18.1971 113.712 18.6381 112.886 19.5063C112.017 20.3745 111.604 21.477 111.604 22.8414C111.604 24.2057 112.017 25.2393 112.858 26.0662C113.699 26.9069 114.774 27.3203 116.11 27.3203C117.778 27.3203 119.06 26.7415 120.01 25.5425L122.932 27.6235C121.347 29.7596 119.101 30.8483 116.207 30.8483C113.588 30.8483 111.563 30.0352 110.088 28.4228C108.613 26.8104 107.869 24.9224 107.869 22.7449C107.869 21.2428 108.227 19.8508 108.958 18.5967C109.674 17.3426 110.681 16.3504 111.962 15.62C113.244 14.9033 114.691 14.5312 116.276 14.5312C117.75 14.5312 119.06 14.8344 120.259 15.4546C121.402 16.0885 122.34 16.9843 123.097 18.1006" fill="white"/>
<path d="M126.461 8.98438H130.182V21.36L135.667 14.9655H140.339L133.972 22.3936L141.124 30.4557H136.508L130.223 23.3032V30.4557H126.502V8.98438" fill="white"/>
<path d="M146.307 8.98438V16.6881C146.968 15.9991 147.699 15.4616 148.47 15.1033C149.256 14.745 150.083 14.5796 150.979 14.5796C152.922 14.5796 154.562 15.3651 155.926 16.8811C157.29 18.4108 157.952 20.3815 157.952 22.7795C157.952 25.1774 157.263 27.0103 155.871 28.5676C154.479 30.1249 152.811 30.9104 150.896 30.9104C150.028 30.9104 149.256 30.7451 148.498 30.4419C147.781 30.1111 147.023 29.6012 146.307 28.8846V30.5246H142.613V8.98438H146.307ZM150.234 18.1627C149.063 18.1627 148.098 18.5762 147.313 19.4168C146.541 20.2575 146.141 21.3324 146.141 22.6968C146.141 24.0611 146.527 25.205 147.313 26.0319C148.098 26.9001 149.063 27.3135 150.234 27.3135C151.406 27.3135 152.315 26.8725 153.101 26.0043C153.886 25.1361 154.272 24.0336 154.272 22.6968C154.272 21.36 153.886 20.2713 153.128 19.4444C152.384 18.6037 151.406 18.1627 150.234 18.1627Z" fill="white"/>
<path d="M168.039 14.5781C169.431 14.5781 170.768 14.9364 171.995 15.6944C173.221 16.411 174.186 17.4171 174.889 18.6712C175.578 19.9253 175.922 21.2896 175.922 22.7367C175.922 24.1837 175.564 25.5756 174.889 26.8573C174.2 28.1389 173.249 29.1036 172.05 29.834C170.851 30.5507 169.514 30.9228 168.067 30.9228C165.959 30.9228 164.112 30.1097 162.61 28.5524C161.107 26.9675 160.363 25.0519 160.363 22.7918C160.363 20.3663 161.232 18.3404 162.927 16.728C164.374 15.281 166.096 14.5919 168.039 14.5919V14.5781ZM168.095 18.244C166.923 18.244 165.986 18.6574 165.201 19.4981C164.429 20.3387 164.057 21.4137 164.057 22.7229C164.057 24.0321 164.443 25.176 165.201 26.0028C165.945 26.8435 166.923 27.2569 168.095 27.2569C169.266 27.2569 170.231 26.8435 170.989 25.9753C171.774 25.1346 172.16 24.0597 172.16 22.7229C172.16 21.3861 171.774 20.2974 171.016 19.4981C170.231 18.6574 169.266 18.244 168.095 18.244Z" fill="white"/>
<path d="M185.887 14.5781C187.279 14.5781 188.616 14.9364 189.842 15.6944C191.069 16.411 192.034 17.4171 192.736 18.6712C193.426 19.9253 193.77 21.2896 193.77 22.7367C193.77 24.1837 193.412 25.5756 192.736 26.8573C192.047 28.1389 191.096 29.1036 189.897 29.834C188.699 30.5507 187.362 30.9228 185.915 30.9228C183.806 30.9228 181.959 30.1097 180.457 28.5524C178.955 26.9675 178.211 25.0519 178.211 22.7918C178.211 20.3663 179.079 18.3404 180.774 16.728C182.249 15.281 183.972 14.5919 185.887 14.5919V14.5781ZM185.942 18.244C184.798 18.244 183.834 18.6574 183.048 19.4981C182.276 20.3387 181.904 21.4137 181.904 22.7229C181.904 24.0321 182.29 25.176 183.048 26.0028C183.792 26.8435 184.771 27.2569 185.942 27.2569C187.114 27.2569 188.078 26.8435 188.836 25.9753C189.622 25.1346 190.008 24.0597 190.008 22.7229C190.008 21.3861 189.622 20.2974 188.864 19.4981C188.106 18.6574 187.141 18.244 185.942 18.244Z" fill="white"/>
<path d="M196.814 8.98438H200.535V21.36L206.02 14.9655H210.692L204.325 22.3936L211.478 30.4557H206.861L200.577 23.3032V30.4557H196.856V8.98438" fill="white"/>
<path d="M5.99487 0V39.9934L0 33.9985V5.99487L5.99487 0Z" fill="white"/>
<path d="M29.1995 13.5369V15.5628C29.1995 16.6791 28.3175 17.5473 27.2287 17.5473H11.2148V11.5938H27.2287C27.587 11.5938 27.904 11.6627 28.1796 11.828C28.786 12.1726 29.1857 12.8065 29.1857 13.5369H29.1995Z" fill="white"/>
<path d="M29.1995 23.9707V25.9966C29.1995 27.1129 28.3175 27.9535 27.2287 27.9535H11.2148V22H27.2287C28.345 22 29.1995 22.8958 29.1995 23.9707Z" fill="white"/>
<path d="M39.9796 5.96731H0L5.99487 0H33.9985L37.0028 2.99055L39.9796 5.96731Z" fill="white"/>
<path d="M39.9796 34.0156L33.9985 39.9967V39.9829V39.9692H5.99487V39.9829L0 34.0156H39.9796Z" fill="white"/>
<path d="M40.0208 26.3281V34.0043L40.007 34.0181H39.9933L33.9846 39.9992H33.957V26.3281H40.0208Z" fill="white"/>
<path d="M40.0208 5.99487V13.6573H33.957V0L37.0027 3.00433L40.0208 5.99487Z" fill="white"/>
<path style="mix-blend-mode:multiply" opacity="0.3" d="M33.9953 34H24.9961V39.9811H33.9953V34Z" fill="url(#paint0_linear_725_38235)"/>
<path style="mix-blend-mode:multiply" opacity="0.3" d="M33.9972 0H24.998V5.98109H33.9972V0Z" fill="url(#paint1_linear_725_38235)"/>
<path style="mix-blend-mode:multiply" opacity="0.3" d="M5.98109 5.98438H0V13.633H5.98109V5.98438Z" fill="url(#paint2_linear_725_38235)"/>
<path style="mix-blend-mode:multiply" opacity="0.3" d="M5.98109 26.3438H0V33.9924H5.98109V26.3438Z" fill="url(#paint3_linear_725_38235)"/>
<defs>
<linearGradient id="paint0_linear_725_38235" x1="24.9961" y1="36.9905" x2="33.9953" y2="36.9905" gradientUnits="userSpaceOnUse">
<stop stop-color="white"/>
<stop offset="1"/>
</linearGradient>
<linearGradient id="paint1_linear_725_38235" x1="92.7883" y1="2.99055" x2="94.1665" y2="2.99055" gradientUnits="userSpaceOnUse">
<stop stop-color="white"/>
<stop offset="1"/>
</linearGradient>
<linearGradient id="paint2_linear_725_38235" x1="2.99055" y1="13.633" x2="2.99055" y2="5.98438" gradientUnits="userSpaceOnUse">
<stop stop-color="white"/>
<stop offset="1"/>
</linearGradient>
<linearGradient id="paint3_linear_725_38235" x1="2.99055" y1="26.3438" x2="2.99055" y2="34.0062" gradientUnits="userSpaceOnUse">
<stop stop-color="white"/>
<stop offset="1"/>
</linearGradient>
</defs>
</svg>
